<?xml version="1.0" encoding="UTF-8" standalone="no"?>
<!-- Created with matplotlib (http://matplotlib.org/) -->

<svg
   xmlns:dc="http://purl.org/dc/elements/1.1/"
   xmlns:cc="http://creativecommons.org/ns#"
   xmlns:rdf="http://www.w3.org/1999/02/22-rdf-syntax-ns#"
   xmlns:svg="http://www.w3.org/2000/svg"
   xmlns="http://www.w3.org/2000/svg"
   xmlns:xlink="http://www.w3.org/1999/xlink"
   xmlns:sodipodi="http://sodipodi.sourceforge.net/DTD/sodipodi-0.dtd"
   xmlns:inkscape="http://www.inkscape.org/namespaces/inkscape"
   height="432pt"
   version="1.1"
   viewBox="0 0 576 432"
   width="576pt"
   id="svg25065"
   inkscape:version="0.48.2 r9819"
   sodipodi:docname="contact-point6s-final-point5contact-tau.svg">
  <metadata
     id="metadata25373">
    <rdf:RDF>
      <cc:Work
         rdf:about="">
        <dc:format>image/svg+xml</dc:format>
        <dc:type
           rdf:resource="http://purl.org/dc/dcmitype/StillImage" />
      </cc:Work>
    </rdf:RDF>
  </metadata>
  <sodipodi:namedview
     pagecolor="#ffffff"
     bordercolor="#666666"
     borderopacity="1"
     objecttolerance="10"
     gridtolerance="10"
     guidetolerance="10"
     inkscape:pageopacity="0"
     inkscape:pageshadow="2"
     inkscape:window-width="1440"
     inkscape:window-height="825"
     id="namedview25371"
     showgrid="false"
     inkscape:zoom="0.87407407"
     inkscape:cx="416.21227"
     inkscape:cy="233.00116"
     inkscape:window-x="0"
     inkscape:window-y="24"
     inkscape:window-maximized="1"
     inkscape:current-layer="svg25065" />
  <defs
     id="defs25067">
    <style
       type="text/css"
       id="style25069">
*{stroke-linecap:square;stroke-linejoin:round;}
  </style>
  </defs>
  <g
     style="stroke-linecap:square;stroke-linejoin:round"
     id="axes_1">
    <g
       style="stroke-linecap:square;stroke-linejoin:round"
       id="patch_2">
      <path
         inkscape:connector-curvature="0"
         id="path25077"
         style="fill:#ffffff;stroke-linecap:square;stroke-linejoin:round"
         d="m 72,388.8 446.4,0 0,-345.6 -446.4,0 z" />
    </g>
    <g
       style="stroke-linecap:square;stroke-linejoin:round"
       id="line2d_1">
      <path
         inkscape:connector-curvature="0"
         id="path25080"
         style="fill:none;stroke:#0000ff;stroke-width:1.5;stroke-linecap:square;stroke-linejoin:round"
         d="m 72,259.2 1.5624,14.829 1.5624,12.614 1.3392,9.047 1.3392,7.415 1.116,4.932 0.8928,3.127 0.8928,2.399 0.6696,1.321 0.6696,0.911 0.6696,0.499 0.4464,0.105 0.4464,-0.079 0.4464,-0.262 0.6696,-0.736 0.6696,-1.149 0.6696,-1.562 0.8928,-2.727 0.8928,-3.463 1.116,-5.366 1.116,-6.52 1.3392,-9.351 1.3392,-11.018 1.7856,-15.237 1.7856,-1.976 1.7856,-1.619 1.5624,-1.126 1.5622,-0.858 1.563,-0.592 1.562,-0.325 1.339,-0.068 1.339,0.127 1.34,0.322 1.562,0.625 1.562,0.893 1.563,1.167 1.562,1.442 1.563,1.723 0.446,0.544 1.786,-4.123 1.562,-3.05 1.339,-2.196 1.339,-1.804 1.34,-1.409 1.116,-0.869 1.116,-0.589 1.116,-0.306 0.892,-0.038 0.893,0.145 0.893,0.332 1.116,0.679 1.116,0.975 1.116,1.275 1.116,1.578 1.339,2.299 1.339,2.746 1.563,3.777 0.223,0.59 1.562,-5.655 1.563,-4.849 1.339,-3.507 1.339,-2.899 1.116,-1.946 1.116,-1.516 0.893,-0.899 0.893,-0.618 0.893,-0.336 0.892,-0.051 0.893,0.236 0.893,0.525 0.893,0.815 0.893,1.109 1.116,1.8 1.116,2.263 1.116,2.731 1.339,3.899 1.339,4.581 4.018,14.656 1.339,3.658 1.339,2.974 1.116,1.963 1.116,1.5 0.893,0.869 0.893,0.579 0.892,0.291 0.893,0.006 0.893,-0.277 0.893,-0.558 0.893,-0.835 0.892,-1.11 1.116,-1.771 1.116,-2.192 1.34,-3.181 1.339,-3.772 1.562,-5.139 0.893,-3.289 2.232,-0.832 2.232,-0.589 2.232,-0.354 2.232,-0.137 2.455,0.071 2.902,0.328 3.794,0.683 4.241,0.803 1.562,-5.563 1.34,-4.03 1.339,-3.361 1.116,-2.3 1.116,-1.852 1.116,-1.413 0.893,-0.819 0.892,-0.548 0.893,-0.28 0.893,-0.017 0.893,0.241 0.893,0.496 0.892,0.745 1.116,1.274 1.116,1.648 1.34,2.457 1.339,2.965 1.562,4.08 1.563,4.722 0.446,1.463 1.786,8.716 1.562,6.515 1.339,4.733 1.339,3.93 1.116,2.646 1.116,2.064 0.893,1.223 0.893,0.838 0.67,0.371 0.669,0.148 0.67,-0.077 0.669,-0.304 0.67,-0.535 0.893,-1.076 0.893,-1.495 0.892,-1.92 1.116,-3.008 1.116,-3.693 1.34,-5.353 1.339,-6.376 1.785,-9.88 1.563,-7.768 1.339,-5.619 1.339,-4.678 1.116,-3.191 1.116,-2.556 0.893,-1.593 0.893,-1.196 0.893,-0.802 0.669,-0.345 0.67,-0.127 0.669,0.09 0.67,0.306 0.67,0.521 0.892,1.027 0.893,1.405 0.893,1.78 1.116,2.752 1.116,3.332 1.339,4.764 1.339,5.594 1.563,7.573 0.223,1.174 2.455,-1.802 2.232,-1.375 2.009,-0.995 1.786,-0.666 1.785,-0.436 1.563,-0.172 1.562,0.043 1.562,0.28 1.563,0.538 1.339,0.684 1.339,0.907 1.339,1.144 1.563,1.657 0.223,0.267 1.562,9.701 1.34,7.03 1.339,5.87 1.116,4.024 1.116,3.249 0.893,2.051 0.892,1.571 0.893,1.099 0.67,0.518 0.669,0.258 0.67,0.003 0.67,-0.251 0.669,-0.502 0.67,-0.749 0.893,-1.38 0.892,-1.81 1.116,-2.857 1.116,-3.506 1.34,-5.047 1.339,-5.946 1.562,-8.047 0.893,-5.123 1.562,-2.648 1.563,-2.177 1.339,-1.508 1.339,-1.191 1.339,-0.885 1.34,-0.591 1.339,-0.307 1.116,-0.047 1.339,0.187 1.339,0.444 1.339,0.692 1.34,0.934 1.562,1.385 1.562,1.695 1.786,2.303 1.116,1.634 1.786,-0.294 2.232,-0.629 8.035,-2.551 1.785,-0.207 1.563,0.038 1.562,0.283 1.339,0.466 1.34,0.698 1.339,0.952 1.339,1.228 1.786,4.417 1.562,3.324 1.562,2.798 1.34,1.964 1.339,1.55 1.116,0.965 1.116,0.661 0.893,0.305 0.892,0.101 0.893,-0.107 0.893,-0.319 0.893,-0.534 1.116,-0.978 1.116,-1.329 1.116,-1.688 1.116,-2.056 1.339,-2.963 1.339,-3.519 1.116,-3.434 1.563,-5.001 1.562,-4.273 1.339,-3.077 1.339,-2.53 1.116,-1.686 1.116,-1.299 0.893,-0.758 0.893,-0.505 0.893,-0.252 0.893,0.005 0.892,0.263 0.893,0.523 0.893,0.785 0.893,1.05 1.116,1.687 1.116,2.108 1.339,3.091 1.339,3.711 1.339,4.339 0.893,2.873 1.786,3.406 1.562,2.512 1.563,2.068 1.339,1.415 1.339,1.08 1.116,0.643 1.116,0.405 1.116,0.167 1.116,-0.075 1.116,-0.317 1.116,-0.562 1.116,-0.809 1.116,-1.057 1.339,-1.6 1.339,-1.964 1.34,-2.331 1.562,-3.189 1.562,-5.735 1.563,-4.876 1.339,-3.493 1.339,-2.858 1.116,-1.895 1.116,-1.453 0.893,-0.843 0.893,-0.56 0.893,-0.276 0.892,0.007 0.893,0.29 0.893,0.574 0.893,0.857 0.893,1.139 1.116,1.821 1.116,2.262 1.339,3.294 1.339,3.925 1.562,5.376 2.009,7.218 1.563,4.697 1.339,3.395 1.339,2.81 1.116,1.893 1.116,1.483 1.116,1.071 0.893,0.559 0.893,0.293 0.892,0.025 0.893,-0.242 0.893,-0.512 0.893,-0.782 0.893,-1.055 1.116,-1.702 1.116,-2.131 1.339,-3.127 1.339,-3.753 1.339,-4.384 0.893,-3.275 1.562,-16.769 1.563,-14.22 1.339,-10.165 1.116,-7.047 1.116,-5.756 0.893,-3.677 0.893,-2.852 0.892,-2.03 0.67,-0.983 0.67,-0.521 0.446,-0.091 0.446,0.114 0.447,0.318 0.669,0.862 0.67,1.322 0.67,1.782 0.892,3.091 0.893,3.907 1.116,6.031 1.116,7.303 1.339,10.443 1.34,12.274 1.562,16.63 1.562,32.741 1.563,27.805 1.339,19.902 1.116,13.814 1.116,11.295 0.893,7.223 0.893,5.612 0.669,3.152 0.67,2.246 0.446,0.995 0.447,0.592 0.446,0.191 0.446,-0.212 0.447,-0.614 0.446,-1.016 0.67,-2.275 0.669,-3.18 0.893,-5.643 0.893,-7.247 1.116,-11.313 1.116,-13.816 1.339,-19.88 1.339,-23.478 1.563,-31.939 0.223,-4.962 0,0"
         clip-path="url(#p7ff5b81e1d)" />
    </g>
    <g
       style="stroke-linecap:square;stroke-linejoin:round"
       id="line2d_2">
      <path
         inkscape:connector-curvature="0"
         id="path25083"
         style="fill:none;stroke:#008000;stroke-width:1.5;stroke-linecap:square;stroke-linejoin:round"
         d="m 72,259.2 1.7856,-2.636 1.5624,-1.929 1.5624,-1.576 1.3392,-1.07 1.3392,-0.812 1.3392,-0.554 1.3392,-0.296 1.3392,-0.039 1.3392,0.219 1.3392,0.475 1.3392,0.732 1.3392,0.987 1.3392,1.243 1.5624,1.774 1.5624,2.12 1.5624,2.169 1.7856,1.898 1.5624,1.372 1.5624,1.103 1.562,0.833 1.563,0.563 1.339,0.267 1.339,0.069 1.339,-0.13 1.34,-0.33 1.562,-0.636 1.562,-0.907 1.563,-1.178 1.562,-1.449 1.786,-1.987 0.446,-0.435 2.009,-1.311 2.009,-1.049 2.009,-0.788 1.785,-0.478 1.786,-0.27 1.785,-0.059 1.786,0.152 1.786,0.366 1.785,0.58 1.786,0.797 2.009,1.157 1.562,1.092 1.562,-3.219 1.563,-2.742 1.562,-2.263 1.339,-1.556 1.34,-1.203 1.116,-0.73 1.116,-0.482 1.116,-0.235 1.116,0.015 1.116,0.264 1.116,0.515 1.116,0.766 1.116,1.019 1.339,1.555 1.339,1.921 1.339,2.289 1.563,3.134 0.446,0.989 1.562,5.614 1.563,4.768 1.339,3.413 1.339,2.793 1.116,1.853 1.116,1.423 0.893,0.827 0.893,0.552 0.893,0.276 0.892,10e-4 0.893,-0.275 0.893,-0.551 0.893,-0.826 0.893,-1.102 1.116,-1.766 1.116,-2.197 1.339,-3.207 1.339,-3.828 1.562,-5.253 0.893,-3.556 1.563,-6.729 1.562,-5.694 1.339,-4.057 1.339,-3.297 1.116,-2.167 1.116,-1.639 0.893,-0.931 0.893,-0.594 0.67,-0.223 0.669,-0.033 0.67,0.156 0.669,0.347 0.893,0.758 0.893,1.096 0.893,1.433 1.116,2.267 1.116,2.796 1.339,4.051 1.339,4.812 1.563,6.576 0.892,4.55 1.563,7.895 1.339,5.787 1.339,4.88 1.116,3.373 1.116,2.742 1.116,2.11 0.893,1.232 0.893,0.825 0.669,0.353 0.67,0.124 0.67,-0.105 0.669,-0.334 0.67,-0.564 0.893,-1.11 0.892,-1.518 0.893,-1.929 1.116,-2.989 1.116,-3.631 1.339,-5.209 1.34,-6.139 2.678,-12.811 1.562,-5.464 1.34,-3.95 1.339,-3.273 1.116,-2.21 1.116,-1.74 0.893,-1.053 0.892,-0.754 0.893,-0.452 0.893,-0.152 0.67,0.083 0.892,0.374 0.893,0.674 0.893,0.974 0.893,1.275 1.116,2.015 1.116,2.485 1.339,3.6 1.339,4.275 1.563,5.842 0.669,2.402 1.563,3.638 1.562,3.08 1.339,2.195 1.339,1.784 1.116,1.172 1.116,0.886 1.116,0.6 1.116,0.314 0.893,0.045 0.893,-0.138 1.116,-0.431 1.116,-0.717 1.116,-1.003 1.116,-1.29 1.339,-1.926 1.339,-2.338 1.563,-3.248 2.232,-4.845 1.562,-2.496 1.563,-2.075 1.339,-1.445 1.339,-1.138 1.339,-0.833 1.116,-0.462 1.116,-0.252 1.116,-0.043 1.116,0.165 1.116,0.371 1.116,0.577 1.339,0.96 1.34,1.25 1.339,1.538 1.562,2.154 1.563,2.536 0.669,0.99 1.786,1.419 1.785,1.156 1.786,0.895 1.786,0.635 1.785,0.38 1.786,0.127 1.785,-0.12 1.786,-0.363 1.786,-0.601 1.785,-0.832 2.009,-1.205 2.009,-1.481 0.223,-0.181 3.348,0.654 3.348,0.432 3.348,0.202 3.125,-0.024 3.125,-0.234 3.124,-0.448 3.125,-0.503 2.455,1.024 2.456,0.777 2.455,0.526 2.232,0.259 2.232,0.05 2.232,-0.157 2.455,-0.406 2.455,-0.646 2.455,-0.877 0.67,-0.277 1.786,2.571 1.562,1.877 1.562,1.53 1.34,1.034 1.339,0.78 1.339,0.528 1.339,0.275 1.339,0.026 1.34,-0.224 1.339,-0.47 1.339,-0.714 1.339,-0.956 1.563,-1.419 1.562,-1.74 1.562,-2.057 0.67,-0.978 1.562,-12.021 1.563,-10.231 1.339,-7.338 1.339,-6.012 1.116,-3.994 0.893,-2.53 0.893,-1.937 0.893,-1.344 0.669,-0.619 0.67,-0.285 0.669,0.048 0.67,0.383 0.67,0.715 0.669,1.05 0.893,1.917 0.893,2.509 1.116,3.967 1.116,4.889 1.339,7.08 1.339,8.4 1.563,11.461 0.669,5.984 1.563,15.346 1.562,13.017 1.339,9.296 1.116,6.431 1.116,5.231 0.893,3.32 0.893,2.548 0.669,1.405 0.67,0.969 0.67,0.534 0.446,0.113 0.446,-0.08 0.447,-0.275 0.669,-0.777 0.67,-1.215 0.67,-1.653 0.892,-2.887 0.893,-3.669 1.116,-5.687 1.116,-6.912 1.339,-9.915 1.34,-11.685 2.008,-18.702 1.563,-9.003 1.339,-6.609 1.339,-5.582 1.116,-3.866 1.116,-3.148 1.116,-2.429 0.893,-1.423 0.893,-0.96 0.669,-0.415 0.67,-0.153 0.67,0.109 0.669,0.372 0.67,0.635 0.669,0.899 0.893,1.611 0.893,2.082 1.116,3.268 1.116,4.01 1.339,5.794 1.339,6.87 1.563,9.38 0.223,1.461 1.786,1.984 1.562,1.439 1.562,1.165 1.563,0.894 1.562,0.626 1.563,0.362 1.562,0.102 1.562,-0.156 1.563,-0.41 1.562,-0.661 1.563,-0.907 1.562,-1.152 1.786,-1.611 2.678,-2.555 2.009,-1.384 1.785,-0.987 1.786,-0.752 1.786,-0.511 1.785,-0.266 1.786,-0.018 1.785,0.232 1.786,0.485 1.786,0.737 1.785,0.99 1.786,1.24 1.339,1.093 1.562,7.237 1.563,6.166 1.339,4.432 1.339,3.64 1.116,2.429 1.116,1.875 0.893,1.101 0.893,0.746 0.669,0.324 0.67,0.123 0.67,-0.079 0.669,-0.282 0.67,-0.485 0.893,-0.963 0.892,-1.326 0.893,-1.691 1.116,-2.627 1.116,-3.202 1.339,-4.6 1.34,-5.431 1.562,-7.389 0,0"
         clip-path="url(#p7ff5b81e1d)" />
    </g>
    <g
       style="stroke-linecap:square;stroke-linejoin:round"
       id="line2d_3">
      <path
         inkscape:connector-curvature="0"
         id="path25086"
         style="fill:none;stroke:#ff0000;stroke-width:1.5;stroke-linecap:square;stroke-linejoin:round"
         d="m 72,259.2 1.5624,18.125 1.5624,15.441 1.3392,11.096 1.3392,9.116 1.116,6.081 0.8928,3.87 0.8928,2.983 0.6696,1.654 0.6696,1.153 0.6696,0.65 0.4464,0.154 0.4464,-0.071 0.4464,-0.295 0.4464,-0.52 0.6696,-1.204 0.6696,-1.713 0.8928,-3.079 0.8928,-3.991 1.116,-6.278 1.116,-7.717 1.116,-9.167 1.3392,-12.927 1.3392,-15.044 0.6696,-8.321 1.5624,12.314 1.5624,10.549 1.3392,7.617 1.339,6.287 1.116,4.212 1.116,3.27 0.893,1.932 0.67,1.047 0.669,0.702 0.67,0.354 0.446,0.043 0.447,-0.113 0.669,-0.462 0.67,-0.814 0.669,-1.168 0.893,-2.108 0.893,-2.74 1.116,-4.32 1.116,-5.316 1.116,-6.317 1.339,-8.904 1.339,-10.353 0.67,-5.72 1.562,6.623 1.563,5.613 1.339,4.004 1.339,3.258 1.116,2.147 1.116,1.63 0.893,0.934 0.893,0.605 0.669,0.239 0.67,0.056 0.67,-0.127 0.669,-0.308 0.893,-0.693 0.893,-1.012 0.893,-1.329 1.116,-2.103 1.116,-2.587 1.339,-3.735 1.339,-4.411 1.562,-5.98 0.67,-2.833 1.562,8.174 1.34,5.928 1.339,4.95 1.116,3.389 1.116,2.73 1.116,2.083 0.893,1.208 0.892,0.806 0.67,0.344 0.67,0.125 0.669,-0.092 0.67,-0.307 0.669,-0.518 0.893,-1.015 0.893,-1.379 1.116,-2.225 1.116,-2.767 1.339,-4.015 1.339,-4.75 1.563,-6.43 1.339,-6.243 1.562,11.177 1.34,8.176 1.339,6.893 1.116,4.774 1.116,3.899 1.116,3.031 0.893,1.805 0.892,1.258 0.67,0.587 0.67,0.283 0.669,-0.019 0.67,-0.32 0.669,-0.62 0.67,-0.917 0.893,-1.685 0.893,-2.207 1.116,-3.489 1.116,-4.295 1.339,-6.206 1.339,-7.343 1.562,-9.989 0.67,-4.746 1.562,7.109 1.34,5.129 1.339,4.26 1.116,2.904 1.116,2.329 1.116,1.768 0.893,1.019 0.892,0.674 0.67,0.283 0.67,0.095 0.669,-0.089 0.67,-0.272 0.893,-0.642 0.892,-0.954 0.893,-1.262 1.116,-2 1.116,-2.458 1.339,-3.54 1.34,-4.164 1.562,-5.624 1.116,-4.507 1.562,-7.661 1.563,-6.538 1.339,-4.701 1.339,-3.862 1.116,-2.573 1.116,-1.984 0.893,-1.162 0.893,-0.782 0.669,-0.336 0.67,-0.122 0.67,0.092 0.669,0.308 0.67,0.524 0.893,1.033 0.892,1.417 0.893,1.802 1.116,2.792 1.116,3.394 1.339,4.865 1.34,5.729 1.785,7.981 2.009,1.688 2.009,1.4 1.785,0.993 1.786,0.748 1.786,0.491 1.562,0.208 1.562,-0.012 1.563,-0.244 1.562,-0.491 1.563,-0.754 1.562,-1.033 1.562,-1.332 1.563,-1.651 0.223,-0.263 1.562,-24.571 1.34,-18.016 1.339,-15.227 1.116,-10.571 1.116,-8.659 0.893,-5.556 0.892,-4.346 0.893,-3.14 0.67,-1.567 0.446,-0.671 0.447,-0.374 0.446,-0.075 0.446,0.221 0.447,0.517 0.446,0.812 0.67,1.771 0.669,2.431 0.893,4.263 0.893,5.428 1.116,8.412 1.116,10.21 1.339,14.61 1.339,17.164 1.563,23.23 0.223,3.598 1.562,-18.018 1.34,-13.146 1.339,-11.055 1.116,-7.634 1.116,-6.217 0.893,-3.963 0.892,-3.073 0.893,-2.193 0.67,-1.07 0.669,-0.582 0.447,-0.118 0.446,0.096 0.447,0.31 0.669,0.863 0.67,1.339 0.669,1.811 0.893,3.145 0.893,3.972 1.116,6.118 1.116,7.385 1.339,10.518 1.339,12.301 1.563,16.576 0.669,8.948 1.563,20.297 1.339,14.851 1.339,12.499 1.116,8.62 1.116,6.985 0.893,4.412 0.893,3.367 0.669,1.84 0.67,1.252 0.446,0.509 0.447,0.249 0.446,-0.013 0.447,-0.273 0.446,-0.533 0.67,-1.288 0.669,-1.872 0.893,-3.407 0.893,-4.443 0.893,-5.48 1.116,-8.304 1.116,-9.916 1.339,-14.023 1.339,-16.333 1.116,-15.369 1.562,-35.136 1.34,-25.862 1.339,-21.943 1.339,-18.033 1.116,-12.045 0.893,-7.688 0.893,-5.959 0.669,-3.336 0.67,-2.366 0.446,-1.039 0.447,-0.608 0.446,-0.179 0.446,0.251 0.447,0.681 0.446,1.108 0.67,2.468 0.669,3.43 0.893,6.069 0.893,7.777 1.116,12.118 1.116,14.774 1.339,21.229 1.339,25.036 1.563,34.008 1.116,23.783 1.562,28.722 1.339,20.901 1.34,17.46 1.116,11.912 1.116,9.509 0.892,5.873 0.893,4.329 0.67,2.231 0.669,1.361 0.447,0.422 0.446,0.035 0.447,-0.354 0.446,-0.743 0.446,-1.131 0.67,-2.427 0.67,-3.303 0.892,-5.769 0.893,-7.33 1.116,-11.362 1.116,-13.809 1.339,-19.805 1.34,-23.338 1.562,-31.698 1.562,12.303 1.34,8.989 1.339,7.566 1.116,5.231 1.116,4.264 1.116,3.306 0.893,1.961 0.892,1.359 0.67,0.628 0.67,0.293 0.669,-0.039 0.67,-0.368 0.669,-0.697 0.67,-1.022 0.893,-1.866 0.893,-2.437 1.116,-3.841 1.116,-4.716 1.339,-6.801 1.339,-8.031 1.562,-10.903 0.67,-5.172 1.562,21.656 1.34,15.913 1.339,13.479 1.116,9.382 1.116,7.706 1.116,6.036 0.893,3.631 0.669,2.027 0.67,1.43 0.669,0.836 0.447,0.227 0.446,-0.036 0.447,-0.299 0.446,-0.562 0.67,-1.335 0.669,-1.925 0.893,-3.481 0.893,-4.524 1.116,-7.12 1.116,-8.742 1.339,-12.626 1.339,-14.95 1.563,-20.369 0.446,-6.398 1.562,10.489 1.34,7.698 1.339,6.513 1.339,5.337 1.116,3.554 1.116,2.747 0.893,1.619 0.893,1.106 0.669,0.494 0.67,0.207 0.669,-0.078 0.67,-0.364 0.67,-0.649 0.669,-0.932 0.893,-1.685 0.893,-2.188 1.116,-3.44 1.116,-4.224 1.339,-6.098 1.339,-7.22 1.563,-9.84 3.348,-22.214 1.339,-6.915 1.339,-5.705 1.116,-3.829 1.116,-2.986 0.893,-1.781 0.893,-1.24 0.669,-0.574 0.67,-0.269 0.669,0.036 0.67,0.341 0.67,0.648 0.669,0.953 0.893,1.748 0.893,2.294 1.116,3.635 1.116,4.49 1.116,5.345 1.339,7.545 1.339,8.782 0.893,6.541 1.562,-20.419 1.563,-17.354 1.339,-12.434 1.116,-8.638 1.116,-7.07 0.893,-4.527 0.893,-3.523 0.892,-2.518 0.67,-1.229 0.446,-0.506 0.447,-0.254 0.446,-0.003 0.447,0.249 0.446,0.5 0.67,1.221 0.669,1.787 0.67,2.353 0.893,4.017 0.892,5.024 1.116,7.693 1.116,9.266 1.34,13.193 1.339,15.457 1.339,17.72 1.562,-35.314 1.563,-30.002 1.339,-21.486 1.116,-14.92 1.116,-12.205 0.893,-7.81 0.893,-6.072 0.669,-3.413 0.67,-2.436 0.446,-1.081 0.447,-0.646 0.446,-0.212 0.446,0.222 0.447,0.657 0.446,1.091 0.67,2.45 0.669,3.427 0.893,6.089 0.893,7.822 1.116,12.217 1.116,14.926 1.339,21.48 1.339,25.373 1.563,34.514 0.223,5.362 1.562,-55.891 1.563,-47.446 1.339,-33.954 1.116,-23.5634 1.116,-19.2663 0.893,-12.3215 0.893,-9.5749 0.669,-5.3792 0.67,-3.8353 0.446,-1.7004 0.447,-1.0135 0.223,-0.2497 0.223,-0.0786 0.223,0.0925 0.447,0.6998 0.446,1.385 0.446,2.0701 0.67,4.3892 0.67,5.9305 0.892,10.3032 0.893,13.0403 1.116,20.1502 1.116,24.425 1.339,34.953 1.34,41.106 1.562,55.735 0,0"
         clip-path="url(#p7ff5b81e1d)" />
    </g>
    <g
       style="stroke-linecap:square;stroke-linejoin:round"
       id="line2d_4">
      <path
         inkscape:connector-curvature="0"
         id="path25089"
         style="fill:none;stroke:#00bfbf;stroke-width:1.5;stroke-linecap:square;stroke-linejoin:round"
         d="m 72,259.2 4.2408,0.482 4.2408,0.249 4.2408,0.021 4.2408,-0.199 4.464,-0.438 1.116,-0.219 2.4552,-1.021 2.4552,-0.763 2.2324,-0.469 2.232,-0.256 2.232,-0.041 2.232,0.174 2.232,0.386 2.232,0.599 2.455,0.901 1.785,0.664 4.241,0.5 4.018,0.26 4.017,0.04 4.018,-0.191 3.794,-0.404 2.009,-0.171 2.455,0.94 2.456,0.708 2.455,0.473 2.455,0.235 2.455,-0.004 2.455,-0.246 2.456,-0.489 2.455,-0.734 2.455,-0.98 1.786,-1.834 1.785,-1.514 1.563,-1.064 1.562,-0.82 1.562,-0.576 1.563,-0.331 1.562,-0.088 1.563,0.156 1.562,0.401 1.562,0.644 1.563,0.889 1.562,1.132 1.786,1.592 1.339,1.403 1.562,2.893 1.563,2.458 1.562,2.022 1.339,1.387 1.34,1.066 1.116,0.644 1.116,0.421 1.116,0.198 1.116,-0.024 1.116,-0.247 1.116,-0.468 1.116,-0.691 1.339,-1.122 1.339,-1.441 1.339,-1.76 1.563,-2.455 1.562,-2.886 1.562,-3.438 1.563,-2.921 1.339,-2.092 1.339,-1.713 1.339,-1.332 1.116,-0.82 1.116,-0.556 1.116,-0.292 1.116,-0.027 1.116,0.237 1.116,0.502 1.116,0.766 1.116,1.031 1.34,1.587 1.339,1.968 1.339,2.351 1.562,3.224 0.893,1.88 1.786,2.458 1.562,1.791 1.563,1.455 1.339,0.979 1.339,0.733 1.339,0.488 1.339,0.242 1.34,-0.003 1.339,-0.248 1.339,-0.491 1.339,-0.735 1.339,-0.978 1.563,-1.447 1.562,-1.777 1.563,-2.104 0.669,-0.858 2.009,-1.606 1.786,-1.171 1.785,-0.925 1.786,-0.672 1.785,-0.416 1.563,-0.149 1.562,0.053 1.563,0.258 1.562,0.466 1.562,0.675 1.786,1.031 1.786,1.309 2.008,1.546 2.679,0.89 2.678,0.658 2.455,0.388 2.456,0.175 2.455,-0.047 2.455,-0.275 2.455,-0.511 2.455,-0.753 2.232,-0.743 4.911,-0.328 5.133,-0.116 5.58,0.105 6.696,0.216 2.902,-0.75 2.902,-0.525 2.901,-0.292 2.902,-0.054 2.678,0.165 2.679,0.373 2.678,0.584 2.678,0.604 4.911,-0.345 5.357,-0.151 5.58,0.065 6.026,0.297 1.786,-2.786 1.562,-2.056 1.562,-1.697 1.34,-1.164 1.339,-0.895 1.339,-0.623 1.339,-0.349 1.116,-0.08 1.116,0.114 1.116,0.308 1.339,0.628 1.34,0.911 1.339,1.197 1.339,1.483 1.562,2.096 1.563,2.492 0.223,0.388 1.562,7.78 1.563,6.635 1.339,4.771 1.339,3.921 1.116,2.614 1.116,2.02 0.893,1.185 0.893,0.801 0.669,0.348 0.67,0.132 0.67,-0.085 0.669,-0.303 0.67,-0.521 0.893,-1.035 0.892,-1.423 0.893,-1.814 1.116,-2.815 1.116,-3.428 1.339,-4.922 1.34,-5.807 2.455,-11.119 1.562,-4.989 1.339,-3.616 1.34,-3.007 1.116,-2.041 1.116,-1.62 1.116,-1.199 0.892,-0.657 0.893,-0.389 0.893,-0.121 0.893,0.147 0.893,0.413 0.892,0.68 0.893,0.947 1.116,1.555 1.116,1.97 1.116,2.383 1.339,3.403 1.34,3.994 2.232,6.983 1.562,3.299 1.562,2.761 1.34,1.939 1.339,1.546 1.116,0.989 1.116,0.717 1.116,0.446 1.116,0.175 1.116,-0.094 1.116,-0.364 1.116,-0.632 1.116,-0.9 1.116,-1.167 1.339,-1.752 1.339,-2.134 1.563,-2.971 2.008,-3.999 1.786,-1.843 1.786,-1.523 1.562,-1.066 1.562,-0.813 1.563,-0.559 1.562,-0.302 1.339,-0.051 1.34,0.142 1.339,0.336 1.562,0.64 1.563,0.909 1.562,1.18 1.562,1.454 1.786,1.998 2.455,-1.209 2.232,-0.856 2.232,-0.616 2.232,-0.368 2.009,-0.116 2.009,0.092 2.009,0.302 2.008,0.513 2.009,0.725 2.232,1.056 0.893,0.495 1.562,-6.566 1.563,-5.577 1.339,-3.994 1.339,-3.268 1.116,-2.167 1.116,-1.663 0.893,-0.967 0.893,-0.644 0.893,-0.322 0.669,-0.029 0.67,0.153 0.669,0.334 0.893,0.727 0.893,1.05 0.893,1.373 1.116,2.169 1.116,2.673 1.339,3.872 1.339,4.596 1.563,6.277 0.446,1.975 0,0"
         clip-path="url(#p7ff5b81e1d)" />
    </g>
    <g
       style="stroke-linecap:square;stroke-linejoin:round"
       id="line2d_5">
      <path
         inkscape:connector-curvature="0"
         id="path25092"
         style="fill:none;stroke:#bf00bf;stroke-width:1.5;stroke-linecap:square;stroke-linejoin:round"
         d="m 72,259.2 1.5624,8.358 1.5624,7.102 1.3392,5.088 1.3392,4.165 1.116,2.765 1.116,2.123 0.8928,1.236 0.8928,0.825 0.6696,0.349 0.6696,0.118 0.6696,-0.113 0.6696,-0.346 0.6696,-0.576 0.8928,-1.129 0.8928,-1.541 0.8928,-1.952 1.116,-3.019 1.116,-3.663 1.3392,-5.246 1.3392,-6.172 1.5624,-8.372 1.7856,2.616 1.5624,1.91 1.5624,1.558 1.3396,1.056 1.339,0.799 1.339,0.543 1.339,0.286 1.339,0.031 1.34,-0.222 1.339,-0.476 1.339,-0.728 1.339,-0.978 1.339,-1.228 1.563,-1.746 1.562,-2.081 0.893,-1.339 3.125,0.511 3.348,0.312 3.571,0.098 4.018,-0.128 4.687,-0.387 3.571,-0.405 2.232,-1.253 2.232,-0.996 2.009,-0.671 2.009,-0.448 2.008,-0.221 2.009,0.014 2.009,0.252 2.009,0.496 2.009,0.742 2.008,0.993 1.786,1.093 1.562,2.621 1.563,2.222 1.562,1.823 1.339,1.247 1.34,0.957 1.339,0.667 1.116,0.336 1.116,0.135 1.116,-0.065 1.116,-0.265 1.116,-0.464 1.339,-0.819 1.339,-1.106 1.339,-1.393 1.563,-1.988 1.562,-2.379 0.893,-1.535 2.232,1.355 2.232,1.099 2.009,0.762 2.009,0.533 2.008,0.293 1.786,0.045 1.786,-0.167 1.785,-0.393 1.786,-0.633 1.785,-0.886 1.786,-1.156 1.116,-0.866 1.562,-2.028 1.563,-1.687 1.562,-1.355 1.563,-1.031 1.339,-0.633 1.339,-0.406 1.339,-0.186 1.339,0.03 1.34,0.238 1.339,0.443 1.562,0.765 1.563,1.025 1.562,1.275 1.786,1.752 1.562,1.78 1.786,4.664 1.562,3.472 1.339,2.513 1.339,2.076 1.34,1.631 1.116,1.014 1.116,0.695 0.892,0.323 0.893,0.114 0.893,-0.099 0.893,-0.312 0.893,-0.53 1.116,-0.97 1.116,-1.316 1.116,-1.668 1.339,-2.47 1.339,-2.99 1.339,-3.516 2.455,-6.753 1.563,-3.497 1.339,-2.508 1.339,-2.056 1.116,-1.369 1.116,-1.055 1.116,-0.741 0.893,-0.366 0.893,-0.164 0.893,0.038 0.892,0.242 0.893,0.444 1.116,0.843 1.116,1.164 1.116,1.486 1.339,2.21 1.34,2.68 1.339,3.154 1.339,3.632 1.786,-3.044 1.785,-2.581 1.563,-1.865 1.339,-1.297 1.339,-1.011 1.339,-0.715 1.116,-0.365 1.116,-0.148 1.116,0.072 1.116,0.298 1.116,0.53 1.116,0.766 1.116,1.009 1.339,1.539 1.34,1.906 1.339,2.282 1.339,2.67 1.562,3.711 1.563,3.122 1.339,2.213 1.339,1.791 1.116,1.173 1.116,0.887 1.116,0.603 1.116,0.321 1.116,0.043 1.116,-0.233 1.116,-0.506 1.116,-0.778 1.116,-1.046 1.339,-1.606 1.34,-1.987 1.339,-2.362 1.562,-3.226 1.116,-2.29 1.786,-1.614 1.785,-1.333 1.786,-1.052 1.786,-0.771 1.562,-0.442 1.562,-0.223 1.563,-0.004 1.562,0.22 1.563,0.444 1.562,0.672 1.562,0.904 1.563,1.139 1.785,1.594 0.67,0.679 1.786,-3.919 1.562,-2.939 1.562,-2.465 1.34,-1.721 1.339,-1.348 1.116,-0.832 1.116,-0.561 1.116,-0.284 0.893,-0.025 0.892,0.158 0.893,0.343 1.116,0.694 1.116,0.991 1.116,1.294 1.116,1.6 1.339,2.329 1.34,2.783 2.008,4.416 1.786,2.14 1.786,1.779 1.562,1.254 1.562,0.965 1.34,0.594 1.339,0.373 1.339,0.15 1.339,-0.078 1.339,-0.308 1.34,-0.543 1.339,-0.781 1.339,-1.022 1.562,-1.503 1.563,-1.842 1.339,-1.853 4.018,0.947 3.348,0.573 2.901,0.284 2.679,0.048 2.455,-0.166 2.455,-0.39 2.232,-0.571 2.232,-0.795 1.562,5.013 1.563,4.288 1.339,3.092 1.339,2.55 1.116,1.707 1.116,1.325 1.116,0.94 0.893,0.474 0.893,0.224 0.893,-0.025 0.892,-0.277 0.893,-0.529 0.893,-0.783 1.116,-1.337 1.116,-1.737 1.116,-2.14 1.339,-3.101 1.339,-3.688 1.563,-5.048 0.893,-2.756 1.562,-4.132 1.562,-3.48 1.34,-2.462 1.339,-1.977 1.116,-1.276 1.116,-0.938 0.893,-0.504 0.892,-0.286 0.893,-0.068 0.893,0.153 0.893,0.373 0.893,0.594 1.116,1.053 1.116,1.401 1.116,1.749 1.339,2.558 1.339,3.063 1.562,4.212 0.893,2.361 1.786,2.514 1.562,1.833 1.563,1.491 1.339,1.006 1.339,0.753 1.339,0.501 1.339,0.249 1.34,-0.003 1.339,-0.256 1.339,-0.508 1.339,-0.76 1.339,-1.012 1.563,-1.498 1.562,-1.84 1.563,-2.181 0.446,-0.685 1.562,-11.118 1.563,-9.461 1.339,-6.786 1.339,-5.563 1.116,-3.698 0.893,-2.344 0.893,-1.797 0.893,-1.249 0.669,-0.577 0.67,-0.268 0.669,0.041 0.67,0.35 0.67,0.659 0.669,0.969 0.893,1.774 0.893,2.324 1.116,3.681 1.116,4.543 1.116,5.405 1.339,7.624 1.339,8.867 1.339,8.965 1.563,7.511 1.339,5.495 1.339,4.625 1.116,3.191 1.116,2.587 1.116,1.984 0.893,1.153 0.893,0.767 0.669,0.322 0.67,0.106 0.67,-0.112 0.669,-0.328 0.67,-0.545 0.893,-1.063 0.892,-1.448 0.893,-1.833 1.116,-2.832 1.116,-3.433 1.339,-4.912 1.34,-5.776 1.562,-7.828 0,0"
         clip-path="url(#p7ff5b81e1d)" />
    </g>
    <g
       style="stroke-linecap:square;stroke-linejoin:round"
       id="line2d_6">
      <path
         inkscape:connector-curvature="0"
         id="path25095"
         style="fill:none;stroke:#bfbf00;stroke-width:1.5;stroke-linecap:square;stroke-linejoin:round"
         d="m 72,259.2 5.1336,-0.389 5.1336,-0.158 4.9104,0.068 4.9104,0.281 3.1248,0.16 7.3652,-0.199 7.366,0.022 22.097,0.309 26.114,-0.102 5.357,0.152 6.026,0.17 6.696,-0.042 7.589,-0.264 4.018,-0.325 4.464,-0.137 5.357,0.072 7.365,0.351 9.375,0.437 5.803,-0.053 6.919,-0.294 11.83,-0.575 5.356,0.102 5.58,0.322 1.116,0.17 2.902,0.63 2.902,0.41 3.124,0.209 3.125,-0.017 3.348,-0.253 3.348,-0.476 7.589,-1.224 3.794,-0.261 3.795,-0.039 4.017,0.189 4.241,0.43 2.455,0.241 5.357,-0.305 5.58,-0.089 5.803,0.134 6.027,0.366 6.473,0.351 5.58,0.079 5.133,-0.151 5.134,-0.174 4.241,0.498 4.017,0.248 4.018,0.025 4.017,-0.205 4.018,-0.432 1.562,-0.302 2.679,-0.717 2.678,-0.496 2.902,-0.299 2.901,-0.065 2.902,0.162 2.902,0.379 2.901,0.592 6.25,1.411 2.901,0.308 3.125,0.103 3.348,-0.119 3.571,-0.358 3.795,-0.617 4.241,-0.716 3.794,-0.395 3.794,-0.175 3.572,0.047 3.571,0.266 3.348,0.46 1.785,0.41 2.679,0.87 2.678,0.642 2.679,0.405 2.455,0.154 2.455,-0.062 2.455,-0.284 2.455,-0.514 2.456,-0.75 5.133,-1.74 2.679,-0.571 2.678,-0.328 2.455,-0.086 2.455,0.12 2.456,0.326 2.455,0.535 2.678,0.82 1.116,0.327 11.83,0.001 10.49,-0.05 3.571,-0.604 3.572,-0.379 3.348,-0.142 3.348,0.071 3.348,0.286 3.348,0.503 1.562,0.309 0,0"
         clip-path="url(#p7ff5b81e1d)" />
    </g>
    <g
       style="stroke-linecap:square;stroke-linejoin:round"
       id="matplotlib.axis_1">
      <g
         style="stroke-linecap:square;stroke-linejoin:round"
         id="xtick_1">
        <g
           style="stroke-linecap:square;stroke-linejoin:round"
           id="line2d_7">
          <defs
             id="defs25100">
            <path
               inkscape:connector-curvature="0"
               style="stroke:#000000;stroke-width:0.5;stroke-linecap:butt;stroke-linejoin:round"
               id="mcb557df647"
               d="M 0,0 0,-4" />
          </defs>
          <g
             style="stroke-linecap:square;stroke-linejoin:round"
             id="g25103">
            <use
               height="432"
               width="576"
               id="use25105"
               y="388.79999"
               xlink:href="#mcb557df647"
               x="72"
               style="stroke:#000000;stroke-width:0.5;stroke-linecap:butt;stroke-linejoin:round" />
          </g>
        </g>
        <g
           style="stroke-linecap:square;stroke-linejoin:round"
           id="line2d_8">
          <defs
             id="defs25108">
            <path
               inkscape:connector-curvature="0"
               style="stroke:#000000;stroke-width:0.5;stroke-linecap:butt;stroke-linejoin:round"
               id="mdad270ee8e"
               d="M 0,0 0,4" />
          </defs>
          <g
             style="stroke-linecap:square;stroke-linejoin:round"
             id="g25111">
            <use
               height="432"
               width="576"
               id="use25113"
               y="43.200001"
               xlink:href="#mdad270ee8e"
               x="72"
               style="stroke:#000000;stroke-width:0.5;stroke-linecap:butt;stroke-linejoin:round" />
          </g>
        </g>
        <g
           style="stroke-linecap:square;stroke-linejoin:round"
           id="text_1">
          <text
             id="text25116"
             transform="translate(63.252187,401.705)"
             style="font-size:12px;font-style:normal;stroke-linecap:square;stroke-linejoin:round;font-family:Bitstream Vera Sans">0.0</text>
        </g>
      </g>
      <g
         style="stroke-linecap:square;stroke-linejoin:round"
         id="xtick_2">
        <g
           style="stroke-linecap:square;stroke-linejoin:round"
           id="line2d_9">
          <g
             style="stroke-linecap:square;stroke-linejoin:round"
             id="g25120">
            <use
               height="432"
               width="576"
               id="use25122"
               y="388.79999"
               xlink:href="#mcb557df647"
               x="146.39999"
               style="stroke:#000000;stroke-width:0.5;stroke-linecap:butt;stroke-linejoin:round" />
          </g>
        </g>
        <g
           style="stroke-linecap:square;stroke-linejoin:round"
           id="line2d_10">
          <g
             style="stroke-linecap:square;stroke-linejoin:round"
             id="g25125">
            <use
               height="432"
               width="576"
               id="use25127"
               y="43.200001"
               xlink:href="#mdad270ee8e"
               x="146.39999"
               style="stroke:#000000;stroke-width:0.5;stroke-linecap:butt;stroke-linejoin:round" />
          </g>
        </g>
        <g
           style="stroke-linecap:square;stroke-linejoin:round"
           id="text_2">
          <text
             id="text25130"
             transform="translate(137.80781,401.705)"
             style="font-size:12px;font-style:normal;stroke-linecap:square;stroke-linejoin:round;font-family:Bitstream Vera Sans">0.1</text>
        </g>
      </g>
      <g
         style="stroke-linecap:square;stroke-linejoin:round"
         id="xtick_3">
        <g
           style="stroke-linecap:square;stroke-linejoin:round"
           id="line2d_11">
          <g
             style="stroke-linecap:square;stroke-linejoin:round"
             id="g25134">
            <use
               height="432"
               width="576"
               id="use25136"
               y="388.79999"
               xlink:href="#mcb557df647"
               x="220.8"
               style="stroke:#000000;stroke-width:0.5;stroke-linecap:butt;stroke-linejoin:round" />
          </g>
        </g>
        <g
           style="stroke-linecap:square;stroke-linejoin:round"
           id="line2d_12">
          <g
             style="stroke-linecap:square;stroke-linejoin:round"
             id="g25139">
            <use
               height="432"
               width="576"
               id="use25141"
               y="43.200001"
               xlink:href="#mdad270ee8e"
               x="220.8"
               style="stroke:#000000;stroke-width:0.5;stroke-linecap:butt;stroke-linejoin:round" />
          </g>
        </g>
        <g
           style="stroke-linecap:square;stroke-linejoin:round"
           id="text_3">
          <text
             id="text25144"
             transform="translate(212.25469,401.705)"
             style="font-size:12px;font-style:normal;stroke-linecap:square;stroke-linejoin:round;font-family:Bitstream Vera Sans">0.2</text>
        </g>
      </g>
      <g
         style="stroke-linecap:square;stroke-linejoin:round"
         id="xtick_4">
        <g
           style="stroke-linecap:square;stroke-linejoin:round"
           id="line2d_13">
          <g
             style="stroke-linecap:square;stroke-linejoin:round"
             id="g25148">
            <use
               height="432"
               width="576"
               id="use25150"
               y="388.79999"
               xlink:href="#mcb557df647"
               x="295.20001"
               style="stroke:#000000;stroke-width:0.5;stroke-linecap:butt;stroke-linejoin:round" />
          </g>
        </g>
        <g
           style="stroke-linecap:square;stroke-linejoin:round"
           id="line2d_14">
          <g
             style="stroke-linecap:square;stroke-linejoin:round"
             id="g25153">
            <use
               height="432"
               width="576"
               id="use25155"
               y="43.200001"
               xlink:href="#mdad270ee8e"
               x="295.20001"
               style="stroke:#000000;stroke-width:0.5;stroke-linecap:butt;stroke-linejoin:round" />
          </g>
        </g>
        <g
           style="stroke-linecap:square;stroke-linejoin:round"
           id="text_4">
          <text
             id="text25158"
             transform="translate(286.53469,401.705)"
             style="font-size:12px;font-style:normal;stroke-linecap:square;stroke-linejoin:round;font-family:Bitstream Vera Sans">0.3</text>
        </g>
      </g>
      <g
         style="stroke-linecap:square;stroke-linejoin:round"
         id="xtick_5">
        <g
           style="stroke-linecap:square;stroke-linejoin:round"
           id="line2d_15">
          <g
             style="stroke-linecap:square;stroke-linejoin:round"
             id="g25162">
            <use
               height="432"
               width="576"
               id="use25164"
               y="388.79999"
               xlink:href="#mcb557df647"
               x="369.60001"
               style="stroke:#000000;stroke-width:0.5;stroke-linecap:butt;stroke-linejoin:round" />
          </g>
        </g>
        <g
           style="stroke-linecap:square;stroke-linejoin:round"
           id="line2d_16">
          <g
             style="stroke-linecap:square;stroke-linejoin:round"
             id="g25167">
            <use
               height="432"
               width="576"
               id="use25169"
               y="43.200001"
               xlink:href="#mdad270ee8e"
               x="369.60001"
               style="stroke:#000000;stroke-width:0.5;stroke-linecap:butt;stroke-linejoin:round" />
          </g>
        </g>
        <g
           style="stroke-linecap:square;stroke-linejoin:round"
           id="text_5">
          <text
             id="text25172"
             transform="translate(360.79031,401.705)"
             style="font-size:12px;font-style:normal;stroke-linecap:square;stroke-linejoin:round;font-family:Bitstream Vera Sans">0.4</text>
        </g>
      </g>
      <g
         style="stroke-linecap:square;stroke-linejoin:round"
         id="xtick_6">
        <g
           style="stroke-linecap:square;stroke-linejoin:round"
           id="line2d_17">
          <g
             style="stroke-linecap:square;stroke-linejoin:round"
             id="g25176">
            <use
               height="432"
               width="576"
               id="use25178"
               y="388.79999"
               xlink:href="#mcb557df647"
               x="444"
               style="stroke:#000000;stroke-width:0.5;stroke-linecap:butt;stroke-linejoin:round" />
          </g>
        </g>
        <g
           style="stroke-linecap:square;stroke-linejoin:round"
           id="line2d_18">
          <g
             style="stroke-linecap:square;stroke-linejoin:round"
             id="g25181">
            <use
               height="432"
               width="576"
               id="use25183"
               y="43.200001"
               xlink:href="#mdad270ee8e"
               x="444"
               style="stroke:#000000;stroke-width:0.5;stroke-linecap:butt;stroke-linejoin:round" />
          </g>
        </g>
        <g
           style="stroke-linecap:square;stroke-linejoin:round"
           id="text_6">
          <text
             id="text25186"
             transform="translate(435.37781,401.705)"
             style="font-size:12px;font-style:normal;stroke-linecap:square;stroke-linejoin:round;font-family:Bitstream Vera Sans">0.5</text>
        </g>
      </g>
      <g
         style="stroke-linecap:square;stroke-linejoin:round"
         id="text_7">
        <text
           id="text25189"
           transform="translate(285.71719,415.98625)"
           style="font-size:12px;font-style:normal;stroke-linecap:square;stroke-linejoin:round;font-family:Bitstream Vera Sans">$t$(s)</text>
      </g>
    </g>
    <g
       style="stroke-linecap:square;stroke-linejoin:round"
       id="matplotlib.axis_2">
      <g
         style="stroke-linecap:square;stroke-linejoin:round"
         id="ytick_1">
        <g
           style="stroke-linecap:square;stroke-linejoin:round"
           id="line2d_19">
          <path
             inkscape:connector-curvature="0"
             id="path25194"
             style="fill:none;stroke:#d3d3d3;stroke-width:0.5;stroke-linecap:square;stroke-linejoin:round"
             d="m 72,388.8 446.4,0"
             clip-path="url(#p7ff5b81e1d)" />
        </g>
        <g
           style="stroke-linecap:square;stroke-linejoin:round"
           id="line2d_20">
          <defs
             id="defs25197">
            <path
               inkscape:connector-curvature="0"
               style="stroke:#000000;stroke-width:0.5;stroke-linecap:butt;stroke-linejoin:round"
               id="mc8fcea1516"
               d="M 0,0 4,0" />
          </defs>
          <g
             style="stroke-linecap:square;stroke-linejoin:round"
             id="g25200">
            <use
               height="432"
               width="576"
               id="use25202"
               y="388.79999"
               xlink:href="#mc8fcea1516"
               x="72"
               style="stroke:#000000;stroke-width:0.5;stroke-linecap:butt;stroke-linejoin:round" />
          </g>
        </g>
        <g
           style="stroke-linecap:square;stroke-linejoin:round"
           id="line2d_21">
          <defs
             id="defs25205">
            <path
               inkscape:connector-curvature="0"
               style="stroke:#000000;stroke-width:0.5;stroke-linecap:butt;stroke-linejoin:round"
               id="m0d5b0a6425"
               d="M 0,0 -4,0" />
          </defs>
          <g
             style="stroke-linecap:square;stroke-linejoin:round"
             id="g25208">
            <use
               height="432"
               width="576"
               id="use25210"
               y="388.79999"
               xlink:href="#m0d5b0a6425"
               x="518.40002"
               style="stroke:#000000;stroke-width:0.5;stroke-linecap:butt;stroke-linejoin:round" />
          </g>
        </g>
        <g
           style="stroke-linecap:square;stroke-linejoin:round"
           id="text_8">
          <text
             id="text25213"
             transform="translate(50.035625,393.08781)"
             style="font-size:12px;font-style:normal;stroke-linecap:square;stroke-linejoin:round;font-family:Bitstream Vera Sans">-15</text>
        </g>
      </g>
      <g
         style="stroke-linecap:square;stroke-linejoin:round"
         id="ytick_2">
        <g
           style="stroke-linecap:square;stroke-linejoin:round"
           id="line2d_22">
          <path
             inkscape:connector-curvature="0"
             id="path25217"
             style="fill:none;stroke:#d3d3d3;stroke-width:0.5;stroke-linecap:square;stroke-linejoin:round"
             d="m 72,345.6 446.4,0"
             clip-path="url(#p7ff5b81e1d)" />
        </g>
        <g
           style="stroke-linecap:square;stroke-linejoin:round"
           id="line2d_23">
          <g
             style="stroke-linecap:square;stroke-linejoin:round"
             id="g25220">
            <use
               height="432"
               width="576"
               id="use25222"
               y="345.60001"
               xlink:href="#mc8fcea1516"
               x="72"
               style="stroke:#000000;stroke-width:0.5;stroke-linecap:butt;stroke-linejoin:round" />
          </g>
        </g>
        <g
           style="stroke-linecap:square;stroke-linejoin:round"
           id="line2d_24">
          <g
             style="stroke-linecap:square;stroke-linejoin:round"
             id="g25225">
            <use
               height="432"
               width="576"
               id="use25227"
               y="345.60001"
               xlink:href="#m0d5b0a6425"
               x="518.40002"
               style="stroke:#000000;stroke-width:0.5;stroke-linecap:butt;stroke-linejoin:round" />
          </g>
        </g>
        <g
           style="stroke-linecap:square;stroke-linejoin:round"
           id="text_9">
          <text
             id="text25230"
             transform="translate(49.784375,349.96656)"
             style="font-size:12px;font-style:normal;stroke-linecap:square;stroke-linejoin:round;font-family:Bitstream Vera Sans">-10</text>
        </g>
      </g>
      <g
         style="stroke-linecap:square;stroke-linejoin:round"
         id="ytick_3">
        <g
           style="stroke-linecap:square;stroke-linejoin:round"
           id="line2d_25">
          <path
             inkscape:connector-curvature="0"
             id="path25234"
             style="fill:none;stroke:#d3d3d3;stroke-width:0.5;stroke-linecap:square;stroke-linejoin:round"
             d="m 72,302.4 446.4,0"
             clip-path="url(#p7ff5b81e1d)" />
        </g>
        <g
           style="stroke-linecap:square;stroke-linejoin:round"
           id="line2d_26">
          <g
             style="stroke-linecap:square;stroke-linejoin:round"
             id="g25237">
            <use
               height="432"
               width="576"
               id="use25239"
               y="302.39999"
               xlink:href="#mc8fcea1516"
               x="72"
               style="stroke:#000000;stroke-width:0.5;stroke-linecap:butt;stroke-linejoin:round" />
          </g>
        </g>
        <g
           style="stroke-linecap:square;stroke-linejoin:round"
           id="line2d_27">
          <g
             style="stroke-linecap:square;stroke-linejoin:round"
             id="g25242">
            <use
               height="432"
               width="576"
               id="use25244"
               y="302.39999"
               xlink:href="#m0d5b0a6425"
               x="518.40002"
               style="stroke:#000000;stroke-width:0.5;stroke-linecap:butt;stroke-linejoin:round" />
          </g>
        </g>
        <g
           style="stroke-linecap:square;stroke-linejoin:round"
           id="text_10">
          <text
             id="text25247"
             transform="translate(57.670625,306.68781)"
             style="font-size:12px;font-style:normal;stroke-linecap:square;stroke-linejoin:round;font-family:Bitstream Vera Sans">-5</text>
        </g>
      </g>
      <g
         style="stroke-linecap:square;stroke-linejoin:round"
         id="ytick_4">
        <g
           style="stroke-linecap:square;stroke-linejoin:round"
           id="line2d_28">
          <path
             inkscape:connector-curvature="0"
             id="path25251"
             style="fill:none;stroke:#d3d3d3;stroke-width:0.5;stroke-linecap:square;stroke-linejoin:round"
             d="m 72,259.2 446.4,0"
             clip-path="url(#p7ff5b81e1d)" />
        </g>
        <g
           style="stroke-linecap:square;stroke-linejoin:round"
           id="line2d_29">
          <g
             style="stroke-linecap:square;stroke-linejoin:round"
             id="g25254">
            <use
               height="432"
               width="576"
               id="use25256"
               y="259.20001"
               xlink:href="#mc8fcea1516"
               x="72"
               style="stroke:#000000;stroke-width:0.5;stroke-linecap:butt;stroke-linejoin:round" />
          </g>
        </g>
        <g
           style="stroke-linecap:square;stroke-linejoin:round"
           id="line2d_30">
          <g
             style="stroke-linecap:square;stroke-linejoin:round"
             id="g25259">
            <use
               height="432"
               width="576"
               id="use25261"
               y="259.20001"
               xlink:href="#m0d5b0a6425"
               x="518.40002"
               style="stroke:#000000;stroke-width:0.5;stroke-linecap:butt;stroke-linejoin:round" />
          </g>
        </g>
        <g
           style="stroke-linecap:square;stroke-linejoin:round"
           id="text_11">
          <text
             id="text25264"
             transform="translate(61.953125,263.56656)"
             style="font-size:12px;font-style:normal;stroke-linecap:square;stroke-linejoin:round;font-family:Bitstream Vera Sans">0</text>
        </g>
      </g>
      <g
         style="stroke-linecap:square;stroke-linejoin:round"
         id="ytick_5">
        <g
           style="stroke-linecap:square;stroke-linejoin:round"
           id="line2d_31">
          <path
             inkscape:connector-curvature="0"
             id="path25268"
             style="fill:none;stroke:#d3d3d3;stroke-width:0.5;stroke-linecap:square;stroke-linejoin:round"
             d="m 72,216 446.4,0"
             clip-path="url(#p7ff5b81e1d)" />
        </g>
        <g
           style="stroke-linecap:square;stroke-linejoin:round"
           id="line2d_32">
          <g
             style="stroke-linecap:square;stroke-linejoin:round"
             id="g25271">
            <use
               height="432"
               width="576"
               id="use25273"
               y="216"
               xlink:href="#mc8fcea1516"
               x="72"
               style="stroke:#000000;stroke-width:0.5;stroke-linecap:butt;stroke-linejoin:round" />
          </g>
        </g>
        <g
           style="stroke-linecap:square;stroke-linejoin:round"
           id="line2d_33">
          <g
             style="stroke-linecap:square;stroke-linejoin:round"
             id="g25276">
            <use
               height="432"
               width="576"
               id="use25278"
               y="216"
               xlink:href="#m0d5b0a6425"
               x="518.40002"
               style="stroke:#000000;stroke-width:0.5;stroke-linecap:butt;stroke-linejoin:round" />
          </g>
        </g>
        <g
           style="stroke-linecap:square;stroke-linejoin:round"
           id="text_12">
          <text
             id="text25281"
             transform="translate(62.339375,220.28781)"
             style="font-size:12px;font-style:normal;stroke-linecap:square;stroke-linejoin:round;font-family:Bitstream Vera Sans">5</text>
        </g>
      </g>
      <g
         style="stroke-linecap:square;stroke-linejoin:round"
         id="ytick_6">
        <g
           style="stroke-linecap:square;stroke-linejoin:round"
           id="line2d_34">
          <path
             inkscape:connector-curvature="0"
             id="path25285"
             style="fill:none;stroke:#d3d3d3;stroke-width:0.5;stroke-linecap:square;stroke-linejoin:round"
             d="m 72,172.8 446.4,0"
             clip-path="url(#p7ff5b81e1d)" />
        </g>
        <g
           style="stroke-linecap:square;stroke-linejoin:round"
           id="line2d_35">
          <g
             style="stroke-linecap:square;stroke-linejoin:round"
             id="g25288">
            <use
               height="432"
               width="576"
               id="use25290"
               y="172.8"
               xlink:href="#mc8fcea1516"
               x="72"
               style="stroke:#000000;stroke-width:0.5;stroke-linecap:butt;stroke-linejoin:round" />
          </g>
        </g>
        <g
           style="stroke-linecap:square;stroke-linejoin:round"
           id="line2d_36">
          <g
             style="stroke-linecap:square;stroke-linejoin:round"
             id="g25293">
            <use
               height="432"
               width="576"
               id="use25295"
               y="172.8"
               xlink:href="#m0d5b0a6425"
               x="518.40002"
               style="stroke:#000000;stroke-width:0.5;stroke-linecap:butt;stroke-linejoin:round" />
          </g>
        </g>
        <g
           style="stroke-linecap:square;stroke-linejoin:round"
           id="text_13">
          <text
             id="text25298"
             transform="translate(54.845,177.16656)"
             style="font-size:12px;font-style:normal;stroke-linecap:square;stroke-linejoin:round;font-family:Bitstream Vera Sans">10</text>
        </g>
      </g>
      <g
         style="stroke-linecap:square;stroke-linejoin:round"
         id="ytick_7">
        <g
           style="stroke-linecap:square;stroke-linejoin:round"
           id="line2d_37">
          <path
             inkscape:connector-curvature="0"
             id="path25302"
             style="fill:none;stroke:#d3d3d3;stroke-width:0.5;stroke-linecap:square;stroke-linejoin:round"
             d="m 72,129.6 446.4,0"
             clip-path="url(#p7ff5b81e1d)" />
        </g>
        <g
           style="stroke-linecap:square;stroke-linejoin:round"
           id="line2d_38">
          <g
             style="stroke-linecap:square;stroke-linejoin:round"
             id="g25305">
            <use
               height="432"
               width="576"
               id="use25307"
               y="129.60001"
               xlink:href="#mc8fcea1516"
               x="72"
               style="stroke:#000000;stroke-width:0.5;stroke-linecap:butt;stroke-linejoin:round" />
          </g>
        </g>
        <g
           style="stroke-linecap:square;stroke-linejoin:round"
           id="line2d_39">
          <g
             style="stroke-linecap:square;stroke-linejoin:round"
             id="g25310">
            <use
               height="432"
               width="576"
               id="use25312"
               y="129.60001"
               xlink:href="#m0d5b0a6425"
               x="518.40002"
               style="stroke:#000000;stroke-width:0.5;stroke-linecap:butt;stroke-linejoin:round" />
          </g>
        </g>
        <g
           style="stroke-linecap:square;stroke-linejoin:round"
           id="text_14">
          <text
             id="text25315"
             transform="translate(55.09625,133.88781)"
             style="font-size:12px;font-style:normal;stroke-linecap:square;stroke-linejoin:round;font-family:Bitstream Vera Sans">15</text>
        </g>
      </g>
      <g
         style="stroke-linecap:square;stroke-linejoin:round"
         id="ytick_8">
        <g
           style="stroke-linecap:square;stroke-linejoin:round"
           id="line2d_40">
          <path
             inkscape:connector-curvature="0"
             id="path25319"
             style="fill:none;stroke:#d3d3d3;stroke-width:0.5;stroke-linecap:square;stroke-linejoin:round"
             d="m 72,86.4 446.4,0"
             clip-path="url(#p7ff5b81e1d)" />
        </g>
        <g
           style="stroke-linecap:square;stroke-linejoin:round"
           id="line2d_41">
          <g
             style="stroke-linecap:square;stroke-linejoin:round"
             id="g25322">
            <use
               height="432"
               width="576"
               id="use25324"
               y="86.400002"
               xlink:href="#mc8fcea1516"
               x="72"
               style="stroke:#000000;stroke-width:0.5;stroke-linecap:butt;stroke-linejoin:round" />
          </g>
        </g>
        <g
           style="stroke-linecap:square;stroke-linejoin:round"
           id="line2d_42">
          <g
             style="stroke-linecap:square;stroke-linejoin:round"
             id="g25327">
            <use
               height="432"
               width="576"
               id="use25329"
               y="86.400002"
               xlink:href="#m0d5b0a6425"
               x="518.40002"
               style="stroke:#000000;stroke-width:0.5;stroke-linecap:butt;stroke-linejoin:round" />
          </g>
        </g>
        <g
           style="stroke-linecap:square;stroke-linejoin:round"
           id="text_15">
          <text
             id="text25332"
             transform="translate(54.40625,90.766563)"
             style="font-size:12px;font-style:normal;stroke-linecap:square;stroke-linejoin:round;font-family:Bitstream Vera Sans">20</text>
        </g>
      </g>
      <g
         style="stroke-linecap:square;stroke-linejoin:round"
         id="ytick_9">
        <g
           style="stroke-linecap:square;stroke-linejoin:round"
           id="line2d_43">
          <path
             inkscape:connector-curvature="0"
             id="path25336"
             style="fill:none;stroke:#d3d3d3;stroke-width:0.5;stroke-linecap:square;stroke-linejoin:round"
             d="m 72,43.2 446.4,0"
             clip-path="url(#p7ff5b81e1d)" />
        </g>
        <g
           style="stroke-linecap:square;stroke-linejoin:round"
           id="line2d_44">
          <g
             style="stroke-linecap:square;stroke-linejoin:round"
             id="g25339">
            <use
               height="432"
               width="576"
               id="use25341"
               y="43.200001"
               xlink:href="#mc8fcea1516"
               x="72"
               style="stroke:#000000;stroke-width:0.5;stroke-linecap:butt;stroke-linejoin:round" />
          </g>
        </g>
        <g
           style="stroke-linecap:square;stroke-linejoin:round"
           id="line2d_45">
          <g
             style="stroke-linecap:square;stroke-linejoin:round"
             id="g25344">
            <use
               height="432"
               width="576"
               id="use25346"
               y="43.200001"
               xlink:href="#m0d5b0a6425"
               x="518.40002"
               style="stroke:#000000;stroke-width:0.5;stroke-linecap:butt;stroke-linejoin:round" />
          </g>
        </g>
        <g
           style="stroke-linecap:square;stroke-linejoin:round"
           id="text_16">
          <text
             id="text25349"
             transform="translate(54.6575,47.566563)"
             style="font-size:12px;font-style:normal;stroke-linecap:square;stroke-linejoin:round;font-family:Bitstream Vera Sans">25</text>
        </g>
      </g>
      <g
         style="stroke-linecap:square;stroke-linejoin:round"
         id="text_17">
        <text
           id="text25352"
           transform="matrix(0,-1,1,0,44.784375,306.38562)"
           style="font-size:12px;font-style:normal;stroke-linecap:square;stroke-linejoin:round;font-family:Bitstream Vera Sans">Floating joint generalized force</text>
      </g>
    </g>
    <g
       style="stroke-linecap:square;stroke-linejoin:round"
       id="patch_3">
      <path
         inkscape:connector-curvature="0"
         id="path25355"
         style="fill:none;stroke:#000000;stroke-linecap:square;stroke-linejoin:round"
         d="m 72,43.2 446.4,0" />
    </g>
    <g
       style="stroke-linecap:square;stroke-linejoin:round"
       id="patch_4">
      <path
         inkscape:connector-curvature="0"
         id="path25358"
         style="fill:none;stroke:#000000;stroke-linecap:square;stroke-linejoin:round"
         d="m 518.4,388.8 0,-345.6" />
    </g>
    <g
       style="stroke-linecap:square;stroke-linejoin:round"
       id="patch_5">
      <path
         inkscape:connector-curvature="0"
         id="path25361"
         style="fill:none;stroke:#000000;stroke-linecap:square;stroke-linejoin:round"
         d="m 72,388.8 446.4,0" />
    </g>
    <g
       style="stroke-linecap:square;stroke-linejoin:round"
       id="patch_6">
      <path
         inkscape:connector-curvature="0"
         id="path25364"
         style="fill:none;stroke:#000000;stroke-linecap:square;stroke-linejoin:round"
         d="M 72,388.8 72,43.2" />
    </g>
  </g>
  <defs
     id="defs25366">
    <clipPath
       id="p7ff5b81e1d">
      <rect
         height="345.6"
         width="446.4"
         x="72.0"
         y="43.2"
         id="rect25369" />
    </clipPath>
  </defs>
</svg>
