<?xml version="1.0" encoding="UTF-8" standalone="no"?>
<!-- Created with matplotlib (http://matplotlib.org/) -->

<svg
   xmlns:dc="http://purl.org/dc/elements/1.1/"
   xmlns:cc="http://creativecommons.org/ns#"
   xmlns:rdf="http://www.w3.org/1999/02/22-rdf-syntax-ns#"
   xmlns:svg="http://www.w3.org/2000/svg"
   xmlns="http://www.w3.org/2000/svg"
   xmlns:xlink="http://www.w3.org/1999/xlink"
   xmlns:sodipodi="http://sodipodi.sourceforge.net/DTD/sodipodi-0.dtd"
   xmlns:inkscape="http://www.inkscape.org/namespaces/inkscape"
   height="432pt"
   version="1.1"
   viewBox="0 0 576 432"
   width="576pt"
   id="svg15073"
   inkscape:version="0.48.2 r9819"
   sodipodi:docname="grasping-zmp-2s-final-d.svg">
  <metadata
     id="metadata15406">
    <rdf:RDF>
      <cc:Work
         rdf:about="">
        <dc:format>image/svg+xml</dc:format>
        <dc:type
           rdf:resource="http://purl.org/dc/dcmitype/StillImage" />
        <dc:title></dc:title>
      </cc:Work>
    </rdf:RDF>
  </metadata>
  <sodipodi:namedview
     pagecolor="#ffffff"
     bordercolor="#666666"
     borderopacity="1"
     objecttolerance="10"
     gridtolerance="10"
     guidetolerance="10"
     inkscape:pageopacity="0"
     inkscape:pageshadow="2"
     inkscape:window-width="1440"
     inkscape:window-height="825"
     id="namedview15404"
     showgrid="false"
     inkscape:zoom="1.2361274"
     inkscape:cx="418.82106"
     inkscape:cy="88.558931"
     inkscape:window-x="0"
     inkscape:window-y="24"
     inkscape:window-maximized="1"
     inkscape:current-layer="svg15073" />
  <defs
     id="defs15075">
    <style
       type="text/css"
       id="style15077">
*{stroke-linecap:square;stroke-linejoin:round;}
  </style>
  </defs>
  <g
     id="patch_2"
     style="stroke-linecap:square;stroke-linejoin:round">
    <path
       d="m 72,388.8 446.4,0 0,-345.6 -446.4,0 z"
       style="fill:#ffffff;stroke-linecap:square;stroke-linejoin:round"
       id="path15085"
       inkscape:connector-curvature="0" />
  </g>
  <g
     id="line2d_1"
     style="stroke-linecap:square;stroke-linejoin:round">
    <path
       clip-path="url(#p7ff5b81e1d)"
       d="m 72,324.626 8.3328,0.107 6.1008,0.322 11.4576,0.671 3.8688,-0.044 3.274,-0.258 2.232,-0.377 2.083,-0.564 2.083,-0.797 1.934,-0.974 0.447,-0.16 2.529,-0.779 1.191,-0.366 3.422,1.176 2.976,0.796 2.827,0.53 2.679,0.28 2.678,0.05 2.53,-0.168 2.678,-0.407 2.679,-0.637 2.827,-0.908 2.976,-1.198 3.125,-1.497 3.571,-1.969 4.017,-2.483 5.357,-3.607 10.416,-7.327 8.184,-5.987 5.803,-4.525 0.893,-0.651 4.018,-1.315 3.869,-1.494 4.017,-1.785 4.315,-2.16 5.208,-2.871 8.333,-4.895 9.672,-5.619 6.25,-3.368 6.101,-3.033 5.952,-2.72 5.208,-2.146 4.464,-1.599 4.017,-1.197 3.869,-0.913 3.72,-0.655 3.869,-0.465 4.315,-0.288 4.613,-0.08 5.357,0.137 6.696,0.405 23.361,1.61 7.143,0.122 13.243,0.16 6.101,0.353 6.398,0.604 5.506,0.729 4.761,0.845 4.167,0.96 4.166,1.194 4.166,1.429 4.613,1.829 5.059,2.25 6.101,2.966 9.226,4.765 10.416,5.322 5.952,2.786 5.059,2.12 4.464,1.629 4.166,1.288 4.018,1.012 4.018,0.777 3.868,0.518 3.72,0.278 3.72,0.053 3.572,-0.17 2.083,-0.075 3.422,0.13 3.274,-0.095 3.273,-0.315 3.274,-0.538 3.422,-0.792 3.72,-1.095 4.464,-1.561 16.964,-6.191 4.166,-1.139 3.869,-0.832 3.869,-0.608 4.017,-0.405 4.464,-0.219 6.101,-0.057 0,0"
       style="fill:none;stroke:#0000ff;stroke-width:1.5;stroke-linecap:square;stroke-linejoin:round"
       id="path15088"
       inkscape:connector-curvature="0" />
  </g>
  <g
     id="line2d_2"
     style="stroke-linecap:square;stroke-linejoin:round">
    <path
       clip-path="url(#p7ff5b81e1d)"
       d="m 72,259.417 16.0704,-0.11 9.672,-0.296 8.9276,-0.489 9.226,-0.73 9.523,-0.978 14.434,-1.743 12.797,-1.446 10.118,-0.907 20.534,-1.744 5.655,-0.782 5.357,-0.961 5.505,-1.218 5.952,-1.547 8.184,-2.374 17.856,-5.235 9.97,-2.632 8.928,-2.134 6.547,-1.344 5.654,-0.943 5.506,-0.697 5.506,-0.469 5.505,-0.246 5.803,-0.038 6.101,0.183 6.399,0.416 6.696,0.657 9.076,1.142 14.88,2.104 6.845,1.209 6.994,1.476 9.821,2.326 8.035,2.11 6.398,1.906 6.399,2.147 6.696,2.492 7.588,3.072 11.309,4.857 9.97,4.194 6.845,2.632 6.249,2.163 6.101,1.876 6.547,1.776 6.845,1.626 6.696,1.368 6.398,1.077 5.655,0.729 5.208,0.454 5.208,0.233 5.654,0.027 7.291,-0.207 22.023,-0.795 12.201,-0.068 1.042,0 0,0"
       style="fill:none;stroke:#008000;stroke-width:1.5;stroke-linecap:square;stroke-linejoin:round"
       id="path15091"
       inkscape:connector-curvature="0" />
  </g>
  <g
     id="line2d_3"
     style="stroke-linecap:square;stroke-linejoin:round">
    <path
       clip-path="url(#p7ff5b81e1d)"
       d="m 72,262.63 6.2496,-0.11 3.5712,-0.294 3.1248,-0.48 2.8272,-0.656 2.6784,-0.851 2.5296,-1.042 2.3808,-1.228 2.232,-1.406 2.3808,-1.787 2.5296,-2.166 2.53,-2.449 2.678,-2.905 2.083,-2.538 2.083,-2.895 2.232,-3.507 2.232,-3.922 2.53,-4.921 2.678,-5.719 2.976,-6.903 3.274,-8.169 4.018,-10.695 4.612,-12.948 7.44,-21.079 3.72,-5.764 3.572,-5.111 2.529,-3.345 2.381,-0.953 6.696,-2.814 9.672,-4.314 9.672,-4.227 6.845,-2.688 5.505,-1.929 5.655,-1.769 5.803,-1.592 6.25,-1.438 4.91,-0.917 5.059,-0.751 5.357,-0.598 5.952,-0.447 6.398,-0.241 6.845,0.003 6.101,0.201 7.738,0.469 9.672,0.858 7.737,0.887 10.119,1.441 9.076,1.584 8.631,1.783 9.077,2.149 26.635,6.692 7.589,1.592 8.928,1.685 24.7,4.68 1.637,3.943 2.232,5.063 2.083,4.21 2.084,3.698 1.934,2.967 1.786,2.335 1.636,1.796 1.488,1.344 1.488,1.064 1.488,0.783 1.34,0.464 1.339,0.229 1.339,-0.006 1.339,-0.245 1.339,-0.488 1.34,-0.732 1.339,-0.984 1.488,-1.393 0.893,-0.805 1.488,-1.326 1.636,-1.774 1.637,-2.113 1.637,-2.456 1.786,-3.079 1.488,-2.614 20.088,6.492 12.052,4.129 27.082,9.528 5.506,1.549 5.059,1.182 4.613,0.856 4.464,0.618 4.612,0.43 5.208,0.253 7.738,0.076 0,0"
       style="fill:none;stroke:#ff0000;stroke-width:1.5;stroke-linecap:square;stroke-linejoin:round"
       id="path15094"
       inkscape:connector-curvature="0" />
  </g>
  <g
     id="line2d_4"
     style="stroke-linecap:square;stroke-linejoin:round">
    <path
       clip-path="url(#p7ff5b81e1d)"
       d="m 72,92.3674 5.952,0.1048 3.4224,0.2903 2.976,0.4792 2.8272,0.6981 2.5296,0.8525 2.5296,1.0875 2.5296,1.3317 2.6784,1.6831 2.8272,2.0814 2.678,2.249 2.976,2.798 2.976,3.092 3.423,3.9 3.422,4.245 3.571,4.786 3.869,5.578 4.167,6.425 4.464,7.282 6.249,10.66 13.243,22.744 5.357,8.622 4.167,6.312 4.166,5.933 4.018,5.349 3.868,4.803 4.018,4.624 4.166,4.42 4.167,4.074 4.315,3.9 4.613,3.869 4.91,3.825 4.762,3.434 4.464,2.951 4.166,2.482 3.869,2.046 3.72,1.721 3.72,1.48 3.72,1.246 3.869,1.057 3.869,0.832 3.72,0.579 4.017,0.396 4.167,0.189 4.166,-0.032 4.018,-0.254 4.017,-0.477 4.613,-0.783 7.589,-1.563 7.737,-1.509 6.25,-0.991 5.357,-0.638 4.464,-0.316 3.869,-0.051 3.571,0.175 3.571,0.399 3.869,0.66 5.208,1.145 7.44,1.63 3.422,0.508 2.976,0.218 2.679,-0.019 2.529,-0.228 2.53,-0.445 2.529,-0.666 3.572,-1.22 3.72,-1.507 4.315,-1.999 12.499,-5.975 3.125,-1.153 2.827,-0.816 2.678,-0.537 2.53,-0.276 2.53,-0.041 2.38,0.177 2.53,0.413 2.678,0.674 2.828,0.951 2.976,1.237 3.273,1.61 3.423,1.931 3.72,2.358 4.166,2.914 6.25,4.694 5.654,4.158 3.422,2.248 3.125,1.79 2.827,1.373 2.976,1.192 3.274,1.058 5.059,1.361 11.755,3.086 6.101,1.896 9.672,3.03 3.72,0.899 3.274,0.566 3.125,0.311 3.124,0.083 3.274,-0.136 3.869,-0.394 5.803,-0.846 5.357,-0.708 6.845,-0.567 5.654,-0.231 7.589,-0.065 1.339,0 0,0"
       style="fill:none;stroke:#00bfbf;stroke-width:1.5;stroke-linecap:square;stroke-linejoin:round"
       id="path15097"
       inkscape:connector-curvature="0" />
  </g>
  <g
     id="line2d_5"
     style="stroke-linecap:square;stroke-linejoin:round">
    <path
       clip-path="url(#p7ff5b81e1d)"
       d="m 72,114.773 5.208,0.102 3.1248,0.299 2.6784,0.483 2.3808,0.641 2.5296,0.918 2.5296,1.174 2.5296,1.431 2.6784,1.788 2.6784,2.051 2.9764,2.56 3.422,3.25 4.166,4.276 15.029,15.789 3.571,3.231 2.976,2.39 2.679,1.878 2.529,1.513 2.53,1.246 2.232,0.871 2.232,0.654 2.232,0.44 2.381,0.239 2.381,0.006 2.38,-0.213 2.381,-0.417 2.679,-0.691 2.827,-0.754 2.232,0.277 2.381,0.081 2.529,-0.122 2.679,-0.329 3.273,-0.638 3.423,-0.905 3.422,-1.122 4.018,-1.575 3.868,-1.767 4.316,-2.261 3.72,-2.196 4.315,-2.831 4.613,-3.311 6.249,-4.782 9.97,-7.655 5.505,-3.953 5.06,-3.353 5.059,-3.049 4.613,-2.518 4.017,-1.992 4.167,-1.847 4.017,-1.534 3.869,-1.205 3.422,-0.82 3.423,-0.579 3.422,-0.338 3.571,-0.112 3.423,0.104 4.166,0.368 4.315,0.608 5.357,0.98 9.226,1.968 14.285,2.985 9.374,1.631 12.35,2.117 7.738,1.67 7.44,1.896 6.845,2.022 4.613,1.575 4.761,1.845 5.059,2.194 6.994,3.316 27.379,13.448 4.464,1.816 4.018,1.413 3.72,1.093 3.72,0.867 3.422,0.584 3.274,0.353 3.125,0.136 2.38,0.125 5.357,5.97 15.327,17.281 4.315,4.454 3.72,3.503 2.976,2.505 2.678,1.981 2.53,1.604 2.529,1.322 2.381,0.974 2.083,0.633 2.084,0.431 2.232,0.244 2.232,0.037 2.529,-0.18 2.976,-0.452 4.464,-0.975 7.589,-1.71 4.315,-0.695 3.72,-0.382 4.762,-0.223 5.059,-0.038 0,0"
       style="fill:none;stroke:#bf00bf;stroke-width:1.5;stroke-linecap:square;stroke-linejoin:round"
       id="path15100"
       inkscape:connector-curvature="0" />
  </g>
  <g
     id="line2d_6"
     style="stroke-linecap:square;stroke-linejoin:round">
    <path
       clip-path="url(#p7ff5b81e1d)"
       d="m 72,145.378 4.9104,0.11 2.5296,0.256 2.5296,0.478 2.232,0.643 2.232,0.873 2.232,1.117 2.3808,1.465 2.232,1.626 2.3808,1.997 2.6784,2.548 2.8274,2.998 3.125,3.615 4.166,5.163 11.458,14.38 3.422,3.813 2.976,2.999 2.53,2.251 1.488,1.197 3.422,8.182 2.976,6.559 2.678,5.373 2.381,4.302 2.232,3.595 2.083,2.953 1.935,2.383 1.934,2.031 1.786,1.564 1.785,1.269 1.786,0.984 1.786,0.711 1.785,0.455 1.786,0.217 1.785,0.002 1.935,-0.214 2.083,-0.453 2.232,-0.71 2.53,-1.052 2.678,-1.369 2.827,-1.704 2.976,-2.066 2.976,-2.338 3.125,-2.739 3.274,-3.179 3.273,-3.494 3.274,-3.806 3.422,-4.294 4.167,-5.6 5.654,-8.023 9.821,-13.947 4.91,-6.543 4.315,-5.374 3.869,-4.482 3.869,-4.153 3.869,-3.826 3.571,-3.224 3.571,-2.924 3.274,-2.403 3.125,-2.023 2.976,-1.656 2.976,-1.375 2.678,-0.989 2.678,-0.755 2.828,-0.546 2.678,-0.291 2.678,-0.084 2.976,0.132 3.125,0.372 3.274,0.617 3.72,0.942 4.166,1.306 4.613,1.687 5.357,2.19 6.845,3.031 19.195,8.89 6.696,3.331 5.654,3.101 6.399,3.792 8.481,5.316 5.952,3.954 5.803,4.127 7.143,5.446 9.077,7.237 22.32,17.83 4.315,3.11 4.166,2.742 3.869,2.276 3.571,1.844 3.423,1.514 3.124,1.149 2.976,0.869 2.828,0.604 2.678,0.355 2.53,0.123 2.529,-0.101 2.381,-0.317 2.381,-0.552 2.232,-0.745 2.232,-0.979 2.232,-1.223 2.232,-1.475 2.381,-1.854 2.38,-2.145 2.53,-2.59 2.53,-2.893 2.827,-3.559 3.273,-4.486 4.316,-6.333 10.118,-15.011 3.571,-4.801 3.125,-3.814 2.678,-2.933 2.53,-2.457 2.381,-2.02 2.381,-1.725 2.232,-1.349 2.232,-1.093 2.232,-0.841 2.38,-0.639 2.381,-0.405 2.679,-0.228 3.273,-0.071 0.893,-10e-4 0,0"
       style="fill:none;stroke:#bfbf00;stroke-width:1.5;stroke-linecap:square;stroke-linejoin:round"
       id="path15103"
       inkscape:connector-curvature="0" />
  </g>
  <g
     id="line2d_7"
     style="stroke-linecap:square;stroke-linejoin:round">
    <path
       clip-path="url(#p7ff5b81e1d)"
       d="m 72,204.373 4.464,0.101 2.5296,0.276 2.3808,0.498 2.0832,0.672 2.0832,0.92 1.9344,1.098 1.9344,1.342 2.0832,1.728 2.0832,2.022 2.232,2.494 2.232,2.82 2.53,3.571 2.678,4.17 3.125,5.291 3.869,7.017 11.308,20.846 2.679,4.329 2.232,3.228 2.083,2.63 1.637,1.745 1.488,1.295 1.488,1.002 0.446,0.242 1.191,3.288 2.529,6.614 2.232,5.221 1.935,4.002 1.785,3.23 1.637,2.545 1.637,2.134 1.488,1.573 1.339,1.114 1.339,0.829 1.191,0.498 1.19,0.278 1.19,0.063 1.191,-0.146 1.339,-0.404 1.339,-0.645 1.488,-0.984 1.637,-1.38 1.786,-1.829 1.934,-2.319 2.232,-3.052 2.53,-3.877 2.827,-4.769 3.125,-5.709 3.72,-7.284 5.952,-11.802 4.464,-8.294 4.612,-8.097 4.464,-7.405 4.316,-6.738 5.505,-8.686 9.375,-14.797 4.761,-7.061 3.869,-5.382 4.018,-5.205 3.868,-4.627 3.72,-4.102 3.572,-3.633 3.571,-3.334 3.72,-3.135 3.125,-2.339 2.678,-1.765 2.678,-1.52 2.679,-1.266 2.381,-0.907 2.529,-0.735 2.679,-0.529 2.678,-0.282 2.53,-0.053 2.827,0.17 3.125,0.45 3.124,0.692 3.125,0.904 3.423,1.199 4.166,1.698 5.506,2.548 6.1,3.094 17.559,9.367 8.779,4.881 5.208,3.191 6.25,4.145 7.142,4.996 9.374,6.882 5.506,4.312 6.547,5.411 15.178,13.071 15.029,12.889 5.059,4.022 4.315,3.148 3.869,2.546 3.571,2.088 3.274,1.671 3.124,1.359 2.976,1.061 2.828,0.777 2.678,0.51 2.53,0.258 2.38,0.027 2.381,-0.204 2.232,-0.417 2.232,-0.654 2.083,-0.839 2.084,-1.072 2.083,-1.315 2.232,-1.686 2.232,-1.977 2.381,-2.428 2.38,-2.749 2.53,-3.257 2.827,-4.012 3.274,-5.06 4.017,-6.645 10.863,-18.2 3.422,-5.173 2.976,-4.097 2.679,-3.318 2.38,-2.628 2.381,-2.308 2.381,-1.98 2.083,-1.458 2.083,-1.207 2.232,-1.017 2.084,-0.708 2.083,-0.494 2.381,-0.34 2.976,-0.172 2.678,-0.021 0,0"
       style="fill:none;stroke:#000000;stroke-width:1.5;stroke-linecap:square;stroke-linejoin:round"
       id="path15106"
       inkscape:connector-curvature="0" />
  </g>
  <g
     id="line2d_8"
     style="stroke-linecap:square;stroke-linejoin:round">
    <path
       clip-path="url(#p7ff5b81e1d)"
       d="m 72,134.321 4.3152,0.11 2.3808,0.291 2.0832,0.477 1.7856,0.613 1.7856,0.828 1.7856,1.067 1.7856,1.319 1.7856,1.587 1.7856,1.862 1.9344,2.337 2.0832,2.891 2.0832,3.276 2.232,3.927 2.3804,4.641 2.679,5.732 3.125,7.249 5.803,14.165 5.059,12.168 3.125,6.958 2.381,4.82 2.083,3.774 1.934,3.066 1.786,2.409 1.637,1.817 1.488,1.306 1.339,0.882 1.19,0.543 1.191,0.313 1.19,0.081 1.19,-0.151 0.893,-0.108 1.935,4.219 1.785,3.403 1.637,2.684 1.637,2.253 1.488,1.665 1.339,1.184 1.339,0.887 1.191,0.542 1.19,0.314 1.19,0.092 1.191,-0.123 1.19,-0.331 1.339,-0.607 1.488,-0.95 1.488,-1.218 1.637,-1.622 1.935,-2.257 2.232,-2.988 2.678,-3.985 3.125,-5.062 4.017,-6.959 5.357,-9.762 8.482,-15.99 8.035,-15.53 7.142,-14.455 6.696,-13.39 4.316,-8.158 4.017,-7.114 3.571,-5.877 3.572,-5.433 3.273,-4.584 3.125,-4.033 3.274,-3.886 3.273,-3.563 3.423,-3.395 3.422,-3.0586 2.976,-2.3766 2.827,-1.9941 2.679,-1.6381 2.827,-1.4504 2.678,-1.1059 2.679,-0.8433 2.529,-0.5633 2.827,-0.3698 2.53,-0.1118 2.827,0.1072 2.976,0.3583 2.976,0.5898 2.976,0.7972 3.423,1.1474 3.72,1.4918 4.017,1.857 4.018,2.0759 4.91,2.7856 6.994,4.2957 9.225,5.916 6.696,4.481 4.911,3.55 4.464,3.485 5.059,4.212 8.779,7.688 9.821,8.963 8.333,8.018 27.081,26.473 6.696,6.179 4.762,4.062 3.869,3.009 3.72,2.6 3.273,2.023 3.274,1.751 2.976,1.334 2.678,0.971 2.53,0.699 2.53,0.467 2.38,0.207 2.232,-0.028 2.232,-0.264 2.084,-0.475 2.083,-0.711 2.083,-0.964 1.934,-1.133 1.935,-1.374 2.083,-1.755 2.083,-2.046 2.232,-2.518 2.232,-2.849 2.381,-3.393 2.53,-3.98 2.827,-4.859 3.422,-6.361 4.315,-8.513 8.928,-17.663 3.572,-6.469 2.827,-4.701 2.827,-4.259 2.381,-3.211 2.232,-2.676 2.232,-2.343 2.083,-1.881 2.083,-1.587 2.083,-1.293 1.935,-0.948 1.934,-0.718 2.083,-0.538 2.232,-0.347 2.53,-0.173 2.976,-0.034 0,0"
       style="fill:none;stroke:#0000ff;stroke-width:1.5;stroke-linecap:square;stroke-linejoin:round"
       id="path15109"
       inkscape:connector-curvature="0" />
  </g>
  <g
     id="line2d_9"
     style="stroke-linecap:square;stroke-linejoin:round">
    <path
       clip-path="url(#p7ff5b81e1d)"
       d="m 72,156.889 4.6128,0.104 2.6784,0.294 2.3808,0.498 2.232,0.716 2.0832,0.915 2.0832,1.169 2.0832,1.436 2.0832,1.708 2.232,2.134 2.232,2.441 2.3808,2.927 2.6784,3.659 2.827,4.221 0.595,1.521 3.125,8.736 4.167,12.396 10.713,32.249 2.827,7.576 2.232,5.392 1.935,4.152 1.785,3.333 1.637,2.586 1.488,1.929 1.339,1.374 1.191,0.923 1.19,0.636 1.042,0.317 1.041,0.093 1.042,-0.131 1.042,-0.351 1.041,-0.569 1.191,-0.912 1.19,-1.181 0.446,-0.51 0.298,0.424 1.637,2.832 1.488,2.15 1.339,1.585 1.339,1.254 1.191,0.837 1.19,0.58 1.19,0.328 1.191,0.084 1.19,-0.153 1.191,-0.379 1.339,-0.682 1.339,-0.939 1.488,-1.321 1.637,-1.765 1.785,-2.264 1.935,-2.811 2.232,-3.652 2.529,-4.595 2.828,-5.624 3.273,-7.044 3.72,-8.563 4.315,-10.523 4.911,-12.59 5.654,-15.137 13.541,-36.596 3.869,-9.611 3.422,-7.906 3.274,-6.989 2.976,-5.849 2.976,-5.361 2.827,-4.65 2.827,-4.23 2.827,-3.831 2.828,-3.459 2.827,-3.1031 2.827,-2.7602 2.678,-2.3028 2.53,-1.8962 2.53,-1.6174 2.38,-1.2649 2.232,-0.9573 2.232,-0.7373 2.381,-0.5495 2.232,-0.2984 2.381,-0.099 2.53,0.1278 2.678,0.3779 2.678,0.6048 2.828,0.8582 3.124,1.1785 3.72,1.667 4.464,2.3005 4.316,2.4595 5.803,3.5885 6.249,4.1434 11.012,7.636 10.416,7.392 4.612,3.566 4.316,3.608 4.761,4.268 6.25,5.904 14.433,14.121 12.351,12.088 6.101,5.661 7.142,6.32 9.077,7.794 6.249,5.134 4.167,3.184 4.017,2.819 3.869,2.443 3.869,2.155 3.274,1.582 3.124,1.282 2.976,0.989 2.679,0.674 2.529,0.426 2.381,0.192 2.381,-0.031 2.083,-0.227 2.083,-0.43 2.084,-0.649 2.083,-0.884 1.934,-1.04 2.083,-1.37 2.232,-1.761 2.084,-1.922 2.232,-2.357 2.38,-2.847 2.381,-3.181 2.381,-3.545 2.678,-4.404 2.976,-5.333 4.018,-7.731 11.309,-22.083 3.125,-5.467 2.827,-4.511 2.529,-3.633 2.381,-3.042 2.232,-2.499 2.232,-2.15 2.083,-1.688 1.935,-1.295 1.934,-1.035 1.935,-0.793 2.083,-0.602 2.232,-0.397 2.529,-0.206 3.274,-0.048 0,0"
       style="fill:none;stroke:#008000;stroke-width:1.5;stroke-linecap:square;stroke-linejoin:round"
       id="path15112"
       inkscape:connector-curvature="0" />
  </g>
  <g
     id="line2d_10"
     style="stroke-linecap:square;stroke-linejoin:round">
    <path
       clip-path="url(#p7ff5b81e1d)"
       d="m 72,176.316 4.3152,0.108 2.3808,0.284 2.0832,0.463 1.9344,0.653 1.9344,0.897 1.7856,1.064 1.7856,1.304 1.9344,1.692 1.9344,1.989 2.0832,2.476 2.232,3.008 2.5296,3.805 2.8272,4.668 4.018,7.154 7.737,13.966 2.827,4.581 2.232,3.205 1.935,2.398 1.637,1.703 1.488,1.255 1.339,0.87 1.339,0.606 1.19,0.306 1.191,0.08 1.19,-0.155 1.191,-0.393 0.595,-0.21 2.083,4.6 1.934,3.733 1.637,2.712 1.488,2.086 1.488,1.707 1.339,1.202 1.191,0.798 1.19,0.54 1.191,0.282 1.19,0.025 1.19,-0.23 1.191,-0.478 1.19,-0.722 1.339,-1.092 1.34,-1.375 1.488,-1.841 1.636,-2.38 1.786,-2.981 2.083,-3.929 2.381,-4.995 2.976,-6.816 4.762,-11.518 12.35,-30.114 5.357,-12.409 7.291,-16.864 18.451,-43.147 4.018,-8.52 3.571,-7.0793 3.422,-6.3107 3.274,-5.5883 3.125,-4.9283 3.125,-4.5423 3.422,-4.5539 3.125,-3.8039 1.19,-1.3651 0.149,0.0046 3.571,8.0375 2.827,5.8602 2.53,4.7221 2.232,3.7106 2.083,3.047 1.935,2.4561 1.934,2.0943 1.786,1.614 1.785,1.3167 1.786,1.0322 1.785,0.7603 1.786,0.5104 1.786,0.2787 1.785,0.0669 1.935,-0.144 2.083,-0.3791 2.232,-0.6301 2.529,-0.9516 3.125,-1.4492 3.571,-1.9169 5.506,-3.2383 7.738,-4.4859 4.315,-2.1865 3.273,-1.433 3.423,-1.2672 3.422,-1.0311 3.423,-0.8133 4.017,-0.7269 6.101,-0.8341 5.506,-0.72 5.505,4.2682 6.399,5.2405 11.904,10.0961 8.332,7.4336 7.143,6.674 19.939,18.985 7.886,7.361 4.762,4.204 4.315,3.537 3.869,2.894 3.422,2.311 3.572,2.136 3.422,1.759 2.827,1.222 2.976,1.039 2.679,0.699 2.678,0.45 2.381,0.173 2.381,-0.064 2.232,-0.291 2.083,-0.492 2.083,-0.719 2.083,-0.962 1.935,-1.118 1.934,-1.343 2.083,-1.705 2.083,-1.974 2.232,-2.41 2.381,-2.902 2.53,-3.435 2.827,-4.229 3.274,-5.326 4.166,-7.238 9.821,-17.193 3.273,-5.217 2.976,-4.3403 2.679,-3.5228 2.529,-2.9583 2.381,-2.4376 2.083,-1.849 2.232,-1.6819 2.084,-1.2926 2.083,-1.031 2.083,-0.7799 2.083,-0.5518 2.381,-0.3871 2.53,-0.1901 3.422,-0.0472 0,0"
       style="fill:none;stroke:#ff0000;stroke-width:1.5;stroke-linecap:square;stroke-linejoin:round"
       id="path15115"
       inkscape:connector-curvature="0" />
  </g>
  <g
     id="line2d_11"
     style="stroke-linecap:square;stroke-linejoin:round">
    <path
       clip-path="url(#p7ff5b81e1d)"
       d="m 72,242.315 4.1664,0.107 2.3808,0.296 1.9344,0.451 1.9344,0.685 1.7856,0.873 1.7856,1.127 1.7856,1.402 1.7856,1.69 1.7856,1.99 1.9344,2.501 1.9344,2.863 2.0832,3.483 2.232,4.175 2.678,5.488 3.572,7.876 8.184,18.27 2.38,4.661 1.935,3.316 1.637,2.383 1.488,1.764 1.19,1.102 1.19,0.798 1.042,0.433 1.042,0.173 0.892,-0.068 0.893,-0.272 0.893,-0.48 1.042,-0.825 1.041,-1.111 1.191,-1.616 0.595,-0.945 0.149,0.163 1.785,4.155 1.488,2.963 1.339,2.239 1.34,1.805 1.19,1.222 1.042,0.765 1.041,0.474 0.893,0.173 0.893,-0.042 0.893,-0.256 0.892,-0.468 1.042,-0.807 1.042,-1.082 1.19,-1.559 1.339,-2.143 1.488,-2.829 1.637,-3.609 1.934,-4.857 2.232,-6.28 2.53,-7.826 3.125,-10.45 4.017,-14.287 5.952,-22.093 17.112,-63.892 10.119,-36.638 6.249,-21.911 4.613,-15.363 3.72,-11.6598 3.423,-10.0501 3.273,-8.9556 2.083,-5.3545 0.149,0.1993 3.72,12.0372 3.274,9.8323 3.125,8.6792 2.976,7.607 2.827,6.623 2.678,5.713 2.53,4.866 2.232,3.839 2.083,3.176 1.934,2.579 2.232,2.603 2.232,2.252 2.084,1.779 1.934,1.373 1.934,1.108 1.935,0.849 1.934,0.6 1.935,0.365 1.934,0.147 1.934,-0.058 2.084,-0.272 2.083,-0.47 2.232,-0.706 2.678,-1.112 2.976,-1.501 3.571,-2.057 5.506,-3.453 6.547,-4.081 4.613,-2.591 3.422,-1.686 3.274,-1.398 3.422,-1.233 3.572,-1.053 3.868,-0.911 5.357,-1.009 9.077,-1.725 4.018,-0.983 4.464,-1.324 4.166,-1.471 3.72,-1.527 3.869,-1.823 3.571,-1.918 3.72,-2.257 3.422,-2.324 3.72,-2.814 3.274,-2.7428 3.72,-3.3834 7.291,5.7312 19.939,15.302 5.208,3.698 4.762,3.115 5.059,3.004 4.613,2.449 4.166,1.944 3.572,1.435 3.571,1.186 3.273,0.825 2.679,0.456 2.678,0.226 2.381,-0.019 2.381,-0.25 2.232,-0.462 2.232,-0.697 2.232,-0.942 2.232,-1.194 2.232,-1.449 2.381,-1.825 2.232,-2.002 2.38,-2.454 2.53,-2.936 2.827,-3.621 3.72,-5.16 12.202,-17.2069 3.125,-3.8385 2.678,-2.9572 2.53,-2.4722 2.38,-2.0194 2.232,-1.614 2.232,-1.3375 2.084,-1.0022 2.083,-0.773 2.083,-0.5587 2.381,-0.4078 2.976,-0.235 3.571,-0.0484 0,0"
       style="fill:none;stroke:#00bfbf;stroke-width:1.5;stroke-linecap:square;stroke-linejoin:round"
       id="path15118"
       inkscape:connector-curvature="0" />
  </g>
  <g
     id="line2d_12"
     style="stroke-linecap:square;stroke-linejoin:round">
    <path
       clip-path="url(#p7ff5b81e1d)"
       d="m 72,306.591 9.9696,0.107 5.8032,0.299 5.6544,0.525 11.3088,1.14 3.274,0.044 2.827,-0.186 1.785,-0.297 1.191,-0.475 1.19,-0.749 1.191,-1.035 1.19,-1.327 1.339,-1.848 1.339,-2.22 1.488,-2.896 1.637,-3.686 1.786,-4.585 3.571,-10.092 4.018,-11.922 2.529,-8.309 2.976,-10.582 3.869,-14.665 6.696,-26.466 6.696,-26.108 4.91,-18.232 4.762,-16.858 5.357,-18.158 1.041,-3.341 2.976,-0.89 3.869,-1.401 6.25,-2.585 14.285,-6.072 7.737,-3 4.762,-1.62 4.315,-1.257 4.166,-1.017 5.06,-1.025 7.588,-1.299 13.541,-1.989 5.655,-0.594 4.166,-0.219 4.018,0.013 4.464,0.243 17.558,1.25 16.219,0.521 4.613,-0.106 4.166,-0.299 4.911,-0.601 5.803,-0.962 18.154,-3.2605 8.332,-1.1797 11.458,-1.6128 3.125,-0.7131 2.678,-0.8121 2.53,-0.9758 2.529,-1.2107 2.53,-1.4723 2.381,-1.6485 2.381,-1.9204 2.38,-2.2072 2.381,-2.2384 6.547,15.2318 4.018,8.7947 3.422,6.989 3.125,5.912 3.125,5.436 2.827,4.505 2.827,4.12 3.274,4.356 4.315,5.339 6.25,7.334 5.208,5.762 4.91,5.122 3.423,3.3 3.124,2.712 2.976,2.26 2.679,1.738 2.529,1.385 2.679,1.208 2.678,0.971 3.125,0.883 3.72,0.784 5.654,0.896 6.994,1.141 5.357,1.147 4.761,1.255 5.804,1.776 8.928,3.017 7.142,2.373 4.315,1.227 3.423,0.74 3.124,0.446 3.572,0.249 4.166,0.056 0,0"
       style="fill:none;stroke:#bf00bf;stroke-width:1.5;stroke-linecap:square;stroke-linejoin:round"
       id="path15121"
       inkscape:connector-curvature="0" />
  </g>
  <g
     id="line2d_13"
     style="stroke-linecap:square;stroke-linejoin:round">
    <path
       clip-path="url(#p7ff5b81e1d)"
       d="m 72,325.042 5.6544,-0.108 3.1248,-0.281 2.6784,-0.45 2.5296,-0.65 2.3808,-0.847 2.232,-1.033 2.0832,-1.199 2.0832,-1.451 2.0832,-1.728 2.0832,-2.032 2.0832,-2.357 2.083,-2.704 2.083,-3.068 1.191,-1.923 0.297,0.253 5.506,6.342 7.44,8.529 3.869,4.096 3.273,3.161 2.976,2.576 2.679,2.043 2.529,1.668 1.191,0.589 0.744,0.112 0.744,-0.109 0.744,-0.328 0.893,-0.675 0.892,-0.972 1.042,-1.487 1.19,-2.123 1.34,-2.869 1.636,-4.085 1.935,-5.477 2.827,-8.784 9.821,-30.45 20.981,-65.464 6.1,-17.892 6.399,-18.042 6.845,-18.657 0.744,-1.989 0.148,-0.056 4.762,3.659 4.166,2.932 3.869,2.446 3.571,1.977 3.125,1.478 2.976,1.156 2.827,0.848 2.828,0.589 2.529,0.303 2.53,0.092 2.678,-0.131 2.679,-0.355 2.678,-0.565 2.976,-0.845 3.274,-1.151 4.315,-1.755 9.821,-4.3 6.547,-3.055 4.315,-2.295 4.018,-2.424 3.868,-2.611 3.572,-2.643 3.72,-2.984 3.868,-3.371 3.572,-3.384 3.571,-3.688 3.72,-4.188 3.869,-4.719 4.315,-5.624 6.398,-8.754 7.738,-10.547 2.827,-3.421 2.827,-3.0713 2.827,-2.7106 2.53,-2.1185 1.339,-1.0057 0.149,-0.0069 5.654,10.9992 6.399,12.9198 5.505,11.586 5.06,11.142 5.356,12.334 15.178,35.342 3.72,7.866 3.274,6.417 2.976,5.367 2.827,4.658 2.827,4.217 2.827,3.807 4.315,5.438 5.208,6.185 3.125,3.366 3.72,3.662 5.803,5.359 8.333,7.427 3.72,3.024 3.125,2.252 2.827,1.764 2.679,1.414 2.678,1.169 2.827,0.989 2.976,0.807 3.423,0.694 4.612,0.684 12.053,1.666 5.208,0.998 5.506,1.283 7.291,1.959 12.797,3.474 4.017,0.823 3.423,0.477 3.571,0.267 4.315,0.083 0.893,0.002 0,0"
       style="fill:none;stroke:#bfbf00;stroke-width:1.5;stroke-linecap:square;stroke-linejoin:round"
       id="path15124"
       inkscape:connector-curvature="0" />
  </g>
  <g
     id="line2d_14"
     style="stroke-linecap:square;stroke-linejoin:round">
    <path
       clip-path="url(#p7ff5b81e1d)"
       d="m 72,307.962 4.0176,-0.103 2.232,-0.27 1.3392,-0.152 3.1248,0.391 2.976,0.59 3.1248,0.845 3.72,1.244 9.0766,3.152 2.381,0.517 1.934,0.202 1.786,-0.04 1.637,-0.27 1.488,-0.463 1.488,-0.706 1.488,-0.976 1.488,-1.266 1.488,-1.568 3.72,-4.336 3.571,-4.503 3.72,-5.061 3.869,-5.655 0.595,-0.796 6.845,22.71 2.083,6.196 1.786,4.6 1.488,3.23 1.339,2.37 1.19,1.638 1.042,1.047 0.893,0.602 0.892,0.324 1.488,0.172 1.637,-0.031 1.637,-0.257 1.637,-0.48 1.785,-0.766 1.935,-1.096 2.083,-1.456 2.381,-1.958 2.678,-2.503 2.679,-2.784 1.636,-2.082 1.786,-2.674 1.934,-3.305 2.232,-4.251 2.679,-5.598 3.273,-7.39 4.018,-9.639 5.208,-13.086 7.291,-18.976 10.267,-26.71 4.316,-10.566 3.72,-8.532 3.273,-6.968 2.976,-5.831 2.381,-4.303 0.149,-0.194 2.232,1.387 2.232,1.119 2.232,0.852 2.083,0.555 2.083,0.328 2.083,0.107 2.084,-0.103 2.232,-0.332 2.38,-0.585 2.679,-0.915 3.125,-1.352 3.124,-1.589 3.869,-2.22 4.315,-2.768 3.72,-2.66 3.423,-2.728 3.273,-2.897 3.572,-3.498 3.571,-3.836 4.017,-4.674 2.084,-2.49 3.868,0.37 3.572,0.111 3.571,-0.11 3.422,-0.291 4.167,-0.563 5.208,-0.957 8.928,-1.976 5.356,-1.4 3.423,-1.121 3.125,-1.275 2.827,-1.406 2.827,-1.67 6.845,20.368 26.189,77.922 5.059,14.439 3.72,9.99 3.125,7.784 2.678,6.115 2.53,5.226 2.232,4.121 2.083,3.399 1.934,2.751 1.786,2.183 5.505,6.105 4.167,4.386 1.785,1.489 1.786,1.183 1.637,0.83 1.785,0.646 1.786,0.407 1.934,0.211 2.232,0.012 2.53,-0.211 2.976,-0.47 3.274,-0.741 3.124,-0.942 2.679,-1.034 2.678,-1.272 2.827,-1.605 3.125,-2.051 3.72,-2.441 3.72,-2.182 3.423,-1.767 3.273,-1.45 3.125,-1.141 2.827,-0.811 2.827,-0.587 2.828,-0.36 2.827,-0.132 2.827,0.089 2.827,0.3 3.125,0.56 3.422,0.855 4.018,1.255 3.869,1.412 6.398,2.937 3.72,1.468 3.125,1.017 2.976,0.744 2.976,0.512 3.274,0.313 3.868,0.117 1.786,0.005 0,0"
       style="fill:none;stroke:#000000;stroke-width:1.5;stroke-linecap:square;stroke-linejoin:round"
       id="path15127"
       inkscape:connector-curvature="0" />
  </g>
  <g
     id="line2d_15"
     style="stroke-linecap:square;stroke-linejoin:round">
    <path
       clip-path="url(#p7ff5b81e1d)"
       d="m 72,317.518 4.1664,-0.104 2.3808,-0.287 2.0832,-0.476 1.9344,-0.671 1.9344,-0.923 1.7856,-1.092 1.9344,-1.458 1.9344,-1.748 1.9344,-2.043 2.0832,-2.53 2.232,-3.086 2.3808,-3.712 2.53,-4.396 2.678,-5.13 2.976,-6.219 3.274,-7.085 2.678,5.603 7.44,16.012 2.381,4.556 1.934,3.265 1.637,2.364 1.488,1.769 1.339,1.24 1.191,0.796 1.041,0.444 1.042,0.198 1.041,-0.054 1.042,-0.302 1.042,-0.557 1.041,-0.81 1.191,-1.227 1.339,-1.749 1.488,-2.372 1.637,-3.083 1.785,-3.859 3.274,-7.347 0.149,0.074 2.827,6.367 2.678,5.488 2.53,4.69 2.529,4.239 2.084,3.13 1.339,1.63 1.339,1.286 1.19,0.858 1.191,0.594 1.19,0.337 1.191,0.085 1.785,-0.176 2.083,-0.438 2.084,-0.667 2.232,-0.957 2.232,-1.203 2.232,-1.448 2.38,-1.813 2.381,-2.088 2.53,-2.516 2.678,-2.992 2.679,-3.325 2.827,-3.863 2.827,-4.227 2.381,-3.986 2.678,-4.923 3.423,-6.784 5.952,-12.393 5.059,-10.322 3.422,-6.496 2.827,-4.918 2.53,-3.983 2.381,-3.347 2.232,-2.756 2.083,-2.226 1.934,-1.759 1.935,-1.463 1.785,-1.087 1.786,-0.84 1.786,-0.602 1.785,-0.375 1.786,-0.163 1.934,0.042 2.083,0.271 2.381,0.547 2.679,0.852 3.124,1.234 3.572,1.653 3.72,1.97 3.422,2.063 3.422,2.326 3.869,2.907 10.565,8.105 9.226,6.186 2.083,1.201 1.934,0.873 1.786,0.574 1.637,0.314 1.636,0.093 1.637,-0.142 1.488,-0.344 1.488,-0.556 1.637,-0.861 1.637,-1.126 1.637,-1.393 1.785,-1.822 1.786,-2.137 1.934,-2.663 2.083,-3.268 2.232,-3.952 2.232,-4.411 2.381,-5.199 2.53,-6.054 2.827,-7.361 3.125,-8.765 1.041,-3.046 9.672,35.179 3.572,11.742 3.422,10.513 3.274,9.348 3.124,8.25 2.828,6.856 2.678,5.909 2.381,4.717 2.083,3.662 1.934,2.969 1.786,2.34 1.637,1.786 1.488,1.313 1.488,1.012 1.339,0.65 1.488,0.454 8.333,2.061 1.637,0.064 3.422,-0.044 1.488,0.35 1.637,0.633 1.785,0.941 2.084,1.367 2.38,1.833 4.464,3.54 1.935,1.134 2.083,0.942 2.083,0.696 2.381,0.553 2.53,0.361 2.678,0.167 2.678,-0.05 2.381,-0.253 2.232,-0.453 2.083,-0.645 2.084,-0.877 2.232,-1.201 2.232,-1.462 2.529,-1.936 2.976,-2.58 6.845,-6.098 2.232,-1.561 2.232,-1.301 1.042,-0.517 0.595,1.216 2.827,5.762 2.381,4.351 2.083,3.348 1.786,2.484 1.785,2.102 1.637,1.576 1.488,1.137 1.488,0.856 1.19,0.466 1.191,0.235 1.19,0.266 1.339,0.292 1.34,0.058 1.339,-0.181 1.339,-0.423 1.339,-0.657 1.488,-0.991 1.637,-1.377 1.934,-1.952 2.381,-2.749 5.059,-6.027 3.572,1.594 2.976,1.098 2.976,0.854 1.934,0.57 2.083,0.587 2.232,0.397 2.53,0.219 3.571,0.06 0,0"
       style="fill:none;stroke:#0000ff;stroke-width:1.5;stroke-linecap:square;stroke-linejoin:round"
       id="path15130"
       inkscape:connector-curvature="0" />
  </g>
  <g
     id="line2d_16"
     style="stroke-linecap:square;stroke-linejoin:round">
    <path
       clip-path="url(#p7ff5b81e1d)"
       d="m 72,242.703 4.3152,-0.104 2.5296,-0.292 2.0832,-0.452 2.0832,-0.682 1.9344,-0.865 1.9344,-1.105 2.0832,-1.466 2.0832,-1.755 2.0832,-2.044 2.232,-2.506 2.3808,-3.026 2.5296,-3.594 2.678,-4.202 2.976,-5.101 3.125,-5.775 3.869,-7.624 5.357,-11.114 1.785,-3.526 3.572,9.664 4.315,12.35 5.803,16.708 2.53,6.477 2.232,5.097 1.934,3.861 1.637,2.814 1.488,2.17 1.488,1.781 1.339,1.26 1.19,0.845 1.191,0.584 1.19,0.334 2.232,0.58 2.083,2.637 2.084,2.292 2.083,1.97 2.232,1.799 2.529,1.726 2.828,1.654 3.72,1.905 5.208,2.394 4.017,1.639 1.191,0.242 1.19,0.034 1.19,-0.169 1.34,-0.432 1.339,-0.679 1.339,-0.916 1.488,-1.286 1.637,-1.719 1.785,-2.215 1.935,-2.767 2.083,-3.364 2.381,-4.273 2.678,-5.267 3.274,-6.942 4.613,-10.358 8.035,-18.077 3.72,-7.757 2.976,-5.71 2.678,-4.681 2.53,-3.971 2.381,-3.309 2.232,-2.709 2.083,-2.177 1.934,-1.714 1.935,-1.402 1.785,-1.017 1.786,-0.755 1.637,-0.466 1.636,-0.26 1.786,-0.054 1.786,0.17 1.934,0.414 2.083,0.689 2.083,0.913 2.232,1.201 2.381,1.518 2.53,1.874 2.529,2.147 2.53,2.446 2.53,2.756 3.868,4.569 4.762,6.031 8.928,11.373 2.976,3.344 2.381,2.348 2.083,1.747 1.786,1.226 1.636,0.871 3.869,1.603 3.72,1.374 1.339,0.197 1.191,-0.039 1.19,-0.247 1.191,-0.463 1.339,-0.782 1.339,-1.06 1.339,-1.34 1.488,-1.812 1.637,-2.377 1.637,-2.768 1.785,-3.445 1.935,-4.207 2.232,-5.427 2.381,-6.415 2.529,-7.452 2.976,-9.492 3.423,-11.682 3.422,-12.258 0.149,0.283 3.422,12.459 3.125,10.538 2.827,8.774 2.679,7.614 2.678,6.921 2.381,5.569 2.381,5.025 2.232,4.22 2.232,3.742 2.083,3.058 1.934,2.457 1.786,1.934 1.785,1.605 1.637,1.176 1.637,0.893 1.488,0.568 1.488,0.34 1.488,0.12 1.488,-0.09 1.637,-0.323 3.125,-0.762 4.166,1.269 3.125,1.192 2.381,0.841 2.529,0.655 2.53,0.431 2.678,0.225 2.679,0.003 2.976,-0.227 3.422,-0.494 10.118,-1.851 4.762,-0.965 2.678,-0.775 2.232,-0.883 2.084,-1.076 1.934,-1.06 1.786,3.495 1.488,2.477 1.339,1.852 1.339,1.468 1.19,0.971 3.572,2.405 1.636,0.949 1.042,0.352 1.19,0.15 1.191,-0.095 1.19,-0.315 1.339,-0.578 1.637,-0.965 2.083,-1.503 4.316,-3.276 0.595,0.858 1.934,2.734 1.786,2.174 1.637,1.674 1.636,1.353 1.637,1.041 1.786,0.892 1.785,0.639 1.637,0.352 1.637,0.117 1.637,-0.122 1.637,-0.363 0.148,-0.045 0.149,0.08 2.976,4.569 8.333,13.032 3.274,4.475 2.529,3.084 2.232,2.365 1.935,1.741 1.934,1.441 1.786,1.061 1.785,0.81 1.786,0.577 1.934,0.395 2.232,0.219 3.125,0.057 0,0"
       style="fill:none;stroke:#008000;stroke-width:1.5;stroke-linecap:square;stroke-linejoin:round"
       id="path15133"
       inkscape:connector-curvature="0" />
  </g>
  <g
     id="line2d_17"
     style="stroke-linecap:square;stroke-linejoin:round">
    <path
       clip-path="url(#p7ff5b81e1d)"
       d="m 72,279.337 4.464,-0.114 2.3808,-0.278 2.232,-0.487 2.0832,-0.691 1.9344,-0.871 1.9344,-1.106 2.0832,-1.459 2.0832,-1.738 2.232,-2.172 2.232,-2.485 2.3808,-2.982 2.53,-3.525 2.827,-4.337 3.125,-5.225 3.571,-6.428 4.464,-8.527 15.921,-30.888 4.018,7.209 3.571,5.977 2.976,4.578 2.679,3.724 2.38,2.931 2.084,2.221 1.934,1.741 1.786,1.317 1.785,1.036 1.637,0.706 1.786,0.517 1.785,0.275 1.488,0.15 1.935,3.38 1.785,2.687 1.637,2.071 1.488,1.536 1.339,1.086 1.339,0.798 1.191,0.462 1.19,0.22 1.191,-0.027 1.19,-0.275 1.19,-0.526 1.191,-0.775 1.339,-1.168 1.339,-1.476 1.488,-1.992 1.637,-2.603 1.786,-3.304 1.934,-4.09 1.786,-3.836 4.761,-2.034 5.357,-2.537 1.934,-1.072 1.786,-1.272 1.934,-1.666 2.084,-2.092 2.38,-2.712 2.976,-3.753 4.167,-5.628 5.803,-7.729 2.827,-3.378 0.447,-0.381 1.785,1.172 1.637,0.827 1.786,0.644 1.636,0.366 1.786,0.167 1.786,-0.062 1.785,-0.28 1.786,-0.486 1.934,-0.749 2.083,-1.049 2.232,-1.384 2.381,-1.748 1.488,-1.045 2.083,1.942 2.381,2.531 2.827,3.361 3.274,4.281 3.422,4.843 3.72,5.664 3.423,5.599 3.571,6.263 3.869,7.243 4.91,9.713 8.035,15.946 2.232,4.56 2.232,5.055 4.911,11.437 1.934,3.797 1.488,2.483 1.339,1.831 1.191,1.252 1.041,0.781 4.613,2.93 0.893,0.379 0.744,0.09 0.744,-0.123 0.744,-0.337 0.893,-0.691 0.893,-1 1.041,-1.547 1.042,-1.94 1.19,-2.673 1.339,-3.54 1.637,-5.011 1.786,-6.211 2.083,-8.066 2.53,-10.752 2.976,-13.672 3.868,-18.903 5.06,-25.738 0.595,2.53 4.464,20.371 3.125,14.039 2.827,11.715 2.529,9.567 2.232,7.644 2.084,6.391 1.934,5.243 1.786,4.2 1.636,3.269 1.488,2.463 1.34,1.785 1.19,1.234 1.042,0.803 1.041,0.543 1.042,0.283 1.041,0.026 1.042,-0.226 1.042,-0.47 1.041,-0.703 1.786,-1.558 5.952,-5.477 1.637,-1.9 1.934,-2.608 2.53,-3.828 3.868,-6.339 8.036,-13.229 4.91,-7.605 4.762,-6.971 2.976,-4.134 0.148,-0.025 2.679,5.969 2.678,6.52 2.827,7.477 3.125,8.917 6.101,17.749 1.637,3.946 1.339,2.717 1.19,1.935 1.042,1.262 0.893,0.732 2.232,1.375 1.785,0.889 0.744,0.104 0.744,-0.161 0.744,-0.423 0.744,-0.679 0.893,-1.138 1.042,-1.742 1.19,-2.48 5.208,-11.753 5.655,-10.953 7.142,-11.934 1.934,-2.612 0.298,-0.358 2.232,5.077 2.083,4.212 1.935,3.435 1.785,2.76 1.786,2.354 1.339,1.427 1.339,1.11 1.191,0.711 1.19,0.449 1.19,0.187 1.191,-0.068 1.19,-0.311 1.191,-0.538 1.339,-0.851 1.488,-1.207 1.785,-1.735 0.893,-0.956 0.149,0.098 2.381,3.921 2.232,3.253 2.083,2.648 1.934,2.115 1.935,1.782 1.785,1.351 1.786,1.079 1.786,0.822 1.934,0.627 1.934,0.391 2.232,0.222 3.274,0.065 0,0"
       style="fill:none;stroke:#ff0000;stroke-width:1.5;stroke-linecap:square;stroke-linejoin:round"
       id="path15136"
       inkscape:connector-curvature="0" />
  </g>
  <g
     id="line2d_18"
     style="stroke-linecap:square;stroke-linejoin:round">
    <path
       clip-path="url(#p7ff5b81e1d)"
       d="m 72,241.907 4.1664,-0.106 2.3808,-0.292 2.0832,-0.483 1.9344,-0.681 1.9344,-0.935 1.7856,-1.104 1.7856,-1.348 1.9344,-1.738 2.0832,-2.199 2.0832,-2.536 2.232,-3.085 2.3808,-3.698 2.53,-4.364 2.678,-5.071 3.125,-6.438 3.422,-7.59 4.167,-9.809 3.273,-7.96 18.303,48.155 4.017,9.618 3.274,7.28 2.827,5.765 2.53,4.659 2.232,3.671 2.232,3.24 2.083,2.638 2.083,2.285 2.083,1.966 2.232,1.809 2.679,1.864 3.124,1.891 4.167,2.251 5.357,2.638 4.612,2.029 4.018,1.521 1.786,0.523 1.19,0.089 1.19,-0.145 1.191,-0.374 1.19,-0.597 1.339,-0.929 1.488,-1.336 1.488,-1.634 1.786,-2.32 1.934,-2.902 3.572,-5.841 4.761,-8.253 8.035,-13.951 3.423,-5.459 2.678,-3.886 2.381,-3.091 2.232,-2.535 1.934,-1.883 1.786,-1.458 1.786,-1.175 1.636,-0.818 1.637,-0.562 1.488,-0.286 1.637,-0.088 1.637,0.134 1.637,0.35 1.636,0.564 1.786,0.844 1.934,1.164 2.084,1.512 2.529,2.137 2.976,2.837 3.72,3.886 4.613,5.159 5.208,6.161 12.648,15.228 2.232,2.184 1.786,1.462 1.636,1.06 4.167,2.241 3.422,1.632 1.191,0.327 1.041,0.062 1.042,-0.161 1.041,-0.394 1.042,-0.638 1.042,-0.886 1.19,-1.324 1.19,-1.654 1.34,-2.254 1.488,-2.979 1.636,-3.826 1.786,-4.783 1.934,-5.829 2.232,-7.455 2.53,-9.249 2.976,-11.763 3.422,-14.455 4.167,-18.617 2.678,-12.432 1.042,4.808 5.059,23.136 3.571,15.369 2.976,11.864 2.53,9.199 2.232,7.298 1.934,5.621 1.786,4.542 1.637,3.573 1.488,2.73 1.339,2.023 1.19,1.445 1.191,1.113 1.041,0.701 1.042,0.449 1.041,0.204 1.042,-0.034 1.042,-0.266 1.041,-0.486 3.125,-1.953 4.166,-2.75 1.34,-1.215 1.488,-1.665 1.636,-2.185 1.786,-2.756 2.083,-3.635 4.018,-7.208 1.488,-2.04 1.488,-1.651 1.339,-1.163 2.083,-1.423 2.53,-1.936 2.976,-2.578 3.571,-3.396 4.315,-4.417 5.952,-6.441 6.547,-7.02 3.72,-3.647 4.018,-3.583 10.416,-9.004 1.042,-0.901 2.38,1.459 1.786,0.862 1.042,0.227 0.892,-0.013 1.042,-0.256 1.042,-0.511 1.041,-0.76 0.149,0.199 11.309,31.984 3.273,8.219 2.976,6.91 2.828,6.014 2.529,4.858 2.232,3.804 1.935,2.869 2.529,3.289 2.083,2.371 1.935,1.866 2.678,2.455 1.339,1.679 3.423,4.612 1.339,1.321 1.339,1.013 1.191,0.644 1.19,0.414 2.083,0.455 2.381,0.294 2.976,0.13 3.125,-0.068 2.827,-0.342 6.994,-0.944 3.571,-0.191 3.571,-0.029 0,0"
       style="fill:none;stroke:#00bfbf;stroke-width:1.5;stroke-linecap:square;stroke-linejoin:round"
       id="path15139"
       inkscape:connector-curvature="0" />
  </g>
  <g
     id="line2d_19"
     style="stroke-linecap:square;stroke-linejoin:round">
    <path
       clip-path="url(#p7ff5b81e1d)"
       d="m 72,304.806 4.1664,-0.101 2.3808,-0.274 2.0832,-0.453 1.9344,-0.637 1.9344,-0.873 1.9344,-1.127 1.9344,-1.392 1.9344,-1.657 2.0832,-2.083 2.232,-2.574 2.232,-2.918 2.3808,-3.477 2.5296,-4.083 2.827,-4.995 3.125,-5.986 3.571,-7.328 4.613,-10.006 15.475,-33.998 0.595,-1.233 1.191,2.338 3.72,7.095 3.125,5.516 2.827,4.548 2.381,3.435 2.232,2.833 1.934,2.113 1.786,1.648 1.785,1.348 1.786,1.051 1.637,0.712 1.785,0.52 1.786,0.281 1.934,0.074 2.232,-0.143 2.827,-0.422 4.018,-0.859 6.696,-1.7 5.357,-1.561 4.91,-1.664 4.613,-1.798 5.059,-2.221 11.309,-5.326 1.934,-1.092 2.232,-1.524 2.679,-2.106 5.505,-4.707 3.274,-2.634 2.53,-1.759 2.083,-1.197 1.934,-0.867 1.786,-0.565 1.637,-0.304 1.636,-0.087 1.637,0.137 1.637,0.367 1.637,0.6 1.637,0.831 1.785,1.166 1.786,1.426 1.934,1.823 2.232,2.43 2.381,2.927 2.827,3.845 3.274,4.854 3.72,5.936 3.869,6.597 3.72,6.766 3.868,7.493 4.762,9.742 7.44,15.285 2.53,4.645 1.934,3.1 1.488,2.009 1.339,1.457 1.191,0.962 1.041,0.563 3.571,1.551 1.34,0.632 1.339,1.132 1.488,1.563 3.125,3.514 4.166,3.995 0.744,0.358 0.595,0.058 0.595,-0.151 0.596,-0.363 0.744,-0.748 0.744,-1.067 0.892,-1.681 1.042,-2.471 1.19,-3.421 1.488,-5.036 1.786,-6.937 2.083,-9.035 2.679,-12.7 3.273,-16.68 4.315,-23.243 3.125,-17.161 3.72,17.84 2.976,13.198 2.53,10.206 2.083,7.544 1.934,6.192 5.06,15.329 3.571,11.758 5.654,18.819 1.339,3.349 1.042,2.064 0.893,1.342 0.744,0.793 0.744,0.481 0.595,0.156 0.595,-0.047 0.595,-0.248 1.042,-0.77 3.571,-2.922 1.786,-1.647 0.893,-1.189 1.041,-1.751 1.339,-2.741 1.637,-3.938 2.083,-5.669 2.976,-8.817 9.672,-29.085 4.018,-11.172 4.166,-10.923 4.167,-10.313 0.893,-1.881 3.124,5.556 4.018,7.642 5.059,9.599 2.083,3.493 1.637,2.346 1.339,1.561 1.191,1.064 2.232,1.643 2.083,1.257 0.893,0.307 0.744,0.045 0.744,-0.155 0.744,-0.357 0.893,-0.701 0.892,-0.998 1.042,-1.534 1.19,-2.221 5.06,-10.203 4.315,-8.583 1.637,-4.136 1.488,-3.963 0.148,0.046 5.506,20.034 4.315,14.906 3.72,12.078 2.976,8.956 2.381,6.516 1.934,4.705 1.637,3.442 1.488,2.605 1.786,2.619 1.637,2.026 1.636,1.684 1.637,1.363 0.893,0.555 0.893,0.296 0.893,0.033 0.892,-0.221 0.893,-0.462 1.042,-0.819 1.19,-1.258 1.339,-1.749 5.952,-8.318 2.53,-3.095 1.042,-1.155 0.297,0.281 1.786,1.993 1.785,1.666 1.786,1.349 1.786,1.047 1.636,0.716 1.786,0.543 1.934,0.352 2.232,0.177 2.53,0.035 0,0"
       style="fill:none;stroke:#bf00bf;stroke-width:1.5;stroke-linecap:square;stroke-linejoin:round"
       id="path15142"
       inkscape:connector-curvature="0" />
  </g>
  <g
     id="line2d_20"
     style="stroke-linecap:square;stroke-linejoin:round">
    <path
       clip-path="url(#p7ff5b81e1d)"
       d="m 72,130.039 11.7552,0.108 6.8448,0.269 7.2912,0.505 7.1428,0.719 7.737,1.007 10.119,1.598 14.88,2.645 10.713,1.879 9.821,1.486 10.565,1.362 9.225,1.252 5.655,0.943 5.803,1.188 5.208,1.282 5.059,1.445 6.696,2.189 5.803,2.092 18.303,6.685 5.952,1.823 6.845,1.795 5.505,1.207 5.655,0.984 4.91,0.613 4.91,0.384 5.208,0.176 5.208,-0.03 5.208,-0.23 4.762,-0.405 5.208,-0.675 5.357,-0.936 5.803,-1.233 10.862,-2.635 10.714,-2.623 8.184,-1.852 8.779,-1.792 7.291,-1.3 7.738,-1.15 8.482,-0.94 9.225,-0.746 8.928,-0.8 7.143,-0.886 7.142,-1.159 6.994,-1.409 6.249,-1.466 19.642,-4.754 9.523,-1.878 12.797,-2.266 16.368,-2.677 10.565,-1.527 7.588,-0.888 6.101,-0.553 7.738,-0.491 8.333,-0.277 7.886,-0.074 2.976,-0.001 0,0"
       style="fill:none;stroke:#bfbf00;stroke-width:1.5;stroke-linecap:square;stroke-linejoin:round"
       id="path15145"
       inkscape:connector-curvature="0" />
  </g>
  <g
     id="line2d_21"
     style="stroke-linecap:square;stroke-linejoin:round">
    <path
       clip-path="url(#p7ff5b81e1d)"
       d="m 72,143.999 20.2368,0.11 10.8622,0.278 52.08,1.722 10.565,0.599 8.779,0.719 8.482,0.964 6.845,1.008 8.035,1.48 6.101,1.341 6.547,1.631 10.713,2.934 8.036,2.125 6.249,1.439 6.547,1.26 6.25,0.954 5.357,0.598 4.761,0.337 5.506,0.145 4.613,-0.073 4.91,-0.258 5.952,-0.569 4.464,-0.63 4.613,-0.857 4.613,-1.073 5.952,-1.677 6.398,-2.097 9.226,-3.331 12.053,-4.364 7.737,-2.582 6.25,-1.869 5.654,-1.466 4.762,-1.034 5.357,-0.924 5.059,-0.637 5.654,-0.462 6.101,-0.271 21.725,-0.777 6.249,-0.593 5.952,-0.755 20.237,-2.714 7.887,-0.622 9.672,-0.489 9.82,-0.347 12.946,-0.29 9.374,-0.036 41.218,0.324 0,0"
       style="fill:none;stroke:#000000;stroke-width:1.5;stroke-linecap:square;stroke-linejoin:round"
       id="path15148"
       inkscape:connector-curvature="0" />
  </g>
  <g
     style="stroke-linecap:square;stroke-linejoin:round"
     id="xtick_1">
    <g
       style="stroke-linecap:square;stroke-linejoin:round"
       id="line2d_22">
      <defs
         id="defs15153">
        <path
           inkscape:connector-curvature="0"
           style="stroke:#000000;stroke-width:0.5;stroke-linecap:butt;stroke-linejoin:round"
           id="mcb557df647"
           d="M 0,0 0,-4" />
      </defs>
      <g
         style="stroke-linecap:square;stroke-linejoin:round"
         id="g15156">
        <use
           height="432"
           width="576"
           id="use15158"
           y="388.79999"
           xlink:href="#mcb557df647"
           x="72"
           style="stroke:#000000;stroke-width:0.5;stroke-linecap:butt;stroke-linejoin:round" />
      </g>
    </g>
    <g
       style="stroke-linecap:square;stroke-linejoin:round"
       id="line2d_23">
      <defs
         id="defs15161">
        <path
           inkscape:connector-curvature="0"
           style="stroke:#000000;stroke-width:0.5;stroke-linecap:butt;stroke-linejoin:round"
           id="mdad270ee8e"
           d="M 0,0 0,4" />
      </defs>
      <g
         style="stroke-linecap:square;stroke-linejoin:round"
         id="g15164">
        <use
           height="432"
           width="576"
           id="use15166"
           y="43.200001"
           xlink:href="#mdad270ee8e"
           x="72"
           style="stroke:#000000;stroke-width:0.5;stroke-linecap:butt;stroke-linejoin:round" />
      </g>
    </g>
    <g
       style="stroke-linecap:square;stroke-linejoin:round"
       id="text_1">
      <text
         id="text15169"
         transform="translate(63.252187,401.705)"
         style="font-size:12px;font-style:normal;stroke-linecap:square;stroke-linejoin:round;font-family:Bitstream Vera Sans">0.0</text>
    </g>
  </g>
  <g
     style="stroke-linecap:square;stroke-linejoin:round"
     id="xtick_2">
    <g
       style="stroke-linecap:square;stroke-linejoin:round"
       id="line2d_24">
      <g
         style="stroke-linecap:square;stroke-linejoin:round"
         id="g15173">
        <use
           height="432"
           width="576"
           id="use15175"
           y="388.79999"
           xlink:href="#mcb557df647"
           x="146.39999"
           style="stroke:#000000;stroke-width:0.5;stroke-linecap:butt;stroke-linejoin:round" />
      </g>
    </g>
    <g
       style="stroke-linecap:square;stroke-linejoin:round"
       id="line2d_25">
      <g
         style="stroke-linecap:square;stroke-linejoin:round"
         id="g15178">
        <use
           height="432"
           width="576"
           id="use15180"
           y="43.200001"
           xlink:href="#mdad270ee8e"
           x="146.39999"
           style="stroke:#000000;stroke-width:0.5;stroke-linecap:butt;stroke-linejoin:round" />
      </g>
    </g>
    <g
       style="stroke-linecap:square;stroke-linejoin:round"
       id="text_2">
      <text
         id="text15183"
         transform="translate(137.77781,401.705)"
         style="font-size:12px;font-style:normal;stroke-linecap:square;stroke-linejoin:round;font-family:Bitstream Vera Sans">0.8</text>
    </g>
  </g>
  <g
     style="stroke-linecap:square;stroke-linejoin:round"
     id="xtick_3">
    <g
       style="stroke-linecap:square;stroke-linejoin:round"
       id="line2d_26">
      <g
         style="stroke-linecap:square;stroke-linejoin:round"
         id="g15187">
        <use
           height="432"
           width="576"
           id="use15189"
           y="388.79999"
           xlink:href="#mcb557df647"
           x="220.8"
           style="stroke:#000000;stroke-width:0.5;stroke-linecap:butt;stroke-linejoin:round" />
      </g>
    </g>
    <g
       style="stroke-linecap:square;stroke-linejoin:round"
       id="line2d_27">
      <g
         style="stroke-linecap:square;stroke-linejoin:round"
         id="g15192">
        <use
           height="432"
           width="576"
           id="use15194"
           y="43.200001"
           xlink:href="#mdad270ee8e"
           x="220.8"
           style="stroke:#000000;stroke-width:0.5;stroke-linecap:butt;stroke-linejoin:round" />
      </g>
    </g>
    <g
       style="stroke-linecap:square;stroke-linejoin:round"
       id="text_3">
      <text
         id="text15197"
         transform="translate(212.31562,401.705)"
         style="font-size:12px;font-style:normal;stroke-linecap:square;stroke-linejoin:round;font-family:Bitstream Vera Sans">1.7</text>
    </g>
  </g>
  <g
     style="stroke-linecap:square;stroke-linejoin:round"
     id="xtick_4">
    <g
       style="stroke-linecap:square;stroke-linejoin:round"
       id="line2d_28">
      <g
         style="stroke-linecap:square;stroke-linejoin:round"
         id="g15201">
        <use
           height="432"
           width="576"
           id="use15203"
           y="388.79999"
           xlink:href="#mcb557df647"
           x="295.20001"
           style="stroke:#000000;stroke-width:0.5;stroke-linecap:butt;stroke-linejoin:round" />
      </g>
    </g>
    <g
       style="stroke-linecap:square;stroke-linejoin:round"
       id="line2d_29">
      <g
         style="stroke-linecap:square;stroke-linejoin:round"
         id="g15206">
        <use
           height="432"
           width="576"
           id="use15208"
           y="43.200001"
           xlink:href="#mdad270ee8e"
           x="295.20001"
           style="stroke:#000000;stroke-width:0.5;stroke-linecap:butt;stroke-linejoin:round" />
      </g>
    </g>
    <g
       style="stroke-linecap:square;stroke-linejoin:round"
       id="text_4">
      <text
         id="text15211"
         transform="translate(286.84125,401.5475)"
         style="font-size:12px;font-style:normal;stroke-linecap:square;stroke-linejoin:round;font-family:Bitstream Vera Sans">2.5</text>
    </g>
  </g>
  <g
     style="stroke-linecap:square;stroke-linejoin:round"
     id="xtick_5">
    <g
       style="stroke-linecap:square;stroke-linejoin:round"
       id="line2d_30">
      <g
         style="stroke-linecap:square;stroke-linejoin:round"
         id="g15215">
        <use
           height="432"
           width="576"
           id="use15217"
           y="388.79999"
           xlink:href="#mcb557df647"
           x="369.60001"
           style="stroke:#000000;stroke-width:0.5;stroke-linecap:butt;stroke-linejoin:round" />
      </g>
    </g>
    <g
       style="stroke-linecap:square;stroke-linejoin:round"
       id="line2d_31">
      <g
         style="stroke-linecap:square;stroke-linejoin:round"
         id="g15220">
        <use
           height="432"
           width="576"
           id="use15222"
           y="43.200001"
           xlink:href="#mdad270ee8e"
           x="369.60001"
           style="stroke:#000000;stroke-width:0.5;stroke-linecap:butt;stroke-linejoin:round" />
      </g>
    </g>
    <g
       style="stroke-linecap:square;stroke-linejoin:round"
       id="text_5">
      <text
         id="text15225"
         transform="translate(360.89625,401.705)"
         style="font-size:12px;font-style:normal;stroke-linecap:square;stroke-linejoin:round;font-family:Bitstream Vera Sans">3.3</text>
    </g>
  </g>
  <g
     style="stroke-linecap:square;stroke-linejoin:round"
     id="xtick_6">
    <g
       style="stroke-linecap:square;stroke-linejoin:round"
       id="line2d_32">
      <g
         style="stroke-linecap:square;stroke-linejoin:round"
         id="g15229">
        <use
           height="432"
           width="576"
           id="use15231"
           y="388.79999"
           xlink:href="#mcb557df647"
           x="444"
           style="stroke:#000000;stroke-width:0.5;stroke-linecap:butt;stroke-linejoin:round" />
      </g>
    </g>
    <g
       style="stroke-linecap:square;stroke-linejoin:round"
       id="line2d_33">
      <g
         style="stroke-linecap:square;stroke-linejoin:round"
         id="g15234">
        <use
           height="432"
           width="576"
           id="use15236"
           y="43.200001"
           xlink:href="#mdad270ee8e"
           x="444"
           style="stroke:#000000;stroke-width:0.5;stroke-linecap:butt;stroke-linejoin:round" />
      </g>
    </g>
    <g
       style="stroke-linecap:square;stroke-linejoin:round"
       id="text_6">
      <text
         id="text15239"
         transform="translate(435.42187,401.705)"
         style="font-size:12px;font-style:normal;stroke-linecap:square;stroke-linejoin:round;font-family:Bitstream Vera Sans">4.2</text>
    </g>
  </g>
  <g
     style="stroke-linecap:square;stroke-linejoin:round"
     id="xtick_7">
    <g
       style="stroke-linecap:square;stroke-linejoin:round"
       id="line2d_34">
      <g
         style="stroke-linecap:square;stroke-linejoin:round"
         id="g15243">
        <use
           height="432"
           width="576"
           id="use15245"
           y="388.79999"
           xlink:href="#mcb557df647"
           x="518.40002"
           style="stroke:#000000;stroke-width:0.5;stroke-linecap:butt;stroke-linejoin:round" />
      </g>
    </g>
    <g
       style="stroke-linecap:square;stroke-linejoin:round"
       id="line2d_35">
      <g
         style="stroke-linecap:square;stroke-linejoin:round"
         id="g15248">
        <use
           height="432"
           width="576"
           id="use15250"
           y="43.200001"
           xlink:href="#mdad270ee8e"
           x="518.40002"
           style="stroke:#000000;stroke-width:0.5;stroke-linecap:butt;stroke-linejoin:round" />
      </g>
    </g>
    <g
       style="stroke-linecap:square;stroke-linejoin:round"
       id="text_7">
      <text
         id="text15253"
         transform="translate(509.71406,401.705)"
         style="font-size:12px;font-style:normal;stroke-linecap:square;stroke-linejoin:round;font-family:Bitstream Vera Sans">5.0</text>
    </g>
  </g>
  <g
     style="stroke-linecap:square;stroke-linejoin:round"
     id="text_8">
    <text
       id="text15256"
       transform="translate(285.71719,415.98625)"
       style="font-size:12px;font-style:normal;stroke-linecap:square;stroke-linejoin:round;font-family:Bitstream Vera Sans">$t$(s)</text>
  </g>
  <g
     id="matplotlib.axis_2"
     style="stroke-linecap:square;stroke-linejoin:round">
    <g
       id="ytick_1"
       style="stroke-linecap:square;stroke-linejoin:round">
      <g
         id="line2d_36"
         style="stroke-linecap:square;stroke-linejoin:round">
        <path
           clip-path="url(#p7ff5b81e1d)"
           d="m 72,388.8 446.4,0"
           style="fill:none;stroke:#d3d3d3;stroke-width:0.5;stroke-linecap:square;stroke-linejoin:round"
           id="path15261"
           inkscape:connector-curvature="0" />
      </g>
      <g
         id="line2d_37"
         style="stroke-linecap:square;stroke-linejoin:round">
        <defs
           id="defs15264">
          <path
             d="M 0,0 4,0"
             id="mc8fcea1516"
             style="stroke:#000000;stroke-width:0.5;stroke-linecap:butt;stroke-linejoin:round"
             inkscape:connector-curvature="0" />
        </defs>
        <g
           id="g15267"
           style="stroke-linecap:square;stroke-linejoin:round">
          <use
             style="stroke:#000000;stroke-width:0.5;stroke-linecap:butt;stroke-linejoin:round"
             x="72"
             xlink:href="#mc8fcea1516"
             y="388.79999"
             id="use15269"
             width="576"
             height="432" />
        </g>
      </g>
      <g
         id="line2d_38"
         style="stroke-linecap:square;stroke-linejoin:round">
        <defs
           id="defs15272">
          <path
             d="M 0,0 -4,0"
             id="m0d5b0a6425"
             style="stroke:#000000;stroke-width:0.5;stroke-linecap:butt;stroke-linejoin:round"
             inkscape:connector-curvature="0" />
        </defs>
        <g
           id="g15275"
           style="stroke-linecap:square;stroke-linejoin:round">
          <use
             style="stroke:#000000;stroke-width:0.5;stroke-linecap:butt;stroke-linejoin:round"
             x="518.40002"
             xlink:href="#m0d5b0a6425"
             y="388.79999"
             id="use15277"
             width="576"
             height="432" />
        </g>
      </g>
      <g
         id="text_9"
         style="stroke-linecap:square;stroke-linejoin:round">
        <text
           style="font-size:12px;font-style:normal;stroke-linecap:square;stroke-linejoin:round;font-family:Bitstream Vera Sans"
           transform="translate(38.586875,393.16656)"
           id="text15280">-0.05</text>
      </g>
    </g>
    <g
       id="ytick_2"
       style="stroke-linecap:square;stroke-linejoin:round">
      <g
         id="line2d_39"
         style="stroke-linecap:square;stroke-linejoin:round">
        <path
           clip-path="url(#p7ff5b81e1d)"
           d="m 72,331.2 446.4,0"
           style="fill:none;stroke:#d3d3d3;stroke-width:0.5;stroke-linecap:square;stroke-linejoin:round"
           id="path15284"
           inkscape:connector-curvature="0" />
      </g>
      <g
         id="line2d_40"
         style="stroke-linecap:square;stroke-linejoin:round">
        <g
           id="g15287"
           style="stroke-linecap:square;stroke-linejoin:round">
          <use
             style="stroke:#000000;stroke-width:0.5;stroke-linecap:butt;stroke-linejoin:round"
             x="72"
             xlink:href="#mc8fcea1516"
             y="331.20001"
             id="use15289"
             width="576"
             height="432" />
        </g>
      </g>
      <g
         id="line2d_41"
         style="stroke-linecap:square;stroke-linejoin:round">
        <g
           id="g15292"
           style="stroke-linecap:square;stroke-linejoin:round">
          <use
             style="stroke:#000000;stroke-width:0.5;stroke-linecap:butt;stroke-linejoin:round"
             x="518.40002"
             xlink:href="#m0d5b0a6425"
             y="331.20001"
             id="use15294"
             width="576"
             height="432" />
        </g>
      </g>
      <g
         id="text_10"
         style="stroke-linecap:square;stroke-linejoin:round">
        <text
           style="font-size:12px;font-style:normal;stroke-linecap:square;stroke-linejoin:round;font-family:Bitstream Vera Sans"
           transform="translate(42.869375,335.56656)"
           id="text15297">0.00</text>
      </g>
    </g>
    <g
       id="ytick_3"
       style="stroke-linecap:square;stroke-linejoin:round">
      <g
         id="line2d_42"
         style="stroke-linecap:square;stroke-linejoin:round">
        <path
           clip-path="url(#p7ff5b81e1d)"
           d="m 72,273.6 446.4,0"
           style="fill:none;stroke:#d3d3d3;stroke-width:0.5;stroke-linecap:square;stroke-linejoin:round"
           id="path15301"
           inkscape:connector-curvature="0" />
      </g>
      <g
         id="line2d_43"
         style="stroke-linecap:square;stroke-linejoin:round">
        <g
           id="g15304"
           style="stroke-linecap:square;stroke-linejoin:round">
          <use
             style="stroke:#000000;stroke-width:0.5;stroke-linecap:butt;stroke-linejoin:round"
             x="72"
             xlink:href="#mc8fcea1516"
             y="273.60001"
             id="use15306"
             width="576"
             height="432" />
        </g>
      </g>
      <g
         id="line2d_44"
         style="stroke-linecap:square;stroke-linejoin:round">
        <g
           id="g15309"
           style="stroke-linecap:square;stroke-linejoin:round">
          <use
             style="stroke:#000000;stroke-width:0.5;stroke-linecap:butt;stroke-linejoin:round"
             x="518.40002"
             xlink:href="#m0d5b0a6425"
             y="273.60001"
             id="use15311"
             width="576"
             height="432" />
        </g>
      </g>
      <g
         id="text_11"
         style="stroke-linecap:square;stroke-linejoin:round">
        <text
           style="font-size:12px;font-style:normal;stroke-linecap:square;stroke-linejoin:round;font-family:Bitstream Vera Sans"
           transform="translate(43.120625,277.96656)"
           id="text15314">0.05</text>
      </g>
    </g>
    <g
       id="ytick_4"
       style="stroke-linecap:square;stroke-linejoin:round">
      <g
         id="line2d_45"
         style="stroke-linecap:square;stroke-linejoin:round">
        <path
           clip-path="url(#p7ff5b81e1d)"
           d="m 72,216 446.4,0"
           style="fill:none;stroke:#d3d3d3;stroke-width:0.5;stroke-linecap:square;stroke-linejoin:round"
           id="path15318"
           inkscape:connector-curvature="0" />
      </g>
      <g
         id="line2d_46"
         style="stroke-linecap:square;stroke-linejoin:round">
        <g
           id="g15321"
           style="stroke-linecap:square;stroke-linejoin:round">
          <use
             style="stroke:#000000;stroke-width:0.5;stroke-linecap:butt;stroke-linejoin:round"
             x="72"
             xlink:href="#mc8fcea1516"
             y="216"
             id="use15323"
             width="576"
             height="432" />
        </g>
      </g>
      <g
         id="line2d_47"
         style="stroke-linecap:square;stroke-linejoin:round">
        <g
           id="g15326"
           style="stroke-linecap:square;stroke-linejoin:round">
          <use
             style="stroke:#000000;stroke-width:0.5;stroke-linecap:butt;stroke-linejoin:round"
             x="518.40002"
             xlink:href="#m0d5b0a6425"
             y="216"
             id="use15328"
             width="576"
             height="432" />
        </g>
      </g>
      <g
         id="text_12"
         style="stroke-linecap:square;stroke-linejoin:round">
        <text
           style="font-size:12px;font-style:normal;stroke-linecap:square;stroke-linejoin:round;font-family:Bitstream Vera Sans"
           transform="translate(42.869375,220.36656)"
           id="text15331">0.10</text>
      </g>
    </g>
    <g
       id="ytick_5"
       style="stroke-linecap:square;stroke-linejoin:round">
      <g
         id="line2d_48"
         style="stroke-linecap:square;stroke-linejoin:round">
        <path
           clip-path="url(#p7ff5b81e1d)"
           d="m 72,158.4 446.4,0"
           style="fill:none;stroke:#d3d3d3;stroke-width:0.5;stroke-linecap:square;stroke-linejoin:round"
           id="path15335"
           inkscape:connector-curvature="0" />
      </g>
      <g
         id="line2d_49"
         style="stroke-linecap:square;stroke-linejoin:round">
        <g
           id="g15338"
           style="stroke-linecap:square;stroke-linejoin:round">
          <use
             style="stroke:#000000;stroke-width:0.5;stroke-linecap:butt;stroke-linejoin:round"
             x="72"
             xlink:href="#mc8fcea1516"
             y="158.39999"
             id="use15340"
             width="576"
             height="432" />
        </g>
      </g>
      <g
         id="line2d_50"
         style="stroke-linecap:square;stroke-linejoin:round">
        <g
           id="g15343"
           style="stroke-linecap:square;stroke-linejoin:round">
          <use
             style="stroke:#000000;stroke-width:0.5;stroke-linecap:butt;stroke-linejoin:round"
             x="518.40002"
             xlink:href="#m0d5b0a6425"
             y="158.39999"
             id="use15345"
             width="576"
             height="432" />
        </g>
      </g>
      <g
         id="text_13"
         style="stroke-linecap:square;stroke-linejoin:round">
        <text
           style="font-size:12px;font-style:normal;stroke-linecap:square;stroke-linejoin:round;font-family:Bitstream Vera Sans"
           transform="translate(43.120625,162.76656)"
           id="text15348">0.15</text>
      </g>
    </g>
    <g
       id="ytick_6"
       style="stroke-linecap:square;stroke-linejoin:round">
      <g
         id="line2d_51"
         style="stroke-linecap:square;stroke-linejoin:round">
        <path
           clip-path="url(#p7ff5b81e1d)"
           d="m 72,100.8 446.4,0"
           style="fill:none;stroke:#d3d3d3;stroke-width:0.5;stroke-linecap:square;stroke-linejoin:round"
           id="path15352"
           inkscape:connector-curvature="0" />
      </g>
      <g
         id="line2d_52"
         style="stroke-linecap:square;stroke-linejoin:round">
        <g
           id="g15355"
           style="stroke-linecap:square;stroke-linejoin:round">
          <use
             style="stroke:#000000;stroke-width:0.5;stroke-linecap:butt;stroke-linejoin:round"
             x="72"
             xlink:href="#mc8fcea1516"
             y="100.8"
             id="use15357"
             width="576"
             height="432" />
        </g>
      </g>
      <g
         id="line2d_53"
         style="stroke-linecap:square;stroke-linejoin:round">
        <g
           id="g15360"
           style="stroke-linecap:square;stroke-linejoin:round">
          <use
             style="stroke:#000000;stroke-width:0.5;stroke-linecap:butt;stroke-linejoin:round"
             x="518.40002"
             xlink:href="#m0d5b0a6425"
             y="100.8"
             id="use15362"
             width="576"
             height="432" />
        </g>
      </g>
      <g
         id="text_14"
         style="stroke-linecap:square;stroke-linejoin:round">
        <text
           style="font-size:12px;font-style:normal;stroke-linecap:square;stroke-linejoin:round;font-family:Bitstream Vera Sans"
           transform="translate(42.869375,105.16656)"
           id="text15365">0.20</text>
      </g>
    </g>
    <g
       id="ytick_7"
       style="stroke-linecap:square;stroke-linejoin:round">
      <g
         id="line2d_54"
         style="stroke-linecap:square;stroke-linejoin:round">
        <path
           clip-path="url(#p7ff5b81e1d)"
           d="m 72,43.2 446.4,0"
           style="fill:none;stroke:#d3d3d3;stroke-width:0.5;stroke-linecap:square;stroke-linejoin:round"
           id="path15369"
           inkscape:connector-curvature="0" />
      </g>
      <g
         id="line2d_55"
         style="stroke-linecap:square;stroke-linejoin:round">
        <g
           id="g15372"
           style="stroke-linecap:square;stroke-linejoin:round">
          <use
             style="stroke:#000000;stroke-width:0.5;stroke-linecap:butt;stroke-linejoin:round"
             x="72"
             xlink:href="#mc8fcea1516"
             y="43.200001"
             id="use15374"
             width="576"
             height="432" />
        </g>
      </g>
      <g
         id="line2d_56"
         style="stroke-linecap:square;stroke-linejoin:round">
        <g
           id="g15377"
           style="stroke-linecap:square;stroke-linejoin:round">
          <use
             style="stroke:#000000;stroke-width:0.5;stroke-linecap:butt;stroke-linejoin:round"
             x="518.40002"
             xlink:href="#m0d5b0a6425"
             y="43.200001"
             id="use15379"
             width="576"
             height="432" />
        </g>
      </g>
      <g
         id="text_15"
         style="stroke-linecap:square;stroke-linejoin:round">
        <text
           style="font-size:12px;font-style:normal;stroke-linecap:square;stroke-linejoin:round;font-family:Bitstream Vera Sans"
           transform="translate(43.120625,47.566563)"
           id="text15382">0.25</text>
      </g>
    </g>
    <g
       id="text_16"
       style="stroke-linecap:square;stroke-linejoin:round">
      <text
         style="font-size:12px;font-style:normal;stroke-linecap:square;stroke-linejoin:round;font-family:Bitstream Vera Sans"
         transform="matrix(0,-1,1,0,33.586875,308.66406)"
         id="text15385">Collision avoidance constraints</text>
    </g>
  </g>
  <g
     id="patch_3"
     style="stroke-linecap:square;stroke-linejoin:round">
    <path
       d="m 72,43.2 446.4,0"
       style="fill:none;stroke:#000000;stroke-linecap:square;stroke-linejoin:round"
       id="path15388"
       inkscape:connector-curvature="0" />
  </g>
  <g
     id="patch_4"
     style="stroke-linecap:square;stroke-linejoin:round">
    <path
       d="m 518.4,388.8 0,-345.6"
       style="fill:none;stroke:#000000;stroke-linecap:square;stroke-linejoin:round"
       id="path15391"
       inkscape:connector-curvature="0" />
  </g>
  <g
     id="patch_5"
     style="stroke-linecap:square;stroke-linejoin:round">
    <path
       d="m 72,388.8 446.4,0"
       style="fill:none;stroke:#000000;stroke-linecap:square;stroke-linejoin:round"
       id="path15394"
       inkscape:connector-curvature="0" />
  </g>
  <g
     id="patch_6"
     style="stroke-linecap:square;stroke-linejoin:round">
    <path
       d="M 72,388.8 72,43.2"
       style="fill:none;stroke:#000000;stroke-linecap:square;stroke-linejoin:round"
       id="path15397"
       inkscape:connector-curvature="0" />
  </g>
  <defs
     id="defs15399">
    <clipPath
       id="p7ff5b81e1d">
      <rect
         height="345.6"
         width="446.4"
         x="72.0"
         y="43.2"
         id="rect15402" />
    </clipPath>
  </defs>
  <text
     xml:space="preserve"
     style="font-size:28px;font-style:normal;font-weight:normal;line-height:125%;letter-spacing:0px;word-spacing:0px;fill:#000000;fill-opacity:1;stroke:none;font-family:Bitstream Vera Sans"
     x="550.91406"
     y="610.3811"
     id="text22243"
     sodipodi:linespacing="125%"
     transform="scale(0.8,0.8)"><tspan
       sodipodi:role="line"
       id="tspan22247"
       x="550.91406"
       y="610.3811" /></text>
</svg>
