<?xml version="1.0" encoding="UTF-8" standalone="no"?>
<!-- Created with matplotlib (http://matplotlib.org/) -->

<svg
   xmlns:dc="http://purl.org/dc/elements/1.1/"
   xmlns:cc="http://creativecommons.org/ns#"
   xmlns:rdf="http://www.w3.org/1999/02/22-rdf-syntax-ns#"
   xmlns:svg="http://www.w3.org/2000/svg"
   xmlns="http://www.w3.org/2000/svg"
   xmlns:xlink="http://www.w3.org/1999/xlink"
   xmlns:sodipodi="http://sodipodi.sourceforge.net/DTD/sodipodi-0.dtd"
   xmlns:inkscape="http://www.inkscape.org/namespaces/inkscape"
   height="432pt"
   version="1.1"
   viewBox="0 0 576 432"
   width="576pt"
   id="svg18543"
   inkscape:version="0.48.2 r9819"
   sodipodi:docname="grasping-zmp-2s-final-point8zmp-zmp.svg">
  <metadata
     id="metadata18965">
    <rdf:RDF>
      <cc:Work
         rdf:about="">
        <dc:format>image/svg+xml</dc:format>
        <dc:type
           rdf:resource="http://purl.org/dc/dcmitype/StillImage" />
        <dc:title></dc:title>
      </cc:Work>
    </rdf:RDF>
  </metadata>
  <sodipodi:namedview
     pagecolor="#ffffff"
     bordercolor="#666666"
     borderopacity="1"
     objecttolerance="10"
     gridtolerance="10"
     guidetolerance="10"
     inkscape:pageopacity="0"
     inkscape:pageshadow="2"
     inkscape:window-width="1440"
     inkscape:window-height="825"
     id="namedview18963"
     showgrid="false"
     inkscape:zoom="0.87407407"
     inkscape:cx="284.42437"
     inkscape:cy="261.1752"
     inkscape:window-x="0"
     inkscape:window-y="24"
     inkscape:window-maximized="1"
     inkscape:current-layer="svg18543" />
  <defs
     id="defs18545">
    <style
       type="text/css"
       id="style18547">
*{stroke-linecap:square;stroke-linejoin:round;}
  </style>
  </defs>
  <g
     id="patch_2"
     style="stroke-linecap:square;stroke-linejoin:round">
    <path
       d="m 72,388.8 446.4,0 0,-345.6 -446.4,0 z"
       style="fill:#ffffff;stroke-linecap:square;stroke-linejoin:round"
       id="path18555"
       inkscape:connector-curvature="0" />
  </g>
  <path
     inkscape:connector-curvature="0"
     id="path18558"
     style="opacity:0.2;fill:#008000;stroke:#008000;stroke-width:1.50000000000000000;stroke-linecap:square;stroke-linejoin:round"
     d="m 471.751,340.955 -353.102,0 0,-240.206 353.102,0 z"
     clip-path="url(#p7ff5b81e1d)" />
  <g
     id="patch_4"
     style="stroke-linecap:square;stroke-linejoin:round">
    <path
       clip-path="url(#p7ff5b81e1d)"
       d="m 335.376,66.5764 0,300.2566 154.008,0 0,-300.2566 z"
       style="fill:none;stroke:#008000;stroke-width:1.5;stroke-linecap:square;stroke-linejoin:round"
       id="path18561"
       inkscape:connector-curvature="0" />
  </g>
  <g
     id="patch_5"
     style="stroke-linecap:square;stroke-linejoin:round">
    <path
       clip-path="url(#p7ff5b81e1d)"
       d="m 255.024,66.5764 0,300.2566 -154.008,0 0,-300.2566 z"
       style="fill:none;stroke:#008000;stroke-width:1.5;stroke-linecap:square;stroke-linejoin:round"
       id="path18564"
       inkscape:connector-curvature="0" />
  </g>
  <g
     id="line2d_1"
     style="stroke-linecap:square;stroke-linejoin:round">
    <path
       clip-path="url(#p7ff5b81e1d)"
       d="m 293.512,231.587 -6.057,13.773 -4.627,9.987 -3.493,7.008 -2.6,4.705 -1.902,2.968 -1.363,1.705 -0.952,0.838 -0.643,0.292 -0.414,10e-4 -0.355,-0.186 -0.299,-0.372 -0.308,-0.783 -0.242,-1.439 -0.083,-1.947 0.11,-3.005 0.419,-4.423 1.035,-7.74 2.139,-16.956 3.448,-29.516 6.205,-53.249 1.119,-7.222 1.055,-5.442 1.138,-4.749 1.217,-4.051 1.071,-2.839 1.12,-2.349 0.93,-1.523 0.958,-1.203 0.985,-0.88 1.011,-0.555 0.773,-0.201 0.787,-0.014 0.799,0.173 0.81,0.364 1.098,0.783 1.116,1.128 1.134,1.478 1.15,1.833 1.457,2.797 1.479,3.371 1.497,3.956 1.453,4.396 1.281,4.525 1.106,4.645 0.928,4.768 0.752,4.894 0.575,5.021 0.398,5.151 0.245,6.355 -0.008,6.55 -0.259,6.746 -0.507,6.947 -0.753,7.151 -0.995,7.357 -1.233,7.566 -1.469,7.778 -2.003,9.345 -2.308,9.638 -2.575,9.818 -2.598,9.046 -2.198,6.95 -2.169,6.188 -2.134,5.404 -1.752,3.891 -1.725,3.323 -1.698,2.744 -1.338,1.771 -1.319,1.387 -1.3,1 -0.963,0.492 -0.951,0.268 -0.941,0.043 -0.93,-0.185 -0.919,-0.416 -0.908,-0.648 -0.897,-0.882 -1.179,-1.546 -1.16,-1.972 -1.141,-2.404 -1.122,-2.842 -1.377,-4.175 -1.336,-4.805 -1.604,-6.578 -1.241,-6.112 -0.771,-4.852 -0.495,-4.481 -0.215,-4.099 0.037,-3.114 0.238,-2.834 0.438,-2.547 0.643,-2.253 0.662,-1.589 0.794,-1.394 0.927,-1.198 1.062,-0.999 1.195,-0.799 1.331,-0.594 1.466,-0.39 1.602,-0.183 1.737,0.026 1.874,0.236 2.009,0.447 4.716,1.232 2.497,0.383 2.395,0.142 2.29,-0.105 2.184,-0.357 2.074,-0.614 1.579,-0.68 1.507,-0.848 1.432,-1.021 1.359,-1.193 1.592,-1.736 1.473,-2.011 1.351,-2.287 1.23,-2.565 1.107,-2.842 0.983,-3.121 0.859,-3.399 0.865,-4.444 0.684,-4.841 0.505,-5.23 0.845,-11.876 0.645,-12.297 0.446,-12.689 0.258,-14.074 0.031,-14.468 -0.195,-14.832 -0.418,-15.166 -0.391,-8.6167 -0.467,-4.7872 -0.667,-4.2329 -0.675,-2.986 -0.803,-2.6307 -0.929,-2.2727 -1.056,-1.9174 -0.875,-1.2041 -0.946,-1.0022 -1.016,-0.8032 -1.087,-0.6041 -1.157,-0.4036 -1.227,-0.2046 -1.297,-0.0056 -1.366,0.1908 -1.435,0.3898 -2.02,0.8239 -2.142,1.1723 -2.261,1.5179 -2.381,1.8607 -2.499,2.2008 -3.289,3.2265 -3.469,3.7491 -3.646,4.2647 -3.822,4.7748 -4.697,6.2107 -5.344,7.385 -3.675,5.411 -2.748,4.445 -1.622,3.053 -0.838,2.017 -0.335,1.272 -0.038,0.972 0.166,0.533 0.331,0.366 0.497,0.2 0.662,0.036 1.139,-0.207 1.432,-0.496 2.199,-1.024 3.237,-1.815 3.887,-2.449 5.353,-3.65 7.191,-5.206 12.085,-8.862 5.693,-3.801 5.389,-3.3014 4.257,-2.3722 4.045,-2.0307 3.831,-1.6893 3.616,-1.352 3.402,-1.0147 3.187,-0.6815 2.394,-0.3041 2.256,-0.094 2.117,0.1175 1.979,0.3262 1.84,0.5364 1.7,0.7437 1.562,0.9497 1.423,1.1557 1.283,1.3617 1.143,1.5649 1.004,1.7694 0.864,1.9713 0.728,2.1674 0.761,2.939 0.599,3.182 0.438,3.425 0.311,4.424 0.08,4.763 -0.153,5.096 -0.384,5.423 -0.614,5.744 -1.004,7.096 -1.31,7.511 -1.612,7.913 -1.908,8.302 -2.536,9.944 -2.904,10.413 -3.261,10.857 -3.357,10.445 -2.688,7.72 -2.453,6.402 -1.916,4.45 -1.742,3.501 -1.321,2.198 -1.2,1.547 -0.874,0.77 -0.605,0.306 -0.562,0.072 -0.519,-0.159 -0.476,-0.393 -0.433,-0.626 -0.51,-1.196 -0.433,-1.611 -0.434,-2.598 -0.315,-3.251 -0.22,-4.765 -0.048,-5.716 0.159,-7.881 0.849,-28.298 0.276,-16.908 0.01,-13.482 -0.213,-11.399 -0.41,-9.541 -0.573,-7.894 -0.698,-6.449 -0.61,-3.912 -0.629,-2.686 -0.6,-1.759 -0.668,-1.313 -0.584,-0.727 -0.627,-0.436 -0.671,-0.139 -0.715,0.16 -0.758,0.462 -0.8,0.767 -1.059,1.396 -1.123,1.887 -1.43,2.923 -1.518,3.653 -1.6,4.395 -1.967,6.083 -2.068,7.131 -2.159,8.198 -2.543,10.543 -3.95,17.313 -2.929,13.828 -2.048,10.754 -1.312,8.098 -0.719,5.854 -0.249,3.624 0.021,2.383 0.193,1.449 0.285,0.784 0.308,0.347 0.379,0.096 0.447,-0.146 0.976,-0.322 0.766,-0.045 0.676,0.186 0.591,0.422 0.509,0.66 0.483,1.032 0.434,1.508 0.364,2.098 0.297,3.073 0.2,4.647 0.202,2.873 0.413,2.898 0.618,2.9 0.92,3.197 1.156,3.147 1.379,3.071 1.591,2.979 1.788,2.87 1.972,2.751 2.142,2.625 2.356,2.859 1.489,2.208 1.283,2.323 1.069,2.439 0.847,2.557 0.553,2.335 0.373,2.425 0.202,2.882 -0.041,2.999 -0.29,3.115 -0.54,3.228 -0.792,3.338 -1.025,3.342 -0.789,1.82 -0.644,0.929 -0.506,0.358 -0.375,0.046 -0.371,-0.145 -0.487,-0.489 -0.48,-0.826 -0.589,-1.503 -0.69,-2.492 -0.777,-3.848 -0.746,-4.852 -0.809,-6.762 -0.846,-9.139 -0.772,-10.738 -0.762,-13.775 -0.471,-10.779 0,0"
       style="fill:none;stroke:#ff0000;stroke-width:1.5;stroke-linecap:square;stroke-linejoin:round"
       id="path18567"
       inkscape:connector-curvature="0" />
  </g>
  <g
     id="line2d_2"
     style="stroke-linecap:square;stroke-linejoin:round">
    <path
       clip-path="url(#p7ff5b81e1d)"
       d="m 293.512,231.587 -0.011,-0.102 -0.545,-6.384 -0.098,-3.213 0.152,-1.422 0.226,-0.44 0.201,-0.002 0.233,0.263 0.289,0.708 0.21,0.772 0.048,-0.272 0.755,-6.705 0.846,-4.86 1.598,-7.633 1.462,-7.385 0.979,-6.097 0.806,-6.474 0.63,-6.921 0.398,-6.836 0.129,-5.935 0.109,-5.75 0.267,-0.733 0.381,-0.428 0.528,-0.268 0.75,-0.112 0.88,0.101 0.897,0.318 0.9,0.562 0.811,0.763 0.739,0.99 0.677,1.282 0.575,1.588 0.436,1.884 0.266,2.147 0.079,2.445 -0.14,2.716 -0.359,2.707 -0.512,2.278 -0.57,1.565 -0.642,1.126 -3.327,5.045 -1.381,2.856 -1.579,3.803 -1.747,4.799 -1.708,5.341 -1.412,5.141 -1.125,4.937 -0.863,4.784 -0.58,4.471 -0.369,4.612 -0.397,7.95 0,0"
       style="fill:none;stroke:#0000ff;stroke-width:1.5;stroke-linecap:square;stroke-linejoin:round"
       id="path18570"
       inkscape:connector-curvature="0" />
  </g>
  <g
     id="line2d_3"
     style="stroke-linecap:square;stroke-linejoin:round">
    <defs
       id="defs18573">
      <path
         d="M 0,2.5 C 0.663008,2.5 1.29895,2.23658 1.76777,1.76777 2.23658,1.29895 2.5,0.663008 2.5,0 2.5,-0.663008 2.23658,-1.29895 1.76777,-1.76777 1.29895,-2.23658 0.663008,-2.5 0,-2.5 c -0.663008,0 -1.29895,0.26342 -1.76777,0.73223 C -2.23658,-1.29895 -2.5,-0.663008 -2.5,0 c 0,0.663008 0.26342,1.29895 0.73223,1.76777 C -1.29895,2.23658 -0.663008,2.5 0,2.5 z"
         id="mfd1e14f688"
         style="stroke:#ff0000;stroke-width:0.5;stroke-linecap:butt;stroke-linejoin:round"
         inkscape:connector-curvature="0" />
    </defs>
    <g
       clip-path="url(#p7ff5b81e1d)"
       id="g18576"
       style="stroke-linecap:square;stroke-linejoin:round">
      <use
         style="fill:#ff0000;stroke:#ff0000;stroke-width:0.5;stroke-linecap:butt;stroke-linejoin:round"
         x="293.51196"
         xlink:href="#mfd1e14f688"
         y="231.58684"
         id="use18578"
         width="576"
         height="432" />
    </g>
  </g>
  <g
     id="line2d_4"
     style="stroke-linecap:square;stroke-linejoin:round">
    <g
       clip-path="url(#p7ff5b81e1d)"
       id="g18581"
       style="stroke-linecap:square;stroke-linejoin:round">
      <use
         style="fill:#ff0000;stroke:#ff0000;stroke-width:0.5;stroke-linecap:butt;stroke-linejoin:round"
         x="271.08502"
         xlink:href="#mfd1e14f688"
         y="257.73874"
         id="use18583"
         width="576"
         height="432" />
    </g>
  </g>
  <g
     id="line2d_5"
     style="stroke-linecap:square;stroke-linejoin:round">
    <g
       clip-path="url(#p7ff5b81e1d)"
       id="g18586"
       style="stroke-linecap:square;stroke-linejoin:round">
      <use
         style="fill:#ff0000;stroke:#ff0000;stroke-width:0.5;stroke-linecap:butt;stroke-linejoin:round"
         x="282.80481"
         xlink:href="#mfd1e14f688"
         y="158.9836"
         id="use18588"
         width="576"
         height="432" />
    </g>
  </g>
  <g
     id="line2d_6"
     style="stroke-linecap:square;stroke-linejoin:round">
    <g
       clip-path="url(#p7ff5b81e1d)"
       id="g18591"
       style="stroke-linecap:square;stroke-linejoin:round">
      <use
         style="fill:#ff0000;stroke:#ff0000;stroke-width:0.5;stroke-linecap:butt;stroke-linejoin:round"
         x="306.53543"
         xlink:href="#mfd1e14f688"
         y="138.96521"
         id="use18593"
         width="576"
         height="432" />
    </g>
  </g>
  <g
     id="line2d_7"
     style="stroke-linecap:square;stroke-linejoin:round">
    <g
       clip-path="url(#p7ff5b81e1d)"
       id="g18596"
       style="stroke-linecap:square;stroke-linejoin:round">
      <use
         style="fill:#ff0000;stroke:#ff0000;stroke-width:0.5;stroke-linecap:butt;stroke-linejoin:round"
         x="301.98459"
         xlink:href="#mfd1e14f688"
         y="252.57608"
         id="use18598"
         width="576"
         height="432" />
    </g>
  </g>
  <g
     id="line2d_8"
     style="stroke-linecap:square;stroke-linejoin:round">
    <g
       clip-path="url(#p7ff5b81e1d)"
       id="g18601"
       style="stroke-linecap:square;stroke-linejoin:round">
      <use
         style="fill:#ff0000;stroke:#ff0000;stroke-width:0.5;stroke-linecap:butt;stroke-linejoin:round"
         x="269.33078"
         xlink:href="#mfd1e14f688"
         y="281.34827"
         id="use18603"
         width="576"
         height="432" />
    </g>
  </g>
  <g
     id="line2d_9"
     style="stroke-linecap:square;stroke-linejoin:round">
    <g
       clip-path="url(#p7ff5b81e1d)"
       id="g18606"
       style="stroke-linecap:square;stroke-linejoin:round">
      <use
         style="fill:#ff0000;stroke:#ff0000;stroke-width:0.5;stroke-linecap:butt;stroke-linejoin:round"
         x="281.55188"
         xlink:href="#mfd1e14f688"
         y="236.38141"
         id="use18608"
         width="576"
         height="432" />
    </g>
  </g>
  <g
     id="line2d_10"
     style="stroke-linecap:square;stroke-linejoin:round">
    <g
       clip-path="url(#p7ff5b81e1d)"
       id="g18611"
       style="stroke-linecap:square;stroke-linejoin:round">
      <use
         style="fill:#ff0000;stroke:#ff0000;stroke-width:0.5;stroke-linecap:butt;stroke-linejoin:round"
         x="313.10498"
         xlink:href="#mfd1e14f688"
         y="201.43781"
         id="use18613"
         width="576"
         height="432" />
    </g>
  </g>
  <g
     id="line2d_11"
     style="stroke-linecap:square;stroke-linejoin:round">
    <g
       clip-path="url(#p7ff5b81e1d)"
       id="g18616"
       style="stroke-linecap:square;stroke-linejoin:round">
      <use
         style="fill:#ff0000;stroke:#ff0000;stroke-width:0.5;stroke-linecap:butt;stroke-linejoin:round"
         x="314.63101"
         xlink:href="#mfd1e14f688"
         y="100.74931"
         id="use18618"
         width="576"
         height="432" />
    </g>
  </g>
  <g
     id="line2d_12"
     style="stroke-linecap:square;stroke-linejoin:round">
    <g
       clip-path="url(#p7ff5b81e1d)"
       id="g18621"
       style="stroke-linecap:square;stroke-linejoin:round">
      <use
         style="fill:#ff0000;stroke:#ff0000;stroke-width:0.5;stroke-linecap:butt;stroke-linejoin:round"
         x="271.49036"
         xlink:href="#mfd1e14f688"
         y="100.74654"
         id="use18623"
         width="576"
         height="432" />
    </g>
  </g>
  <g
     id="line2d_13"
     style="stroke-linecap:square;stroke-linejoin:round">
    <g
       clip-path="url(#p7ff5b81e1d)"
       id="g18626"
       style="stroke-linecap:square;stroke-linejoin:round">
      <use
         style="fill:#ff0000;stroke:#ff0000;stroke-width:0.5;stroke-linecap:butt;stroke-linejoin:round"
         x="284.68692"
         xlink:href="#mfd1e14f688"
         y="111.67995"
         id="use18628"
         width="576"
         height="432" />
    </g>
  </g>
  <g
     id="line2d_14"
     style="stroke-linecap:square;stroke-linejoin:round">
    <g
       clip-path="url(#p7ff5b81e1d)"
       id="g18631"
       style="stroke-linecap:square;stroke-linejoin:round">
      <use
         style="fill:#ff0000;stroke:#ff0000;stroke-width:0.5;stroke-linecap:butt;stroke-linejoin:round"
         x="346.11316"
         xlink:href="#mfd1e14f688"
         y="100.74931"
         id="use18633"
         width="576"
         height="432" />
    </g>
  </g>
  <g
     id="line2d_15"
     style="stroke-linecap:square;stroke-linejoin:round">
    <g
       clip-path="url(#p7ff5b81e1d)"
       id="g18636"
       style="stroke-linecap:square;stroke-linejoin:round">
      <use
         style="fill:#ff0000;stroke:#ff0000;stroke-width:0.5;stroke-linecap:butt;stroke-linejoin:round"
         x="332.53299"
         xlink:href="#mfd1e14f688"
         y="200.27396"
         id="use18638"
         width="576"
         height="432" />
    </g>
  </g>
  <g
     id="line2d_16"
     style="stroke-linecap:square;stroke-linejoin:round">
    <g
       clip-path="url(#p7ff5b81e1d)"
       id="g18641"
       style="stroke-linecap:square;stroke-linejoin:round">
      <use
         style="fill:#ff0000;stroke:#ff0000;stroke-width:0.5;stroke-linecap:butt;stroke-linejoin:round"
         x="313.05969"
         xlink:href="#mfd1e14f688"
         y="206.86842"
         id="use18643"
         width="576"
         height="432" />
    </g>
  </g>
  <g
     id="line2d_17"
     style="stroke-linecap:square;stroke-linejoin:round">
    <g
       clip-path="url(#p7ff5b81e1d)"
       id="g18646"
       style="stroke-linecap:square;stroke-linejoin:round">
      <use
         style="fill:#ff0000;stroke:#ff0000;stroke-width:0.5;stroke-linecap:butt;stroke-linejoin:round"
         x="312.17984"
         xlink:href="#mfd1e14f688"
         y="113.52559"
         id="use18648"
         width="576"
         height="432" />
    </g>
  </g>
  <g
     id="line2d_18"
     style="stroke-linecap:square;stroke-linejoin:round">
    <g
       clip-path="url(#p7ff5b81e1d)"
       id="g18651"
       style="stroke-linecap:square;stroke-linejoin:round">
      <use
         style="fill:#ff0000;stroke:#ff0000;stroke-width:0.5;stroke-linecap:butt;stroke-linejoin:round"
         x="291.07993"
         xlink:href="#mfd1e14f688"
         y="146.73277"
         id="use18653"
         width="576"
         height="432" />
    </g>
  </g>
  <g
     id="line2d_19"
     style="stroke-linecap:square;stroke-linejoin:round">
    <g
       clip-path="url(#p7ff5b81e1d)"
       id="g18656"
       style="stroke-linecap:square;stroke-linejoin:round">
      <use
         style="fill:#ff0000;stroke:#ff0000;stroke-width:0.5;stroke-linecap:butt;stroke-linejoin:round"
         x="280.44"
         xlink:href="#mfd1e14f688"
         y="215.19406"
         id="use18658"
         width="576"
         height="432" />
    </g>
  </g>
  <g
     id="line2d_20"
     style="stroke-linecap:square;stroke-linejoin:round">
    <g
       clip-path="url(#p7ff5b81e1d)"
       id="g18661"
       style="stroke-linecap:square;stroke-linejoin:round">
      <use
         style="fill:#ff0000;stroke:#ff0000;stroke-width:0.5;stroke-linecap:butt;stroke-linejoin:round"
         x="285.84286"
         xlink:href="#mfd1e14f688"
         y="228.08301"
         id="use18663"
         width="576"
         height="432" />
    </g>
  </g>
  <g
     id="line2d_21"
     style="stroke-linecap:square;stroke-linejoin:round">
    <g
       clip-path="url(#p7ff5b81e1d)"
       id="g18666"
       style="stroke-linecap:square;stroke-linejoin:round">
      <use
         style="fill:#ff0000;stroke:#ff0000;stroke-width:0.5;stroke-linecap:butt;stroke-linejoin:round"
         x="298.48041"
         xlink:href="#mfd1e14f688"
         y="258.22015"
         id="use18668"
         width="576"
         height="432" />
    </g>
  </g>
  <g
     id="line2d_22"
     style="stroke-linecap:square;stroke-linejoin:round">
    <g
       clip-path="url(#p7ff5b81e1d)"
       id="g18671"
       style="stroke-linecap:square;stroke-linejoin:round">
      <use
         style="fill:#ff0000;stroke:#ff0000;stroke-width:0.5;stroke-linecap:butt;stroke-linejoin:round"
         x="303.91806"
         xlink:href="#mfd1e14f688"
         y="292.56036"
         id="use18673"
         width="576"
         height="432" />
    </g>
  </g>
  <g
     id="line2d_23"
     style="stroke-linecap:square;stroke-linejoin:round">
    <g
       clip-path="url(#p7ff5b81e1d)"
       id="g18676"
       style="stroke-linecap:square;stroke-linejoin:round">
      <use
         style="fill:#ff0000;stroke:#ff0000;stroke-width:0.5;stroke-linecap:butt;stroke-linejoin:round"
         x="293.40326"
         xlink:href="#mfd1e14f688"
         y="231.56638"
         id="use18678"
         width="576"
         height="432" />
    </g>
  </g>
  <g
     id="matplotlib.axis_1"
     style="stroke-linecap:square;stroke-linejoin:round">
    <g
       id="xtick_1"
       style="stroke-linecap:square;stroke-linejoin:round">
      <g
         id="line2d_24"
         style="stroke-linecap:square;stroke-linejoin:round">
        <defs
           id="defs18683">
          <path
             d="M 0,0 0,-4"
             id="mcb557df647"
             style="stroke:#000000;stroke-width:0.5;stroke-linecap:butt;stroke-linejoin:round"
             inkscape:connector-curvature="0" />
        </defs>
        <g
           id="g18686"
           style="stroke-linecap:square;stroke-linejoin:round">
          <use
             style="stroke:#000000;stroke-width:0.5;stroke-linecap:butt;stroke-linejoin:round"
             x="518.40002"
             xlink:href="#mcb557df647"
             y="388.79999"
             id="use18688"
             width="576"
             height="432" />
        </g>
      </g>
      <g
         id="line2d_25"
         style="stroke-linecap:square;stroke-linejoin:round">
        <defs
           id="defs18691">
          <path
             d="M 0,0 0,4"
             id="mdad270ee8e"
             style="stroke:#000000;stroke-width:0.5;stroke-linecap:butt;stroke-linejoin:round"
             inkscape:connector-curvature="0" />
        </defs>
        <g
           id="g18694"
           style="stroke-linecap:square;stroke-linejoin:round">
          <use
             style="stroke:#000000;stroke-width:0.5;stroke-linecap:butt;stroke-linejoin:round"
             x="518.40002"
             xlink:href="#mdad270ee8e"
             y="43.200001"
             id="use18696"
             width="576"
             height="432" />
        </g>
      </g>
      <g
         id="text_1"
         style="stroke-linecap:square;stroke-linejoin:round">
        <text
           style="font-size:12px;font-style:normal;stroke-linecap:square;stroke-linejoin:round;font-family:Bitstream Vera Sans"
           transform="translate(503.56781,401.705)"
           id="text18699">-0.20</text>
      </g>
    </g>
    <g
       id="xtick_2"
       style="stroke-linecap:square;stroke-linejoin:round">
      <g
         id="line2d_26"
         style="stroke-linecap:square;stroke-linejoin:round">
        <g
           id="g18703"
           style="stroke-linecap:square;stroke-linejoin:round">
          <use
             style="stroke:#000000;stroke-width:0.5;stroke-linecap:butt;stroke-linejoin:round"
             x="462.60001"
             xlink:href="#mcb557df647"
             y="388.79999"
             id="use18705"
             width="576"
             height="432" />
        </g>
      </g>
      <g
         id="line2d_27"
         style="stroke-linecap:square;stroke-linejoin:round">
        <g
           id="g18708"
           style="stroke-linecap:square;stroke-linejoin:round">
          <use
             style="stroke:#000000;stroke-width:0.5;stroke-linecap:butt;stroke-linejoin:round"
             x="462.60001"
             xlink:href="#mdad270ee8e"
             y="43.200001"
             id="use18710"
             width="576"
             height="432" />
        </g>
      </g>
      <g
         id="text_2"
         style="stroke-linecap:square;stroke-linejoin:round">
        <text
           style="font-size:12px;font-style:normal;stroke-linecap:square;stroke-linejoin:round;font-family:Bitstream Vera Sans"
           transform="translate(447.89344,401.705)"
           id="text18713">-0.15</text>
      </g>
    </g>
    <g
       id="xtick_3"
       style="stroke-linecap:square;stroke-linejoin:round">
      <g
         id="line2d_28"
         style="stroke-linecap:square;stroke-linejoin:round">
        <g
           id="g18717"
           style="stroke-linecap:square;stroke-linejoin:round">
          <use
             style="stroke:#000000;stroke-width:0.5;stroke-linecap:butt;stroke-linejoin:round"
             x="406.79999"
             xlink:href="#mcb557df647"
             y="388.79999"
             id="use18719"
             width="576"
             height="432" />
        </g>
      </g>
      <g
         id="line2d_29"
         style="stroke-linecap:square;stroke-linejoin:round">
        <g
           id="g18722"
           style="stroke-linecap:square;stroke-linejoin:round">
          <use
             style="stroke:#000000;stroke-width:0.5;stroke-linecap:butt;stroke-linejoin:round"
             x="406.79999"
             xlink:href="#mdad270ee8e"
             y="43.200001"
             id="use18724"
             width="576"
             height="432" />
        </g>
      </g>
      <g
         id="text_3"
         style="stroke-linecap:square;stroke-linejoin:round">
        <text
           style="font-size:12px;font-style:normal;stroke-linecap:square;stroke-linejoin:round;font-family:Bitstream Vera Sans"
           transform="translate(391.96781,401.705)"
           id="text18727">-0.10</text>
      </g>
    </g>
    <g
       id="xtick_4"
       style="stroke-linecap:square;stroke-linejoin:round">
      <g
         id="line2d_30"
         style="stroke-linecap:square;stroke-linejoin:round">
        <g
           id="g18731"
           style="stroke-linecap:square;stroke-linejoin:round">
          <use
             style="stroke:#000000;stroke-width:0.5;stroke-linecap:butt;stroke-linejoin:round"
             x="351"
             xlink:href="#mcb557df647"
             y="388.79999"
             id="use18733"
             width="576"
             height="432" />
        </g>
      </g>
      <g
         id="line2d_31"
         style="stroke-linecap:square;stroke-linejoin:round">
        <g
           id="g18736"
           style="stroke-linecap:square;stroke-linejoin:round">
          <use
             style="stroke:#000000;stroke-width:0.5;stroke-linecap:butt;stroke-linejoin:round"
             x="351"
             xlink:href="#mdad270ee8e"
             y="43.200001"
             id="use18738"
             width="576"
             height="432" />
        </g>
      </g>
      <g
         id="text_4"
         style="stroke-linecap:square;stroke-linejoin:round">
        <text
           style="font-size:12px;font-style:normal;stroke-linecap:square;stroke-linejoin:round;font-family:Bitstream Vera Sans"
           transform="translate(336.29344,401.705)"
           id="text18741">-0.05</text>
      </g>
    </g>
    <g
       id="xtick_5"
       style="stroke-linecap:square;stroke-linejoin:round">
      <g
         id="line2d_32"
         style="stroke-linecap:square;stroke-linejoin:round">
        <g
           id="g18745"
           style="stroke-linecap:square;stroke-linejoin:round">
          <use
             style="stroke:#000000;stroke-width:0.5;stroke-linecap:butt;stroke-linejoin:round"
             x="295.20001"
             xlink:href="#mcb557df647"
             y="388.79999"
             id="use18747"
             width="576"
             height="432" />
        </g>
      </g>
      <g
         id="line2d_33"
         style="stroke-linecap:square;stroke-linejoin:round">
        <g
           id="g18750"
           style="stroke-linecap:square;stroke-linejoin:round">
          <use
             style="stroke:#000000;stroke-width:0.5;stroke-linecap:butt;stroke-linejoin:round"
             x="295.20001"
             xlink:href="#mdad270ee8e"
             y="43.200001"
             id="use18752"
             width="576"
             height="432" />
        </g>
      </g>
      <g
         id="text_5"
         style="stroke-linecap:square;stroke-linejoin:round">
        <text
           style="font-size:12px;font-style:normal;stroke-linecap:square;stroke-linejoin:round;font-family:Bitstream Vera Sans"
           transform="translate(282.63469,401.705)"
           id="text18755">0.00</text>
      </g>
    </g>
    <g
       id="xtick_6"
       style="stroke-linecap:square;stroke-linejoin:round">
      <g
         id="line2d_34"
         style="stroke-linecap:square;stroke-linejoin:round">
        <g
           id="g18759"
           style="stroke-linecap:square;stroke-linejoin:round">
          <use
             style="stroke:#000000;stroke-width:0.5;stroke-linecap:butt;stroke-linejoin:round"
             x="239.39999"
             xlink:href="#mcb557df647"
             y="388.79999"
             id="use18761"
             width="576"
             height="432" />
        </g>
      </g>
      <g
         id="line2d_35"
         style="stroke-linecap:square;stroke-linejoin:round">
        <g
           id="g18764"
           style="stroke-linecap:square;stroke-linejoin:round">
          <use
             style="stroke:#000000;stroke-width:0.5;stroke-linecap:butt;stroke-linejoin:round"
             x="239.39999"
             xlink:href="#mdad270ee8e"
             y="43.200001"
             id="use18766"
             width="576"
             height="432" />
        </g>
      </g>
      <g
         id="text_6"
         style="stroke-linecap:square;stroke-linejoin:round">
        <text
           style="font-size:12px;font-style:normal;stroke-linecap:square;stroke-linejoin:round;font-family:Bitstream Vera Sans"
           transform="translate(226.96031,401.705)"
           id="text18769">0.05</text>
      </g>
    </g>
    <g
       id="xtick_7"
       style="stroke-linecap:square;stroke-linejoin:round">
      <g
         id="line2d_36"
         style="stroke-linecap:square;stroke-linejoin:round">
        <g
           id="g18773"
           style="stroke-linecap:square;stroke-linejoin:round">
          <use
             style="stroke:#000000;stroke-width:0.5;stroke-linecap:butt;stroke-linejoin:round"
             x="183.60001"
             xlink:href="#mcb557df647"
             y="388.79999"
             id="use18775"
             width="576"
             height="432" />
        </g>
      </g>
      <g
         id="line2d_37"
         style="stroke-linecap:square;stroke-linejoin:round">
        <g
           id="g18778"
           style="stroke-linecap:square;stroke-linejoin:round">
          <use
             style="stroke:#000000;stroke-width:0.5;stroke-linecap:butt;stroke-linejoin:round"
             x="183.60001"
             xlink:href="#mdad270ee8e"
             y="43.200001"
             id="use18780"
             width="576"
             height="432" />
        </g>
      </g>
      <g
         id="text_7"
         style="stroke-linecap:square;stroke-linejoin:round">
        <text
           style="font-size:12px;font-style:normal;stroke-linecap:square;stroke-linejoin:round;font-family:Bitstream Vera Sans"
           transform="translate(171.03469,401.705)"
           id="text18783">0.10</text>
      </g>
    </g>
    <g
       id="xtick_8"
       style="stroke-linecap:square;stroke-linejoin:round">
      <g
         id="line2d_38"
         style="stroke-linecap:square;stroke-linejoin:round">
        <g
           id="g18787"
           style="stroke-linecap:square;stroke-linejoin:round">
          <use
             style="stroke:#000000;stroke-width:0.5;stroke-linecap:butt;stroke-linejoin:round"
             x="127.8"
             xlink:href="#mcb557df647"
             y="388.79999"
             id="use18789"
             width="576"
             height="432" />
        </g>
      </g>
      <g
         id="line2d_39"
         style="stroke-linecap:square;stroke-linejoin:round">
        <g
           id="g18792"
           style="stroke-linecap:square;stroke-linejoin:round">
          <use
             style="stroke:#000000;stroke-width:0.5;stroke-linecap:butt;stroke-linejoin:round"
             x="127.8"
             xlink:href="#mdad270ee8e"
             y="43.200001"
             id="use18794"
             width="576"
             height="432" />
        </g>
      </g>
      <g
         id="text_8"
         style="stroke-linecap:square;stroke-linejoin:round">
        <text
           style="font-size:12px;font-style:normal;stroke-linecap:square;stroke-linejoin:round;font-family:Bitstream Vera Sans"
           transform="translate(115.36031,401.705)"
           id="text18797">0.15</text>
      </g>
    </g>
    <g
       id="xtick_9"
       style="stroke-linecap:square;stroke-linejoin:round">
      <g
         id="line2d_40"
         style="stroke-linecap:square;stroke-linejoin:round">
        <g
           id="g18801"
           style="stroke-linecap:square;stroke-linejoin:round">
          <use
             style="stroke:#000000;stroke-width:0.5;stroke-linecap:butt;stroke-linejoin:round"
             x="72"
             xlink:href="#mcb557df647"
             y="388.79999"
             id="use18803"
             width="576"
             height="432" />
        </g>
      </g>
      <g
         id="line2d_41"
         style="stroke-linecap:square;stroke-linejoin:round">
        <g
           id="g18806"
           style="stroke-linecap:square;stroke-linejoin:round">
          <use
             style="stroke:#000000;stroke-width:0.5;stroke-linecap:butt;stroke-linejoin:round"
             x="72"
             xlink:href="#mdad270ee8e"
             y="43.200001"
             id="use18808"
             width="576"
             height="432" />
        </g>
      </g>
      <g
         id="text_9"
         style="stroke-linecap:square;stroke-linejoin:round">
        <text
           style="font-size:12px;font-style:normal;stroke-linecap:square;stroke-linejoin:round;font-family:Bitstream Vera Sans"
           transform="translate(59.434688,401.705)"
           id="text18811">0.20</text>
      </g>
    </g>
    <g
       id="text_10"
       style="stroke-linecap:square;stroke-linejoin:round">
      <text
         style="font-size:12px;font-style:normal;stroke-linecap:square;stroke-linejoin:round;font-family:Bitstream Vera Sans"
         transform="translate(292.00687,413.435)"
         id="text18814">$y$</text>
    </g>
  </g>
  <g
     id="line2d_42"
     style="stroke-linecap:square;stroke-linejoin:round">
    <path
       clip-path="url(#p7ff5b81e1d)"
       d="m 72,388.8 446.4,0"
       style="fill:none;stroke:#d3d3d3;stroke-width:0.5;stroke-linecap:square;stroke-linejoin:round"
       id="path18819"
       inkscape:connector-curvature="0" />
  </g>
  <g
     id="line2d_43"
     style="stroke-linecap:square;stroke-linejoin:round">
    <defs
       id="defs18822">
      <path
         d="M 0,0 4,0"
         id="mc8fcea1516"
         style="stroke:#000000;stroke-width:0.5;stroke-linecap:butt;stroke-linejoin:round"
         inkscape:connector-curvature="0" />
    </defs>
    <g
       id="g18825"
       style="stroke-linecap:square;stroke-linejoin:round">
      <use
         style="stroke:#000000;stroke-width:0.5;stroke-linecap:butt;stroke-linejoin:round"
         x="72"
         xlink:href="#mc8fcea1516"
         y="388.79999"
         id="use18827"
         width="576"
         height="432" />
    </g>
  </g>
  <g
     id="line2d_44"
     style="stroke-linecap:square;stroke-linejoin:round">
    <defs
       id="defs18830">
      <path
         d="M 0,0 -4,0"
         id="m0d5b0a6425"
         style="stroke:#000000;stroke-width:0.5;stroke-linecap:butt;stroke-linejoin:round"
         inkscape:connector-curvature="0" />
    </defs>
    <g
       id="g18833"
       style="stroke-linecap:square;stroke-linejoin:round">
      <use
         style="stroke:#000000;stroke-width:0.5;stroke-linecap:butt;stroke-linejoin:round"
         x="518.40002"
         xlink:href="#m0d5b0a6425"
         y="388.79999"
         id="use18835"
         width="576"
         height="432" />
    </g>
  </g>
  <g
     id="text_11"
     style="stroke-linecap:square;stroke-linejoin:round"
     transform="translate(-9.6,0)">
    <text
       style="font-size:12px;font-style:normal;stroke-linecap:square;stroke-linejoin:round;font-family:Bitstream Vera Sans"
       transform="translate(38.335625,393.16656)"
       id="text18838">-0.10</text>
  </g>
  <g
     id="line2d_45"
     style="stroke-linecap:square;stroke-linejoin:round">
    <path
       clip-path="url(#p7ff5b81e1d)"
       d="m 72,319.68 446.4,0"
       style="fill:none;stroke:#d3d3d3;stroke-width:0.5;stroke-linecap:square;stroke-linejoin:round"
       id="path18842"
       inkscape:connector-curvature="0" />
  </g>
  <g
     id="line2d_46"
     style="stroke-linecap:square;stroke-linejoin:round">
    <g
       id="g18845"
       style="stroke-linecap:square;stroke-linejoin:round">
      <use
         style="stroke:#000000;stroke-width:0.5;stroke-linecap:butt;stroke-linejoin:round"
         x="72"
         xlink:href="#mc8fcea1516"
         y="319.67999"
         id="use18847"
         width="576"
         height="432" />
    </g>
  </g>
  <g
     id="line2d_47"
     style="stroke-linecap:square;stroke-linejoin:round">
    <g
       id="g18850"
       style="stroke-linecap:square;stroke-linejoin:round">
      <use
         style="stroke:#000000;stroke-width:0.5;stroke-linecap:butt;stroke-linejoin:round"
         x="518.40002"
         xlink:href="#m0d5b0a6425"
         y="319.67999"
         id="use18852"
         width="576"
         height="432" />
    </g>
  </g>
  <g
     id="text_12"
     style="stroke-linecap:square;stroke-linejoin:round"
     transform="translate(-9.6,0)">
    <text
       style="font-size:12px;font-style:normal;stroke-linecap:square;stroke-linejoin:round;font-family:Bitstream Vera Sans"
       transform="translate(38.586875,324.04656)"
       id="text18855">-0.05</text>
  </g>
  <g
     id="line2d_48"
     style="stroke-linecap:square;stroke-linejoin:round">
    <path
       clip-path="url(#p7ff5b81e1d)"
       d="m 72,250.56 446.4,0"
       style="fill:none;stroke:#d3d3d3;stroke-width:0.5;stroke-linecap:square;stroke-linejoin:round"
       id="path18859"
       inkscape:connector-curvature="0" />
  </g>
  <g
     id="line2d_49"
     style="stroke-linecap:square;stroke-linejoin:round">
    <g
       id="g18862"
       style="stroke-linecap:square;stroke-linejoin:round">
      <use
         style="stroke:#000000;stroke-width:0.5;stroke-linecap:butt;stroke-linejoin:round"
         x="72"
         xlink:href="#mc8fcea1516"
         y="250.56"
         id="use18864"
         width="576"
         height="432" />
    </g>
  </g>
  <g
     id="line2d_50"
     style="stroke-linecap:square;stroke-linejoin:round">
    <g
       id="g18867"
       style="stroke-linecap:square;stroke-linejoin:round">
      <use
         style="stroke:#000000;stroke-width:0.5;stroke-linecap:butt;stroke-linejoin:round"
         x="518.40002"
         xlink:href="#m0d5b0a6425"
         y="250.56"
         id="use18869"
         width="576"
         height="432" />
    </g>
  </g>
  <g
     id="text_13"
     style="stroke-linecap:square;stroke-linejoin:round"
     transform="translate(-9.6,0)">
    <text
       style="font-size:12px;font-style:normal;stroke-linecap:square;stroke-linejoin:round;font-family:Bitstream Vera Sans"
       transform="translate(42.869375,254.92656)"
       id="text18872">0.00</text>
  </g>
  <g
     id="line2d_51"
     style="stroke-linecap:square;stroke-linejoin:round">
    <path
       clip-path="url(#p7ff5b81e1d)"
       d="m 72,181.44 446.4,0"
       style="fill:none;stroke:#d3d3d3;stroke-width:0.5;stroke-linecap:square;stroke-linejoin:round"
       id="path18876"
       inkscape:connector-curvature="0" />
  </g>
  <g
     id="line2d_52"
     style="stroke-linecap:square;stroke-linejoin:round">
    <g
       id="g18879"
       style="stroke-linecap:square;stroke-linejoin:round">
      <use
         style="stroke:#000000;stroke-width:0.5;stroke-linecap:butt;stroke-linejoin:round"
         x="72"
         xlink:href="#mc8fcea1516"
         y="181.44"
         id="use18881"
         width="576"
         height="432" />
    </g>
  </g>
  <g
     id="line2d_53"
     style="stroke-linecap:square;stroke-linejoin:round">
    <g
       id="g18884"
       style="stroke-linecap:square;stroke-linejoin:round">
      <use
         style="stroke:#000000;stroke-width:0.5;stroke-linecap:butt;stroke-linejoin:round"
         x="518.40002"
         xlink:href="#m0d5b0a6425"
         y="181.44"
         id="use18886"
         width="576"
         height="432" />
    </g>
  </g>
  <g
     id="text_14"
     style="stroke-linecap:square;stroke-linejoin:round"
     transform="translate(-9.6,0)">
    <text
       style="font-size:12px;font-style:normal;stroke-linecap:square;stroke-linejoin:round;font-family:Bitstream Vera Sans"
       transform="translate(43.120625,185.80656)"
       id="text18889">0.05</text>
  </g>
  <g
     id="line2d_54"
     style="stroke-linecap:square;stroke-linejoin:round">
    <path
       clip-path="url(#p7ff5b81e1d)"
       d="m 72,112.32 446.4,0"
       style="fill:none;stroke:#d3d3d3;stroke-width:0.5;stroke-linecap:square;stroke-linejoin:round"
       id="path18893"
       inkscape:connector-curvature="0" />
  </g>
  <g
     id="line2d_55"
     style="stroke-linecap:square;stroke-linejoin:round">
    <g
       id="g18896"
       style="stroke-linecap:square;stroke-linejoin:round">
      <use
         style="stroke:#000000;stroke-width:0.5;stroke-linecap:butt;stroke-linejoin:round"
         x="72"
         xlink:href="#mc8fcea1516"
         y="112.32"
         id="use18898"
         width="576"
         height="432" />
    </g>
  </g>
  <g
     id="line2d_56"
     style="stroke-linecap:square;stroke-linejoin:round">
    <g
       id="g18901"
       style="stroke-linecap:square;stroke-linejoin:round">
      <use
         style="stroke:#000000;stroke-width:0.5;stroke-linecap:butt;stroke-linejoin:round"
         x="518.40002"
         xlink:href="#m0d5b0a6425"
         y="112.32"
         id="use18903"
         width="576"
         height="432" />
    </g>
  </g>
  <g
     id="text_15"
     style="stroke-linecap:square;stroke-linejoin:round"
     transform="translate(-9.6,0)">
    <text
       style="font-size:12px;font-style:normal;stroke-linecap:square;stroke-linejoin:round;font-family:Bitstream Vera Sans"
       transform="translate(42.869375,116.68656)"
       id="text18906">0.10</text>
  </g>
  <g
     id="line2d_57"
     style="stroke-linecap:square;stroke-linejoin:round">
    <path
       clip-path="url(#p7ff5b81e1d)"
       d="m 72,43.2 446.4,0"
       style="fill:none;stroke:#d3d3d3;stroke-width:0.5;stroke-linecap:square;stroke-linejoin:round"
       id="path18910"
       inkscape:connector-curvature="0" />
  </g>
  <g
     id="line2d_58"
     style="stroke-linecap:square;stroke-linejoin:round">
    <g
       id="g18913"
       style="stroke-linecap:square;stroke-linejoin:round">
      <use
         style="stroke:#000000;stroke-width:0.5;stroke-linecap:butt;stroke-linejoin:round"
         x="72"
         xlink:href="#mc8fcea1516"
         y="43.200001"
         id="use18915"
         width="576"
         height="432" />
    </g>
  </g>
  <g
     id="line2d_59"
     style="stroke-linecap:square;stroke-linejoin:round">
    <g
       id="g18918"
       style="stroke-linecap:square;stroke-linejoin:round">
      <use
         style="stroke:#000000;stroke-width:0.5;stroke-linecap:butt;stroke-linejoin:round"
         x="518.40002"
         xlink:href="#m0d5b0a6425"
         y="43.200001"
         id="use18920"
         width="576"
         height="432" />
    </g>
  </g>
  <g
     id="text_16"
     style="stroke-linecap:square;stroke-linejoin:round"
     transform="translate(-9.6,0)">
    <text
       style="font-size:12px;font-style:normal;stroke-linecap:square;stroke-linejoin:round;font-family:Bitstream Vera Sans"
       transform="translate(43.120625,47.566563)"
       id="text18923">0.15</text>
  </g>
  <g
     style="stroke-linecap:square;stroke-linejoin:round"
     id="text_17">
    <text
       id="text18926"
       transform="matrix(0,-1,1,0,33.335625,219.18187)"
       style="font-size:12px;font-style:normal;stroke-linecap:square;stroke-linejoin:round;font-family:Bitstream Vera Sans">$x$</text>
  </g>
  <g
     id="patch_6"
     style="stroke-linecap:square;stroke-linejoin:round">
    <path
       d="m 72,43.2 446.4,0"
       style="fill:none;stroke:#000000;stroke-linecap:square;stroke-linejoin:round"
       id="path18929"
       inkscape:connector-curvature="0" />
  </g>
  <g
     id="patch_7"
     style="stroke-linecap:square;stroke-linejoin:round">
    <path
       d="m 518.4,388.8 0,-345.6"
       style="fill:none;stroke:#000000;stroke-linecap:square;stroke-linejoin:round"
       id="path18932"
       inkscape:connector-curvature="0" />
  </g>
  <g
     id="patch_8"
     style="stroke-linecap:square;stroke-linejoin:round">
    <path
       d="m 72,388.8 446.4,0"
       style="fill:none;stroke:#000000;stroke-linecap:square;stroke-linejoin:round"
       id="path18935"
       inkscape:connector-curvature="0" />
  </g>
  <g
     id="patch_9"
     style="stroke-linecap:square;stroke-linejoin:round">
    <path
       d="M 72,388.8 72,43.2"
       style="fill:none;stroke:#000000;stroke-linecap:square;stroke-linejoin:round"
       id="path18938"
       inkscape:connector-curvature="0" />
  </g>
  <g
     style="stroke-linecap:square;stroke-linejoin:round"
     id="patch_10">
    <path
       inkscape:connector-curvature="0"
       id="path18942"
       style="fill:#ffffff;stroke:#000000;stroke-linecap:square;stroke-linejoin:round"
       d="m 429.527,94.203 81.673,0 0,-43.803 -81.673,0 0,43.803 z" />
  </g>
  <g
     style="stroke-linecap:square;stroke-linejoin:round"
     id="line2d_60">
    <path
       inkscape:connector-curvature="0"
       id="path18945"
       style="fill:none;stroke:#ff0000;stroke-width:1.5;stroke-linecap:square;stroke-linejoin:round"
       d="m 439.607,62.0617 20.16,0" />
  </g>
  <g
     style="stroke-linecap:square;stroke-linejoin:round"
     id="line2d_61" />
  <g
     style="stroke-linecap:square;stroke-linejoin:round"
     id="text_18"
     transform="translate(-9.6,0)">
    <text
       id="text18949"
       transform="translate(475.60725,67.10175)"
       style="font-size:14.39999962px;font-style:normal;stroke-linecap:square;stroke-linejoin:round;font-family:Bitstream Vera Sans">ZMP</text>
  </g>
  <g
     style="stroke-linecap:square;stroke-linejoin:round"
     id="line2d_62">
    <path
       inkscape:connector-curvature="0"
       id="path18952"
       style="fill:none;stroke:#0000ff;stroke-width:1.5;stroke-linecap:square;stroke-linejoin:round"
       d="m 439.607,83.1983 20.16,0" />
  </g>
  <g
     style="stroke-linecap:square;stroke-linejoin:round"
     id="line2d_63" />
  <g
     style="stroke-linecap:square;stroke-linejoin:round"
     id="text_19"
     transform="translate(-9.6,0)">
    <text
       id="text18956"
       transform="translate(475.60725,88.239875)"
       style="font-size:14.39999962px;font-style:normal;stroke-linecap:square;stroke-linejoin:round;font-family:Bitstream Vera Sans">CoM</text>
  </g>
  <defs
     id="defs18958">
    <clipPath
       id="p7ff5b81e1d">
      <rect
         height="345.6"
         width="446.4"
         x="72.0"
         y="43.2"
         id="rect18961" />
    </clipPath>
  </defs>
</svg>
