<?xml version="1.0" encoding="UTF-8" standalone="no"?>
<!-- Created with matplotlib (http://matplotlib.org/) -->

<svg
   xmlns:dc="http://purl.org/dc/elements/1.1/"
   xmlns:cc="http://creativecommons.org/ns#"
   xmlns:rdf="http://www.w3.org/1999/02/22-rdf-syntax-ns#"
   xmlns:svg="http://www.w3.org/2000/svg"
   xmlns="http://www.w3.org/2000/svg"
   xmlns:xlink="http://www.w3.org/1999/xlink"
   xmlns:sodipodi="http://sodipodi.sourceforge.net/DTD/sodipodi-0.dtd"
   xmlns:inkscape="http://www.inkscape.org/namespaces/inkscape"
   height="432pt"
   version="1.1"
   viewBox="0 0 576 432"
   width="576pt"
   id="svg17161"
   inkscape:version="0.48.2 r9819"
   sodipodi:docname="grasping-zmp-2s-final-zmp.svg">
  <metadata
     id="metadata17583">
    <rdf:RDF>
      <cc:Work
         rdf:about="">
        <dc:format>image/svg+xml</dc:format>
        <dc:type
           rdf:resource="http://purl.org/dc/dcmitype/StillImage" />
      </cc:Work>
    </rdf:RDF>
  </metadata>
  <sodipodi:namedview
     pagecolor="#ffffff"
     bordercolor="#666666"
     borderopacity="1"
     objecttolerance="10"
     gridtolerance="10"
     guidetolerance="10"
     inkscape:pageopacity="0"
     inkscape:pageshadow="2"
     inkscape:window-width="1440"
     inkscape:window-height="825"
     id="namedview17581"
     showgrid="false"
     inkscape:zoom="0.87407407"
     inkscape:cx="448.63046"
     inkscape:cy="247.92296"
     inkscape:window-x="0"
     inkscape:window-y="24"
     inkscape:window-maximized="1"
     inkscape:current-layer="svg17161" />
  <defs
     id="defs17163">
    <style
       type="text/css"
       id="style17165">
*{stroke-linecap:square;stroke-linejoin:round;}
  </style>
  </defs>
  <g
     id="patch_2"
     style="stroke-linecap:square;stroke-linejoin:round">
    <path
       d="m 72,388.8 446.4,0 0,-345.6 -446.4,0 z"
       style="fill:#ffffff;stroke-linecap:square;stroke-linejoin:round"
       id="path17173"
       inkscape:connector-curvature="0" />
  </g>
  <g
     id="patch_3"
     style="stroke-linecap:square;stroke-linejoin:round">
    <path
       clip-path="url(#p7ff5b81e1d)"
       d="m 489.384,366.833 -388.368,0 0,-300.2566 388.368,0 z"
       style="opacity:0.1;fill:#008000;stroke:#008000;stroke-width:1.5;stroke-linecap:square;stroke-linejoin:round"
       id="path17176"
       inkscape:connector-curvature="0" />
  </g>
  <g
     id="patch_4"
     style="stroke-linecap:square;stroke-linejoin:round">
    <path
       clip-path="url(#p7ff5b81e1d)"
       d="m 335.376,66.5764 0,300.2566 154.008,0 0,-300.2566 z"
       style="fill:none;stroke:#008000;stroke-width:1.5;stroke-linecap:square;stroke-linejoin:round"
       id="path17179"
       inkscape:connector-curvature="0" />
  </g>
  <g
     id="patch_5"
     style="stroke-linecap:square;stroke-linejoin:round">
    <path
       clip-path="url(#p7ff5b81e1d)"
       d="m 255.024,66.5764 0,300.2566 -154.008,0 0,-300.2566 z"
       style="fill:none;stroke:#008000;stroke-width:1.5;stroke-linecap:square;stroke-linejoin:round"
       id="path17182"
       inkscape:connector-curvature="0" />
  </g>
  <g
     id="line2d_1"
     style="stroke-linecap:square;stroke-linejoin:round">
    <path
       clip-path="url(#p7ff5b81e1d)"
       d="m 293.512,231.587 -7.701,12.315 -5.998,9.205 -5.33,7.776 -4.056,5.554 -3.597,4.548 -2.655,3.034 -2.353,2.357 -1.668,1.403 -1.481,0.979 -1.296,0.559 -0.852,0.146 -0.751,-0.086 -0.651,-0.319 -0.55,-0.547 -0.452,-0.777 -0.352,-1.003 -0.318,-1.689 -0.144,-2.088 0.029,-2.484 0.277,-3.657 0.547,-4.266 0.996,-5.855 1.855,-9.582 1.757,-8.012 1.849,-7.456 1.951,-6.917 1.827,-5.709 1.919,-5.303 2.015,-4.902 1.846,-3.962 1.926,-3.656 2.008,-3.35 2.093,-3.038 1.862,-2.353 2.249,-2.457 2.309,-2.194 2.365,-1.93 2.417,-1.657 2.11,-1.198 2.144,-0.985 2.174,-0.768 2.202,-0.544 2.227,-0.313 2.248,-0.077 2.266,0.167 2.28,0.417 2.29,0.674 2.297,0.939 2.3,1.21 2.299,1.489 2.266,1.745 2.395,2.121 2.086,2.175 1.539,1.904 1.303,1.942 1.064,1.978 0.823,2.011 0.576,2.044 0.328,2.076 0.077,2.105 -0.178,2.133 -0.435,2.159 -0.693,2.184 -0.954,2.207 -1.217,2.229 -1.481,2.249 -1.742,2.262 -1.82,2 -1.498,1.351 -1.476,1.056 -1.454,0.757 -1.429,0.453 -1.123,0.14 -1.104,-0.061 -1.084,-0.264 -1.062,-0.47 -1.041,-0.678 -1.017,-0.888 -1.236,-1.41 -1.196,-1.747 -1.154,-2.089 -1.11,-2.435 -1.271,-3.385 -1.201,-3.897 -1.13,-4.417 -1.056,-4.945 -1.134,-6.402 -2.778,-17.278 -1.796,-12.454 -1.106,-9.141 -0.562,-6.431 -0.166,-4.31 0.089,-2.726 0.257,-1.805 0.415,-1.254 0.838,-2.51 0.56,-2.376 0.344,-2.398 0.149,-2.605 -0.066,-2.843 -0.298,-3.102 -0.547,-4.874 0.092,-2.611 0.344,-2.987 0.601,-3.363 0.988,-4.233 1.324,-4.7045 1.87,-5.7756 2.291,-6.3466 2.715,-6.9079 3.475,-8.2308 5.831,-13.5586 1.404,-4.049 0.748,-2.8312 0.299,-1.9063 0.005,-1.4971 -0.208,-0.9014 -0.397,-0.6373 -0.422,-0.3069 -0.528,-0.1589 -0.868,0.0166 -1.057,0.2778 -1.586,0.7133 -1.878,1.1184 -2.639,1.8732 -3.056,2.4496 -4.089,3.5776 -4.648,4.3477 -5.99,5.8973 -8.176,8.3856 -4.771,5.1743 -2.721,3.2708 -1.093,1.6478 -0.237,0.7023 0.075,0.2322 0.237,0.0913 0.567,-0.0954 1.112,-0.47 1.922,-1.07 3.555,-2.2851 5.346,-3.7284 7.602,-5.5696 15.126,-11.1795 4.591,-2.9266 3.513,-2.0003 3.371,-1.7017 3.229,-1.399 3.087,-1.1004 2.945,-0.8018 2.803,-0.5032 2.66,-0.2046 1.902,0.0401 1.822,0.2088 1.742,0.376 1.661,0.5432 1.581,0.7092 1.501,0.8765 1.42,1.0437 1.339,1.2096 1.258,1.3768 1.177,1.5428 1.443,2.3183 1.298,2.6127 1.153,2.9114 1.007,3.2085 0.861,3.5058 0.713,3.8043 0.566,4.103 0.529,5.5324 0.685,9.6367 0.512,10.5771 0.338,11.498 0.175,14.012 -0.042,15.118 -0.295,18.051 -0.549,19.315 -0.886,22.629 -1.165,23.989 -1.566,27.608 -0.78,11.485 -0.963,10.406 -0.901,7.537 -1.017,6.842 -1.132,6.152 -1.247,5.466 -1.36,4.785 -1.094,3.142 -1.159,2.763 -1.221,2.384 -1.285,2.005 -1.348,1.629 -1.412,1.251 -0.977,0.626 -1.005,0.459 -1.033,0.291 -1.062,0.125 -1.09,-0.042 -1.119,-0.208 -1.148,-0.376 -1.775,-0.877 -1.84,-1.252 -1.906,-1.629 -1.972,-2.007 -2.038,-2.384 -2.106,-2.764 -2.913,-4.277 -3.035,-4.956 -3.16,-5.64 -3.286,-6.328 -3.415,-7.021 -5.096,-11.124 -4.612,-10.656 -4.114,-10.152 -3.045,-8.068 -2.694,-7.708 -2.342,-7.343 -1.987,-6.972 -1.629,-6.597 -1.27,-6.218 -0.755,-4.698 -0.522,-4.449 -0.288,-4.2 -0.053,-3.947 0.183,-3.693 0.422,-3.436 0.661,-3.177 0.654,-2.213 0.789,-2.064 0.926,-1.917 1.064,-1.767 1.201,-1.618 1.339,-1.467 1.479,-1.316 1.618,-1.163 2.281,-1.32 2.203,-1.061 2.115,-0.804 2.026,-0.543 1.935,-0.281 1.844,-0.017 1.753,0.249 1.661,0.517 1.568,0.786 1.475,1.059 1.38,1.331 1.287,1.606 1.191,1.884 1.096,2.161 1,2.441 0.903,2.721 0.994,3.8 0.842,4.243 0.69,4.689 0.536,5.136 0.384,5.586 0.257,7.298 0.036,7.949 -0.205,10.593 -0.419,9.707 -0.54,7.755 -0.702,7.059 -0.864,6.355 -0.87,4.88 -0.989,4.354 -1.109,3.822 -1.016,2.776 -1.1,2.403 -1.185,2.026 -1.009,1.349 -1.064,1.106 -1.119,0.861 -1.174,0.617 -1.231,0.37 -1.287,0.123 -1.345,-0.125 -1.388,-0.359 -1.679,-0.659 -1.596,-0.872 -1.514,-1.087 -1.431,-1.303 -1.348,-1.52 -1.266,-1.737 -1.183,-1.956 -1.309,-2.637 -1.191,-2.954 -1.072,-3.271 -0.953,-3.589 -0.963,-4.588 -0.801,-5.02 -0.642,-5.451 -0.481,-5.88 -0.356,-7.242 -0.14,-7.532 0.108,-6.835 0.302,-5.332 0.499,-4.73 0.585,-3.574 0.734,-3.132 0.883,-2.69 0.851,-1.904 0.956,-1.597 1.062,-1.289 0.926,-0.809 0.995,-0.612 1.064,-0.415 1.132,-0.216 1.202,-0.018 1.272,0.181 1.341,0.38 1.774,0.756 1.884,1.069 1.95,1.357 1.836,1.534 1.703,1.699 1.567,1.866 1.43,2.032 1.292,2.198 1.153,2.364 1.012,2.53 0.87,2.694 0.856,3.448 0.65,3.683 0.441,3.913 0.232,4.142 0.021,4.367 -0.189,4.588 -0.4,4.805 -0.733,5.875 -1.021,6.156 -1.346,6.649 -1.125,4.577 -0.924,2.994 -0.887,2.14 -0.712,1.133 -0.551,0.482 -0.403,0.115 -0.395,-0.096 -0.385,-0.306 -0.5,-0.734 -0.484,-1.106 -0.581,-1.903 -0.663,-3.044 -0.725,-4.591 -0.67,-5.703 -0.699,-7.869 -0.697,-10.559 -0.412,-8.033 0,0"
       style="fill:none;stroke:#ff0000;stroke-width:1.5;stroke-linecap:square;stroke-linejoin:round"
       id="path17185"
       inkscape:connector-curvature="0" />
  </g>
  <g
     id="line2d_2"
     style="stroke-linecap:square;stroke-linejoin:round">
    <path
       clip-path="url(#p7ff5b81e1d)"
       d="m 293.512,231.587 0.019,-0.111 0.572,-2.636 0.834,-2.864 1.088,-2.938 1.661,-3.782 2.336,-5.339 0.788,-2.395 0.482,-2.167 0.287,-2.34 0.102,-2.805 -0.104,-3.966 -0.833,-20.772 0.014,-7.824 0.245,-8.289 0.459,-8.074 0.55,-6.014 0.646,-4.697 0.72,-3.705 0.531,-1.798 0.241,-0.244 0.17,0.13 0.349,0.662 3.052,6.905 1.018,2.945 0.815,3.031 0.693,3.466 0.536,3.873 0.359,4.224 0.179,4.719 -0.031,5.127 -0.249,5.147 -0.457,4.967 -0.616,4.365 -0.731,3.655 -0.799,2.941 -0.87,2.416 -0.998,2.121 -1.37,2.336 -1.539,2.696 -0.744,1.786 -0.712,2.33 -2.911,10.377 -0.968,2.279 -0.95,1.695 -0.949,1.255 -0.921,0.867 -0.883,0.533 -1.396,0.731 -0.076,0.529 0.091,1.447 0.163,3.186 0,0"
       style="fill:none;stroke:#0000ff;stroke-width:1.5;stroke-linecap:square;stroke-linejoin:round"
       id="path17188"
       inkscape:connector-curvature="0" />
  </g>
  <g
     id="line2d_3"
     style="stroke-linecap:square;stroke-linejoin:round">
    <defs
       id="defs17191">
      <path
         d="M 0,2.5 C 0.663008,2.5 1.29895,2.23658 1.76777,1.76777 2.23658,1.29895 2.5,0.663008 2.5,0 2.5,-0.663008 2.23658,-1.29895 1.76777,-1.76777 1.29895,-2.23658 0.663008,-2.5 0,-2.5 c -0.663008,0 -1.29895,0.26342 -1.76777,0.73223 C -2.23658,-1.29895 -2.5,-0.663008 -2.5,0 c 0,0.663008 0.26342,1.29895 0.73223,1.76777 C -1.29895,2.23658 -0.663008,2.5 0,2.5 z"
         id="mfd1e14f688"
         style="stroke:#ff0000;stroke-width:0.5;stroke-linecap:butt;stroke-linejoin:round"
         inkscape:connector-curvature="0" />
    </defs>
    <g
       clip-path="url(#p7ff5b81e1d)"
       id="g17194"
       style="stroke-linecap:square;stroke-linejoin:round">
      <use
         style="fill:#ff0000;stroke:#ff0000;stroke-width:0.5;stroke-linecap:butt;stroke-linejoin:round"
         x="293.51196"
         xlink:href="#mfd1e14f688"
         y="231.58684"
         id="use17196"
         width="576"
         height="432" />
    </g>
  </g>
  <g
     id="line2d_4"
     style="stroke-linecap:square;stroke-linejoin:round">
    <g
       clip-path="url(#p7ff5b81e1d)"
       id="g17199"
       style="stroke-linecap:square;stroke-linejoin:round">
      <use
         style="fill:#ff0000;stroke:#ff0000;stroke-width:0.5;stroke-linecap:butt;stroke-linejoin:round"
         x="254.79019"
         xlink:href="#mfd1e14f688"
         y="258.69855"
         id="use17201"
         width="576"
         height="432" />
    </g>
  </g>
  <g
     id="line2d_5"
     style="stroke-linecap:square;stroke-linejoin:round">
    <g
       clip-path="url(#p7ff5b81e1d)"
       id="g17204"
       style="stroke-linecap:square;stroke-linejoin:round">
      <use
         style="fill:#ff0000;stroke:#ff0000;stroke-width:0.5;stroke-linecap:butt;stroke-linejoin:round"
         x="279.01935"
         xlink:href="#mfd1e14f688"
         y="191.36411"
         id="use17206"
         width="576"
         height="432" />
    </g>
  </g>
  <g
     id="line2d_6"
     style="stroke-linecap:square;stroke-linejoin:round">
    <g
       clip-path="url(#p7ff5b81e1d)"
       id="g17209"
       style="stroke-linecap:square;stroke-linejoin:round">
      <use
         style="fill:#ff0000;stroke:#ff0000;stroke-width:0.5;stroke-linecap:butt;stroke-linejoin:round"
         x="315.38788"
         xlink:href="#mfd1e14f688"
         y="186.07684"
         id="use17211"
         width="576"
         height="432" />
    </g>
  </g>
  <g
     id="line2d_7"
     style="stroke-linecap:square;stroke-linejoin:round">
    <g
       clip-path="url(#p7ff5b81e1d)"
       id="g17214"
       style="stroke-linecap:square;stroke-linejoin:round">
      <use
         style="fill:#ff0000;stroke:#ff0000;stroke-width:0.5;stroke-linecap:butt;stroke-linejoin:round"
         x="320.30341"
         xlink:href="#mfd1e14f688"
         y="220.37543"
         id="use17216"
         width="576"
         height="432" />
    </g>
  </g>
  <g
     id="line2d_8"
     style="stroke-linecap:square;stroke-linejoin:round">
    <g
       clip-path="url(#p7ff5b81e1d)"
       id="g17219"
       style="stroke-linecap:square;stroke-linejoin:round">
      <use
         style="fill:#ff0000;stroke:#ff0000;stroke-width:0.5;stroke-linecap:butt;stroke-linejoin:round"
         x="295.71585"
         xlink:href="#mfd1e14f688"
         y="195.29137"
         id="use17221"
         width="576"
         height="432" />
    </g>
  </g>
  <g
     id="line2d_9"
     style="stroke-linecap:square;stroke-linejoin:round">
    <g
       clip-path="url(#p7ff5b81e1d)"
       id="g17224"
       style="stroke-linecap:square;stroke-linejoin:round">
      <use
         style="fill:#ff0000;stroke:#ff0000;stroke-width:0.5;stroke-linecap:butt;stroke-linejoin:round"
         x="289.58807"
         xlink:href="#mfd1e14f688"
         y="138.44681"
         id="use17226"
         width="576"
         height="432" />
    </g>
  </g>
  <g
     id="line2d_10"
     style="stroke-linecap:square;stroke-linejoin:round">
    <g
       clip-path="url(#p7ff5b81e1d)"
       id="g17229"
       style="stroke-linecap:square;stroke-linejoin:round">
      <use
         style="fill:#ff0000;stroke:#ff0000;stroke-width:0.5;stroke-linecap:butt;stroke-linejoin:round"
         x="290.96194"
         xlink:href="#mfd1e14f688"
         y="120.04527"
         id="use17231"
         width="576"
         height="432" />
    </g>
  </g>
  <g
     id="line2d_11"
     style="stroke-linecap:square;stroke-linejoin:round">
    <g
       clip-path="url(#p7ff5b81e1d)"
       id="g17234"
       style="stroke-linecap:square;stroke-linejoin:round">
      <use
         style="fill:#ff0000;stroke:#ff0000;stroke-width:0.5;stroke-linecap:butt;stroke-linejoin:round"
         x="306.91074"
         xlink:href="#mfd1e14f688"
         y="66.575005"
         id="use17236"
         width="576"
         height="432" />
    </g>
  </g>
  <g
     id="line2d_12"
     style="stroke-linecap:square;stroke-linejoin:round">
    <g
       clip-path="url(#p7ff5b81e1d)"
       id="g17239"
       style="stroke-linecap:square;stroke-linejoin:round">
      <use
         style="fill:#ff0000;stroke:#ff0000;stroke-width:0.5;stroke-linecap:butt;stroke-linejoin:round"
         x="285.35593"
         xlink:href="#mfd1e14f688"
         y="66.576385"
         id="use17241"
         width="576"
         height="432" />
    </g>
  </g>
  <g
     id="line2d_13"
     style="stroke-linecap:square;stroke-linejoin:round">
    <g
       clip-path="url(#p7ff5b81e1d)"
       id="g17244"
       style="stroke-linecap:square;stroke-linejoin:round">
      <use
         style="fill:#ff0000;stroke:#ff0000;stroke-width:0.5;stroke-linecap:butt;stroke-linejoin:round"
         x="297.09872"
         xlink:href="#mfd1e14f688"
         y="66.575005"
         id="use17246"
         width="576"
         height="432" />
    </g>
  </g>
  <g
     id="line2d_14"
     style="stroke-linecap:square;stroke-linejoin:round">
    <g
       clip-path="url(#p7ff5b81e1d)"
       id="g17249"
       style="stroke-linecap:square;stroke-linejoin:round">
      <use
         style="fill:#ff0000;stroke:#ff0000;stroke-width:0.5;stroke-linecap:butt;stroke-linejoin:round"
         x="352.77032"
         xlink:href="#mfd1e14f688"
         y="83.599258"
         id="use17251"
         width="576"
         height="432" />
    </g>
  </g>
  <g
     id="line2d_15"
     style="stroke-linecap:square;stroke-linejoin:round">
    <g
       clip-path="url(#p7ff5b81e1d)"
       id="g17254"
       style="stroke-linecap:square;stroke-linejoin:round">
      <use
         style="fill:#ff0000;stroke:#ff0000;stroke-width:0.5;stroke-linecap:butt;stroke-linejoin:round"
         x="350.13577"
         xlink:href="#mfd1e14f688"
         y="261.76617"
         id="use17256"
         width="576"
         height="432" />
    </g>
  </g>
  <g
     id="line2d_16"
     style="stroke-linecap:square;stroke-linejoin:round">
    <g
       clip-path="url(#p7ff5b81e1d)"
       id="g17259"
       style="stroke-linecap:square;stroke-linejoin:round">
      <use
         style="fill:#ff0000;stroke:#ff0000;stroke-width:0.5;stroke-linecap:butt;stroke-linejoin:round"
         x="299.60562"
         xlink:href="#mfd1e14f688"
         y="285.12485"
         id="use17261"
         width="576"
         height="432" />
    </g>
  </g>
  <g
     id="line2d_17"
     style="stroke-linecap:square;stroke-linejoin:round">
    <g
       clip-path="url(#p7ff5b81e1d)"
       id="g17264"
       style="stroke-linecap:square;stroke-linejoin:round">
      <use
         style="fill:#ff0000;stroke:#ff0000;stroke-width:0.5;stroke-linecap:butt;stroke-linejoin:round"
         x="282.97934"
         xlink:href="#mfd1e14f688"
         y="170.67166"
         id="use17266"
         width="576"
         height="432" />
    </g>
  </g>
  <g
     id="line2d_18"
     style="stroke-linecap:square;stroke-linejoin:round">
    <g
       clip-path="url(#p7ff5b81e1d)"
       id="g17269"
       style="stroke-linecap:square;stroke-linejoin:round">
      <use
         style="fill:#ff0000;stroke:#ff0000;stroke-width:0.5;stroke-linecap:butt;stroke-linejoin:round"
         x="311.86646"
         xlink:href="#mfd1e14f688"
         y="220.45575"
         id="use17271"
         width="576"
         height="432" />
    </g>
  </g>
  <g
     id="line2d_19"
     style="stroke-linecap:square;stroke-linejoin:round">
    <g
       clip-path="url(#p7ff5b81e1d)"
       id="g17274"
       style="stroke-linecap:square;stroke-linejoin:round">
      <use
         style="fill:#ff0000;stroke:#ff0000;stroke-width:0.5;stroke-linecap:butt;stroke-linejoin:round"
         x="293.94427"
         xlink:href="#mfd1e14f688"
         y="286.33154"
         id="use17276"
         width="576"
         height="432" />
    </g>
  </g>
  <g
     id="line2d_20"
     style="stroke-linecap:square;stroke-linejoin:round">
    <g
       clip-path="url(#p7ff5b81e1d)"
       id="g17279"
       style="stroke-linecap:square;stroke-linejoin:round">
      <use
         style="fill:#ff0000;stroke:#ff0000;stroke-width:0.5;stroke-linecap:butt;stroke-linejoin:round"
         x="275.38541"
         xlink:href="#mfd1e14f688"
         y="233.50395"
         id="use17281"
         width="576"
         height="432" />
    </g>
  </g>
  <g
     id="line2d_21"
     style="stroke-linecap:square;stroke-linejoin:round">
    <g
       clip-path="url(#p7ff5b81e1d)"
       id="g17284"
       style="stroke-linecap:square;stroke-linejoin:round">
      <use
         style="fill:#ff0000;stroke:#ff0000;stroke-width:0.5;stroke-linecap:butt;stroke-linejoin:round"
         x="293.67917"
         xlink:href="#mfd1e14f688"
         y="198.57886"
         id="use17286"
         width="576"
         height="432" />
    </g>
  </g>
  <g
     id="line2d_22"
     style="stroke-linecap:square;stroke-linejoin:round">
    <g
       clip-path="url(#p7ff5b81e1d)"
       id="g17289"
       style="stroke-linecap:square;stroke-linejoin:round">
      <use
         style="fill:#ff0000;stroke:#ff0000;stroke-width:0.5;stroke-linecap:butt;stroke-linejoin:round"
         x="305.39618"
         xlink:href="#mfd1e14f688"
         y="258.21591"
         id="use17291"
         width="576"
         height="432" />
    </g>
  </g>
  <g
     id="line2d_23"
     style="stroke-linecap:square;stroke-linejoin:round">
    <g
       clip-path="url(#p7ff5b81e1d)"
       id="g17294"
       style="stroke-linecap:square;stroke-linejoin:round">
      <use
         style="fill:#ff0000;stroke:#ff0000;stroke-width:0.5;stroke-linecap:butt;stroke-linejoin:round"
         x="293.40625"
         xlink:href="#mfd1e14f688"
         y="231.45952"
         id="use17296"
         width="576"
         height="432" />
    </g>
  </g>
  <g
     id="matplotlib.axis_1"
     style="stroke-linecap:square;stroke-linejoin:round">
    <g
       id="xtick_1"
       style="stroke-linecap:square;stroke-linejoin:round">
      <g
         id="line2d_24"
         style="stroke-linecap:square;stroke-linejoin:round">
        <defs
           id="defs17301">
          <path
             d="M 0,0 0,-4"
             id="mcb557df647"
             style="stroke:#000000;stroke-width:0.5;stroke-linecap:butt;stroke-linejoin:round"
             inkscape:connector-curvature="0" />
        </defs>
        <g
           id="g17304"
           style="stroke-linecap:square;stroke-linejoin:round">
          <use
             style="stroke:#000000;stroke-width:0.5;stroke-linecap:butt;stroke-linejoin:round"
             x="518.40002"
             xlink:href="#mcb557df647"
             y="388.79999"
             id="use17306"
             width="576"
             height="432" />
        </g>
      </g>
      <g
         id="line2d_25"
         style="stroke-linecap:square;stroke-linejoin:round">
        <defs
           id="defs17309">
          <path
             d="M 0,0 0,4"
             id="mdad270ee8e"
             style="stroke:#000000;stroke-width:0.5;stroke-linecap:butt;stroke-linejoin:round"
             inkscape:connector-curvature="0" />
        </defs>
        <g
           id="g17312"
           style="stroke-linecap:square;stroke-linejoin:round">
          <use
             style="stroke:#000000;stroke-width:0.5;stroke-linecap:butt;stroke-linejoin:round"
             x="518.40002"
             xlink:href="#mdad270ee8e"
             y="43.200001"
             id="use17314"
             width="576"
             height="432" />
        </g>
      </g>
      <g
         id="text_1"
         style="stroke-linecap:square;stroke-linejoin:round">
        <text
           style="font-size:12px;font-style:normal;stroke-linecap:square;stroke-linejoin:round;font-family:Bitstream Vera Sans"
           transform="translate(503.56781,401.705)"
           id="text17317">-0.20</text>
      </g>
    </g>
    <g
       id="xtick_2"
       style="stroke-linecap:square;stroke-linejoin:round">
      <g
         id="line2d_26"
         style="stroke-linecap:square;stroke-linejoin:round">
        <g
           id="g17321"
           style="stroke-linecap:square;stroke-linejoin:round">
          <use
             style="stroke:#000000;stroke-width:0.5;stroke-linecap:butt;stroke-linejoin:round"
             x="462.60001"
             xlink:href="#mcb557df647"
             y="388.79999"
             id="use17323"
             width="576"
             height="432" />
        </g>
      </g>
      <g
         id="line2d_27"
         style="stroke-linecap:square;stroke-linejoin:round">
        <g
           id="g17326"
           style="stroke-linecap:square;stroke-linejoin:round">
          <use
             style="stroke:#000000;stroke-width:0.5;stroke-linecap:butt;stroke-linejoin:round"
             x="462.60001"
             xlink:href="#mdad270ee8e"
             y="43.200001"
             id="use17328"
             width="576"
             height="432" />
        </g>
      </g>
      <g
         id="text_2"
         style="stroke-linecap:square;stroke-linejoin:round">
        <text
           style="font-size:12px;font-style:normal;stroke-linecap:square;stroke-linejoin:round;font-family:Bitstream Vera Sans"
           transform="translate(447.89344,401.705)"
           id="text17331">-0.15</text>
      </g>
    </g>
    <g
       id="xtick_3"
       style="stroke-linecap:square;stroke-linejoin:round">
      <g
         id="line2d_28"
         style="stroke-linecap:square;stroke-linejoin:round">
        <g
           id="g17335"
           style="stroke-linecap:square;stroke-linejoin:round">
          <use
             style="stroke:#000000;stroke-width:0.5;stroke-linecap:butt;stroke-linejoin:round"
             x="406.79999"
             xlink:href="#mcb557df647"
             y="388.79999"
             id="use17337"
             width="576"
             height="432" />
        </g>
      </g>
      <g
         id="line2d_29"
         style="stroke-linecap:square;stroke-linejoin:round">
        <g
           id="g17340"
           style="stroke-linecap:square;stroke-linejoin:round">
          <use
             style="stroke:#000000;stroke-width:0.5;stroke-linecap:butt;stroke-linejoin:round"
             x="406.79999"
             xlink:href="#mdad270ee8e"
             y="43.200001"
             id="use17342"
             width="576"
             height="432" />
        </g>
      </g>
      <g
         id="text_3"
         style="stroke-linecap:square;stroke-linejoin:round">
        <text
           style="font-size:12px;font-style:normal;stroke-linecap:square;stroke-linejoin:round;font-family:Bitstream Vera Sans"
           transform="translate(391.96781,401.705)"
           id="text17345">-0.10</text>
      </g>
    </g>
    <g
       id="xtick_4"
       style="stroke-linecap:square;stroke-linejoin:round">
      <g
         id="line2d_30"
         style="stroke-linecap:square;stroke-linejoin:round">
        <g
           id="g17349"
           style="stroke-linecap:square;stroke-linejoin:round">
          <use
             style="stroke:#000000;stroke-width:0.5;stroke-linecap:butt;stroke-linejoin:round"
             x="351"
             xlink:href="#mcb557df647"
             y="388.79999"
             id="use17351"
             width="576"
             height="432" />
        </g>
      </g>
      <g
         id="line2d_31"
         style="stroke-linecap:square;stroke-linejoin:round">
        <g
           id="g17354"
           style="stroke-linecap:square;stroke-linejoin:round">
          <use
             style="stroke:#000000;stroke-width:0.5;stroke-linecap:butt;stroke-linejoin:round"
             x="351"
             xlink:href="#mdad270ee8e"
             y="43.200001"
             id="use17356"
             width="576"
             height="432" />
        </g>
      </g>
      <g
         id="text_4"
         style="stroke-linecap:square;stroke-linejoin:round">
        <text
           style="font-size:12px;font-style:normal;stroke-linecap:square;stroke-linejoin:round;font-family:Bitstream Vera Sans"
           transform="translate(336.29344,401.705)"
           id="text17359">-0.05</text>
      </g>
    </g>
    <g
       id="xtick_5"
       style="stroke-linecap:square;stroke-linejoin:round">
      <g
         id="line2d_32"
         style="stroke-linecap:square;stroke-linejoin:round">
        <g
           id="g17363"
           style="stroke-linecap:square;stroke-linejoin:round">
          <use
             style="stroke:#000000;stroke-width:0.5;stroke-linecap:butt;stroke-linejoin:round"
             x="295.20001"
             xlink:href="#mcb557df647"
             y="388.79999"
             id="use17365"
             width="576"
             height="432" />
        </g>
      </g>
      <g
         id="line2d_33"
         style="stroke-linecap:square;stroke-linejoin:round">
        <g
           id="g17368"
           style="stroke-linecap:square;stroke-linejoin:round">
          <use
             style="stroke:#000000;stroke-width:0.5;stroke-linecap:butt;stroke-linejoin:round"
             x="295.20001"
             xlink:href="#mdad270ee8e"
             y="43.200001"
             id="use17370"
             width="576"
             height="432" />
        </g>
      </g>
      <g
         id="text_5"
         style="stroke-linecap:square;stroke-linejoin:round">
        <text
           style="font-size:12px;font-style:normal;stroke-linecap:square;stroke-linejoin:round;font-family:Bitstream Vera Sans"
           transform="translate(282.63469,401.705)"
           id="text17373">0.00</text>
      </g>
    </g>
    <g
       id="xtick_6"
       style="stroke-linecap:square;stroke-linejoin:round">
      <g
         id="line2d_34"
         style="stroke-linecap:square;stroke-linejoin:round">
        <g
           id="g17377"
           style="stroke-linecap:square;stroke-linejoin:round">
          <use
             style="stroke:#000000;stroke-width:0.5;stroke-linecap:butt;stroke-linejoin:round"
             x="239.39999"
             xlink:href="#mcb557df647"
             y="388.79999"
             id="use17379"
             width="576"
             height="432" />
        </g>
      </g>
      <g
         id="line2d_35"
         style="stroke-linecap:square;stroke-linejoin:round">
        <g
           id="g17382"
           style="stroke-linecap:square;stroke-linejoin:round">
          <use
             style="stroke:#000000;stroke-width:0.5;stroke-linecap:butt;stroke-linejoin:round"
             x="239.39999"
             xlink:href="#mdad270ee8e"
             y="43.200001"
             id="use17384"
             width="576"
             height="432" />
        </g>
      </g>
      <g
         id="text_6"
         style="stroke-linecap:square;stroke-linejoin:round">
        <text
           style="font-size:12px;font-style:normal;stroke-linecap:square;stroke-linejoin:round;font-family:Bitstream Vera Sans"
           transform="translate(226.96031,401.705)"
           id="text17387">0.05</text>
      </g>
    </g>
    <g
       id="xtick_7"
       style="stroke-linecap:square;stroke-linejoin:round">
      <g
         id="line2d_36"
         style="stroke-linecap:square;stroke-linejoin:round">
        <g
           id="g17391"
           style="stroke-linecap:square;stroke-linejoin:round">
          <use
             style="stroke:#000000;stroke-width:0.5;stroke-linecap:butt;stroke-linejoin:round"
             x="183.60001"
             xlink:href="#mcb557df647"
             y="388.79999"
             id="use17393"
             width="576"
             height="432" />
        </g>
      </g>
      <g
         id="line2d_37"
         style="stroke-linecap:square;stroke-linejoin:round">
        <g
           id="g17396"
           style="stroke-linecap:square;stroke-linejoin:round">
          <use
             style="stroke:#000000;stroke-width:0.5;stroke-linecap:butt;stroke-linejoin:round"
             x="183.60001"
             xlink:href="#mdad270ee8e"
             y="43.200001"
             id="use17398"
             width="576"
             height="432" />
        </g>
      </g>
      <g
         id="text_7"
         style="stroke-linecap:square;stroke-linejoin:round">
        <text
           style="font-size:12px;font-style:normal;stroke-linecap:square;stroke-linejoin:round;font-family:Bitstream Vera Sans"
           transform="translate(171.03469,401.705)"
           id="text17401">0.10</text>
      </g>
    </g>
    <g
       id="xtick_8"
       style="stroke-linecap:square;stroke-linejoin:round">
      <g
         id="line2d_38"
         style="stroke-linecap:square;stroke-linejoin:round">
        <g
           id="g17405"
           style="stroke-linecap:square;stroke-linejoin:round">
          <use
             style="stroke:#000000;stroke-width:0.5;stroke-linecap:butt;stroke-linejoin:round"
             x="127.8"
             xlink:href="#mcb557df647"
             y="388.79999"
             id="use17407"
             width="576"
             height="432" />
        </g>
      </g>
      <g
         id="line2d_39"
         style="stroke-linecap:square;stroke-linejoin:round">
        <g
           id="g17410"
           style="stroke-linecap:square;stroke-linejoin:round">
          <use
             style="stroke:#000000;stroke-width:0.5;stroke-linecap:butt;stroke-linejoin:round"
             x="127.8"
             xlink:href="#mdad270ee8e"
             y="43.200001"
             id="use17412"
             width="576"
             height="432" />
        </g>
      </g>
      <g
         id="text_8"
         style="stroke-linecap:square;stroke-linejoin:round">
        <text
           style="font-size:12px;font-style:normal;stroke-linecap:square;stroke-linejoin:round;font-family:Bitstream Vera Sans"
           transform="translate(115.36031,401.705)"
           id="text17415">0.15</text>
      </g>
    </g>
    <g
       id="xtick_9"
       style="stroke-linecap:square;stroke-linejoin:round">
      <g
         id="line2d_40"
         style="stroke-linecap:square;stroke-linejoin:round">
        <g
           id="g17419"
           style="stroke-linecap:square;stroke-linejoin:round">
          <use
             style="stroke:#000000;stroke-width:0.5;stroke-linecap:butt;stroke-linejoin:round"
             x="72"
             xlink:href="#mcb557df647"
             y="388.79999"
             id="use17421"
             width="576"
             height="432" />
        </g>
      </g>
      <g
         id="line2d_41"
         style="stroke-linecap:square;stroke-linejoin:round">
        <g
           id="g17424"
           style="stroke-linecap:square;stroke-linejoin:round">
          <use
             style="stroke:#000000;stroke-width:0.5;stroke-linecap:butt;stroke-linejoin:round"
             x="72"
             xlink:href="#mdad270ee8e"
             y="43.200001"
             id="use17426"
             width="576"
             height="432" />
        </g>
      </g>
      <g
         id="text_9"
         style="stroke-linecap:square;stroke-linejoin:round">
        <text
           style="font-size:12px;font-style:normal;stroke-linecap:square;stroke-linejoin:round;font-family:Bitstream Vera Sans"
           transform="translate(59.434688,401.705)"
           id="text17429">0.20</text>
      </g>
    </g>
    <g
       id="text_10"
       style="stroke-linecap:square;stroke-linejoin:round">
      <text
         style="font-size:12px;font-style:normal;stroke-linecap:square;stroke-linejoin:round;font-family:Bitstream Vera Sans"
         transform="translate(292.00687,413.435)"
         id="text17432">$y$</text>
    </g>
  </g>
  <g
     id="line2d_42"
     style="stroke-linecap:square;stroke-linejoin:round">
    <path
       clip-path="url(#p7ff5b81e1d)"
       d="m 72,388.8 446.4,0"
       style="fill:none;stroke:#d3d3d3;stroke-width:0.5;stroke-linecap:square;stroke-linejoin:round"
       id="path17437"
       inkscape:connector-curvature="0" />
  </g>
  <g
     id="line2d_43"
     style="stroke-linecap:square;stroke-linejoin:round">
    <defs
       id="defs17440">
      <path
         d="M 0,0 4,0"
         id="mc8fcea1516"
         style="stroke:#000000;stroke-width:0.5;stroke-linecap:butt;stroke-linejoin:round"
         inkscape:connector-curvature="0" />
    </defs>
    <g
       id="g17443"
       style="stroke-linecap:square;stroke-linejoin:round">
      <use
         style="stroke:#000000;stroke-width:0.5;stroke-linecap:butt;stroke-linejoin:round"
         x="72"
         xlink:href="#mc8fcea1516"
         y="388.79999"
         id="use17445"
         width="576"
         height="432" />
    </g>
  </g>
  <g
     id="line2d_44"
     style="stroke-linecap:square;stroke-linejoin:round">
    <defs
       id="defs17448">
      <path
         d="M 0,0 -4,0"
         id="m0d5b0a6425"
         style="stroke:#000000;stroke-width:0.5;stroke-linecap:butt;stroke-linejoin:round"
         inkscape:connector-curvature="0" />
    </defs>
    <g
       id="g17451"
       style="stroke-linecap:square;stroke-linejoin:round">
      <use
         style="stroke:#000000;stroke-width:0.5;stroke-linecap:butt;stroke-linejoin:round"
         x="518.40002"
         xlink:href="#m0d5b0a6425"
         y="388.79999"
         id="use17453"
         width="576"
         height="432" />
    </g>
  </g>
  <g
     id="text_11"
     style="stroke-linecap:square;stroke-linejoin:round"
     transform="translate(-9.6,0)">
    <text
       style="font-size:12px;font-style:normal;stroke-linecap:square;stroke-linejoin:round;font-family:Bitstream Vera Sans"
       transform="translate(38.335625,393.16656)"
       id="text17456">-0.10</text>
  </g>
  <g
     id="line2d_45"
     style="stroke-linecap:square;stroke-linejoin:round">
    <path
       clip-path="url(#p7ff5b81e1d)"
       d="m 72,319.68 446.4,0"
       style="fill:none;stroke:#d3d3d3;stroke-width:0.5;stroke-linecap:square;stroke-linejoin:round"
       id="path17460"
       inkscape:connector-curvature="0" />
  </g>
  <g
     id="line2d_46"
     style="stroke-linecap:square;stroke-linejoin:round">
    <g
       id="g17463"
       style="stroke-linecap:square;stroke-linejoin:round">
      <use
         style="stroke:#000000;stroke-width:0.5;stroke-linecap:butt;stroke-linejoin:round"
         x="72"
         xlink:href="#mc8fcea1516"
         y="319.67999"
         id="use17465"
         width="576"
         height="432" />
    </g>
  </g>
  <g
     id="line2d_47"
     style="stroke-linecap:square;stroke-linejoin:round">
    <g
       id="g17468"
       style="stroke-linecap:square;stroke-linejoin:round">
      <use
         style="stroke:#000000;stroke-width:0.5;stroke-linecap:butt;stroke-linejoin:round"
         x="518.40002"
         xlink:href="#m0d5b0a6425"
         y="319.67999"
         id="use17470"
         width="576"
         height="432" />
    </g>
  </g>
  <g
     id="text_12"
     style="stroke-linecap:square;stroke-linejoin:round"
     transform="translate(-9.6,0)">
    <text
       style="font-size:12px;font-style:normal;stroke-linecap:square;stroke-linejoin:round;font-family:Bitstream Vera Sans"
       transform="translate(38.586875,324.04656)"
       id="text17473">-0.05</text>
  </g>
  <g
     id="line2d_48"
     style="stroke-linecap:square;stroke-linejoin:round">
    <path
       clip-path="url(#p7ff5b81e1d)"
       d="m 72,250.56 446.4,0"
       style="fill:none;stroke:#d3d3d3;stroke-width:0.5;stroke-linecap:square;stroke-linejoin:round"
       id="path17477"
       inkscape:connector-curvature="0" />
  </g>
  <g
     id="line2d_49"
     style="stroke-linecap:square;stroke-linejoin:round">
    <g
       id="g17480"
       style="stroke-linecap:square;stroke-linejoin:round">
      <use
         style="stroke:#000000;stroke-width:0.5;stroke-linecap:butt;stroke-linejoin:round"
         x="72"
         xlink:href="#mc8fcea1516"
         y="250.56"
         id="use17482"
         width="576"
         height="432" />
    </g>
  </g>
  <g
     id="line2d_50"
     style="stroke-linecap:square;stroke-linejoin:round">
    <g
       id="g17485"
       style="stroke-linecap:square;stroke-linejoin:round">
      <use
         style="stroke:#000000;stroke-width:0.5;stroke-linecap:butt;stroke-linejoin:round"
         x="518.40002"
         xlink:href="#m0d5b0a6425"
         y="250.56"
         id="use17487"
         width="576"
         height="432" />
    </g>
  </g>
  <g
     id="text_13"
     style="stroke-linecap:square;stroke-linejoin:round"
     transform="translate(-9.6,0)">
    <text
       style="font-size:12px;font-style:normal;stroke-linecap:square;stroke-linejoin:round;font-family:Bitstream Vera Sans"
       transform="translate(42.869375,254.92656)"
       id="text17490">0.00</text>
  </g>
  <g
     id="line2d_51"
     style="stroke-linecap:square;stroke-linejoin:round">
    <path
       clip-path="url(#p7ff5b81e1d)"
       d="m 72,181.44 446.4,0"
       style="fill:none;stroke:#d3d3d3;stroke-width:0.5;stroke-linecap:square;stroke-linejoin:round"
       id="path17494"
       inkscape:connector-curvature="0" />
  </g>
  <g
     id="line2d_52"
     style="stroke-linecap:square;stroke-linejoin:round">
    <g
       id="g17497"
       style="stroke-linecap:square;stroke-linejoin:round">
      <use
         style="stroke:#000000;stroke-width:0.5;stroke-linecap:butt;stroke-linejoin:round"
         x="72"
         xlink:href="#mc8fcea1516"
         y="181.44"
         id="use17499"
         width="576"
         height="432" />
    </g>
  </g>
  <g
     id="line2d_53"
     style="stroke-linecap:square;stroke-linejoin:round">
    <g
       id="g17502"
       style="stroke-linecap:square;stroke-linejoin:round">
      <use
         style="stroke:#000000;stroke-width:0.5;stroke-linecap:butt;stroke-linejoin:round"
         x="518.40002"
         xlink:href="#m0d5b0a6425"
         y="181.44"
         id="use17504"
         width="576"
         height="432" />
    </g>
  </g>
  <g
     id="text_14"
     style="stroke-linecap:square;stroke-linejoin:round"
     transform="translate(-9.6,0)">
    <text
       style="font-size:12px;font-style:normal;stroke-linecap:square;stroke-linejoin:round;font-family:Bitstream Vera Sans"
       transform="translate(43.120625,185.80656)"
       id="text17507">0.05</text>
  </g>
  <g
     id="line2d_54"
     style="stroke-linecap:square;stroke-linejoin:round">
    <path
       clip-path="url(#p7ff5b81e1d)"
       d="m 72,112.32 446.4,0"
       style="fill:none;stroke:#d3d3d3;stroke-width:0.5;stroke-linecap:square;stroke-linejoin:round"
       id="path17511"
       inkscape:connector-curvature="0" />
  </g>
  <g
     id="line2d_55"
     style="stroke-linecap:square;stroke-linejoin:round">
    <g
       id="g17514"
       style="stroke-linecap:square;stroke-linejoin:round">
      <use
         style="stroke:#000000;stroke-width:0.5;stroke-linecap:butt;stroke-linejoin:round"
         x="72"
         xlink:href="#mc8fcea1516"
         y="112.32"
         id="use17516"
         width="576"
         height="432" />
    </g>
  </g>
  <g
     id="line2d_56"
     style="stroke-linecap:square;stroke-linejoin:round">
    <g
       id="g17519"
       style="stroke-linecap:square;stroke-linejoin:round">
      <use
         style="stroke:#000000;stroke-width:0.5;stroke-linecap:butt;stroke-linejoin:round"
         x="518.40002"
         xlink:href="#m0d5b0a6425"
         y="112.32"
         id="use17521"
         width="576"
         height="432" />
    </g>
  </g>
  <g
     id="text_15"
     style="stroke-linecap:square;stroke-linejoin:round"
     transform="translate(-9.6,0)">
    <text
       style="font-size:12px;font-style:normal;stroke-linecap:square;stroke-linejoin:round;font-family:Bitstream Vera Sans"
       transform="translate(42.869375,116.68656)"
       id="text17524">0.10</text>
  </g>
  <g
     id="line2d_57"
     style="stroke-linecap:square;stroke-linejoin:round">
    <path
       clip-path="url(#p7ff5b81e1d)"
       d="m 72,43.2 446.4,0"
       style="fill:none;stroke:#d3d3d3;stroke-width:0.5;stroke-linecap:square;stroke-linejoin:round"
       id="path17528"
       inkscape:connector-curvature="0" />
  </g>
  <g
     id="line2d_58"
     style="stroke-linecap:square;stroke-linejoin:round">
    <g
       id="g17531"
       style="stroke-linecap:square;stroke-linejoin:round">
      <use
         style="stroke:#000000;stroke-width:0.5;stroke-linecap:butt;stroke-linejoin:round"
         x="72"
         xlink:href="#mc8fcea1516"
         y="43.200001"
         id="use17533"
         width="576"
         height="432" />
    </g>
  </g>
  <g
     id="line2d_59"
     style="stroke-linecap:square;stroke-linejoin:round">
    <g
       id="g17536"
       style="stroke-linecap:square;stroke-linejoin:round">
      <use
         style="stroke:#000000;stroke-width:0.5;stroke-linecap:butt;stroke-linejoin:round"
         x="518.40002"
         xlink:href="#m0d5b0a6425"
         y="43.200001"
         id="use17538"
         width="576"
         height="432" />
    </g>
  </g>
  <g
     id="text_16"
     style="stroke-linecap:square;stroke-linejoin:round"
     transform="translate(-9.6,0)">
    <text
       style="font-size:12px;font-style:normal;stroke-linecap:square;stroke-linejoin:round;font-family:Bitstream Vera Sans"
       transform="translate(43.120625,47.566563)"
       id="text17541">0.15</text>
  </g>
  <g
     style="stroke-linecap:square;stroke-linejoin:round"
     id="text_17">
    <text
       id="text17544"
       transform="matrix(0,-1,1,0,33.335625,219.18187)"
       style="font-size:12px;font-style:normal;stroke-linecap:square;stroke-linejoin:round;font-family:Bitstream Vera Sans">$x$</text>
  </g>
  <g
     id="patch_6"
     style="stroke-linecap:square;stroke-linejoin:round">
    <path
       d="m 72,43.2 446.4,0"
       style="fill:none;stroke:#000000;stroke-linecap:square;stroke-linejoin:round"
       id="path17547"
       inkscape:connector-curvature="0" />
  </g>
  <g
     id="patch_7"
     style="stroke-linecap:square;stroke-linejoin:round">
    <path
       d="m 518.4,388.8 0,-345.6"
       style="fill:none;stroke:#000000;stroke-linecap:square;stroke-linejoin:round"
       id="path17550"
       inkscape:connector-curvature="0" />
  </g>
  <g
     id="patch_8"
     style="stroke-linecap:square;stroke-linejoin:round">
    <path
       d="m 72,388.8 446.4,0"
       style="fill:none;stroke:#000000;stroke-linecap:square;stroke-linejoin:round"
       id="path17553"
       inkscape:connector-curvature="0" />
  </g>
  <g
     id="patch_9"
     style="stroke-linecap:square;stroke-linejoin:round">
    <path
       d="M 72,388.8 72,43.2"
       style="fill:none;stroke:#000000;stroke-linecap:square;stroke-linejoin:round"
       id="path17556"
       inkscape:connector-curvature="0" />
  </g>
  <g
     style="stroke-linecap:square;stroke-linejoin:round"
     id="patch_10">
    <path
       inkscape:connector-curvature="0"
       id="path17560"
       style="fill:#ffffff;stroke:#000000;stroke-linecap:square;stroke-linejoin:round"
       d="m 429.527,94.203 81.673,0 0,-43.803 -81.673,0 0,43.803 z" />
  </g>
  <g
     style="stroke-linecap:square;stroke-linejoin:round"
     id="line2d_60">
    <path
       inkscape:connector-curvature="0"
       id="path17563"
       style="fill:none;stroke:#ff0000;stroke-width:1.5;stroke-linecap:square;stroke-linejoin:round"
       d="m 439.607,62.0617 20.16,0" />
  </g>
  <g
     style="stroke-linecap:square;stroke-linejoin:round"
     id="line2d_61" />
  <g
     style="stroke-linecap:square;stroke-linejoin:round"
     id="text_18"
     transform="translate(-6.4,0)">
    <text
       id="text17567"
       transform="translate(475.60725,67.10175)"
       style="font-size:14.39999962px;font-style:normal;stroke-linecap:square;stroke-linejoin:round;font-family:Bitstream Vera Sans">ZMP</text>
  </g>
  <g
     style="stroke-linecap:square;stroke-linejoin:round"
     id="line2d_62">
    <path
       inkscape:connector-curvature="0"
       id="path17570"
       style="fill:none;stroke:#0000ff;stroke-width:1.5;stroke-linecap:square;stroke-linejoin:round"
       d="m 439.607,83.1983 20.16,0" />
  </g>
  <g
     style="stroke-linecap:square;stroke-linejoin:round"
     id="line2d_63" />
  <g
     style="stroke-linecap:square;stroke-linejoin:round"
     id="text_19"
     transform="translate(-6.4,0)">
    <text
       id="text17574"
       transform="translate(475.60725,88.239875)"
       style="font-size:14.39999962px;font-style:normal;stroke-linecap:square;stroke-linejoin:round;font-family:Bitstream Vera Sans">CoM</text>
  </g>
  <defs
     id="defs17576">
    <clipPath
       id="p7ff5b81e1d">
      <rect
         height="345.6"
         width="446.4"
         x="72.0"
         y="43.2"
         id="rect17579" />
    </clipPath>
  </defs>
</svg>
