<?xml version="1.0" encoding="UTF-8" standalone="no"?>
<!-- Created with matplotlib (http://matplotlib.org/) -->

<svg
   xmlns:dc="http://purl.org/dc/elements/1.1/"
   xmlns:cc="http://creativecommons.org/ns#"
   xmlns:rdf="http://www.w3.org/1999/02/22-rdf-syntax-ns#"
   xmlns:svg="http://www.w3.org/2000/svg"
   xmlns="http://www.w3.org/2000/svg"
   xmlns:xlink="http://www.w3.org/1999/xlink"
   xmlns:sodipodi="http://sodipodi.sourceforge.net/DTD/sodipodi-0.dtd"
   xmlns:inkscape="http://www.inkscape.org/namespaces/inkscape"
   height="432pt"
   version="1.1"
   viewBox="0 0 576 432"
   width="576pt"
   id="svg9508"
   inkscape:version="0.48.2 r9819"
   sodipodi:docname="zmp-2s-final-p.svg">
  <metadata
     id="metadata9823">
    <rdf:RDF>
      <cc:Work
         rdf:about="">
        <dc:format>image/svg+xml</dc:format>
        <dc:type
           rdf:resource="http://purl.org/dc/dcmitype/StillImage" />
        <dc:title></dc:title>
      </cc:Work>
    </rdf:RDF>
  </metadata>
  <sodipodi:namedview
     pagecolor="#ffffff"
     bordercolor="#666666"
     borderopacity="1"
     objecttolerance="10"
     gridtolerance="10"
     guidetolerance="10"
     inkscape:pageopacity="0"
     inkscape:pageshadow="2"
     inkscape:window-width="1440"
     inkscape:window-height="825"
     id="namedview9821"
     showgrid="false"
     inkscape:zoom="0.87407407"
     inkscape:cx="415.70937"
     inkscape:cy="254.69481"
     inkscape:window-x="0"
     inkscape:window-y="148"
     inkscape:window-maximized="1"
     inkscape:current-layer="svg9508" />
  <defs
     id="defs9510">
    <style
       type="text/css"
       id="style9512">
*{stroke-linecap:square;stroke-linejoin:round;}
  </style>
  </defs>
  <g
     style="stroke-linecap:square;stroke-linejoin:round"
     id="axes_1">
    <g
       style="stroke-linecap:square;stroke-linejoin:round"
       id="patch_2">
      <path
         inkscape:connector-curvature="0"
         id="path9520"
         style="fill:#ffffff;stroke-linecap:square;stroke-linejoin:round"
         d="m 72,388.8 446.4,0 0,-345.6 -446.4,0 z" />
    </g>
    <g
       style="stroke-linecap:square;stroke-linejoin:round"
       id="line2d_1">
      <path
         inkscape:connector-curvature="0"
         id="path9523"
         style="fill:none;stroke:#0000ff;stroke-width:1.5;stroke-linecap:square;stroke-linejoin:round"
         d="m 72,216 0.2232,0.121 0.4464,-0.121 5.8032,-0.117 10.2672,-0.357 3.1248,0.189 3.5712,0.459 10.937,1.713 2.232,0.001 2.232,-0.233 2.232,-0.478 2.455,-0.771 6.026,-2.044 2.232,-0.445 2.009,-0.172 2.009,0.044 2.232,0.273 2.902,0.606 5.803,1.3 2.232,0.222 2.009,-0.04 2.008,-0.266 2.456,-0.56 5.356,-1.307 1.786,-0.162 1.562,0.079 1.563,0.325 1.339,0.492 1.562,0.821 1.786,1.23 2.232,1.831 4.241,3.556 1.785,1.166 1.34,0.624 1.116,0.315 1.116,0.103 1.116,-0.13 1.116,-0.374 1.116,-0.627 1.116,-0.878 1.339,-1.371 1.562,-1.99 1.786,-2.67 5.357,-8.307 1.562,-1.865 1.339,-1.222 1.116,-0.711 0.893,-0.35 0.893,-0.148 0.893,0.059 0.892,0.265 0.893,0.468 1.116,0.856 1.116,1.135 1.339,1.676 1.786,2.623 4.018,6.069 1.116,1.272 1.116,0.932 0.892,0.469 0.893,0.216 0.893,-0.034 0.893,-0.273 0.893,-0.489 1.116,-0.869 1.562,-1.571 4.241,-4.534 1.116,-0.793 0.893,-0.394 0.892,-0.139 0.67,0.083 0.67,0.256 0.892,0.625 0.893,0.961 0.893,1.298 1.116,2.084 1.339,3.123 1.563,4.314 2.678,8.282 2.232,6.65 1.339,3.379 1.116,2.255 0.893,1.346 0.67,0.704 0.669,0.417 0.67,0.112 0.669,-0.21 0.67,-0.543 0.67,-0.886 0.669,-1.234 0.893,-2.187 0.893,-2.793 1.116,-4.298 1.339,-6.213 1.562,-8.37 4.911,-27.292 1.339,-5.96 1.116,-4.103 1.116,-3.216 0.893,-1.889 0.669,-1.004 0.67,-0.644 0.67,-0.283 0.446,0.013 0.446,0.171 0.67,0.551 0.67,0.897 0.669,1.232 0.893,2.143 1.116,3.425 1.116,4.174 1.339,5.847 1.786,8.877 6.473,33.556 1.339,5.474 1.339,4.517 1.116,2.939 0.893,1.767 0.893,1.225 0.669,0.554 0.67,0.238 0.669,-0.08 0.67,-0.397 0.67,-0.711 0.669,-1.019 0.893,-1.824 0.893,-2.335 1.116,-3.587 1.339,-5.183 1.562,-7.051 2.232,-11.336 4.018,-20.719 1.562,-6.982 1.34,-5.092 1.116,-3.479 0.892,-2.223 0.893,-1.686 0.67,-0.895 0.669,-0.57 0.67,-0.236 0.446,0.029 0.67,0.326 0.67,0.663 0.669,0.997 0.893,1.838 0.893,2.398 1.116,3.735 1.339,5.449 1.562,7.438 2.456,13.06 2.455,12.853 1.562,7.074 1.339,5.028 1.116,3.346 0.893,2.088 0.893,1.553 0.67,0.813 0.669,0.514 0.67,0.221 0.669,-0.065 0.67,-0.339 0.67,-0.602 0.892,-1.188 0.893,-1.595 1.116,-2.502 1.339,-3.634 1.563,-4.904 2.678,-9.302 2.679,-9.139 1.562,-4.659 1.339,-3.371 1.116,-2.305 1.116,-1.821 0.893,-1.102 0.893,-0.79 0.893,-0.489 0.892,-0.198 0.893,0.073 0.893,0.327 0.893,0.559 1.116,0.989 1.339,1.554 1.562,2.219 2.009,3.315 2.679,4.903 4.91,9.541 2.678,4.991 1.786,2.892 1.339,1.785 1.116,1.158 0.893,0.67 0.893,0.413 0.893,0.131 0.669,-0.1 0.67,-0.281 0.893,-0.664 0.892,-1.01 0.893,-1.361 1.116,-2.198 1.116,-2.739 1.339,-3.954 1.563,-5.408 2.009,-7.854 4.24,-16.785 1.563,-5.164 1.116,-3.033 0.893,-1.943 0.892,-1.454 0.67,-0.739 0.67,-0.418 0.669,-0.083 0.447,0.138 0.669,0.504 0.67,0.867 0.669,1.232 0.893,2.21 0.893,2.844 1.116,4.402 1.339,6.393 1.563,8.66 4.91,28.267 1.339,5.921 1.116,3.925 0.893,2.422 0.893,1.764 0.669,0.889 0.67,0.523 0.67,0.164 0.446,-0.084 0.67,-0.402 0.669,-0.718 0.893,-1.413 0.893,-1.879 1.116,-2.908 1.339,-4.13 2.009,-6.999 3.571,-12.562 1.562,-4.671 1.34,-3.447 1.116,-2.377 1.116,-1.904 1.116,-1.423 0.892,-0.8 0.893,-0.512 0.893,-0.24 0.893,0.01 0.893,0.236 1.116,0.57 1.116,0.822 1.562,1.456 2.678,2.9 2.902,3.047 2.232,2.011 4.687,4.057 2.679,2.758 2.901,2.927 1.563,1.244 1.116,0.63 1.116,0.351 0.892,0.049 0.893,-0.18 0.893,-0.424 0.893,-0.677 0.893,-0.931 1.116,-1.512 1.339,-2.278 1.562,-3.159 4.464,-9.415 1.339,-2.205 1.116,-1.469 1.116,-1.105 0.893,-0.612 0.893,-0.37 0.893,-0.134 0.893,0.093 0.892,0.307 1.116,0.661 1.116,0.936 1.34,1.425 1.785,2.289 2.902,4.188 2.678,3.728 1.563,1.816 1.339,1.236 1.116,0.77 1.116,0.523 1.116,0.277 1.116,0.046 1.116,-0.162 1.339,-0.422 1.786,-0.834 5.133,-2.606 1.563,-0.479 1.562,-0.261 2.009,-0.093 0.223,-0.002 0,0"
         clip-path="url(#p7ff5b81e1d)" />
    </g>
    <g
       style="stroke-linecap:square;stroke-linejoin:round"
       id="line2d_2">
      <path
         inkscape:connector-curvature="0"
         id="path9526"
         style="fill:none;stroke:#008000;stroke-width:1.5;stroke-linecap:square;stroke-linejoin:round"
         d="m 72,216 1.5624,0 20.088,-0.121 0.6696,-0.05 0.2232,0.154 8.9278,-0.607 6.027,-0.178 3.124,0.106 2.232,0.279 1.786,0.42 1.786,0.657 1.785,0.926 2.009,1.326 6.25,4.389 1.339,0.537 1.116,0.213 1.116,-0.047 0.893,-0.25 0.892,-0.459 0.893,-0.685 0.893,-0.921 1.116,-1.5 1.116,-1.895 1.339,-2.789 1.339,-3.334 1.563,-4.472 2.455,-7.8 2.678,-8.341 1.34,-3.54 1.116,-2.383 0.892,-1.434 0.67,-0.754 0.67,-0.447 0.669,-0.117 0.447,0.117 0.669,0.484 0.67,0.866 0.669,1.264 0.893,2.316 0.893,3.044 1.116,4.809 1.116,5.865 1.339,8.26 1.786,12.535 4.687,33.788 1.339,8.01 1.116,5.607 1.116,4.439 0.893,2.606 0.67,1.356 0.669,0.818 0.447,0.236 0.446,-0.018 0.446,-0.276 0.447,-0.535 0.669,-1.296 0.67,-1.888 0.893,-3.435 0.893,-4.46 1.116,-6.952 1.116,-8.363 1.339,-11.639 1.785,-17.529 4.464,-44.974 1.563,-13.088 1.339,-9.224 1.116,-6.044 0.893,-3.664 0.669,-2.033 0.67,-1.402 0.446,-0.58 0.447,-0.295 0.446,-0.007 0.447,0.278 0.446,0.563 0.67,1.376 0.669,2 0.893,3.613 0.893,4.649 1.116,7.173 1.339,10.4 1.562,14.193 2.009,20.54 4.911,51.244 1.562,13.653 1.339,9.807 1.116,6.584 0.893,4.109 0.893,3.006 0.669,1.497 0.447,0.627 0.446,0.323 0.447,0.016 0.446,-0.293 0.446,-0.604 0.67,-1.492 0.67,-2.195 0.669,-2.891 0.893,-4.921 0.893,-6.102 1.116,-9.2 1.339,-13.143 1.562,-17.779 2.232,-28.515 4.018,-52.072 1.562,-17.44 1.34,-12.587 1.116,-8.433 0.892,-5.212 0.67,-2.939 0.67,-2.061 0.446,-0.869 0.446,-0.455 0.447,-0.032 0.446,0.395 0.447,0.827 0.446,1.262 0.67,2.713 0.669,3.692 0.893,6.427 0.893,8.098 1.116,12.346 1.339,17.762 1.562,24.068 2.456,42.162 2.901,49.102 1.563,22.882 1.339,16.425 1.116,10.983 0.893,6.82 0.892,4.958 0.67,2.449 0.446,1.015 0.447,0.516 0.223,0.07 0.223,-0.055 0.447,-0.488 0.446,-0.987 0.446,-1.485 0.67,-3.147 0.67,-4.23 0.892,-7.261 0.893,-9.013 1.116,-13.514 1.339,-19.053 1.786,-28.975 4.687,-78.753 1.339,-18.374 1.116,-12.795 1.116,-10.239 0.893,-6.253 0.67,-3.537 0.669,-2.55 0.67,-1.574 0.446,-0.518 0.447,-0.102 0.446,0.303 0.447,0.698 0.446,1.078 0.67,2.299 0.669,3.068 0.893,5.186 1.116,8.02 1.339,11.445 1.786,17.344 4.464,44.512 1.562,12.879 1.116,7.618 1.116,6.122 0.893,3.777 0.893,2.781 0.669,1.448 0.67,0.922 0.446,0.335 0.447,0.122 0.446,-0.081 0.447,-0.273 0.669,-0.744 0.67,-1.108 0.893,-1.966 1.116,-3.084 1.562,-5.085 3.794,-12.683 1.34,-3.578 1.116,-2.356 0.892,-1.431 0.893,-1.019 0.893,-0.624 0.893,-0.261 0.893,0.025 0.892,0.271 1.116,0.608 1.34,1.005 2.901,2.572 1.786,1.439 1.339,0.84 1.116,0.484 1.116,0.252 1.116,-0.003 1.116,-0.273 1.116,-0.549 1.116,-0.822 1.116,-1.08 1.339,-1.605 1.563,-2.219 2.455,-3.929 3.125,-4.915 1.785,-2.4 1.339,-1.477 1.34,-1.132 1.116,-0.64 0.892,-0.294 0.893,-0.086 0.893,0.131 0.893,0.359 0.893,0.593 0.892,0.832 1.116,1.377 1.116,1.75 1.34,2.576 1.339,3.061 1.562,4.103 2.232,6.575 4.464,13.353 1.563,3.849 1.116,2.226 0.892,1.39 0.893,0.991 0.67,0.455 0.669,0.188 0.67,-0.093 0.67,-0.386 0.669,-0.691 0.67,-1.003 0.893,-1.83 0.892,-2.393 1.116,-3.767 1.116,-4.576 1.34,-6.431 1.785,-9.766 4.464,-24.957 1.563,-7.186 1.116,-4.241 1.116,-3.364 0.892,-1.998 0.67,-1.069 0.67,-0.687 0.669,-0.297 0.447,0.023 0.446,0.2 0.67,0.633 0.669,1.032 0.67,1.425 0.893,2.5 0.892,3.16 1.116,4.819 1.34,6.925 1.562,9.377 2.232,14.95 3.348,22.52 1.562,9.181 1.34,6.694 1.116,4.57 0.892,2.915 0.893,2.206 0.67,1.168 0.669,0.74 0.447,0.25 0.446,0.054 0.447,-0.142 0.446,-0.338 0.67,-0.875 0.669,-1.31 0.893,-2.409 0.893,-3.137 1.116,-4.878 1.339,-7.111 1.562,-9.712 2.232,-15.536 3.125,-21.722 1.563,-9.327 1.339,-6.678 1.116,-4.479 0.893,-2.81 0.892,-2.096 0.67,-1.095 0.67,-0.683 0.446,-0.228 0.446,-0.048 0.447,0.13 0.446,0.305 0.67,0.778 0.669,1.15 0.893,2.082 0.893,2.663 1.116,4.061 1.339,5.773 1.786,8.802 4.687,23.91 1.339,5.544 1.116,3.791 1.116,2.954 0.893,1.741 0.893,1.189 0.669,0.542 0.67,0.254 0.67,-0.018 0.669,-0.272 0.67,-0.503 0.893,-0.99 1.116,-1.668 1.339,-2.465 2.455,-5.141 2.232,-4.482 1.339,-2.268 1.339,-1.818 1.116,-1.137 1.116,-0.813 1.116,-0.499 1.116,-0.242 1.116,-0.032 1.34,0.182 1.785,0.497 6.473,2.094 1.562,0.179 1.563,-0.037 1.562,-0.26 1.786,-0.546 2.232,-0.947 3.571,-1.527 1.786,-0.499 1.562,-0.224 1.562,-0.023 1.786,0.192 2.455,0.525 4.911,1.129 2.232,0.246 2.678,0.049 0,0"
         clip-path="url(#p7ff5b81e1d)" />
    </g>
    <g
       style="stroke-linecap:square;stroke-linejoin:round"
       id="line2d_3">
      <path
         inkscape:connector-curvature="0"
         id="path9529"
         style="fill:none;stroke:#ff0000;stroke-width:1.5;stroke-linecap:square;stroke-linejoin:round"
         d="m 72,216 2.0088,-0.102 1.3392,-0.327 1.116,-0.502 1.116,-0.723 1.3392,-1.132 1.7856,-1.833 3.1248,-3.265 1.3392,-1.03 0.8928,-0.45 0.8928,-0.212 0.8928,0.061 0.6696,0.241 0.8928,0.599 0.8928,0.923 0.8928,1.247 1.116,1.987 1.3392,2.92 2.232,5.593 2.6784,6.614 1.5622,3.26 1.339,2.267 1.116,1.458 0.893,0.861 0.893,0.579 0.893,0.289 0.893,-0.006 0.892,-0.302 0.893,-0.597 0.893,-0.885 0.893,-1.167 1.116,-1.837 1.339,-2.716 1.562,-3.771 2.009,-5.516 3.348,-9.286 1.563,-3.635 1.339,-2.532 1.116,-1.644 0.893,-0.995 0.892,-0.711 0.893,-0.43 0.893,-0.159 0.893,0.096 0.893,0.335 0.892,0.555 1.116,0.971 1.34,1.52 1.562,2.186 1.562,2.57 1.786,3.393 1.562,3.442 1.34,3.432 1.339,4.018 1.562,5.469 2.009,8 3.571,14.409 1.339,4.375 0.893,2.299 0.893,1.674 0.67,0.784 0.446,0.276 0.446,0.065 0.447,-0.155 0.446,-0.385 0.447,-0.621 0.669,-1.389 0.67,-1.951 0.893,-3.488 0.892,-4.493 1.116,-6.97 1.34,-10.136 1.562,-13.678 4.464,-40.374 1.339,-9.937 1.116,-6.898 1.116,-5.451 0.893,-3.227 0.67,-1.728 0.669,-1.119 0.447,-0.404 0.446,-0.128 0.446,0.146 0.447,0.421 0.446,0.693 0.67,1.543 0.669,2.133 0.893,3.729 0.893,4.686 1.116,7.09 1.339,10.08 1.786,15.487 6.026,54.619 1.339,9.383 1.116,6.442 1.116,5.066 0.893,3.011 0.67,1.637 0.669,1.101 0.447,0.438 0.446,0.202 0.447,-0.029 0.446,-0.26 0.446,-0.484 0.67,-1.136 0.67,-1.611 0.892,-2.846 0.893,-3.586 1.116,-5.412 1.339,-7.653 1.786,-11.679 3.125,-22.36 2.678,-18.466 1.786,-10.706 1.339,-6.783 1.116,-4.681 1.116,-3.7 0.893,-2.207 0.669,-1.197 0.67,-0.797 0.67,-0.389 0.446,-0.033 0.446,0.15 0.447,0.331 0.669,0.834 0.67,1.233 0.893,2.248 0.893,2.909 1.116,4.501 1.339,6.527 1.562,8.866 2.455,15.515 2.679,16.567 1.562,8.218 1.339,5.768 1.116,3.781 0.893,2.315 0.893,1.676 0.67,0.839 0.669,0.488 0.67,0.145 0.669,-0.183 0.67,-0.499 0.67,-0.795 0.892,-1.489 0.893,-1.932 1.116,-2.954 1.339,-4.19 1.786,-6.35 6.919,-25.514 1.786,-5.371 1.339,-3.419 1.339,-2.804 1.116,-1.811 0.893,-1.078 0.893,-0.732 0.669,-0.315 0.67,-0.109 0.67,0.099 0.669,0.307 0.67,0.515 0.893,1.006 0.892,1.361 1.116,2.175 1.116,2.655 1.34,3.731 1.785,5.645 4.018,12.969 1.339,3.513 1.116,2.394 1.116,1.858 0.893,1.085 0.893,0.73 0.892,0.382 0.67,0.07 0.67,-0.107 0.892,-0.398 0.893,-0.662 1.116,-1.147 1.339,-1.747 1.786,-2.743 4.018,-6.352 1.562,-1.992 1.116,-1.118 1.116,-0.813 0.893,-0.419 0.893,-0.209 0.892,-0.005 0.893,0.185 1.116,0.468 1.339,0.845 1.786,1.439 3.348,2.778 1.339,0.818 1.116,0.439 0.893,0.156 0.893,-0.04 0.893,-0.252 0.892,-0.475 0.893,-0.704 1.116,-1.199 1.116,-1.536 1.339,-2.244 1.786,-3.494 5.357,-10.949 1.339,-2.077 1.116,-1.326 0.893,-0.747 0.893,-0.438 0.669,-0.111 0.67,0.083 0.669,0.284 0.67,0.488 0.893,0.971 0.893,1.334 1.116,2.161 1.116,2.673 1.339,3.8 1.785,5.827 5.134,17.315 1.339,3.637 1.116,2.53 1.116,2.009 0.893,1.2 0.893,0.82 0.669,0.356 0.67,0.133 0.67,-0.093 0.669,-0.318 0.67,-0.542 0.893,-1.06 0.892,-1.436 1.116,-2.291 1.116,-2.795 1.34,-3.926 1.785,-5.972 5.357,-18.631 1.339,-3.753 1.339,-3.088 1.116,-2.002 0.893,-1.202 0.893,-0.838 0.67,-0.387 0.669,-0.181 0.67,0.023 0.669,0.223 0.67,0.417 0.893,0.844 0.893,1.157 1.116,1.846 1.339,2.73 1.562,3.759 2.232,6.082 4.911,13.671 1.785,4.179 1.339,2.613 1.116,1.77 1.116,1.359 0.893,0.772 0.893,0.479 0.893,0.179 0.669,-0.062 0.893,-0.347 0.893,-0.641 0.893,-0.926 1.116,-1.536 1.116,-1.92 1.339,-2.742 1.786,-4.219 5.356,-13.21 1.34,-2.595 1.116,-1.773 1.116,-1.383 0.892,-0.814 0.893,-0.553 0.893,-0.295 0.893,-0.046 0.893,0.192 0.892,0.412 1.116,0.793 1.116,1.062 1.563,1.839 2.009,2.754 4.24,5.923 1.786,2.076 1.562,1.454 1.34,0.951 1.339,0.672 1.339,0.397 1.339,0.142 1.339,-0.085 1.563,-0.339 1.785,-0.622 2.902,-1.289 3.571,-1.541 2.455,-0.808 3.125,-0.765 6.027,-1.249 2.678,-0.355 2.232,-0.083 2.009,0.147 2.009,0.379 2.008,0.602 2.679,1.052 3.794,1.493 2.232,0.625 2.009,0.334 2.009,0.11 2.232,-0.12 2.455,-0.376 3.125,-0.732 6.919,-1.711 2.455,-0.322 2.455,-0.1 2.902,0.12 11.606,0.775 0.67,0.003 0,0"
         clip-path="url(#p7ff5b81e1d)" />
    </g>
    <g
       style="stroke-linecap:square;stroke-linejoin:round"
       id="line2d_4">
      <path
         inkscape:connector-curvature="0"
         id="path9532"
         style="fill:none;stroke:#00bfbf;stroke-width:1.5;stroke-linecap:square;stroke-linejoin:round"
         d="m 72,216 0.6696,0 19.4184,-0.122 2.232,-0.191 0.2232,0.29 10.9368,-1.053 4.464,-0.247 2.232,0.076 1.786,0.27 1.562,0.469 1.339,0.636 1.339,0.908 1.34,1.208 1.339,1.499 1.785,2.369 5.134,7.173 1.116,1.117 0.893,0.648 0.893,0.381 0.669,0.083 0.67,-0.108 0.669,-0.317 0.67,-0.54 0.67,-0.778 0.892,-1.426 0.893,-1.892 0.893,-2.373 1.116,-3.656 1.116,-4.415 1.339,-6.25 1.563,-8.453 2.232,-13.497 3.124,-18.811 1.34,-6.809 1.116,-4.594 0.892,-2.771 0.67,-1.463 0.67,-0.877 0.446,-0.235 0.446,0.061 0.447,0.368 0.446,0.687 0.67,1.648 0.669,2.412 0.67,3.195 0.893,5.49 0.893,6.888 1.116,10.502 1.339,15.132 1.562,20.452 3.348,48.064 2.009,27.114 1.562,18.062 1.116,10.599 0.893,6.825 0.893,5.18 0.67,2.725 0.446,1.235 0.446,0.755 0.447,0.265 0.223,-0.055 0.446,-0.488 0.447,-0.999 0.446,-1.514 0.67,-3.242 0.669,-4.407 0.893,-7.668 0.893,-9.661 1.116,-14.729 1.339,-21.177 1.563,-28.63 2.678,-54.33 2.455,-48.142 1.563,-26.449 1.339,-18.8194 1.116,-12.4697 0.893,-7.6667 0.669,-4.3329 0.67,-3.0819 0.446,-1.3487 0.447,-0.7798 0.223,-0.1754 0.223,-0.0328 0.223,0.1097 0.447,0.6471 0.446,1.2144 0.67,2.8719 0.669,4.1105 0.893,7.3444 0.893,9.3719 1.116,14.3514 1.339,20.633 1.562,27.849 2.456,48.654 2.901,56.988 1.563,26.726 1.339,19.409 1.116,13.254 0.893,8.51 0.892,6.554 0.67,3.596 0.67,2.45 0.446,0.994 0.446,0.484 0.224,0.052 0.223,-0.075 0.446,-0.526 0.447,-1.023 0.669,-2.45 0.67,-3.516 0.893,-6.279 0.892,-7.989 1.116,-12.175 1.34,-17.393 1.562,-23.298 2.678,-44.029 2.679,-42.855 1.562,-21.575 1.339,-15.479 1.116,-10.443 0.893,-6.63 0.893,-5.047 0.67,-2.734 0.669,-1.837 0.447,-0.729 0.446,-0.34 0.446,0.045 0.447,0.422 0.446,0.79 0.67,1.854 0.669,2.624 0.893,4.624 0.893,5.805 1.116,8.732 1.339,12.293 1.786,18.677 3.348,38.17 2.455,26.917 1.786,17.288 1.339,11.09 1.116,7.763 1.116,6.262 0.893,3.85 0.892,2.769 0.67,1.347 0.446,0.545 0.447,0.26 0.446,-0.024 0.447,-0.311 0.446,-0.594 0.67,-1.42 0.669,-2.047 0.893,-3.678 0.893,-4.72 1.116,-7.273 1.339,-10.546 1.562,-14.398 2.009,-20.845 4.687,-49.705 1.563,-13.959 1.339,-10.015 1.116,-6.704 0.893,-4.168 0.893,-3.031 0.669,-1.495 0.447,-0.617 0.446,-0.308 0.446,0.003 0.447,0.316 0.446,0.629 0.67,1.529 0.669,2.225 0.893,4.028 0.893,5.198 1.116,8.042 1.339,11.684 1.563,15.934 2.232,25.486 3.124,35.575 1.563,15.394 1.339,11.104 1.116,7.515 0.893,4.773 0.893,3.617 0.669,1.937 0.67,1.264 0.446,0.469 0.447,0.17 0.446,-0.127 0.446,-0.42 0.447,-0.708 0.669,-1.596 0.67,-2.217 0.893,-3.878 0.893,-4.871 1.116,-7.359 1.339,-10.451 1.562,-13.962 2.455,-24.219 3.125,-30.588 1.786,-15.235 1.339,-9.646 1.116,-6.636 1.116,-5.222 0.893,-3.094 0.669,-1.664 0.67,-1.09 0.446,-0.405 0.447,-0.147 0.446,0.112 0.447,0.369 0.446,0.624 0.67,1.409 0.669,1.965 0.893,3.455 0.893,4.36 1.116,6.624 1.339,9.453 1.562,12.669 2.679,23.895 2.455,21.126 1.562,11.535 1.34,8.134 1.116,5.348 0.892,3.275 0.893,2.357 0.67,1.161 0.669,0.644 0.447,0.147 0.446,-0.075 0.447,-0.292 0.669,-0.831 0.67,-1.285 0.893,-2.369 0.892,-3.051 1.116,-4.644 1.34,-6.542 2.008,-11.044 3.125,-17.272 1.339,-6.347 1.116,-4.398 0.893,-2.815 0.893,-2.135 0.67,-1.14 0.669,-0.742 0.67,-0.352 0.446,-0.023 0.447,0.139 0.669,0.497 0.67,0.819 0.893,1.536 1.116,2.502 1.562,4.221 2.902,8.055 1.116,2.459 0.892,1.473 0.67,0.75 0.67,0.405 0.446,0.063 0.446,-0.111 0.447,-0.292 0.669,-0.785 0.67,-1.208 0.67,-1.628 0.892,-2.8 1.116,-4.442 1.34,-6.347 2.008,-10.819 3.125,-16.946 1.563,-7.168 1.116,-4.144 0.892,-2.583 0.67,-1.453 0.67,-1.001 0.446,-0.402 0.446,-0.18 0.447,0.049 0.446,0.284 0.447,0.523 0.669,1.244 0.67,1.804 0.893,3.283 0.892,4.281 1.116,6.714 1.116,8.138 1.34,11.426 1.785,17.403 5.357,54.091 1.339,10.938 1.116,7.574 0.893,4.878 0.893,3.713 0.669,1.964 0.67,1.227 0.446,0.394 0.447,0.048 0.446,-0.303 0.447,-0.657 0.446,-1.014 0.67,-2.193 0.669,-2.995 0.893,-5.222 0.893,-6.582 1.116,-10.023 1.339,-14.381 1.562,-19.377 2.679,-36.664 2.232,-29.293 1.562,-17.732 1.339,-12.57 1.116,-8.303 0.893,-5.095 0.67,-2.881 0.669,-2.056 0.447,-0.909 0.446,-0.538 0.447,-0.169 0.446,0.198 0.446,0.562 0.447,0.92 0.669,2.04 0.67,2.805 0.893,4.875 0.893,6.084 1.116,9.128 1.339,12.834 1.785,19.394 4.241,47.326 1.339,12.384 1.116,8.566 1.116,6.778 0.893,4.08 0.67,2.273 0.669,1.609 0.67,0.965 0.446,0.298 0.447,0.033 0.446,-0.22 0.447,-0.463 0.669,-1.119 0.67,-1.586 0.893,-2.755 1.116,-4.289 1.562,-7.116 5.134,-24.526 1.339,-5.012 1.116,-3.436 1.116,-2.778 0.893,-1.713 0.892,-1.309 0.893,-0.933 0.893,-0.589 0.893,-0.278 0.893,-0.006 0.892,0.229 1.116,0.555 1.34,0.957 2.232,1.955 2.455,2.093 1.562,1.03 1.339,0.594 1.116,0.264 1.116,0.046 1.116,-0.159 1.34,-0.418 2.008,-0.91 2.679,-1.168 1.562,-0.46 1.563,-0.228 1.562,0.011 1.786,0.269 2.232,0.592 4.464,1.242 2.008,0.298 2.232,0.098 0.67,0.001 0,0"
         clip-path="url(#p7ff5b81e1d)" />
    </g>
    <g
       style="stroke-linecap:square;stroke-linejoin:round"
       id="line2d_5">
      <path
         inkscape:connector-curvature="0"
         id="path9535"
         style="fill:none;stroke:#bf00bf;stroke-width:1.5;stroke-linecap:square;stroke-linejoin:round"
         d="m 72,216 0.2232,-0.221 0.2232,0.221 28.3466,-0.109 11.606,-0.102 4.241,0.211 4.464,0.461 6.919,0.743 2.902,0.067 2.455,-0.152 2.455,-0.37 2.902,-0.687 6.696,-1.709 2.455,-0.321 2.232,-0.056 2.232,0.174 2.455,0.423 7.589,1.536 1.562,-0.028 1.563,-0.252 1.785,-0.547 2.232,-0.966 4.018,-1.824 1.562,-0.452 1.34,-0.161 1.116,0.066 1.116,0.27 1.116,0.491 1.116,0.718 1.339,1.151 1.562,1.692 2.009,2.573 4.464,5.847 1.562,1.608 1.34,1.03 1.116,0.561 0.892,0.23 0.893,0.023 0.893,-0.194 0.893,-0.412 0.893,-0.632 1.116,-1.087 1.116,-1.394 1.339,-2.02 2.009,-3.517 2.901,-5.142 1.339,-1.883 1.116,-1.186 0.893,-0.662 0.893,-0.398 0.893,-0.133 0.893,0.122 0.892,0.357 1.116,0.739 1.34,1.225 2.008,2.239 2.456,2.682 1.339,1.099 0.893,0.489 0.892,0.245 0.893,-0.033 0.67,-0.224 0.893,-0.581 0.892,-0.916 0.893,-1.265 1.116,-2.021 1.116,-2.481 1.563,-4.099 2.455,-7.238 2.232,-6.353 1.339,-3.189 1.116,-2.07 0.893,-1.17 0.669,-0.551 0.67,-0.243 0.446,0.018 0.447,0.17 0.669,0.549 0.67,0.913 0.67,1.284 0.892,2.296 0.893,2.953 1.116,4.575 1.339,6.645 1.563,8.98 4.91,29.257 1.339,6.388 1.116,4.384 0.893,2.811 0.893,2.141 0.67,1.147 0.669,0.744 0.447,0.268 0.446,0.085 0.446,-0.099 0.447,-0.28 0.669,-0.761 0.67,-1.161 0.893,-2.153 0.893,-2.812 1.116,-4.373 1.339,-6.354 1.562,-8.63 2.455,-15.082 2.679,-16.099 1.562,-8.086 1.339,-5.744 1.116,-3.819 0.893,-2.382 0.893,-1.767 0.67,-0.92 0.669,-0.576 0.67,-0.238 0.669,0.089 0.67,0.407 0.67,0.709 0.892,1.386 0.893,1.851 1.116,2.891 1.339,4.176 1.786,6.451 3.348,13.261 2.232,8.401 1.786,5.973 1.339,3.824 1.339,3.165 1.116,2.092 0.893,1.299 0.893,0.959 0.892,0.617 0.67,0.24 0.67,0.05 0.669,-0.136 0.67,-0.317 0.893,-0.697 0.892,-0.997 1.116,-1.638 1.116,-2.038 1.34,-2.911 1.562,-3.926 2.009,-5.664 7.365,-21.453 1.34,-3.036 1.116,-2.099 1.116,-1.634 0.892,-0.932 0.893,-0.567 0.67,-0.171 0.669,0.056 0.67,0.291 0.67,0.532 0.669,0.776 0.893,1.415 0.893,1.85 1.116,2.904 1.116,3.525 1.339,4.957 1.786,7.568 5.356,23.617 1.563,5.543 1.116,3.263 1.116,2.587 0.893,1.538 0.669,0.824 0.67,0.532 0.669,0.23 0.67,-0.076 0.67,-0.387 0.669,-0.699 0.67,-1.013 0.893,-1.835 0.892,-2.379 1.116,-3.716 1.116,-4.497 1.34,-6.342 1.562,-8.525 2.009,-12.325 5.58,-35.245 1.562,-7.998 1.116,-4.662 0.893,-2.963 0.893,-2.188 0.669,-1.086 0.447,-0.442 0.446,-0.208 0.447,0.035 0.446,0.283 0.446,0.539 0.67,1.297 0.67,1.897 0.669,2.507 0.893,4.296 0.893,5.38 1.116,8.21 1.339,11.893 1.562,16.323 2.009,23.826 4.687,56.58 1.34,13.452 1.116,9.396 0.892,6.079 0.893,4.624 0.67,2.426 0.446,1.09 0.447,0.652 0.446,0.202 0.223,-0.071 0.447,-0.494 0.446,-0.967 0.446,-1.448 0.67,-3.078 0.67,-4.171 0.892,-7.242 0.893,-9.108 1.116,-13.843 1.339,-19.779 1.786,-30.339 3.794,-66.108 1.34,-19.205 1.116,-13.191 0.892,-8.488 0.893,-6.559 0.67,-3.629 0.669,-2.527 0.447,-1.08 0.446,-0.605 0.447,-0.142 0.446,0.311 0.446,0.746 0.447,1.167 0.669,2.499 0.67,3.335 0.893,5.619 1.116,8.635 1.339,12.196 2.009,20.538 3.348,34.425 1.562,13.783 1.339,10.173 1.116,7.031 1.116,5.64 0.893,3.497 0.893,2.608 0.67,1.391 0.669,0.929 0.67,0.489 0.446,0.094 0.447,-0.079 0.669,-0.425 0.67,-0.76 0.893,-1.473 0.892,-1.915 1.34,-3.495 2.008,-6.036 3.125,-9.38 1.786,-4.638 2.009,-4.535 2.455,-5.515 1.562,-4.087 1.786,-5.32 4.464,-13.666 1.116,-2.598 0.893,-1.585 0.669,-0.84 0.67,-0.504 0.446,-0.133 0.447,0.039 0.446,0.219 0.67,0.677 0.669,1.111 0.67,1.553 0.893,2.763 0.892,3.535 1.116,5.431 1.34,7.781 2.008,13.278 2.456,15.946 1.339,7.414 1.116,5.145 1.116,4.074 0.893,2.442 0.669,1.345 0.67,0.929 0.669,0.517 0.447,0.122 0.446,-0.053 0.447,-0.222 0.669,-0.641 0.67,-0.992 0.893,-1.828 0.892,-2.352 1.116,-3.578 1.34,-5.049 2.008,-8.596 4.241,-18.488 1.339,-4.848 1.116,-3.361 1.116,-2.648 0.893,-1.572 0.893,-1.079 0.67,-0.49 0.669,-0.229 0.67,0.021 0.669,0.251 0.67,0.461 0.893,0.899 1.116,1.489 1.562,2.52 3.125,5.162 1.339,1.744 1.116,1.09 0.893,0.612 0.893,0.389 1.116,0.217 1.339,0.013 0,0"
         clip-path="url(#p7ff5b81e1d)" />
    </g>
    <g
       style="stroke-linecap:square;stroke-linejoin:round"
       id="line2d_6">
      <path
         inkscape:connector-curvature="0"
         id="path9538"
         style="fill:none;stroke:#bfbf00;stroke-width:1.5;stroke-linecap:square;stroke-linejoin:round"
         d="m 72,216 3.1248,0.196 1.5624,0.383 1.5624,0.608 2.0088,1.037 3.7944,2.045 1.5624,0.548 1.116,0.187 1.116,-0.025 1.116,-0.262 1.116,-0.518 1.116,-0.782 1.116,-1.042 1.3392,-1.576 2.0088,-2.825 2.0088,-3.424 4.687,-8.159 1.339,-1.875 1.116,-1.246 0.893,-0.739 0.893,-0.474 0.893,-0.179 0.669,0.076 0.67,0.267 0.67,0.466 0.892,0.942 0.893,1.316 0.893,1.689 1.116,2.625 1.339,3.844 1.563,5.275 2.678,10.06 2.455,8.919 1.563,4.926 1.339,3.519 1.116,2.333 0.893,1.425 0.892,1.003 0.67,0.459 0.67,0.199 0.669,-0.069 0.67,-0.341 0.669,-0.619 0.67,-0.897 0.893,-1.631 0.893,-2.123 1.116,-3.33 1.116,-4.045 1.339,-5.718 1.562,-7.685 2.232,-12.257 4.018,-22.35 1.562,-7.475 1.339,-5.36 1.116,-3.536 0.893,-2.125 0.67,-1.141 0.669,-0.728 0.447,-0.245 0.446,-0.047 0.447,0.157 0.446,0.364 0.67,0.943 0.669,1.428 0.67,1.916 0.893,3.318 0.892,4.177 1.116,6.388 1.34,9.247 1.562,12.633 2.232,20.285 3.348,30.489 1.562,12.356 1.34,8.912 1.116,5.962 0.892,3.679 0.67,2.071 0.67,1.447 0.446,0.608 0.446,0.313 0.447,0.015 0.446,-0.287 0.447,-0.594 0.669,-1.467 0.67,-2.162 0.669,-2.852 0.893,-4.858 0.893,-6.023 1.116,-9.068 1.339,-12.893 1.563,-17.254 6.026,-69.623 1.339,-11.864 1.116,-8.066 0.893,-5.133 0.893,-3.889 0.669,-2.074 0.67,-1.338 0.446,-0.481 0.447,-0.151 0.446,0.177 0.447,0.503 0.446,0.825 0.67,1.833 0.669,2.529 0.893,4.409 0.893,5.527 1.116,8.341 1.339,11.831 1.786,18.141 6.249,66.367 1.339,10.945 1.116,7.532 1.116,5.943 0.893,3.549 0.67,1.943 0.669,1.319 0.447,0.534 0.446,0.26 0.447,-0.013 0.446,-0.281 0.446,-0.545 0.67,-1.303 0.67,-1.865 0.892,-3.317 0.893,-4.201 1.116,-6.369 1.339,-9.034 1.786,-13.798 5.58,-44.911 1.339,-8.58 1.116,-5.969 1.116,-4.796 0.893,-2.958 0.893,-2.171 0.669,-1.116 0.67,-0.686 0.446,-0.224 0.447,-0.042 0.446,0.135 0.67,0.521 0.669,0.886 0.67,1.229 0.893,2.129 1.116,3.36 1.339,4.888 1.562,6.585 2.679,12.459 3.125,14.298 1.785,7.188 1.563,5.356 1.339,3.776 1.116,2.524 1.116,1.933 0.893,1.113 0.892,0.725 0.67,0.291 0.67,0.075 0.669,-0.135 0.67,-0.344 0.893,-0.771 0.892,-1.117 0.893,-1.446 1.116,-2.238 1.339,-3.26 1.563,-4.483 2.009,-6.586 3.571,-12.773 2.455,-8.319 1.562,-4.607 1.34,-3.32 1.116,-2.226 0.892,-1.379 0.893,-0.992 0.67,-0.473 0.669,-0.233 0.67,0.017 0.67,0.271 0.669,0.53 0.67,0.789 0.893,1.458 0.892,1.913 1.116,3.01 1.116,3.652 1.34,5.129 1.785,7.809 4.911,22.23 1.562,5.712 1.116,3.377 1.116,2.712 0.893,1.653 0.893,1.173 0.669,0.555 0.67,0.274 0.669,-0.01 0.67,-0.295 0.67,-0.578 0.669,-0.858 0.893,-1.572 0.893,-2.045 1.116,-3.188 1.339,-4.674 1.562,-6.45 2.009,-9.416 4.018,-19.227 1.562,-6.345 1.339,-4.54 1.116,-3.043 0.893,-1.905 0.893,-1.414 0.67,-0.728 0.669,-0.441 0.67,-0.152 0.669,0.136 0.67,0.42 0.67,0.7 0.892,1.355 0.893,1.818 1.116,2.881 1.116,3.498 1.339,4.9 1.786,7.467 2.902,13.327 2.678,11.938 1.786,6.924 1.339,4.358 1.116,2.971 1.116,2.299 0.893,1.317 0.669,0.67 0.67,0.388 0.669,0.101 0.67,-0.189 0.67,-0.481 0.669,-0.772 0.893,-1.48 0.893,-1.982 1.116,-3.157 1.116,-3.866 1.339,-5.478 1.562,-7.359 2.232,-11.72 4.018,-21.284 1.562,-7.133 1.34,-5.165 1.116,-3.478 0.892,-2.166 0.893,-1.568 0.67,-0.758 0.669,-0.385 0.447,-0.043 0.446,0.13 0.447,0.307 0.669,0.794 0.67,1.197 0.669,1.6 0.893,2.753 0.893,3.445 1.116,5.229 1.339,7.512 1.563,10.184 2.232,16.258 3.348,24.34 1.562,9.847 1.339,7.117 1.116,4.792 0.893,2.995 0.893,2.189 0.669,1.087 0.67,0.595 0.446,0.118 0.447,-0.108 0.446,-0.335 0.447,-0.563 0.669,-1.272 0.67,-1.782 0.893,-3.155 0.892,-4.018 1.116,-6.17 1.34,-8.929 1.562,-12.172 2.232,-19.552 3.571,-31.483 1.563,-11.908 1.339,-8.618 1.116,-5.829 0.893,-3.672 0.892,-2.729 0.67,-1.4 0.67,-0.829 0.446,-0.23 0.446,0.029 0.447,0.29 0.446,0.551 0.67,1.314 0.669,1.891 0.893,3.399 0.893,4.363 1.116,6.721 1.339,9.721 1.563,13.187 2.455,23.064 2.678,24.684 1.563,12.359 1.339,8.776 1.116,5.823 0.893,3.607 0.892,2.64 0.67,1.339 0.67,0.79 0.446,0.224 0.446,-0.015 0.447,-0.248 0.446,-0.478 0.67,-1.135 0.669,-1.617 0.893,-2.859 0.893,-3.598 1.116,-5.411 1.339,-7.596 2.009,-12.918 4.018,-26.327 1.339,-7.393 1.116,-5.178 1.116,-4.163 0.893,-2.563 0.892,-1.872 0.67,-0.96 0.67,-0.592 0.669,-0.239 0.67,0.092 0.669,0.401 0.67,0.683 0.893,1.298 1.116,2.141 1.339,3.127 2.455,6.471 2.232,5.635 1.339,2.869 1.34,2.327 1.116,1.485 1.116,1.113 1.116,0.719 1.116,0.407 1.116,0.143 1.116,-0.07 1.339,-0.299 1.785,-0.636 4.911,-1.906 1.785,-0.381 1.563,-0.098 1.562,0.138 1.563,0.364 2.008,0.728 4.911,1.94 1.785,0.391 1.563,0.132 1.785,-0.078 2.009,-0.324 3.795,-0.917 2.678,-0.537 2.232,-0.233 2.232,-0.064 0,0"
         clip-path="url(#p7ff5b81e1d)" />
    </g>
    <g
       style="stroke-linecap:square;stroke-linejoin:round"
       id="line2d_7">
      <path
         inkscape:connector-curvature="0"
         id="path9541"
         style="fill:none;stroke:#000000;stroke-width:1.5;stroke-linecap:square;stroke-linejoin:round"
         d="m 72,216 0.2232,0.12 0.4464,-0.12 24.9984,-0.102 4.687,-0.36 5.357,-0.383 2.902,0.014 2.678,0.234 2.678,0.453 3.572,0.859 5.356,1.301 2.456,0.354 2.008,0.087 2.009,-0.131 2.009,-0.362 2.232,-0.654 2.902,-1.129 3.794,-1.468 2.232,-0.598 2.009,-0.294 2.009,-0.057 2.232,0.187 2.678,0.482 7.366,1.502 2.232,0.151 2.232,-0.08 2.678,-0.343 6.919,-1.038 2.009,-0.021 2.009,0.195 2.232,0.464 3.348,0.989 2.678,0.687 2.009,0.297 2.009,0.081 2.232,-0.133 3.125,-0.431 4.687,-0.636 2.901,-0.137 7.143,-0.152 2.455,-0.373 3.571,-0.799 3.125,-0.627 1.786,-0.148 1.562,0.093 1.339,0.299 1.339,0.548 1.116,0.677 1.116,0.906 1.34,1.407 1.339,1.75 1.785,2.767 5.134,8.329 1.116,1.303 0.893,0.772 0.893,0.485 0.669,0.153 0.67,-0.043 0.669,-0.251 0.67,-0.47 0.67,-0.695 0.892,-1.282 0.893,-1.691 1.116,-2.67 1.116,-3.244 1.563,-5.341 2.455,-9.477 2.678,-10.141 1.563,-5.113 1.339,-3.627 1.116,-2.372 0.893,-1.42 0.892,-0.963 0.67,-0.407 0.67,-0.129 0.669,0.155 0.67,0.441 0.669,0.73 0.67,1.016 0.893,1.794 0.893,2.283 1.116,3.506 1.339,5.079 1.562,6.942 2.009,10.048 4.91,24.679 1.563,6.364 1.116,3.759 1.116,2.986 0.893,1.776 0.669,0.95 0.67,0.608 0.669,0.256 0.447,-0.028 0.446,-0.189 0.67,-0.589 0.669,-0.956 0.67,-1.322 0.893,-2.324 0.893,-2.949 1.116,-4.523 1.339,-6.552 1.562,-8.966 2.009,-13.028 5.357,-35.067 1.339,-7.038 1.116,-4.887 1.116,-3.844 0.893,-2.242 0.669,-1.159 0.67,-0.692 0.446,-0.194 0.447,0.024 0.446,0.244 0.447,0.467 0.669,1.119 0.67,1.62 0.893,2.932 0.892,3.792 1.116,5.882 1.34,8.578 1.562,11.731 2.232,18.754 2.902,24.181 1.562,11.273 1.339,8.102 1.116,5.454 0.893,3.435 0.893,2.57 0.669,1.345 0.67,0.84 0.446,0.278 0.447,0.055 0.446,-0.169 0.447,-0.389 0.669,-0.992 0.67,-1.47 0.893,-2.676 0.892,-3.453 1.116,-5.318 1.34,-7.678 1.562,-10.391 2.232,-16.514 3.125,-23.117 1.562,-10.072 1.339,-7.323 1.116,-5.021 1.116,-3.952 0.893,-2.358 0.67,-1.293 0.669,-0.883 0.67,-0.477 0.446,-0.094 0.447,0.083 0.446,0.256 0.67,0.702 0.669,1.073 0.893,1.981 0.893,2.572 1.116,3.977 1.339,5.753 1.563,7.819 2.008,11.282 5.804,33.407 1.562,7.418 1.339,5.328 1.116,3.58 0.893,2.238 0.893,1.641 0.669,0.82 0.67,0.456 0.446,0.098 0.447,-0.071 0.446,-0.239 0.67,-0.677 0.669,-1.06 0.67,-1.443 0.893,-2.508 0.893,-3.161 1.116,-4.826 1.339,-6.969 1.562,-9.523 2.009,-13.843 4.464,-31.857 1.562,-9.62 1.34,-6.956 1.116,-4.663 0.892,-2.881 0.67,-1.621 0.67,-1.132 0.446,-0.472 0.446,-0.24 0.447,-0.003 0.446,0.236 0.447,0.478 0.669,1.175 0.67,1.725 0.893,3.149 0.892,4.095 1.116,6.38 1.34,9.323 1.562,12.735 2.902,26.244 2.008,17.104 1.34,9.701 1.116,6.698 1.116,5.281 0.892,3.149 0.67,1.724 0.67,1.179 0.446,0.487 0.446,0.254 0.447,0.023 0.446,-0.199 0.447,-0.416 0.669,-1.012 0.67,-1.452 0.893,-2.56 1.116,-4.08 1.339,-5.94 1.785,-9.126 4.911,-25.934 1.339,-5.833 1.339,-4.989 1.116,-3.383 1.116,-2.647 0.893,-1.585 0.893,-1.122 0.669,-0.548 0.67,-0.308 0.67,-0.082 0.669,0.129 0.67,0.325 0.893,0.705 1.116,1.255 1.339,1.932 1.785,3.034 4.688,8.204 2.232,3.311 5.133,7.338 3.795,5.598 1.339,1.617 1.116,1.054 0.893,0.598 0.892,0.342 0.893,0.055 0.67,-0.164 0.669,-0.349 0.893,-0.764 0.893,-1.11 0.893,-1.454 1.116,-2.279 1.339,-3.335 1.786,-5.184 3.348,-9.952 1.339,-3.324 1.116,-2.297 1.116,-1.812 0.893,-1.082 0.892,-0.748 0.893,-0.418 0.67,-0.101 0.669,0.073 0.893,0.357 0.893,0.635 0.893,0.887 1.116,1.423 1.339,2.091 1.786,3.259 6.026,11.49 1.339,1.905 1.116,1.247 1.116,0.912 0.893,0.482 0.893,0.269 0.893,0.065 1.116,-0.178 1.116,-0.425 1.339,-0.763 2.009,-1.446 2.901,-2.088 1.563,-0.853 1.339,-0.501 1.339,-0.283 1.786,-0.119 0.446,-0.006 0,0"
         clip-path="url(#p7ff5b81e1d)" />
    </g>
    <g
       style="stroke-linecap:square;stroke-linejoin:round"
       id="line2d_8">
      <path
         inkscape:connector-curvature="0"
         id="path9544"
         style="fill:none;stroke:#0000ff;stroke-width:1.5;stroke-linecap:square;stroke-linejoin:round"
         d="m 72,216 1.5624,0 9.3744,0.111 6.696,0.065 3.348,-0.205 1.3392,-0.142 0.2232,0.145 12.4988,-1.406 2.902,-0.025 2.232,0.19 2.009,0.397 1.785,0.586 1.563,0.732 1.562,0.96 1.786,1.36 2.455,2.182 3.348,2.948 1.562,1.063 1.116,0.531 1.116,0.284 0.893,0.019 0.893,-0.191 0.893,-0.421 0.893,-0.668 0.892,-0.929 1.116,-1.544 1.116,-1.978 1.116,-2.41 1.34,-3.434 1.562,-4.683 2.009,-6.788 3.794,-13.048 1.339,-3.869 1.116,-2.622 0.893,-1.596 0.67,-0.858 0.669,-0.534 0.67,-0.186 0.446,0.083 0.447,0.254 0.669,0.716 0.67,1.131 0.67,1.556 0.892,2.749 0.893,3.516 1.116,5.446 1.339,7.956 1.563,10.903 2.455,19.106 2.678,20.477 1.563,10.389 1.339,7.402 1.116,4.851 0.893,2.898 0.669,1.554 0.67,0.993 0.446,0.34 0.447,0.077 0.446,-0.191 0.447,-0.462 0.446,-0.735 0.67,-1.617 0.669,-2.233 0.893,-3.925 0.893,-4.977 1.116,-7.62 1.339,-10.993 1.562,-14.904 2.456,-26.007 2.678,-27.745 1.562,-14.001 1.34,-10.031 1.116,-6.712 0.892,-4.188 0.893,-3.078 0.67,-1.559 0.446,-0.677 0.447,-0.384 0.446,-0.093 0.446,0.2 0.447,0.489 0.446,0.778 0.67,1.699 0.669,2.324 0.893,4.038 0.893,5.055 1.116,7.641 1.339,10.88 1.563,14.608 2.232,23.168 3.794,39.586 1.786,16.028 1.339,10.105 1.116,6.902 0.893,4.413 0.892,3.355 0.67,1.789 0.67,1.144 0.446,0.397 0.446,0.101 0.447,-0.197 0.446,-0.498 0.447,-0.798 0.669,-1.761 0.67,-2.433 0.893,-4.272 0.892,-5.416 1.116,-8.299 1.34,-12.023 1.562,-16.472 2.009,-24.029 5.357,-65.921 1.562,-15.685 1.116,-9.293 1.116,-7.391 0.893,-4.382 0.669,-2.324 0.67,-1.458 0.446,-0.475 0.447,-0.069 0.446,0.343 0.447,0.762 0.446,1.182 0.67,2.565 0.669,3.515 0.893,6.149 0.893,7.774 1.116,11.889 1.339,17.156 1.562,23.316 2.232,37.189 3.125,51.915 1.563,22.569 1.339,16.296 1.116,10.967 0.893,6.863 0.892,5.043 0.67,2.537 0.446,1.084 0.447,0.592 0.223,0.11 0.223,-0.014 0.447,-0.4 0.446,-0.896 0.446,-1.391 0.67,-3.004 0.67,-4.085 0.892,-7.071 0.893,-8.835 1.116,-13.318 1.339,-18.874 1.786,-28.859 5.134,-85.829 1.339,-17.694 1.116,-12.141 0.893,-7.843 0.892,-6.106 0.67,-3.423 0.67,-2.43 0.446,-1.074 0.446,-0.643 0.447,-0.22 0.446,0.194 0.447,0.597 0.446,0.989 0.67,2.187 0.669,2.987 0.893,5.125 1.116,8.035 1.339,11.601 1.786,17.809 5.357,55.188 1.339,11.019 1.116,7.636 1.116,6.1 0.893,3.741 0.892,2.733 0.67,1.406 0.67,0.875 0.446,0.3 0.446,0.085 0.447,-0.121 0.446,-0.318 0.67,-0.819 0.669,-1.195 0.893,-2.105 1.116,-3.303 1.563,-5.502 5.133,-18.911 1.339,-3.834 1.116,-2.623 1.116,-2.084 1.116,-1.613 1.116,-1.183 1.116,-0.808 1.116,-0.484 1.116,-0.207 1.116,0.022 1.34,0.269 1.562,0.557 2.232,1.055 4.018,1.935 2.008,0.7 1.786,0.378 1.786,0.131 1.785,-0.107 2.009,-0.323 2.455,-0.62 7.812,-2.197 1.563,-0.133 1.339,0.073 1.339,0.29 1.339,0.544 1.116,0.675 1.339,1.101 1.34,1.44 1.339,1.781 1.562,2.469 2.232,4.028 3.125,5.684 1.339,2.041 1.116,1.348 0.893,0.781 0.893,0.468 0.669,0.119 0.67,-0.097 0.67,-0.327 0.669,-0.57 0.67,-0.822 0.893,-1.499 0.892,-1.967 1.116,-3.11 1.116,-3.796 1.34,-5.354 1.785,-8.145 4.911,-22.977 1.339,-5.105 1.116,-3.512 0.893,-2.232 0.892,-1.653 0.67,-0.83 0.67,-0.458 0.446,-0.09 0.446,0.086 0.447,0.266 0.669,0.741 0.67,1.157 0.67,1.575 0.892,2.745 0.893,3.466 1.116,5.297 1.339,7.638 1.563,10.353 2.678,19.7 2.455,17.476 1.563,9.614 1.339,6.836 1.116,4.515 0.893,2.757 0.669,1.542 0.67,1.075 0.67,0.599 0.446,0.131 0.446,-0.082 0.447,-0.297 0.446,-0.511 0.67,-1.162 0.669,-1.631 0.893,-2.878 0.893,-3.645 1.116,-5.551 1.339,-7.942 1.563,-10.66 2.678,-20.127 2.009,-14.803 1.562,-10.198 1.339,-7.402 1.116,-5.044 0.893,-3.231 0.893,-2.485 0.67,-1.363 0.669,-0.933 0.67,-0.504 0.446,-0.1 0.447,0.085 0.446,0.267 0.67,0.734 0.669,1.119 0.893,2.06 0.893,2.66 1.116,4.078 1.339,5.824 1.786,8.919 5.58,28.937 1.339,5.483 1.116,3.778 1.116,2.994 0.893,1.814 0.892,1.296 0.67,0.639 0.67,0.363 0.669,0.096 0.67,-0.156 0.669,-0.393 0.893,-0.865 0.893,-1.211 1.116,-1.929 1.339,-2.791 2.009,-4.797 4.018,-9.733 1.562,-3.2 1.116,-1.966 1.339,-1.929 1.116,-1.25 1.116,-0.927 1.116,-0.616 1.116,-0.327 1.116,-0.065 1.116,0.164 1.339,0.448 1.563,0.784 2.232,1.406 4.017,2.566 2.009,0.992 1.786,0.637 1.785,0.41 2.009,0.245 2.455,0.066 3.348,-0.159 8.705,-0.522 4.241,-0.006 0,0"
         clip-path="url(#p7ff5b81e1d)" />
    </g>
    <g
       style="stroke-linecap:square;stroke-linejoin:round"
       id="line2d_9">
      <path
         inkscape:connector-curvature="0"
         id="path9547"
         style="fill:none;stroke:#008000;stroke-width:1.5;stroke-linecap:square;stroke-linejoin:round"
         d="m 72,216 1.7856,-0.057 1.3392,-0.22 1.3392,-0.448 1.3392,-0.695 1.5624,-1.083 2.6784,-2.221 2.0088,-1.534 1.3392,-0.733 1.116,-0.334 0.8928,-0.045 0.8928,0.178 0.8928,0.418 0.8928,0.665 1.116,1.173 1.116,1.521 1.5624,2.584 4.0176,6.969 1.3392,1.768 1.1156,1.136 1.116,0.807 0.893,0.405 0.893,0.196 0.893,-0.003 1.116,-0.265 1.116,-0.523 1.339,-0.915 1.562,-1.374 2.232,-2.308 3.795,-3.952 1.562,-1.314 1.339,-0.85 1.116,-0.47 1.116,-0.242 1.116,-0.017 1.116,0.189 1.34,0.454 1.785,0.866 3.571,1.806 1.34,0.423 1.339,0.17 1.116,-0.075 1.339,-0.344 1.562,-0.671 2.456,-1.084 0.892,-0.139 0.67,0.083 0.67,0.288 0.669,0.517 0.67,0.762 0.893,1.401 0.892,1.829 1.116,2.824 1.563,4.716 4.017,12.646 1.116,2.567 0.893,1.446 0.67,0.655 0.446,0.21 0.447,0.013 0.446,-0.193 0.446,-0.409 0.67,-1.032 0.67,-1.554 0.669,-2.087 0.893,-3.613 0.893,-4.538 1.116,-6.875 1.339,-9.723 2.232,-18.241 2.678,-21.669 1.563,-10.938 1.339,-7.719 1.116,-4.996 0.893,-2.936 0.669,-1.537 0.67,-0.943 0.446,-0.289 0.447,-0.013 0.446,0.267 0.447,0.549 0.669,1.354 0.67,1.989 0.669,2.618 0.893,4.448 1.116,7.032 1.116,8.544 1.339,11.995 1.786,18.253 5.357,56.854 1.339,11.487 1.116,8.031 1.116,6.427 0.893,3.886 0.669,2.145 0.67,1.466 0.446,0.595 0.447,0.286 0.446,-0.023 0.447,-0.332 0.446,-0.64 0.67,-1.531 0.669,-2.205 0.893,-3.954 0.893,-5.061 1.116,-7.763 1.339,-11.174 1.562,-15.089 2.456,-26.323 2.901,-30.622 1.563,-14.238 1.339,-10.234 1.116,-6.897 0.893,-4.357 0.892,-3.278 0.67,-1.734 0.67,-1.109 0.446,-0.393 0.446,-0.117 0.447,0.156 0.446,0.426 0.447,0.69 0.669,1.518 0.67,2.079 0.893,3.594 1.116,5.706 1.339,8.383 1.562,11.423 2.679,21.7 2.232,17.479 1.339,8.983 1.116,6.204 1.116,4.875 0.893,2.898 0.669,1.585 0.67,1.091 0.669,0.615 0.447,0.156 0.446,-0.037 0.447,-0.22 0.669,-0.653 0.67,-1.004 0.893,-1.814 1.116,-2.879 1.562,-4.783 3.571,-11.297 1.339,-3.421 1.116,-2.245 0.893,-1.35 0.893,-0.944 0.893,-0.556 0.893,-0.215 0.892,0.069 0.893,0.291 1.116,0.591 1.786,1.254 3.348,2.416 1.562,0.82 1.339,0.443 1.116,0.159 1.116,-0.042 1.116,-0.245 1.34,-0.551 1.339,-0.809 1.562,-1.218 2.009,-1.877 4.91,-4.746 1.786,-1.332 1.562,-0.864 1.34,-0.49 1.339,-0.246 1.339,-0.004 1.339,0.229 1.339,0.442 1.563,0.754 1.785,1.118 2.232,1.665 9.152,7.156 1.785,0.977 1.563,0.616 1.339,0.32 1.339,0.109 1.339,-0.118 1.339,-0.356 1.34,-0.6 1.339,-0.847 1.339,-1.092 1.562,-1.578 1.563,-1.893 1.785,-2.519 2.456,-3.925 3.348,-5.335 1.562,-2.053 1.116,-1.154 1.116,-0.824 0.893,-0.385 0.893,-0.118 0.892,0.17 0.893,0.469 0.893,0.778 0.893,1.087 1.116,1.785 1.116,2.234 1.339,3.208 1.786,4.975 5.58,16.24 1.339,3.075 1.116,2.108 1.116,1.633 0.893,0.933 0.892,0.582 0.67,0.199 0.67,-0.009 0.669,-0.219 0.67,-0.429 0.893,-0.895 0.892,-1.255 1.116,-2.052 1.116,-2.548 1.34,-3.63 1.785,-5.588 5.357,-17.503 1.339,-3.448 1.116,-2.365 1.116,-1.853 0.893,-1.095 0.893,-0.744 0.669,-0.327 0.67,-0.133 0.67,0.057 0.669,0.242 0.893,0.596 0.893,0.89 1.116,1.484 1.339,2.254 1.562,3.141 2.232,5.094 4.688,10.863 1.785,3.525 1.563,2.584 1.339,1.768 1.116,1.125 1.116,0.789 0.893,0.381 0.892,0.158 0.893,-0.066 0.893,-0.286 0.893,-0.497 1.116,-0.905 1.116,-1.195 1.339,-1.77 1.562,-2.439 2.456,-4.328 3.124,-5.48 1.563,-2.329 1.339,-1.644 1.339,-1.268 1.116,-0.75 1.116,-0.47 1.116,-0.194 1.116,0.066 1.116,0.307 1.116,0.52 1.339,0.863 1.786,1.454 2.902,2.738 2.901,2.658 1.786,1.364 1.785,1.089 1.563,0.691 1.562,0.446 1.563,0.213 1.785,-0.009 2.009,-0.27 2.455,-0.577 8.259,-2.135 6.249,-1.375 4.687,-1.029 2.232,-0.252 1.786,0.002 1.786,0.223 1.785,0.459 2.009,0.779 2.678,1.327 3.125,1.524 2.009,0.742 1.786,0.437 1.785,0.211 1.786,-0.007 2.009,-0.245 2.232,-0.511 2.901,-0.916 6.027,-1.985 2.232,-0.466 2.232,-0.232 2.232,-0.009 2.678,0.214 9.374,0.951 1.786,0.053 0,0"
         clip-path="url(#p7ff5b81e1d)" />
    </g>
    <g
       style="stroke-linecap:square;stroke-linejoin:round"
       id="line2d_10">
      <path
         inkscape:connector-curvature="0"
         id="path9550"
         style="fill:none;stroke:#ff0000;stroke-width:1.5;stroke-linecap:square;stroke-linejoin:round"
         d="m 72,216 0.6696,0 19.4184,-0.121 2.232,-0.192 0.2232,0.29 10.9368,-1.054 4.464,-0.247 2.232,0.076 1.786,0.27 1.562,0.47 1.339,0.636 1.339,0.908 1.34,1.209 1.339,1.499 1.785,2.369 5.134,7.173 1.116,1.118 0.893,0.647 0.893,0.381 0.669,0.083 0.67,-0.108 0.669,-0.317 0.67,-0.54 0.67,-0.778 0.892,-1.426 0.893,-1.892 0.893,-2.374 1.116,-3.655 1.116,-4.417 1.339,-6.249 1.563,-8.455 2.232,-13.497 3.124,-18.812 1.34,-6.811 1.116,-4.594 0.892,-2.772 0.67,-1.463 0.67,-0.876 0.446,-0.235 0.446,0.061 0.447,0.368 0.446,0.687 0.67,1.648 0.669,2.413 0.67,3.195 0.893,5.491 0.893,6.888 1.116,10.504 1.339,15.132 1.562,20.453 3.348,48.065 2.009,27.113 1.562,18.061 1.116,10.598 0.893,6.823 0.893,5.18 0.67,2.723 0.446,1.235 0.446,0.754 0.447,0.265 0.223,-0.055 0.446,-0.489 0.447,-0.999 0.446,-1.515 0.67,-3.242 0.669,-4.408 0.893,-7.668 0.893,-9.662 1.116,-14.728 1.339,-21.176 1.563,-28.626 2.678,-54.32 2.455,-48.131 1.563,-26.44 1.339,-18.812 1.116,-12.4632 0.893,-7.6624 0.669,-4.3295 0.67,-3.0793 0.446,-1.3474 0.447,-0.7776 0.223,-0.175 0.223,-0.0324 0.223,0.1106 0.447,0.6485 0.446,1.2148 0.67,2.8728 0.669,4.1104 0.893,7.3436 0.893,9.3701 1.116,14.348 1.339,20.625 1.562,27.837 2.456,48.628 2.901,56.952 1.563,26.705 1.339,19.393 1.116,13.241 0.893,8.501 0.892,6.546 0.67,3.591 0.67,2.446 0.446,0.992 0.446,0.482 0.224,0.051 0.223,-0.076 0.446,-0.528 0.447,-1.023 0.669,-2.449 0.67,-3.516 0.893,-6.276 0.892,-7.983 1.116,-12.167 1.34,-17.379 1.562,-23.276 2.678,-43.981 2.679,-42.802 1.562,-21.544 1.339,-15.454 1.116,-10.425 0.893,-6.616 0.893,-5.036 0.67,-2.728 0.669,-1.83 0.447,-0.727 0.446,-0.336 0.446,0.046 0.447,0.423 0.446,0.791 0.67,1.854 0.669,2.623 0.893,4.619 0.893,5.799 1.116,8.719 1.339,12.274 1.786,18.643 3.348,38.093 2.455,26.855 1.786,17.246 1.339,11.061 1.116,7.743 1.116,6.246 0.893,3.84 0.669,2.174 0.67,1.552 0.669,0.921 0.447,0.259 0.446,-0.025 0.447,-0.31 0.446,-0.593 0.67,-1.418 0.669,-2.042 0.893,-3.669 0.893,-4.708 1.116,-7.256 1.339,-10.519 1.562,-14.362 2.009,-20.791 4.687,-49.579 1.563,-13.925 1.339,-9.991 1.116,-6.687 0.893,-4.158 0.893,-3.025 0.669,-1.492 0.447,-0.615 0.446,-0.308 0.446,0.003 0.447,0.314 0.446,0.627 0.67,1.525 0.669,2.219 0.893,4.018 0.893,5.184 1.116,8.022 1.339,11.656 1.563,15.896 2.232,25.425 3.124,35.49 1.563,15.358 1.339,11.075 1.116,7.497 0.893,4.76 0.893,3.608 0.669,1.931 0.67,1.26 0.446,0.467 0.447,0.169 0.446,-0.127 0.446,-0.419 0.447,-0.708 0.669,-1.592 0.67,-2.212 0.893,-3.869 0.893,-4.859 1.116,-7.341 1.339,-10.425 1.562,-13.927 2.455,-24.155 3.125,-30.507 1.786,-15.193 1.339,-9.618 1.116,-6.617 1.116,-5.207 0.893,-3.085 0.669,-1.659 0.67,-1.086 0.446,-0.403 0.447,-0.146 0.446,0.112 0.447,0.368 0.446,0.623 0.67,1.405 0.669,1.96 0.893,3.446 0.893,4.349 1.116,6.605 1.339,9.427 1.562,12.632 2.902,25.831 2.455,20.812 1.563,11.21 1.116,6.632 1.116,5.327 0.892,3.262 0.893,2.345 0.67,1.154 0.669,0.639 0.447,0.144 0.446,-0.076 0.447,-0.293 0.669,-0.832 0.67,-1.283 0.893,-2.365 0.892,-3.044 1.116,-4.631 1.34,-6.521 2.008,-11.002 3.125,-17.192 1.339,-6.311 1.116,-4.367 0.893,-2.792 0.893,-2.113 0.67,-1.124 0.669,-0.727 0.67,-0.338 0.446,-0.015 0.447,0.146 0.669,0.508 0.67,0.828 0.893,1.545 1.116,2.511 1.562,4.224 2.902,8.039 1.116,2.445 0.892,1.459 0.67,0.738 0.67,0.392 0.446,0.054 0.446,-0.121 0.447,-0.302 0.669,-0.801 0.67,-1.225 0.67,-1.645 0.892,-2.824 1.116,-4.471 1.34,-6.382 2.008,-10.867 3.125,-17.001 1.563,-7.186 1.116,-4.152 0.892,-2.586 0.67,-1.453 0.67,-1 0.446,-0.4 0.446,-0.177 0.447,0.052 0.446,0.287 0.447,0.527 0.669,1.252 0.67,1.813 0.893,3.297 0.892,4.296 1.116,6.737 1.116,8.163 1.34,11.457 1.785,17.446 5.357,54.198 1.339,10.954 1.116,7.583 0.893,4.882 0.893,3.714 0.669,1.965 0.67,1.225 0.446,0.392 0.447,0.046 0.446,-0.305 0.447,-0.661 0.446,-1.018 0.67,-2.2 0.669,-3.002 0.893,-5.233 0.893,-6.594 1.116,-10.04 1.339,-14.403 1.562,-19.402 2.679,-36.702 2.232,-29.316 1.562,-17.742 1.339,-12.575 1.116,-8.303 0.893,-5.094 0.67,-2.879 0.669,-2.054 0.447,-0.907 0.446,-0.536 0.447,-0.166 0.446,0.2 0.446,0.565 0.447,0.923 0.669,2.044 0.67,2.81 0.893,4.881 0.893,6.089 1.116,9.133 1.339,12.839 1.785,19.398 4.241,47.315 1.339,12.376 1.116,8.557 1.116,6.769 0.893,4.073 0.67,2.267 0.669,1.603 0.67,0.96 0.446,0.295 0.447,0.03 0.446,-0.224 0.447,-0.465 0.669,-1.123 0.67,-1.589 0.893,-2.758 1.116,-4.29 1.562,-7.115 5.134,-24.486 1.339,-4.993 1.116,-3.419 1.116,-2.76 0.893,-1.697 0.892,-1.294 0.893,-0.918 0.893,-0.574 0.893,-0.264 0.893,0.008 0.892,0.241 1.116,0.568 1.34,0.969 2.232,1.965 2.455,2.086 1.562,1.016 1.339,0.576 1.116,0.244 1.116,0.024 1.116,-0.184 1.34,-0.452 2.008,-0.961 2.679,-1.235 1.562,-0.494 1.563,-0.255 1.562,-0.008 1.562,0.211 2.009,0.504 5.803,1.62 2.009,0.256 2.009,0.096 0,0"
         clip-path="url(#p7ff5b81e1d)" />
    </g>
    <g
       style="stroke-linecap:square;stroke-linejoin:round"
       id="line2d_11">
      <path
         inkscape:connector-curvature="0"
         id="path9553"
         style="fill:none;stroke:#00bfbf;stroke-width:1.5;stroke-linecap:square;stroke-linejoin:round"
         d="m 72,216 0.2232,-0.221 0.2232,0.221 28.3466,-0.109 11.606,-0.103 4.241,0.21 5.134,0.545 6.026,0.648 2.902,0.085 2.455,-0.133 2.455,-0.35 2.678,-0.61 7.589,-1.908 2.232,-0.26 2.232,-0.034 2.232,0.196 2.455,0.442 7.143,1.479 1.562,0.004 1.563,-0.218 1.562,-0.435 2.009,-0.811 5.357,-2.357 1.339,-0.309 1.339,-0.079 1.116,0.144 1.116,0.356 1.116,0.58 1.116,0.805 1.339,1.247 1.563,1.783 2.232,2.933 3.348,4.405 1.562,1.709 1.339,1.144 1.116,0.672 0.893,0.329 0.893,0.127 0.893,-0.085 0.892,-0.303 0.893,-0.522 1.116,-0.956 1.116,-1.275 1.339,-1.9 1.786,-3.01 4.018,-7.011 1.116,-1.472 1.116,-1.107 0.892,-0.597 0.893,-0.331 0.893,-0.068 0.893,0.182 0.893,0.412 1.116,0.795 1.339,1.274 2.232,2.521 2.009,2.163 1.339,1.098 0.893,0.488 0.892,0.246 0.893,-0.033 0.67,-0.224 0.893,-0.58 0.892,-0.915 0.893,-1.26 1.116,-2.018 1.116,-2.48 1.563,-4.095 2.455,-7.234 2.232,-6.35 1.339,-3.188 1.116,-2.069 0.893,-1.169 0.669,-0.551 0.67,-0.244 0.446,0.018 0.447,0.169 0.669,0.549 0.67,0.912 0.67,1.283 0.892,2.294 0.893,2.951 1.116,4.572 1.339,6.641 1.563,8.975 4.91,29.246 1.339,6.386 1.116,4.384 0.893,2.809 0.893,2.141 0.67,1.148 0.669,0.743 0.447,0.268 0.446,0.085 0.446,-0.097 0.447,-0.281 0.669,-0.76 0.67,-1.161 0.893,-2.152 0.893,-2.811 1.116,-4.371 1.339,-6.353 1.562,-8.628 2.455,-15.078 2.679,-16.088 1.562,-8.08 1.339,-5.736 1.116,-3.813 0.893,-2.376 0.893,-1.76 0.67,-0.916 0.669,-0.572 0.67,-0.234 0.669,0.094 0.67,0.41 0.67,0.711 0.892,1.39 0.893,1.853 1.116,2.891 1.339,4.175 1.786,6.441 3.571,14.1 2.232,8.274 1.786,5.823 1.339,3.69 1.339,3.021 1.116,1.967 0.893,1.198 0.893,0.859 0.893,0.52 0.669,0.168 0.67,-0.018 0.669,-0.202 0.893,-0.545 0.893,-0.849 0.893,-1.135 1.116,-1.794 1.339,-2.645 1.562,-3.662 1.786,-4.772 2.678,-7.856 4.018,-11.818 1.786,-4.58 1.339,-2.91 1.116,-1.984 1.116,-1.514 0.893,-0.833 0.669,-0.386 0.67,-0.169 0.669,0.054 0.67,0.287 0.67,0.524 0.669,0.764 0.893,1.396 0.893,1.824 1.116,2.865 1.116,3.477 1.339,4.892 1.786,7.471 5.356,23.337 1.563,5.483 1.116,3.228 1.116,2.561 0.893,1.524 0.669,0.817 0.67,0.528 0.669,0.231 0.67,-0.073 0.67,-0.381 0.669,-0.69 0.67,-1 0.893,-1.812 0.892,-2.352 1.116,-3.674 1.116,-4.448 1.34,-6.275 1.562,-8.435 2.009,-12.188 5.58,-34.829 1.339,-6.859 1.116,-4.788 0.893,-3.097 0.893,-2.351 0.669,-1.226 0.67,-0.734 0.446,-0.2 0.447,0.038 0.446,0.283 0.446,0.536 0.67,1.287 0.67,1.877 0.669,2.478 0.893,4.245 0.893,5.313 1.116,8.103 1.339,11.734 1.562,16.099 2.009,23.499 4.687,55.785 1.34,13.263 1.116,9.265 0.892,5.995 0.893,4.56 0.67,2.393 0.446,1.076 0.447,0.644 0.446,0.2 0.446,-0.255 0.447,-0.718 0.446,-1.189 0.67,-2.676 0.669,-3.752 0.893,-6.669 0.893,-8.526 1.116,-13.127 1.339,-18.976 1.563,-25.597 4.687,-79.708 1.339,-17.83 1.116,-11.94 0.893,-7.464 0.893,-5.538 0.669,-2.883 0.67,-1.805 0.446,-0.617 0.447,-0.158 0.446,0.288 0.446,0.719 0.447,1.135 0.669,2.443 0.67,3.271 0.893,5.524 1.116,8.507 1.339,12.038 2.009,20.32 3.571,36.283 1.562,13.44 1.34,9.853 1.116,6.755 1.116,5.361 0.892,3.278 0.893,2.396 0.67,1.239 0.669,0.784 0.447,0.28 0.446,0.097 0.447,-0.077 0.669,-0.423 0.67,-0.76 0.893,-1.474 0.892,-1.916 1.34,-3.502 2.008,-6.052 3.125,-9.406 1.786,-4.641 2.009,-4.516 2.678,-5.95 1.562,-4.072 2.009,-5.933 3.571,-10.732 1.34,-3.215 0.892,-1.649 0.893,-1.148 0.67,-0.484 0.446,-0.125 0.447,0.041 0.446,0.215 0.67,0.662 0.669,1.082 0.67,1.511 0.893,2.686 0.892,3.436 1.116,5.277 1.34,7.56 2.008,12.921 2.456,15.527 1.339,7.239 1.116,5.037 1.116,4.002 0.893,2.411 0.669,1.335 0.67,0.931 0.669,0.532 0.447,0.136 0.446,-0.034 0.447,-0.2 0.669,-0.6 0.67,-0.945 0.893,-1.756 0.892,-2.274 1.116,-3.476 1.34,-4.926 1.785,-7.451 4.687,-20.128 1.34,-4.716 1.116,-3.249 1.116,-2.543 0.892,-1.496 0.893,-1.012 0.67,-0.449 0.669,-0.194 0.67,0.048 0.67,0.27 0.892,0.672 0.893,0.973 1.116,1.543 1.786,2.908 2.455,3.999 1.339,1.799 1.116,1.171 1.116,0.841 1.116,0.527 1.116,0.28 0.893,0.124 0,0"
         clip-path="url(#p7ff5b81e1d)" />
    </g>
    <g
       style="stroke-linecap:square;stroke-linejoin:round"
       id="line2d_12">
      <path
         inkscape:connector-curvature="0"
         id="path9556"
         style="fill:none;stroke:#bf00bf;stroke-width:1.5;stroke-linecap:square;stroke-linejoin:round"
         d="m 72,216 3.1248,0.196 1.5624,0.383 1.5624,0.608 2.0088,1.036 3.7944,2.044 1.5624,0.547 1.116,0.187 1.116,-0.025 1.116,-0.262 1.116,-0.517 1.116,-0.782 1.116,-1.042 1.3392,-1.575 2.0088,-2.823 2.0088,-3.424 4.687,-8.162 1.339,-1.877 1.116,-1.247 0.893,-0.74 0.893,-0.475 0.893,-0.18 0.669,0.075 0.67,0.267 0.67,0.465 0.892,0.942 0.893,1.316 0.893,1.69 1.116,2.626 1.339,3.847 1.563,5.278 2.678,10.071 2.455,8.932 1.563,4.935 1.339,3.527 1.116,2.339 0.893,1.43 0.892,1.007 0.67,0.462 0.67,0.202 0.669,-0.066 0.67,-0.34 0.669,-0.617 0.67,-0.897 0.893,-1.632 0.893,-2.125 1.116,-3.334 1.116,-4.052 1.339,-5.732 1.562,-7.707 2.232,-12.302 4.018,-22.467 1.562,-7.528 1.339,-5.403 1.116,-3.569 0.893,-2.148 0.67,-1.156 0.669,-0.74 0.447,-0.252 0.446,-0.053 0.447,0.153 0.446,0.361 0.67,0.943 0.669,1.43 0.67,1.924 0.893,3.334 0.892,4.202 1.116,6.429 1.34,9.314 1.562,12.734 2.232,20.465 3.348,30.807 1.562,12.506 1.34,9.03 1.116,6.049 0.892,3.738 0.67,2.107 0.67,1.478 0.446,0.623 0.446,0.327 0.447,0.024 0.446,-0.283 0.447,-0.592 0.446,-0.905 0.67,-1.942 0.669,-2.645 0.893,-4.603 0.893,-5.8 1.116,-8.84 1.339,-12.708 1.562,-17.187 2.456,-29.944 2.455,-29.286 1.562,-16.281 1.339,-11.712 1.116,-7.875 0.893,-4.941 0.893,-3.666 0.67,-1.887 0.669,-1.136 0.447,-0.339 0.446,-0.004 0.446,0.33 0.447,0.661 0.669,1.603 0.67,2.321 0.893,4.17 0.893,5.334 1.116,8.174 1.339,11.741 1.562,15.82 2.455,27.566 2.902,32.234 1.562,15.088 1.34,10.939 1.116,7.462 0.892,4.788 0.893,3.689 0.67,2.028 0.669,1.389 0.447,0.571 0.446,0.288 0.447,0.008 0.446,-0.268 0.446,-0.542 0.67,-1.313 0.67,-1.894 0.892,-3.386 0.893,-4.304 1.116,-6.542 1.339,-9.305 1.786,-14.254 5.803,-48.282 1.339,-8.733 1.116,-6.036 1.116,-4.811 0.893,-2.935 0.893,-2.118 0.67,-1.058 0.669,-0.613 0.447,-0.167 0.446,0.021 0.446,0.204 0.67,0.637 0.67,1.014 0.892,1.899 0.893,2.469 1.116,3.786 1.339,5.392 1.786,8.23 6.696,32.134 1.562,5.922 1.34,4.22 1.116,2.854 1.116,2.218 0.892,1.308 0.893,0.887 0.67,0.391 0.669,0.157 0.67,-0.073 0.67,-0.3 0.669,-0.521 0.893,-1.027 0.893,-1.392 1.116,-2.22 1.116,-2.711 1.339,-3.825 1.562,-5.12 2.232,-8.169 4.911,-18.382 1.562,-4.966 1.339,-3.6 1.116,-2.435 0.893,-1.529 0.893,-1.123 0.67,-0.56 0.669,-0.308 0.67,-0.047 0.669,0.218 0.67,0.488 0.67,0.761 0.892,1.438 0.893,1.915 1.116,3.043 1.116,3.72 1.339,5.258 1.786,8.062 5.357,25.236 1.339,5.061 1.116,3.541 1.116,2.845 0.893,1.737 0.893,1.235 0.669,0.587 0.67,0.291 0.669,-0.006 0.67,-0.305 0.67,-0.601 0.669,-0.896 0.893,-1.644 0.893,-2.14 1.116,-3.339 1.339,-4.897 1.562,-6.761 2.009,-9.872 4.018,-20.185 1.562,-6.679 1.339,-4.789 1.116,-3.217 0.893,-2.021 0.893,-1.504 0.67,-0.78 0.669,-0.478 0.67,-0.174 0.669,0.13 0.67,0.43 0.67,0.725 0.669,1.013 0.893,1.784 0.893,2.255 1.116,3.429 1.339,4.912 1.562,6.63 2.232,10.59 4.241,20.324 1.563,6.417 1.339,4.678 1.116,3.2 1.116,2.487 0.893,1.436 0.669,0.737 0.67,0.436 0.669,0.129 0.67,-0.182 0.67,-0.496 0.669,-0.809 0.67,-1.121 0.893,-1.972 0.892,-2.504 1.116,-3.839 1.34,-5.565 1.562,-7.625 2.009,-11.115 5.133,-29.249 1.563,-7.39 1.339,-5.227 1.116,-3.411 0.893,-2.034 0.669,-1.087 0.67,-0.694 0.446,-0.236 0.447,-0.051 0.446,0.137 0.447,0.328 0.669,0.853 0.67,1.291 0.669,1.727 0.893,2.974 0.893,3.726 1.116,5.661 1.339,8.139 1.563,11.046 2.232,17.656 3.348,26.482 1.562,10.734 1.339,7.769 1.116,5.24 0.893,3.281 0.893,2.407 0.669,1.202 0.447,0.505 0.446,0.262 0.447,0.018 0.446,-0.229 0.446,-0.477 0.67,-1.182 0.67,-1.741 0.892,-3.179 0.893,-4.133 1.116,-6.443 1.116,-7.753 1.339,-10.812 1.786,-16.391 5.803,-55.289 1.339,-10.181 1.116,-7.091 1.116,-5.637 0.893,-3.366 0.67,-1.818 0.669,-1.191 0.447,-0.439 0.446,-0.151 0.447,0.139 0.446,0.43 0.446,0.72 0.67,1.624 0.67,2.268 0.892,4.002 0.893,5.075 1.116,7.749 1.339,11.13 1.563,15.005 2.678,28.451 2.232,22.957 1.563,13.938 1.339,9.907 1.116,6.577 0.893,4.077 0.892,2.988 0.67,1.516 0.67,0.897 0.446,0.257 0.446,-0.013 0.447,-0.278 0.446,-0.536 0.67,-1.278 0.669,-1.822 0.893,-3.224 0.893,-4.059 1.116,-6.106 1.339,-8.573 2.009,-14.581 4.018,-29.692 1.339,-8.314 1.116,-5.808 1.116,-4.653 0.893,-2.849 0.892,-2.067 0.67,-1.046 0.67,-0.629 0.446,-0.198 0.446,-0.027 0.447,0.136 0.669,0.489 0.67,0.806 0.893,1.507 1.116,2.458 1.339,3.561 5.58,15.699 1.116,2.307 1.116,1.836 0.893,1.12 1.116,1.024 0.893,0.503 0.892,0.28 1.116,0.082 1.116,-0.157 1.34,-0.426 2.008,-0.93 3.795,-1.816 1.562,-0.493 1.339,-0.22 1.34,-0.007 1.339,0.215 1.339,0.428 1.562,0.732 2.232,1.331 2.902,1.687 1.562,0.677 1.563,0.435 1.562,0.176 1.563,-0.072 1.785,-0.332 2.232,-0.662 4.911,-1.52 2.455,-0.466 1.339,-0.179 0,0"
         clip-path="url(#p7ff5b81e1d)" />
    </g>
    <g
       style="stroke-linecap:square;stroke-linejoin:round"
       id="matplotlib.axis_1">
      <g
         style="stroke-linecap:square;stroke-linejoin:round"
         id="xtick_1">
        <g
           style="stroke-linecap:square;stroke-linejoin:round"
           id="line2d_13">
          <defs
             id="defs9561">
            <path
               inkscape:connector-curvature="0"
               style="stroke:#000000;stroke-width:0.5;stroke-linecap:butt;stroke-linejoin:round"
               id="mcb557df647"
               d="M 0,0 0,-4" />
          </defs>
          <g
             style="stroke-linecap:square;stroke-linejoin:round"
             id="g9564">
            <use
               height="432"
               width="576"
               id="use9566"
               y="388.79999"
               xlink:href="#mcb557df647"
               x="72"
               style="stroke:#000000;stroke-width:0.5;stroke-linecap:butt;stroke-linejoin:round" />
          </g>
        </g>
        <g
           style="stroke-linecap:square;stroke-linejoin:round"
           id="line2d_14">
          <defs
             id="defs9569">
            <path
               inkscape:connector-curvature="0"
               style="stroke:#000000;stroke-width:0.5;stroke-linecap:butt;stroke-linejoin:round"
               id="mdad270ee8e"
               d="M 0,0 0,4" />
          </defs>
          <g
             style="stroke-linecap:square;stroke-linejoin:round"
             id="g9572">
            <use
               height="432"
               width="576"
               id="use9574"
               y="43.200001"
               xlink:href="#mdad270ee8e"
               x="72"
               style="stroke:#000000;stroke-width:0.5;stroke-linecap:butt;stroke-linejoin:round" />
          </g>
        </g>
        <g
           style="stroke-linecap:square;stroke-linejoin:round"
           id="text_1">
          <text
             id="text9577"
             transform="translate(63.252187,401.705)"
             style="font-size:12px;font-style:normal;stroke-linecap:square;stroke-linejoin:round;font-family:Bitstream Vera Sans">0.0</text>
        </g>
      </g>
      <g
         style="stroke-linecap:square;stroke-linejoin:round"
         id="xtick_2">
        <g
           style="stroke-linecap:square;stroke-linejoin:round"
           id="line2d_15">
          <g
             style="stroke-linecap:square;stroke-linejoin:round"
             id="g9581">
            <use
               height="432"
               width="576"
               id="use9583"
               y="388.79999"
               xlink:href="#mcb557df647"
               x="183.60001"
               style="stroke:#000000;stroke-width:0.5;stroke-linecap:butt;stroke-linejoin:round" />
          </g>
        </g>
        <g
           style="stroke-linecap:square;stroke-linejoin:round"
           id="line2d_16">
          <g
             style="stroke-linecap:square;stroke-linejoin:round"
             id="g9586">
            <use
               height="432"
               width="576"
               id="use9588"
               y="43.200001"
               xlink:href="#mdad270ee8e"
               x="183.60001"
               style="stroke:#000000;stroke-width:0.5;stroke-linecap:butt;stroke-linejoin:round" />
          </g>
        </g>
        <g
           style="stroke-linecap:square;stroke-linejoin:round"
           id="text_2">
          <text
             id="text9591"
             transform="translate(174.97781,401.705)"
             style="font-size:12px;font-style:normal;stroke-linecap:square;stroke-linejoin:round;font-family:Bitstream Vera Sans">0.5</text>
        </g>
      </g>
      <g
         style="stroke-linecap:square;stroke-linejoin:round"
         id="xtick_3">
        <g
           style="stroke-linecap:square;stroke-linejoin:round"
           id="line2d_17">
          <g
             style="stroke-linecap:square;stroke-linejoin:round"
             id="g9595">
            <use
               height="432"
               width="576"
               id="use9597"
               y="388.79999"
               xlink:href="#mcb557df647"
               x="295.20001"
               style="stroke:#000000;stroke-width:0.5;stroke-linecap:butt;stroke-linejoin:round" />
          </g>
        </g>
        <g
           style="stroke-linecap:square;stroke-linejoin:round"
           id="line2d_18">
          <g
             style="stroke-linecap:square;stroke-linejoin:round"
             id="g9600">
            <use
               height="432"
               width="576"
               id="use9602"
               y="43.200001"
               xlink:href="#mdad270ee8e"
               x="295.20001"
               style="stroke:#000000;stroke-width:0.5;stroke-linecap:butt;stroke-linejoin:round" />
          </g>
        </g>
        <g
           style="stroke-linecap:square;stroke-linejoin:round"
           id="text_3">
          <text
             id="text9605"
             transform="translate(286.71562,401.705)"
             style="font-size:12px;font-style:normal;stroke-linecap:square;stroke-linejoin:round;font-family:Bitstream Vera Sans">1.0</text>
        </g>
      </g>
      <g
         style="stroke-linecap:square;stroke-linejoin:round"
         id="xtick_4">
        <g
           style="stroke-linecap:square;stroke-linejoin:round"
           id="line2d_19">
          <g
             style="stroke-linecap:square;stroke-linejoin:round"
             id="g9609">
            <use
               height="432"
               width="576"
               id="use9611"
               y="388.79999"
               xlink:href="#mcb557df647"
               x="406.79999"
               style="stroke:#000000;stroke-width:0.5;stroke-linecap:butt;stroke-linejoin:round" />
          </g>
        </g>
        <g
           style="stroke-linecap:square;stroke-linejoin:round"
           id="line2d_20">
          <g
             style="stroke-linecap:square;stroke-linejoin:round"
             id="g9614">
            <use
               height="432"
               width="576"
               id="use9616"
               y="43.200001"
               xlink:href="#mdad270ee8e"
               x="406.79999"
               style="stroke:#000000;stroke-width:0.5;stroke-linecap:butt;stroke-linejoin:round" />
          </g>
        </g>
        <g
           style="stroke-linecap:square;stroke-linejoin:round"
           id="text_4">
          <text
             id="text9619"
             transform="translate(398.44125,401.5475)"
             style="font-size:12px;font-style:normal;stroke-linecap:square;stroke-linejoin:round;font-family:Bitstream Vera Sans">1.5</text>
        </g>
      </g>
      <g
         style="stroke-linecap:square;stroke-linejoin:round"
         id="xtick_5">
        <g
           style="stroke-linecap:square;stroke-linejoin:round"
           id="line2d_21">
          <g
             style="stroke-linecap:square;stroke-linejoin:round"
             id="g9623">
            <use
               height="432"
               width="576"
               id="use9625"
               y="388.79999"
               xlink:href="#mcb557df647"
               x="518.40002"
               style="stroke:#000000;stroke-width:0.5;stroke-linecap:butt;stroke-linejoin:round" />
          </g>
        </g>
        <g
           style="stroke-linecap:square;stroke-linejoin:round"
           id="line2d_22">
          <g
             style="stroke-linecap:square;stroke-linejoin:round"
             id="g9628">
            <use
               height="432"
               width="576"
               id="use9630"
               y="43.200001"
               xlink:href="#mdad270ee8e"
               x="518.40002"
               style="stroke:#000000;stroke-width:0.5;stroke-linecap:butt;stroke-linejoin:round" />
          </g>
        </g>
        <g
           style="stroke-linecap:square;stroke-linejoin:round"
           id="text_5">
          <text
             id="text9633"
             transform="translate(509.69625,401.705)"
             style="font-size:12px;font-style:normal;stroke-linecap:square;stroke-linejoin:round;font-family:Bitstream Vera Sans">2.0</text>
        </g>
      </g>
      <g
         style="stroke-linecap:square;stroke-linejoin:round"
         id="text_6">
        <text
           id="text9636"
           transform="translate(285.71719,415.98625)"
           style="font-size:12px;font-style:normal;stroke-linecap:square;stroke-linejoin:round;font-family:Bitstream Vera Sans">$t$(s)</text>
      </g>
    </g>
    <g
       style="stroke-linecap:square;stroke-linejoin:round"
       id="matplotlib.axis_2">
      <g
         style="stroke-linecap:square;stroke-linejoin:round"
         id="ytick_1">
        <g
           style="stroke-linecap:square;stroke-linejoin:round"
           id="line2d_23">
          <path
             inkscape:connector-curvature="0"
             id="path9641"
             style="fill:none;stroke:#d3d3d3;stroke-width:0.5;stroke-linecap:square;stroke-linejoin:round"
             d="m 72,388.8 446.4,0"
             clip-path="url(#p7ff5b81e1d)" />
        </g>
        <g
           style="stroke-linecap:square;stroke-linejoin:round"
           id="line2d_24">
          <defs
             id="defs9644">
            <path
               inkscape:connector-curvature="0"
               style="stroke:#000000;stroke-width:0.5;stroke-linecap:butt;stroke-linejoin:round"
               id="mc8fcea1516"
               d="M 0,0 4,0" />
          </defs>
          <g
             style="stroke-linecap:square;stroke-linejoin:round"
             id="g9647">
            <use
               height="432"
               width="576"
               id="use9649"
               y="388.79999"
               xlink:href="#mc8fcea1516"
               x="72"
               style="stroke:#000000;stroke-width:0.5;stroke-linecap:butt;stroke-linejoin:round" />
          </g>
        </g>
        <g
           style="stroke-linecap:square;stroke-linejoin:round"
           id="line2d_25">
          <defs
             id="defs9652">
            <path
               inkscape:connector-curvature="0"
               style="stroke:#000000;stroke-width:0.5;stroke-linecap:butt;stroke-linejoin:round"
               id="m0d5b0a6425"
               d="M 0,0 -4,0" />
          </defs>
          <g
             style="stroke-linecap:square;stroke-linejoin:round"
             id="g9655">
            <use
               height="432"
               width="576"
               id="use9657"
               y="388.79999"
               xlink:href="#m0d5b0a6425"
               x="518.40002"
               style="stroke:#000000;stroke-width:0.5;stroke-linecap:butt;stroke-linejoin:round" />
          </g>
        </g>
        <g
           style="stroke-linecap:square;stroke-linejoin:round"
           id="text_7">
          <text
             id="text9660"
             transform="translate(57.295625,393.17437)"
             style="font-size:12px;font-style:normal;stroke-linecap:square;stroke-linejoin:round;font-family:Bitstream Vera Sans">-4</text>
        </g>
      </g>
      <g
         style="stroke-linecap:square;stroke-linejoin:round"
         id="ytick_2">
        <g
           style="stroke-linecap:square;stroke-linejoin:round"
           id="line2d_26">
          <path
             inkscape:connector-curvature="0"
             id="path9664"
             style="fill:none;stroke:#d3d3d3;stroke-width:0.5;stroke-linecap:square;stroke-linejoin:round"
             d="m 72,345.6 446.4,0"
             clip-path="url(#p7ff5b81e1d)" />
        </g>
        <g
           style="stroke-linecap:square;stroke-linejoin:round"
           id="line2d_27">
          <g
             style="stroke-linecap:square;stroke-linejoin:round"
             id="g9667">
            <use
               height="432"
               width="576"
               id="use9669"
               y="345.60001"
               xlink:href="#mc8fcea1516"
               x="72"
               style="stroke:#000000;stroke-width:0.5;stroke-linecap:butt;stroke-linejoin:round" />
          </g>
        </g>
        <g
           style="stroke-linecap:square;stroke-linejoin:round"
           id="line2d_28">
          <g
             style="stroke-linecap:square;stroke-linejoin:round"
             id="g9672">
            <use
               height="432"
               width="576"
               id="use9674"
               y="345.60001"
               xlink:href="#m0d5b0a6425"
               x="518.40002"
               style="stroke:#000000;stroke-width:0.5;stroke-linecap:butt;stroke-linejoin:round" />
          </g>
        </g>
        <g
           style="stroke-linecap:square;stroke-linejoin:round"
           id="text_8">
          <text
             id="text9677"
             transform="translate(57.584375,349.96656)"
             style="font-size:12px;font-style:normal;stroke-linecap:square;stroke-linejoin:round;font-family:Bitstream Vera Sans">-3</text>
        </g>
      </g>
      <g
         style="stroke-linecap:square;stroke-linejoin:round"
         id="ytick_3">
        <g
           style="stroke-linecap:square;stroke-linejoin:round"
           id="line2d_29">
          <path
             inkscape:connector-curvature="0"
             id="path9681"
             style="fill:none;stroke:#d3d3d3;stroke-width:0.5;stroke-linecap:square;stroke-linejoin:round"
             d="m 72,302.4 446.4,0"
             clip-path="url(#p7ff5b81e1d)" />
        </g>
        <g
           style="stroke-linecap:square;stroke-linejoin:round"
           id="line2d_30">
          <g
             style="stroke-linecap:square;stroke-linejoin:round"
             id="g9684">
            <use
               height="432"
               width="576"
               id="use9686"
               y="302.39999"
               xlink:href="#mc8fcea1516"
               x="72"
               style="stroke:#000000;stroke-width:0.5;stroke-linecap:butt;stroke-linejoin:round" />
          </g>
        </g>
        <g
           style="stroke-linecap:square;stroke-linejoin:round"
           id="line2d_31">
          <g
             style="stroke-linecap:square;stroke-linejoin:round"
             id="g9689">
            <use
               height="432"
               width="576"
               id="use9691"
               y="302.39999"
               xlink:href="#m0d5b0a6425"
               x="518.40002"
               style="stroke:#000000;stroke-width:0.5;stroke-linecap:butt;stroke-linejoin:round" />
          </g>
        </g>
        <g
           style="stroke-linecap:square;stroke-linejoin:round"
           id="text_9">
          <text
             id="text9694"
             transform="translate(57.824375,306.85312)"
             style="font-size:12px;font-style:normal;stroke-linecap:square;stroke-linejoin:round;font-family:Bitstream Vera Sans">-2</text>
        </g>
      </g>
      <g
         style="stroke-linecap:square;stroke-linejoin:round"
         id="ytick_4">
        <g
           style="stroke-linecap:square;stroke-linejoin:round"
           id="line2d_32">
          <path
             inkscape:connector-curvature="0"
             id="path9698"
             style="fill:none;stroke:#d3d3d3;stroke-width:0.5;stroke-linecap:square;stroke-linejoin:round"
             d="m 72,259.2 446.4,0"
             clip-path="url(#p7ff5b81e1d)" />
        </g>
        <g
           style="stroke-linecap:square;stroke-linejoin:round"
           id="line2d_33">
          <g
             style="stroke-linecap:square;stroke-linejoin:round"
             id="g9701">
            <use
               height="432"
               width="576"
               id="use9703"
               y="259.20001"
               xlink:href="#mc8fcea1516"
               x="72"
               style="stroke:#000000;stroke-width:0.5;stroke-linecap:butt;stroke-linejoin:round" />
          </g>
        </g>
        <g
           style="stroke-linecap:square;stroke-linejoin:round"
           id="line2d_34">
          <g
             style="stroke-linecap:square;stroke-linejoin:round"
             id="g9706">
            <use
               height="432"
               width="576"
               id="use9708"
               y="259.20001"
               xlink:href="#m0d5b0a6425"
               x="518.40002"
               style="stroke:#000000;stroke-width:0.5;stroke-linecap:butt;stroke-linejoin:round" />
          </g>
        </g>
        <g
           style="stroke-linecap:square;stroke-linejoin:round"
           id="text_10">
          <text
             id="text9711"
             transform="translate(57.730625,263.57437)"
             style="font-size:12px;font-style:normal;stroke-linecap:square;stroke-linejoin:round;font-family:Bitstream Vera Sans">-1</text>
        </g>
      </g>
      <g
         style="stroke-linecap:square;stroke-linejoin:round"
         id="ytick_5">
        <g
           style="stroke-linecap:square;stroke-linejoin:round"
           id="line2d_35">
          <path
             inkscape:connector-curvature="0"
             id="path9715"
             style="fill:none;stroke:#d3d3d3;stroke-width:0.5;stroke-linecap:square;stroke-linejoin:round"
             d="m 72,216 446.4,0"
             clip-path="url(#p7ff5b81e1d)" />
        </g>
        <g
           style="stroke-linecap:square;stroke-linejoin:round"
           id="line2d_36">
          <g
             style="stroke-linecap:square;stroke-linejoin:round"
             id="g9718">
            <use
               height="432"
               width="576"
               id="use9720"
               y="216"
               xlink:href="#mc8fcea1516"
               x="72"
               style="stroke:#000000;stroke-width:0.5;stroke-linecap:butt;stroke-linejoin:round" />
          </g>
        </g>
        <g
           style="stroke-linecap:square;stroke-linejoin:round"
           id="line2d_37">
          <g
             style="stroke-linecap:square;stroke-linejoin:round"
             id="g9723">
            <use
               height="432"
               width="576"
               id="use9725"
               y="216"
               xlink:href="#m0d5b0a6425"
               x="518.40002"
               style="stroke:#000000;stroke-width:0.5;stroke-linecap:butt;stroke-linejoin:round" />
          </g>
        </g>
        <g
           style="stroke-linecap:square;stroke-linejoin:round"
           id="text_11">
          <text
             id="text9728"
             transform="translate(61.953125,220.36656)"
             style="font-size:12px;font-style:normal;stroke-linecap:square;stroke-linejoin:round;font-family:Bitstream Vera Sans">0</text>
        </g>
      </g>
      <g
         style="stroke-linecap:square;stroke-linejoin:round"
         id="ytick_6">
        <g
           style="stroke-linecap:square;stroke-linejoin:round"
           id="line2d_38">
          <path
             inkscape:connector-curvature="0"
             id="path9732"
             style="fill:none;stroke:#d3d3d3;stroke-width:0.5;stroke-linecap:square;stroke-linejoin:round"
             d="m 72,172.8 446.4,0"
             clip-path="url(#p7ff5b81e1d)" />
        </g>
        <g
           style="stroke-linecap:square;stroke-linejoin:round"
           id="line2d_39">
          <g
             style="stroke-linecap:square;stroke-linejoin:round"
             id="g9735">
            <use
               height="432"
               width="576"
               id="use9737"
               y="172.8"
               xlink:href="#mc8fcea1516"
               x="72"
               style="stroke:#000000;stroke-width:0.5;stroke-linecap:butt;stroke-linejoin:round" />
          </g>
        </g>
        <g
           style="stroke-linecap:square;stroke-linejoin:round"
           id="line2d_40">
          <g
             style="stroke-linecap:square;stroke-linejoin:round"
             id="g9740">
            <use
               height="432"
               width="576"
               id="use9742"
               y="172.8"
               xlink:href="#m0d5b0a6425"
               x="518.40002"
               style="stroke:#000000;stroke-width:0.5;stroke-linecap:butt;stroke-linejoin:round" />
          </g>
        </g>
        <g
           style="stroke-linecap:square;stroke-linejoin:round"
           id="text_12">
          <text
             id="text9745"
             transform="translate(62.79125,177.17437)"
             style="font-size:12px;font-style:normal;stroke-linecap:square;stroke-linejoin:round;font-family:Bitstream Vera Sans">1</text>
        </g>
      </g>
      <g
         style="stroke-linecap:square;stroke-linejoin:round"
         id="ytick_7">
        <g
           style="stroke-linecap:square;stroke-linejoin:round"
           id="line2d_41">
          <path
             inkscape:connector-curvature="0"
             id="path9749"
             style="fill:none;stroke:#d3d3d3;stroke-width:0.5;stroke-linecap:square;stroke-linejoin:round"
             d="m 72,129.6 446.4,0"
             clip-path="url(#p7ff5b81e1d)" />
        </g>
        <g
           style="stroke-linecap:square;stroke-linejoin:round"
           id="line2d_42">
          <g
             style="stroke-linecap:square;stroke-linejoin:round"
             id="g9752">
            <use
               height="432"
               width="576"
               id="use9754"
               y="129.60001"
               xlink:href="#mc8fcea1516"
               x="72"
               style="stroke:#000000;stroke-width:0.5;stroke-linecap:butt;stroke-linejoin:round" />
          </g>
        </g>
        <g
           style="stroke-linecap:square;stroke-linejoin:round"
           id="line2d_43">
          <g
             style="stroke-linecap:square;stroke-linejoin:round"
             id="g9757">
            <use
               height="432"
               width="576"
               id="use9759"
               y="129.60001"
               xlink:href="#m0d5b0a6425"
               x="518.40002"
               style="stroke:#000000;stroke-width:0.5;stroke-linecap:butt;stroke-linejoin:round" />
          </g>
        </g>
        <g
           style="stroke-linecap:square;stroke-linejoin:round"
           id="text_13">
          <text
             id="text9762"
             transform="translate(62.44625,134.05312)"
             style="font-size:12px;font-style:normal;stroke-linecap:square;stroke-linejoin:round;font-family:Bitstream Vera Sans">2</text>
        </g>
      </g>
      <g
         style="stroke-linecap:square;stroke-linejoin:round"
         id="ytick_8">
        <g
           style="stroke-linecap:square;stroke-linejoin:round"
           id="line2d_44">
          <path
             inkscape:connector-curvature="0"
             id="path9766"
             style="fill:none;stroke:#d3d3d3;stroke-width:0.5;stroke-linecap:square;stroke-linejoin:round"
             d="m 72,86.4 446.4,0"
             clip-path="url(#p7ff5b81e1d)" />
        </g>
        <g
           style="stroke-linecap:square;stroke-linejoin:round"
           id="line2d_45">
          <g
             style="stroke-linecap:square;stroke-linejoin:round"
             id="g9769">
            <use
               height="432"
               width="576"
               id="use9771"
               y="86.400002"
               xlink:href="#mc8fcea1516"
               x="72"
               style="stroke:#000000;stroke-width:0.5;stroke-linecap:butt;stroke-linejoin:round" />
          </g>
        </g>
        <g
           style="stroke-linecap:square;stroke-linejoin:round"
           id="line2d_46">
          <g
             style="stroke-linecap:square;stroke-linejoin:round"
             id="g9774">
            <use
               height="432"
               width="576"
               id="use9776"
               y="86.400002"
               xlink:href="#m0d5b0a6425"
               x="518.40002"
               style="stroke:#000000;stroke-width:0.5;stroke-linecap:butt;stroke-linejoin:round" />
          </g>
        </g>
        <g
           style="stroke-linecap:square;stroke-linejoin:round"
           id="text_14">
          <text
             id="text9779"
             transform="translate(62.241875,90.766563)"
             style="font-size:12px;font-style:normal;stroke-linecap:square;stroke-linejoin:round;font-family:Bitstream Vera Sans">3</text>
        </g>
      </g>
      <g
         style="stroke-linecap:square;stroke-linejoin:round"
         id="ytick_9">
        <g
           style="stroke-linecap:square;stroke-linejoin:round"
           id="line2d_47">
          <path
             inkscape:connector-curvature="0"
             id="path9783"
             style="fill:none;stroke:#d3d3d3;stroke-width:0.5;stroke-linecap:square;stroke-linejoin:round"
             d="m 72,43.2 446.4,0"
             clip-path="url(#p7ff5b81e1d)" />
        </g>
        <g
           style="stroke-linecap:square;stroke-linejoin:round"
           id="line2d_48">
          <g
             style="stroke-linecap:square;stroke-linejoin:round"
             id="g9786">
            <use
               height="432"
               width="576"
               id="use9788"
               y="43.200001"
               xlink:href="#mc8fcea1516"
               x="72"
               style="stroke:#000000;stroke-width:0.5;stroke-linecap:butt;stroke-linejoin:round" />
          </g>
        </g>
        <g
           style="stroke-linecap:square;stroke-linejoin:round"
           id="line2d_49">
          <g
             style="stroke-linecap:square;stroke-linejoin:round"
             id="g9791">
            <use
               height="432"
               width="576"
               id="use9793"
               y="43.200001"
               xlink:href="#m0d5b0a6425"
               x="518.40002"
               style="stroke:#000000;stroke-width:0.5;stroke-linecap:butt;stroke-linejoin:round" />
          </g>
        </g>
        <g
           style="stroke-linecap:square;stroke-linejoin:round"
           id="text_15">
          <text
             id="text9796"
             transform="translate(61.625,47.574375)"
             style="font-size:12px;font-style:normal;stroke-linecap:square;stroke-linejoin:round;font-family:Bitstream Vera Sans">4</text>
        </g>
      </g>
      <g
         style="stroke-linecap:square;stroke-linejoin:round"
         id="text_16">
        <text
           id="text9799"
           transform="matrix(0,-1,1,0,52.295625,295.09375)"
           style="font-size:12px;font-style:normal;stroke-linecap:square;stroke-linejoin:round;font-family:Bitstream Vera Sans">Foot kinematic constraints</text>
      </g>
      <g
         style="stroke-linecap:square;stroke-linejoin:round"
         id="text_17">
        <text
           id="text9802"
           transform="translate(72,40.19875)"
           style="font-size:12px;font-style:normal;stroke-linecap:square;stroke-linejoin:round;font-family:Bitstream Vera Sans">1e-6</text>
      </g>
    </g>
    <g
       style="stroke-linecap:square;stroke-linejoin:round"
       id="patch_3">
      <path
         inkscape:connector-curvature="0"
         id="path9805"
         style="fill:none;stroke:#000000;stroke-linecap:square;stroke-linejoin:round"
         d="m 72,43.2 446.4,0" />
    </g>
    <g
       style="stroke-linecap:square;stroke-linejoin:round"
       id="patch_4">
      <path
         inkscape:connector-curvature="0"
         id="path9808"
         style="fill:none;stroke:#000000;stroke-linecap:square;stroke-linejoin:round"
         d="m 518.4,388.8 0,-345.6" />
    </g>
    <g
       style="stroke-linecap:square;stroke-linejoin:round"
       id="patch_5">
      <path
         inkscape:connector-curvature="0"
         id="path9811"
         style="fill:none;stroke:#000000;stroke-linecap:square;stroke-linejoin:round"
         d="m 72,388.8 446.4,0" />
    </g>
    <g
       style="stroke-linecap:square;stroke-linejoin:round"
       id="patch_6">
      <path
         inkscape:connector-curvature="0"
         id="path9814"
         style="fill:none;stroke:#000000;stroke-linecap:square;stroke-linejoin:round"
         d="M 72,388.8 72,43.2" />
    </g>
  </g>
  <defs
     id="defs9816">
    <clipPath
       id="p7ff5b81e1d">
      <rect
         height="345.6"
         width="446.4"
         x="72.0"
         y="43.2"
         id="rect9819" />
    </clipPath>
  </defs>
</svg>
