<?xml version="1.0" encoding="UTF-8" standalone="no"?>
<!-- Created with matplotlib (http://matplotlib.org/) -->

<svg
   xmlns:dc="http://purl.org/dc/elements/1.1/"
   xmlns:cc="http://creativecommons.org/ns#"
   xmlns:rdf="http://www.w3.org/1999/02/22-rdf-syntax-ns#"
   xmlns:svg="http://www.w3.org/2000/svg"
   xmlns="http://www.w3.org/2000/svg"
   xmlns:xlink="http://www.w3.org/1999/xlink"
   xmlns:sodipodi="http://sodipodi.sourceforge.net/DTD/sodipodi-0.dtd"
   xmlns:inkscape="http://www.inkscape.org/namespaces/inkscape"
   height="432pt"
   version="1.1"
   viewBox="0 0 576 432"
   width="576pt"
   id="svg8224"
   inkscape:version="0.48.2 r9819"
   sodipodi:docname="zmp-2s-final-d.svg">
  <metadata
     id="metadata8529">
    <rdf:RDF>
      <cc:Work
         rdf:about="">
        <dc:format>image/svg+xml</dc:format>
        <dc:type
           rdf:resource="http://purl.org/dc/dcmitype/StillImage" />
      </cc:Work>
    </rdf:RDF>
  </metadata>
  <sodipodi:namedview
     pagecolor="#ffffff"
     bordercolor="#666666"
     borderopacity="1"
     objecttolerance="10"
     gridtolerance="10"
     guidetolerance="10"
     inkscape:pageopacity="0"
     inkscape:pageshadow="2"
     inkscape:window-width="1440"
     inkscape:window-height="825"
     id="namedview8527"
     showgrid="false"
     inkscape:zoom="0.87407407"
     inkscape:cx="280.478"
     inkscape:cy="290.20414"
     inkscape:window-x="0"
     inkscape:window-y="148"
     inkscape:window-maximized="1"
     inkscape:current-layer="svg8224" />
  <defs
     id="defs8226">
    <style
       type="text/css"
       id="style8228">
*{stroke-linecap:square;stroke-linejoin:round;}
  </style>
  </defs>
  <g
     id="patch_2"
     style="stroke-linecap:square;stroke-linejoin:round">
    <path
       d="m 72,388.8 446.4,0 0,-345.6 -446.4,0 z"
       style="fill:#ffffff;stroke-linecap:square;stroke-linejoin:round"
       id="path8236"
       inkscape:connector-curvature="0" />
  </g>
  <g
     id="line2d_1"
     style="stroke-linecap:square;stroke-linejoin:round">
    <path
       clip-path="url(#p7ff5b81e1d)"
       d="m 72,319.585 22.32,-0.109 12.276,-0.295 10.49,-0.477 9.598,-0.655 9.151,-0.847 8.482,-1.006 8.258,-1.207 7.812,-1.364 7.812,-1.59 7.812,-1.82 8.035,-2.107 8.259,-2.398 9.151,-2.899 10.937,-3.713 17.856,-6.338 21.873,-7.708 10.268,-3.376 9.374,-2.852 8.705,-2.422 8.928,-2.237 7.589,-1.691 8.035,-1.567 7.589,-1.264 7.588,-1.044 7.812,-0.84 8.036,-0.617 7.588,-0.362 8.259,-0.168 8.928,0.062 8.705,0.288 9.597,0.556 10.714,0.858 15.624,1.52 33.257,3.324 15.4,1.282 11.83,0.776 11.606,0.551 12.053,0.358 12.276,0.176 16.517,0.046 0,0"
       style="fill:none;stroke:#0000ff;stroke-width:1.5;stroke-linecap:square;stroke-linejoin:round"
       id="path8239"
       inkscape:connector-curvature="0" />
  </g>
  <g
     id="line2d_2"
     style="stroke-linecap:square;stroke-linejoin:round">
    <path
       clip-path="url(#p7ff5b81e1d)"
       d="m 72,305.167 19.8648,-0.111 11.8292,-0.297 10.937,-0.499 10.491,-0.7 10.49,-0.919 10.714,-1.161 10.936,-1.407 11.384,-1.689 12.052,-2.018 13.169,-2.439 16.294,-3.262 45.086,-9.138 16.963,-3.155 14.508,-2.473 14.285,-2.175 11.16,-1.475 11.607,-1.3 9.82,-0.905 11.16,-0.811 11.384,-0.596 12.276,-0.399 12.276,-0.175 15.624,0.029 26.56,0.384 68.076,0.945 27.454,0.048 0,0"
       style="fill:none;stroke:#008000;stroke-width:1.5;stroke-linecap:square;stroke-linejoin:round"
       id="path8242"
       inkscape:connector-curvature="0" />
  </g>
  <g
     id="line2d_3"
     style="stroke-linecap:square;stroke-linejoin:round">
    <path
       clip-path="url(#p7ff5b81e1d)"
       d="m 72,227.605 33.48,-0.109 20.534,-0.321 22.544,-0.576 32.81,-1.126 37.274,-1.333 16.517,-0.407 10.714,0.219 11.383,0.431 11.83,0.657 12.722,0.932 13.615,1.235 13.169,1.401 14.731,1.785 16.071,2.184 21.65,3.183 37.721,5.534 14.285,1.845 13.615,1.542 11.829,1.142 12.276,0.968 11.83,0.714 12.053,0.513 13.615,0.346 14.731,0.158 15.401,0.027 0,0"
       style="fill:none;stroke:#ff0000;stroke-width:1.5;stroke-linecap:square;stroke-linejoin:round"
       id="path8245"
       inkscape:connector-curvature="0" />
  </g>
  <g
     id="line2d_4"
     style="stroke-linecap:square;stroke-linejoin:round">
    <path
       clip-path="url(#p7ff5b81e1d)"
       d="m 72,208.454 30.355,-0.111 20.311,-0.319 15.624,-0.471 10.937,-0.534 9.821,-0.693 6.473,-0.445 6.473,0.879 5.803,1.019 5.803,1.249 5.803,1.486 5.58,1.65 6.027,2.027 5.803,2.194 5.803,2.435 5.803,2.677 6.027,3.03 6.249,3.398 6.919,4.036 7.589,4.711 8.035,5.247 11.83,8.04 26.784,18.322 6.696,4.224 5.58,3.245 4.687,2.482 4.464,2.127 4.464,1.879 4.241,1.542 4.018,1.234 4.017,1.001 3.795,0.721 3.794,0.49 3.571,0.242 3.571,0.022 3.572,-0.202 3.571,-0.424 3.571,-0.643 3.794,-0.914 3.795,-1.136 4.017,-1.428 4.464,-1.832 4.688,-2.17 5.133,-2.626 5.803,-3.221 7.589,-4.493 24.106,-14.491 4.464,-2.245 4.464,-2.015 4.687,-1.882 4.91,-1.733 5.134,-1.568 5.357,-1.393 5.58,-1.212 6.249,-1.1 6.473,-0.89 6.473,-0.674 7.589,-0.557 8.035,-0.366 9.821,-0.218 14.508,-0.077 5.803,-0.002 0,0"
       style="fill:none;stroke:#00bfbf;stroke-width:1.5;stroke-linecap:square;stroke-linejoin:round"
       id="path8248"
       inkscape:connector-curvature="0" />
  </g>
  <g
     id="line2d_5"
     style="stroke-linecap:square;stroke-linejoin:round">
    <path
       clip-path="url(#p7ff5b81e1d)"
       d="m 72,255.225 17.4096,-0.11 10.9364,-0.335 9.152,-0.532 8.258,-0.729 6.919,-0.823 6.696,-1.009 6.25,-1.158 6.026,-1.338 5.357,-1.391 5.803,-1.742 5.58,-1.687 5.803,1.292 6.027,1.575 6.026,1.826 5.803,2.003 5.58,2.156 5.804,2.478 6.026,2.822 5.58,2.836 6.026,3.309 6.027,3.563 6.473,4.104 6.919,4.685 10.044,7.158 23.659,16.918 8.035,5.421 6.473,4.101 5.134,3.007 4.464,2.37 4.017,1.882 3.571,1.428 3.348,1.094 3.125,0.78 2.902,0.499 2.901,0.267 2.679,0.033 2.678,-0.177 2.679,-0.385 2.678,-0.598 2.902,-0.886 2.901,-1.133 2.902,-1.379 2.901,-1.621 3.125,-2.012 4.018,-2.893 4.687,-3.623 4.687,-3.9 4.911,-4.386 5.356,-5.104 12.053,-11.543 6.25,-5.207 6.026,-4.729 5.58,-4.104 5.58,-3.828 5.357,-3.411 10.044,-6.015 9.151,-5.31 6.027,-3.208 5.803,-2.843 5.803,-2.595 5.58,-2.258 5.803,-2.1 5.803,-1.848 5.58,-1.544 5.804,-1.37 5.803,-1.138 6.026,-0.947 6.25,-0.746 6.473,-0.544 7.142,-0.373 8.928,-0.214 12.276,-0.052 0,0"
       style="fill:none;stroke:#bf00bf;stroke-width:1.5;stroke-linecap:square;stroke-linejoin:round"
       id="path8251"
       inkscape:connector-curvature="0" />
  </g>
  <g
     id="line2d_6"
     style="stroke-linecap:square;stroke-linejoin:round">
    <path
       clip-path="url(#p7ff5b81e1d)"
       d="m 72,288.632 13.392,-0.109 7.5888,-0.293 6.4728,-0.467 6.0264,-0.656 5.58,-0.83 5.357,-1.021 5.133,-1.207 4.911,-1.382 4.687,-1.543 4.687,-1.774 4.687,-2.019 4.464,-2.162 4.464,-2.407 4.464,-2.658 1.34,-0.768 5.58,3.175 6.249,3.837 6.696,4.38 8.928,6.131 17.633,12.424 6.026,4.166 4.911,3.134 4.464,2.585 4.017,2.069 3.795,1.696 3.571,1.347 3.348,1.025 3.348,0.788 3.348,0.548 3.348,0.311 3.348,0.082 6.473,0.031 4.241,0.293 4.24,0.51 4.464,0.768 4.464,1.001 4.464,1.23 7.812,2.245 4.688,1.048 3.124,0.496 2.902,0.246 2.902,0.03 2.901,-0.193 2.902,-0.417 2.901,-0.639 8.259,-2.231 6.919,-2.097 6.026,-2.056 5.134,-1.977 4.687,-2.042 4.241,-2.09 4.018,-2.23 3.794,-2.356 3.794,-2.624 3.795,-2.899 3.794,-3.173 4.018,-3.649 4.241,-4.157 4.464,-4.688 14.061,-15.109 6.919,-7.029 6.25,-6.029 5.803,-5.29 5.357,-4.605 5.357,-4.329 5.58,-4.213 5.58,-3.91 6.026,-3.944 5.803,-3.523 5.357,-2.991 5.357,-2.725 4.91,-2.257 5.134,-2.108 4.91,-1.775 5.134,-1.62 5.58,-1.544 5.58,-1.301 5.134,-0.973 5.58,-0.815 5.58,-0.58 6.249,-0.408 7.143,-0.222 10.49,-0.06 0,0"
       style="fill:none;stroke:#bfbf00;stroke-width:1.5;stroke-linecap:square;stroke-linejoin:round"
       id="path8254"
       inkscape:connector-curvature="0" />
  </g>
  <g
     id="line2d_7"
     style="stroke-linecap:square;stroke-linejoin:round">
    <path
       clip-path="url(#p7ff5b81e1d)"
       d="m 72,304.172 12.9456,-0.111 7.1424,-0.288 6.2496,-0.472 5.5804,-0.634 5.356,-0.828 5.134,-1.021 4.91,-1.205 4.688,-1.378 4.687,-1.615 4.464,-1.774 4.464,-2.016 4.464,-2.27 2.678,-1.323 5.134,3.278 5.58,3.842 6.696,4.904 12.722,9.682 11.16,8.598 3.571,2.396 3.125,1.85 2.902,1.462 2.678,1.094 2.455,0.76 2.232,0.472 2.456,0.28 7.588,0.81 6.25,0.887 5.803,1.048 4.018,0.715 2.455,0.158 2.455,-0.073 2.455,-0.296 2.679,-0.561 2.678,-0.791 2.902,-1.085 3.348,-1.507 3.571,-1.853 4.241,-2.458 9.821,-5.843 4.464,-2.288 4.24,-1.929 4.241,-1.682 4.018,-1.357 4.017,-1.118 3.795,-0.83 3.794,-0.602 3.795,-0.369 3.794,-0.138 12.722,-0.375 8.259,-0.464 6.026,-0.548 4.687,-0.634 4.018,-0.758 3.571,-0.892 3.348,-1.066 3.125,-1.224 3.125,-1.466 3.125,-1.719 3.124,-1.977 3.572,-2.538 2.901,-2.355 3.348,-2.998 2.902,-2.866 2.901,-3.159 3.125,-3.719 3.348,-4.316 13.839,-18.351 6.026,-7.587 5.58,-6.68 5.357,-6.053 4.91,-5.216 4.687,-4.669 4.688,-4.36 4.464,-3.862 4.464,-3.578 4.464,-3.294 4.24,-2.871 4.464,-2.751 4.241,-2.365 6.473,-3.291 5.58,-2.589 5.134,-2.132 4.91,-1.789 4.91,-1.531 4.688,-1.215 4.687,-0.98 4.91,-0.787 5.134,-0.583 5.133,-0.374 6.25,-0.232 8.705,-0.072 1.339,-0.001 0,0"
       style="fill:none;stroke:#000000;stroke-width:1.5;stroke-linecap:square;stroke-linejoin:round"
       id="path8257"
       inkscape:connector-curvature="0" />
  </g>
  <g
     id="line2d_8"
     style="stroke-linecap:square;stroke-linejoin:round">
    <path
       clip-path="url(#p7ff5b81e1d)"
       d="m 72,278.261 12.7224,-0.11 7.1424,-0.29 6.2496,-0.479 5.3566,-0.615 5.357,-0.836 4.91,-0.983 4.911,-1.213 4.687,-1.393 4.464,-1.555 4.464,-1.793 4.241,-1.937 4.464,-2.299 4.241,-2.439 3.571,-2.256 0.446,0.298 4.687,3.969 5.134,4.652 5.803,5.573 8.705,8.737 10.49,10.773 4.688,4.75 3.348,3.102 3.124,2.587 2.679,1.925 2.232,1.355 2.232,1.091 2.009,0.734 2.008,0.479 1.786,0.203 1.786,-0.012 1.785,-0.226 1.786,-0.434 2.009,-0.724 4.91,-1.849 5.58,-2.072 2.455,-1.291 2.679,-1.689 2.901,-2.108 3.348,-2.727 4.018,-3.581 5.357,-4.719 5.133,-4.223 4.687,-3.58 4.688,-3.299 4.464,-2.866 4.24,-2.461 4.018,-2.084 4.018,-1.832 3.794,-1.49 3.794,-1.248 3.572,-0.946 3.571,-0.717 3.348,-0.46 3.571,-0.258 3.348,-0.018 3.348,0.205 3.348,0.436 3.125,0.626 3.125,0.846 3.124,1.079 6.25,2.535 5.357,2.327 3.125,1.334 5.133,1.873 2.455,0.677 2.232,0.401 2.232,0.177 2.232,-0.066 2.009,-0.278 2.009,-0.493 2.009,-0.713 2.009,-0.934 2.232,-1.296 2.232,-1.565 2.455,-2.02 2.455,-2.32 2.678,-2.855 2.902,-3.447 2.902,-3.787 3.348,-4.742 3.571,-5.436 4.017,-6.525 5.58,-9.045 5.134,-7.904 4.91,-7.143 4.688,-6.413 4.464,-5.727 4.464,-5.354 4.464,-4.982 4.24,-4.392 4.241,-4.065 4.241,-3.742 4.018,-3.257 4.017,-2.983 4.018,-2.716 4.687,-2.886 6.696,-3.901 5.357,-2.882 4.91,-2.402 4.687,-2.05 4.464,-1.714 4.464,-1.475 4.464,-1.234 4.464,-1 4.464,-0.777 4.688,-0.598 5.356,-0.443 5.804,-0.25 6.919,-0.09 3.571,-0.004 0,0"
       style="fill:none;stroke:#0000ff;stroke-width:1.5;stroke-linecap:square;stroke-linejoin:round"
       id="path8260"
       inkscape:connector-curvature="0" />
  </g>
  <g
     id="line2d_9"
     style="stroke-linecap:square;stroke-linejoin:round">
    <path
       clip-path="url(#p7ff5b81e1d)"
       d="m 72,288.774 11.3832,-0.105 6.4728,-0.288 5.58,-0.465 5.134,-0.648 4.91,-0.848 4.687,-1.042 4.464,-1.224 4.241,-1.39 4.241,-1.626 4.241,-1.872 4.91,-2.417 4.91,-2.658 4.241,-2.522 4.018,-2.656 0.446,-0.274 4.464,3.878 4.911,4.565 5.58,5.507 7.588,7.836 8.928,9.164 4.241,4.028 6.919,6.225 2.456,1.872 2.232,1.426 2.008,1.019 1.786,0.667 1.786,0.421 1.562,0.152 1.562,-0.057 2.232,-0.335 2.232,-0.57 2.232,-0.803 2.456,-1.141 4.017,-2.157 2.902,-1.859 3.125,-2.279 3.348,-2.717 3.794,-3.364 4.464,-4.262 5.357,-5.435 11.16,-11.466 4.687,-4.383 4.464,-3.883 4.241,-3.409 4.017,-2.963 4.018,-2.69 3.794,-2.277 3.572,-1.899 3.571,-1.652 3.348,-1.318 3.348,-1.088 3.125,-0.802 2.008,-0.344 6.027,-0.529 3.125,-0.035 5.356,0.206 5.134,0.415 4.91,0.623 4.911,0.859 8.928,1.671 3.125,0.237 2.901,-0.01 2.679,-0.232 2.678,-0.468 2.455,-0.655 2.455,-0.882 2.456,-1.121 2.455,-1.367 2.455,-1.614 2.455,-1.864 2.679,-2.315 2.678,-2.602 2.902,-3.134 2.901,-3.448 3.125,-4.047 3.348,-4.695 3.571,-5.383 4.241,-6.816 4.687,-7.985 4.911,-8.226 4.687,-7.411 4.464,-6.63 4.241,-5.896 4.017,-5.221 4.018,-4.867 4.017,-4.518 3.795,-3.953 4.017,-3.861 3.795,-3.347 3.794,-3.066 3.795,-2.795 7.365,-5.022 7.366,-4.792 5.58,-3.36 5.133,-2.818 4.688,-2.311 4.464,-1.949 4.464,-1.693 4.24,-1.368 4.241,-1.138 4.241,-0.918 4.464,-0.742 4.91,-0.578 5.357,-0.386 6.027,-0.202 8.258,-0.05 0,0"
       style="fill:none;stroke:#008000;stroke-width:1.5;stroke-linecap:square;stroke-linejoin:round"
       id="path8263"
       inkscape:connector-curvature="0" />
  </g>
  <g
     id="line2d_10"
     style="stroke-linecap:square;stroke-linejoin:round">
    <path
       clip-path="url(#p7ff5b81e1d)"
       d="m 72,255.795 12.7224,-0.106 7.3656,-0.297 6.2496,-0.474 6.0264,-0.698 5.134,-0.81 5.133,-1.033 5.134,-1.278 2.455,-0.673 4.687,1.661 4.911,1.988 4.91,2.235 4.91,2.473 4.464,2.487 4.688,2.868 6.249,4.115 18.526,12.355 4.017,2.308 3.572,1.799 3.124,1.331 3.125,1.087 2.902,0.767 2.678,0.484 2.679,0.257 2.678,0.022 2.678,-0.213 2.679,-0.446 6.919,-1.355 5.134,-1.006 2.901,-0.866 3.125,-1.181 3.125,-1.417 3.571,-1.874 3.794,-2.247 4.464,-2.915 5.134,-3.624 6.919,-5.169 5.357,-3.938 4.687,-3.16 4.464,-2.746 4.464,-2.476 4.018,-1.987 4.241,-1.839 3.794,-1.412 4.018,-1.244 3.794,-0.931 3.571,-0.652 3.571,-0.43 3.348,-0.196 3.348,0.011 3.572,0.248 3.348,0.463 3.124,0.642 3.348,0.924 3.125,1.096 3.795,1.59 5.58,2.564 7.588,3.764 3.795,2.026 3.125,1.611 4.687,2.108 2.455,0.892 2.455,0.648 2.232,0.36 2.232,0.126 2.009,-0.095 2.009,-0.298 2.009,-0.506 2.232,-0.81 2.232,-1.069 2.232,-1.326 2.232,-1.581 2.455,-2.023 2.455,-2.309 2.678,-2.828 2.902,-3.4 3.125,-4.015 3.571,-4.959 3.794,-5.651 8.705,-13.171 4.687,-6.585 4.464,-5.906 4.464,-5.543 4.464,-5.175 4.241,-4.574 4.241,-4.244 4.018,-3.718 4.017,-3.428 4.018,-3.144 4.017,-2.867 4.241,-2.734 4.241,-2.445 4.018,-2.06 4.24,-1.915 5.357,-2.119 5.134,-1.792 4.91,-1.476 4.911,-1.231 4.687,-0.948 4.687,-0.735 5.134,-0.58 5.356,-0.387 6.25,-0.228 8.705,-0.072 1.339,0 0,0"
       style="fill:none;stroke:#ff0000;stroke-width:1.5;stroke-linecap:square;stroke-linejoin:round"
       id="path8266"
       inkscape:connector-curvature="0" />
  </g>
  <g
     id="line2d_11"
     style="stroke-linecap:square;stroke-linejoin:round">
    <path
       clip-path="url(#p7ff5b81e1d)"
       d="m 72,275.099 12.276,0.11 6.696,0.277 6.0264,0.464 5.5796,0.651 4.911,0.775 4.91,0.985 4.911,1.21 4.687,1.381 5.133,1.748 5.58,2.14 6.25,2.645 9.374,4.25 7.812,3.455 4.464,1.744 3.572,1.177 3.124,0.815 2.902,0.536 2.678,0.275 2.456,0.044 2.455,-0.171 2.455,-0.401 2.455,-0.639 2.455,-0.883 2.456,-1.129 2.455,-1.371 2.678,-1.764 2.679,-2.031 2.901,-2.483 3.348,-3.18 8.035,-7.643 6.027,-5.435 6.473,-5.778 4.24,-4.191 6.027,-6.327 6.919,-7.144 5.357,-5.197 4.91,-4.471 4.687,-3.981 4.464,-3.517 4.241,-3.078 4.241,-2.809 4.018,-2.402 4.017,-2.137 3.795,-1.764 3.571,-1.428 3.571,-1.195 3.571,-0.954 3.571,-0.708 3.348,-0.434 3.348,-0.207 3.125,0.015 3.348,0.249 3.125,0.455 3.125,0.681 2.232,0.686 4.241,1.701 3.348,1.561 3.124,1.72 4.241,2.57 7.366,4.549 4.464,2.488 3.571,1.745 3.125,1.294 2.901,0.968 2.679,0.667 2.678,0.428 2.455,0.165 2.456,-0.065 2.232,-0.268 2.232,-0.473 2.232,-0.683 2.455,-1 2.455,-1.263 2.455,-1.526 2.455,-1.786 2.679,-2.24 2.678,-2.535 2.902,-3.059 3.125,-3.632 3.348,-4.243 3.571,-4.874 4.464,-6.493 5.133,-7.894 4.241,-6.403 4.018,-5.702 4.017,-5.345 4.018,-4.988 4.018,-4.634 4.017,-4.284 4.018,-3.94 3.794,-3.412 3.795,-3.12 3.794,-2.838 3.794,-2.565 3.795,-2.305 4.017,-2.169 4.018,-1.904 4.018,-1.655 4.464,-1.585 5.133,-1.594 5.134,-1.346 5.133,-1.092 4.911,-0.812 5.133,-0.623 5.58,-0.441 6.25,-0.261 7.812,-0.094 3.348,-0.002 0,0"
       style="fill:none;stroke:#00bfbf;stroke-width:1.5;stroke-linecap:square;stroke-linejoin:round"
       id="path8269"
       inkscape:connector-curvature="0" />
  </g>
  <g
     id="line2d_12"
     style="stroke-linecap:square;stroke-linejoin:round">
    <path
       clip-path="url(#p7ff5b81e1d)"
       d="m 72,208.454 21.4272,0.108 21.8738,0.448 26.561,0.577 11.606,0.041 10.267,-0.162 10.714,-0.413 9.151,-0.582 9.374,-0.837 8.928,-1.03 9.821,-1.376 11.16,-1.81 12.499,-2.241 23.213,-4.425 24.106,-4.492 14.061,-2.392 13.169,-1.996 11.16,-1.443 9.821,-1.032 9.151,-0.741 9.598,-0.561 10.713,-0.389 11.384,-0.157 10.713,0.055 43.301,0.336 16.294,-0.278 22.32,-0.571 21.204,-0.493 17.632,-0.21 15.178,-0.031 0,0"
       style="fill:none;stroke:#bf00bf;stroke-width:1.5;stroke-linecap:square;stroke-linejoin:round"
       id="path8272"
       inkscape:connector-curvature="0" />
  </g>
  <g
     id="line2d_13"
     style="stroke-linecap:square;stroke-linejoin:round">
    <path
       clip-path="url(#p7ff5b81e1d)"
       d="m 72,255.224 27.0072,-0.11 11.6068,-0.259 10.267,-0.453 8.481,-0.589 8.482,-0.833 7.142,-0.921 7.589,-1.228 6.696,-1.316 6.473,-1.496 6.473,-1.729 6.249,-1.898 6.473,-2.204 6.25,-2.355 6.696,-2.759 7.142,-3.179 8.928,-4.244 12.499,-6.252 31.918,-16.102 10.714,-5.105 10.713,-4.828 8.705,-3.677 7.142,-2.793 6.696,-2.371 6.696,-2.133 6.696,-1.894 6.25,-1.547 6.473,-1.375 6.696,-1.183 7.142,-1.013 7.366,-0.806 7.812,-0.621 7.812,-0.397 8.258,-0.188 8.482,0.023 10.713,0.247 37.944,1.065 18.526,0.177 20.758,-0.002 48.434,-0.193 0,0"
       style="fill:none;stroke:#bfbf00;stroke-width:1.5;stroke-linecap:square;stroke-linejoin:round"
       id="path8275"
       inkscape:connector-curvature="0" />
  </g>
  <g
     id="line2d_14"
     style="stroke-linecap:square;stroke-linejoin:round">
    <path
       clip-path="url(#p7ff5b81e1d)"
       d="m 72,288.632 14.9544,-0.109 8.4816,-0.29 7.366,-0.472 6.696,-0.65 6.249,-0.824 6.027,-1.016 5.803,-1.2 5.58,-1.374 5.58,-1.601 5.58,-1.839 5.357,-1.993 5.58,-2.321 5.356,-2.469 6.027,-3.039 6.249,-3.398 6.473,-3.764 7.589,-4.689 8.482,-5.515 13.168,-8.867 45.31,-30.504 9.598,-6.06 8.704,-5.244 7.589,-4.34 6.919,-3.72 7.589,-3.812 7.366,-3.433 7.142,-3.072 6.473,-2.556 6.25,-2.24 6.249,-1.998 6.027,-1.689 5.803,-1.404 5.803,-1.197 6.25,-1.067 6.249,-0.842 6.027,-0.592 5.803,-0.355 6.249,-0.163 6.696,0.042 8.259,0.298 10.267,0.611 38.837,2.496 17.633,0.753 15.177,0.4 13.392,0.166 20.535,0.049 11.606,-0.001 0,0"
       style="fill:none;stroke:#000000;stroke-width:1.5;stroke-linecap:square;stroke-linejoin:round"
       id="path8278"
       inkscape:connector-curvature="0" />
  </g>
  <g
     id="line2d_15"
     style="stroke-linecap:square;stroke-linejoin:round">
    <path
       clip-path="url(#p7ff5b81e1d)"
       d="m 72,304.172 13.8384,-0.108 7.812,-0.287 6.9196,-0.474 6.249,-0.647 6.027,-0.849 5.803,-1.048 5.58,-1.237 5.357,-1.414 5.356,-1.646 5.357,-1.887 5.134,-2.04 5.357,-2.373 5.133,-2.511 5.357,-2.872 5.357,-3.13 5.357,-3.387 5.58,-3.793 6.249,-4.516 7.143,-5.463 8.258,-6.64 10.49,-8.751 18.972,-15.87 9.821,-7.89 8.705,-6.693 8.482,-6.211 8.035,-5.591 7.589,-5.02 7.812,-4.909 8.035,-4.786 7.589,-4.283 8.481,-4.516 7.366,-3.68 7.142,-3.329 6.696,-2.875 6.25,-2.448 6.249,-2.212 6.25,-1.987 6.919,-1.958 6.473,-1.611 6.919,-1.477 6.25,-1.097 6.249,-0.86 6.027,-0.609 6.696,-0.446 7.589,-0.261 8.481,-0.043 8.928,0.177 10.044,0.418 10.267,0.639 30.579,2.101 10.937,0.456 12.052,0.294 13.169,0.128 17.633,0.023 0,0"
       style="fill:none;stroke:#0000ff;stroke-width:1.5;stroke-linecap:square;stroke-linejoin:round"
       id="path8281"
       inkscape:connector-curvature="0" />
  </g>
  <g
     id="line2d_16"
     style="stroke-linecap:square;stroke-linejoin:round">
    <path
       clip-path="url(#p7ff5b81e1d)"
       d="m 72,278.639 12.4992,-0.109 7.1424,-0.293 6.2496,-0.476 5.8028,-0.664 5.58,-0.868 5.357,-1.065 5.134,-1.25 4.91,-1.414 4.911,-1.64 4.91,-1.871 5.134,-2.209 5.133,-2.466 5.134,-2.72 5.133,-2.971 5.357,-3.36 5.58,-3.775 6.027,-4.378 6.249,-4.845 6.473,-5.315 6.696,-5.772 8.482,-7.628 12.499,-11.6 15.177,-13.993 8.705,-7.719 8.259,-7.018 8.035,-6.513 7.365,-5.701 8.036,-5.943 8.258,-5.836 8.035,-5.423 8.928,-5.497 8.482,-4.971 8.481,-4.715 8.259,-4.308 7.142,-3.452 6.696,-2.974 6.25,-2.544 7.142,-2.652 6.919,-2.336 7.143,-2.172 6.473,-1.741 6.249,-1.451 6.25,-1.215 6.473,-1.027 6.919,-0.874 8.035,-0.785 9.821,-0.701 10.044,-0.489 10.044,-0.278 10.044,-0.05 10.713,0.193 16.071,0.565 18.749,0.617 13.838,0.214 18.972,0.045 0,0"
       style="fill:none;stroke:#008000;stroke-width:1.5;stroke-linecap:square;stroke-linejoin:round"
       id="path8284"
       inkscape:connector-curvature="0" />
  </g>
  <g
     id="line2d_17"
     style="stroke-linecap:square;stroke-linejoin:round">
    <path
       clip-path="url(#p7ff5b81e1d)"
       d="m 72,275.58 12.9456,-0.109 6.9192,-0.266 6.9192,-0.504 5.803,-0.648 5.58,-0.844 5.357,-1.037 5.134,-1.219 5.133,-1.452 4.911,-1.619 4.91,-1.851 4.91,-2.088 5.134,-2.423 6.026,-3.094 5.804,-3.217 6.249,-3.72 5.357,-3.456 5.58,-3.872 5.58,-4.131 6.25,-4.91 6.472,-5.364 7.589,-6.583 10.267,-9.236 14.062,-12.688 15.624,-11.424 16.963,-12.339 19.195,-13.637 22.097,-15.433 12.723,-8.667 9.597,-6.282 8.035,-4.993 7.589,-4.455 8.035,-4.46 9.152,-4.814 8.258,-4.121 1.786,-0.755 6.472,-2.321 6.027,-1.94 6.249,-1.791 6.92,-1.761 8.928,-2.008 9.597,-1.9218 10.044,-1.8052 10.714,-1.6859 8.928,-1.1607 7.812,-0.8 8.035,-0.6169 9.598,-0.5086 12.052,-0.3883 16.74,-0.2782 22.99,-0.1273 3.348,0 0,0"
       style="fill:none;stroke:#ff0000;stroke-width:1.5;stroke-linecap:square;stroke-linejoin:round"
       id="path8287"
       inkscape:connector-curvature="0" />
  </g>
  <g
     id="line2d_18"
     style="stroke-linecap:square;stroke-linejoin:round">
    <path
       clip-path="url(#p7ff5b81e1d)"
       d="m 72,252.453 12.4992,-0.109 7.1424,-0.288 6.0264,-0.446 6.026,-0.668 5.58,-0.838 5.357,-1.02 5.357,-1.242 5.357,-1.474 5.357,-1.712 5.356,-1.954 5.357,-2.2 5.357,-2.444 5.357,-2.684 5.357,-2.924 5.803,-3.435 5.357,-3.411 6.026,-4.107 6.026,-4.372 6.473,-4.965 7.143,-5.757 8.258,-6.938 12.499,-10.79 15.178,-12.979 9.597,-7.883 8.482,-6.671 8.035,-6.04 7.812,-5.609 8.035,-5.51 8.036,-5.261 9.374,-5.847 8.928,-5.289 8.705,-4.886 7.812,-4.131 7.142,-3.525 6.473,-2.954 6.696,-2.8 6.696,-2.543 6.919,-2.382 7.143,-2.208 6.472,-1.773 6.25,-1.4836 6.25,-1.2431 6.249,-1.0045 6.473,-0.8116 7.366,-0.6877 8.258,-0.5305 9.598,-0.3612 10.49,-0.133 9.598,0.106 9.82,0.3369 12.276,0.6803 17.856,1.0443 12.053,0.4176 13.839,0.2108 19.418,0.0461 0,0"
       style="fill:none;stroke:#00bfbf;stroke-width:1.5;stroke-linecap:square;stroke-linejoin:round"
       id="path8290"
       inkscape:connector-curvature="0" />
  </g>
  <g
     id="line2d_19"
     style="stroke-linecap:square;stroke-linejoin:round">
    <path
       clip-path="url(#p7ff5b81e1d)"
       d="m 72,252.725 16.2936,-0.108 9.1512,-0.294 7.5892,-0.479 6.919,-0.679 6.249,-0.847 5.804,-1.009 5.803,-1.246 5.133,-1.314 5.134,-1.527 5.357,-1.831 5.357,-2.081 5.133,-2.234 5.134,-2.471 5.357,-2.834 5.356,-3.089 5.58,-3.481 5.804,-3.89 6.026,-4.31 6.696,-5.077 7.366,-5.875 10.044,-8.332 25.221,-21.073 7.812,-6.23 68.746,-45.643 9.821,-6.134 8.481,-5.017 8.705,-4.862 3.125,-1.58 7.142,-3.104 7.143,-2.869 6.472,-2.374 6.25,-2.062 6.473,-1.8887 6.919,-1.7608 7.366,-1.6347 8.928,-1.7309 9.597,-1.6226 9.821,-1.4348 9.821,-1.1837 8.258,-0.7632 8.482,-0.5477 8.705,-0.3416 10.936,-0.201 17.856,-0.0743 33.034,-0.0467 0,0"
       style="fill:none;stroke:#bf00bf;stroke-width:1.5;stroke-linecap:square;stroke-linejoin:round"
       id="path8293"
       inkscape:connector-curvature="0" />
  </g>
  <g
     id="line2d_20"
     style="stroke-linecap:square;stroke-linejoin:round">
    <path
       clip-path="url(#p7ff5b81e1d)"
       d="m 72,264.548 29.016,0.109 21.65,0.334 29.686,0.502 12.722,-0.009 10.491,-0.216 9.821,-0.415 9.82,-0.639 8.705,-0.763 9.598,-1.05 10.267,-1.355 10.49,-1.601 13.616,-2.326 8.035,-1.354 17.409,2.855 14.285,2.137 13.839,1.855 12.722,1.466 12.053,1.134 10.937,0.794 11.606,0.611 14.062,0.471 15.177,0.245 16.517,0.059 31.471,-0.109 64.282,-0.388 28.123,-0.022 0,0"
       style="fill:none;stroke:#bfbf00;stroke-width:1.5;stroke-linecap:square;stroke-linejoin:round"
       id="path8296"
       inkscape:connector-curvature="0" />
  </g>
  <g
     id="line2d_21"
     style="stroke-linecap:square;stroke-linejoin:round">
    <path
       clip-path="url(#p7ff5b81e1d)"
       d="m 72,234.203 20.3112,0.11 12.0528,0.294 11.83,0.535 10.936,0.731 10.491,0.919 10.937,1.182 11.829,1.516 13.615,2.008 16.071,2.64 24.552,4.356 32.141,5.777 17.632,2.984 15.401,2.393 13.615,1.891 13.616,1.645 11.829,1.203 11.383,0.92 10.491,0.621 10.49,0.407 11.607,0.22 12.499,-0.012 12.945,-0.243 17.187,-0.599 22.097,-1.08 34.372,-1.752 14.732,-0.537 16.74,-0.367 14.731,-0.12 10.267,-0.01 0,0"
       style="fill:none;stroke:#000000;stroke-width:1.5;stroke-linecap:square;stroke-linejoin:round"
       id="path8299"
       inkscape:connector-curvature="0" />
  </g>
  <g
     id="matplotlib.axis_1"
     style="stroke-linecap:square;stroke-linejoin:round">
    <g
       id="xtick_1"
       style="stroke-linecap:square;stroke-linejoin:round">
      <g
         id="line2d_22"
         style="stroke-linecap:square;stroke-linejoin:round">
        <defs
           id="defs8304">
          <path
             d="M 0,0 0,-4"
             id="mcb557df647"
             style="stroke:#000000;stroke-width:0.5;stroke-linecap:butt;stroke-linejoin:round"
             inkscape:connector-curvature="0" />
        </defs>
        <g
           id="g8307"
           style="stroke-linecap:square;stroke-linejoin:round">
          <use
             style="stroke:#000000;stroke-width:0.5;stroke-linecap:butt;stroke-linejoin:round"
             x="72"
             xlink:href="#mcb557df647"
             y="388.79999"
             id="use8309"
             width="576"
             height="432" />
        </g>
      </g>
      <g
         id="line2d_23"
         style="stroke-linecap:square;stroke-linejoin:round">
        <defs
           id="defs8312">
          <path
             d="M 0,0 0,4"
             id="mdad270ee8e"
             style="stroke:#000000;stroke-width:0.5;stroke-linecap:butt;stroke-linejoin:round"
             inkscape:connector-curvature="0" />
        </defs>
        <g
           id="g8315"
           style="stroke-linecap:square;stroke-linejoin:round">
          <use
             style="stroke:#000000;stroke-width:0.5;stroke-linecap:butt;stroke-linejoin:round"
             x="72"
             xlink:href="#mdad270ee8e"
             y="43.200001"
             id="use8317"
             width="576"
             height="432" />
        </g>
      </g>
      <g
         id="text_1"
         style="stroke-linecap:square;stroke-linejoin:round">
        <text
           style="font-size:12px;font-style:normal;stroke-linecap:square;stroke-linejoin:round;font-family:Bitstream Vera Sans"
           transform="translate(63.252187,401.705)"
           id="text8320">0.0</text>
      </g>
    </g>
    <g
       id="xtick_2"
       style="stroke-linecap:square;stroke-linejoin:round">
      <g
         id="line2d_24"
         style="stroke-linecap:square;stroke-linejoin:round">
        <g
           id="g8324"
           style="stroke-linecap:square;stroke-linejoin:round">
          <use
             style="stroke:#000000;stroke-width:0.5;stroke-linecap:butt;stroke-linejoin:round"
             x="183.60001"
             xlink:href="#mcb557df647"
             y="388.79999"
             id="use8326"
             width="576"
             height="432" />
        </g>
      </g>
      <g
         id="line2d_25"
         style="stroke-linecap:square;stroke-linejoin:round">
        <g
           id="g8329"
           style="stroke-linecap:square;stroke-linejoin:round">
          <use
             style="stroke:#000000;stroke-width:0.5;stroke-linecap:butt;stroke-linejoin:round"
             x="183.60001"
             xlink:href="#mdad270ee8e"
             y="43.200001"
             id="use8331"
             width="576"
             height="432" />
        </g>
      </g>
      <g
         id="text_2"
         style="stroke-linecap:square;stroke-linejoin:round">
        <text
           style="font-size:12px;font-style:normal;stroke-linecap:square;stroke-linejoin:round;font-family:Bitstream Vera Sans"
           transform="translate(174.97781,401.705)"
           id="text8334">0.5</text>
      </g>
    </g>
    <g
       id="xtick_3"
       style="stroke-linecap:square;stroke-linejoin:round">
      <g
         id="line2d_26"
         style="stroke-linecap:square;stroke-linejoin:round">
        <g
           id="g8338"
           style="stroke-linecap:square;stroke-linejoin:round">
          <use
             style="stroke:#000000;stroke-width:0.5;stroke-linecap:butt;stroke-linejoin:round"
             x="295.20001"
             xlink:href="#mcb557df647"
             y="388.79999"
             id="use8340"
             width="576"
             height="432" />
        </g>
      </g>
      <g
         id="line2d_27"
         style="stroke-linecap:square;stroke-linejoin:round">
        <g
           id="g8343"
           style="stroke-linecap:square;stroke-linejoin:round">
          <use
             style="stroke:#000000;stroke-width:0.5;stroke-linecap:butt;stroke-linejoin:round"
             x="295.20001"
             xlink:href="#mdad270ee8e"
             y="43.200001"
             id="use8345"
             width="576"
             height="432" />
        </g>
      </g>
      <g
         id="text_3"
         style="stroke-linecap:square;stroke-linejoin:round">
        <text
           style="font-size:12px;font-style:normal;stroke-linecap:square;stroke-linejoin:round;font-family:Bitstream Vera Sans"
           transform="translate(286.71562,401.705)"
           id="text8348">1.0</text>
      </g>
    </g>
    <g
       id="xtick_4"
       style="stroke-linecap:square;stroke-linejoin:round">
      <g
         id="line2d_28"
         style="stroke-linecap:square;stroke-linejoin:round">
        <g
           id="g8352"
           style="stroke-linecap:square;stroke-linejoin:round">
          <use
             style="stroke:#000000;stroke-width:0.5;stroke-linecap:butt;stroke-linejoin:round"
             x="406.79999"
             xlink:href="#mcb557df647"
             y="388.79999"
             id="use8354"
             width="576"
             height="432" />
        </g>
      </g>
      <g
         id="line2d_29"
         style="stroke-linecap:square;stroke-linejoin:round">
        <g
           id="g8357"
           style="stroke-linecap:square;stroke-linejoin:round">
          <use
             style="stroke:#000000;stroke-width:0.5;stroke-linecap:butt;stroke-linejoin:round"
             x="406.79999"
             xlink:href="#mdad270ee8e"
             y="43.200001"
             id="use8359"
             width="576"
             height="432" />
        </g>
      </g>
      <g
         id="text_4"
         style="stroke-linecap:square;stroke-linejoin:round">
        <text
           style="font-size:12px;font-style:normal;stroke-linecap:square;stroke-linejoin:round;font-family:Bitstream Vera Sans"
           transform="translate(398.44125,401.5475)"
           id="text8362">1.5</text>
      </g>
    </g>
    <g
       id="xtick_5"
       style="stroke-linecap:square;stroke-linejoin:round">
      <g
         id="line2d_30"
         style="stroke-linecap:square;stroke-linejoin:round">
        <g
           id="g8366"
           style="stroke-linecap:square;stroke-linejoin:round">
          <use
             style="stroke:#000000;stroke-width:0.5;stroke-linecap:butt;stroke-linejoin:round"
             x="518.40002"
             xlink:href="#mcb557df647"
             y="388.79999"
             id="use8368"
             width="576"
             height="432" />
        </g>
      </g>
      <g
         id="line2d_31"
         style="stroke-linecap:square;stroke-linejoin:round">
        <g
           id="g8371"
           style="stroke-linecap:square;stroke-linejoin:round">
          <use
             style="stroke:#000000;stroke-width:0.5;stroke-linecap:butt;stroke-linejoin:round"
             x="518.40002"
             xlink:href="#mdad270ee8e"
             y="43.200001"
             id="use8373"
             width="576"
             height="432" />
        </g>
      </g>
      <g
         id="text_5"
         style="stroke-linecap:square;stroke-linejoin:round">
        <text
           style="font-size:12px;font-style:normal;stroke-linecap:square;stroke-linejoin:round;font-family:Bitstream Vera Sans"
           transform="translate(509.69625,401.705)"
           id="text8376">2.0</text>
      </g>
    </g>
    <g
       id="text_6"
       style="stroke-linecap:square;stroke-linejoin:round">
      <text
         style="font-size:12px;font-style:normal;stroke-linecap:square;stroke-linejoin:round;font-family:Bitstream Vera Sans"
         transform="translate(285.71719,415.98625)"
         id="text8379">t(s)</text>
    </g>
  </g>
  <g
     id="line2d_32"
     style="stroke-linecap:square;stroke-linejoin:round">
    <path
       clip-path="url(#p7ff5b81e1d)"
       d="m 72,388.8 446.4,0"
       style="fill:none;stroke:#d3d3d3;stroke-width:0.5;stroke-linecap:square;stroke-linejoin:round"
       id="path8384"
       inkscape:connector-curvature="0" />
  </g>
  <g
     id="line2d_33"
     style="stroke-linecap:square;stroke-linejoin:round">
    <defs
       id="defs8387">
      <path
         d="M 0,0 4,0"
         id="mc8fcea1516"
         style="stroke:#000000;stroke-width:0.5;stroke-linecap:butt;stroke-linejoin:round"
         inkscape:connector-curvature="0" />
    </defs>
    <g
       id="g8390"
       style="stroke-linecap:square;stroke-linejoin:round">
      <use
         style="stroke:#000000;stroke-width:0.5;stroke-linecap:butt;stroke-linejoin:round"
         x="72"
         xlink:href="#mc8fcea1516"
         y="388.79999"
         id="use8392"
         width="576"
         height="432" />
    </g>
  </g>
  <g
     id="line2d_34"
     style="stroke-linecap:square;stroke-linejoin:round">
    <defs
       id="defs8395">
      <path
         d="M 0,0 -4,0"
         id="m0d5b0a6425"
         style="stroke:#000000;stroke-width:0.5;stroke-linecap:butt;stroke-linejoin:round"
         inkscape:connector-curvature="0" />
    </defs>
    <g
       id="g8398"
       style="stroke-linecap:square;stroke-linejoin:round">
      <use
         style="stroke:#000000;stroke-width:0.5;stroke-linecap:butt;stroke-linejoin:round"
         x="518.40002"
         xlink:href="#m0d5b0a6425"
         y="388.79999"
         id="use8400"
         width="576"
         height="432" />
    </g>
  </g>
  <g
     id="text_7"
     style="stroke-linecap:square;stroke-linejoin:round">
    <text
       style="font-size:12px;font-style:normal;stroke-linecap:square;stroke-linejoin:round;font-family:Bitstream Vera Sans"
       transform="translate(46.281875,393.16656)"
       id="text8403">-0.1</text>
  </g>
  <g
     id="line2d_35"
     style="stroke-linecap:square;stroke-linejoin:round">
    <path
       clip-path="url(#p7ff5b81e1d)"
       d="m 72,331.2 446.4,0"
       style="fill:none;stroke:#d3d3d3;stroke-width:0.5;stroke-linecap:square;stroke-linejoin:round"
       id="path8407"
       inkscape:connector-curvature="0" />
  </g>
  <g
     id="line2d_36"
     style="stroke-linecap:square;stroke-linejoin:round">
    <g
       id="g8410"
       style="stroke-linecap:square;stroke-linejoin:round">
      <use
         style="stroke:#000000;stroke-width:0.5;stroke-linecap:butt;stroke-linejoin:round"
         x="72"
         xlink:href="#mc8fcea1516"
         y="331.20001"
         id="use8412"
         width="576"
         height="432" />
    </g>
  </g>
  <g
     id="line2d_37"
     style="stroke-linecap:square;stroke-linejoin:round">
    <g
       id="g8415"
       style="stroke-linecap:square;stroke-linejoin:round">
      <use
         style="stroke:#000000;stroke-width:0.5;stroke-linecap:butt;stroke-linejoin:round"
         x="518.40002"
         xlink:href="#m0d5b0a6425"
         y="331.20001"
         id="use8417"
         width="576"
         height="432" />
    </g>
  </g>
  <g
     id="text_8"
     style="stroke-linecap:square;stroke-linejoin:round">
    <text
       style="font-size:12px;font-style:normal;stroke-linecap:square;stroke-linejoin:round;font-family:Bitstream Vera Sans"
       transform="translate(50.504375,335.56656)"
       id="text8420">0.0</text>
  </g>
  <g
     id="line2d_38"
     style="stroke-linecap:square;stroke-linejoin:round">
    <path
       clip-path="url(#p7ff5b81e1d)"
       d="m 72,273.6 446.4,0"
       style="fill:none;stroke:#d3d3d3;stroke-width:0.5;stroke-linecap:square;stroke-linejoin:round"
       id="path8424"
       inkscape:connector-curvature="0" />
  </g>
  <g
     id="line2d_39"
     style="stroke-linecap:square;stroke-linejoin:round">
    <g
       id="g8427"
       style="stroke-linecap:square;stroke-linejoin:round">
      <use
         style="stroke:#000000;stroke-width:0.5;stroke-linecap:butt;stroke-linejoin:round"
         x="72"
         xlink:href="#mc8fcea1516"
         y="273.60001"
         id="use8429"
         width="576"
         height="432" />
    </g>
  </g>
  <g
     id="line2d_40"
     style="stroke-linecap:square;stroke-linejoin:round">
    <g
       id="g8432"
       style="stroke-linecap:square;stroke-linejoin:round">
      <use
         style="stroke:#000000;stroke-width:0.5;stroke-linecap:butt;stroke-linejoin:round"
         x="518.40002"
         xlink:href="#m0d5b0a6425"
         y="273.60001"
         id="use8434"
         width="576"
         height="432" />
    </g>
  </g>
  <g
     id="text_9"
     style="stroke-linecap:square;stroke-linejoin:round">
    <text
       style="font-size:12px;font-style:normal;stroke-linecap:square;stroke-linejoin:round;font-family:Bitstream Vera Sans"
       transform="translate(50.815625,277.96656)"
       id="text8437">0.1</text>
  </g>
  <g
     id="line2d_41"
     style="stroke-linecap:square;stroke-linejoin:round">
    <path
       clip-path="url(#p7ff5b81e1d)"
       d="m 72,216 446.4,0"
       style="fill:none;stroke:#d3d3d3;stroke-width:0.5;stroke-linecap:square;stroke-linejoin:round"
       id="path8441"
       inkscape:connector-curvature="0" />
  </g>
  <g
     id="line2d_42"
     style="stroke-linecap:square;stroke-linejoin:round">
    <g
       id="g8444"
       style="stroke-linecap:square;stroke-linejoin:round">
      <use
         style="stroke:#000000;stroke-width:0.5;stroke-linecap:butt;stroke-linejoin:round"
         x="72"
         xlink:href="#mc8fcea1516"
         y="216"
         id="use8446"
         width="576"
         height="432" />
    </g>
  </g>
  <g
     id="line2d_43"
     style="stroke-linecap:square;stroke-linejoin:round">
    <g
       id="g8449"
       style="stroke-linecap:square;stroke-linejoin:round">
      <use
         style="stroke:#000000;stroke-width:0.5;stroke-linecap:butt;stroke-linejoin:round"
         x="518.40002"
         xlink:href="#m0d5b0a6425"
         y="216"
         id="use8451"
         width="576"
         height="432" />
    </g>
  </g>
  <g
     id="text_10"
     style="stroke-linecap:square;stroke-linejoin:round">
    <text
       style="font-size:12px;font-style:normal;stroke-linecap:square;stroke-linejoin:round;font-family:Bitstream Vera Sans"
       transform="translate(50.909375,220.36656)"
       id="text8454">0.2</text>
  </g>
  <g
     id="line2d_44"
     style="stroke-linecap:square;stroke-linejoin:round">
    <path
       clip-path="url(#p7ff5b81e1d)"
       d="m 72,158.4 446.4,0"
       style="fill:none;stroke:#d3d3d3;stroke-width:0.5;stroke-linecap:square;stroke-linejoin:round"
       id="path8458"
       inkscape:connector-curvature="0" />
  </g>
  <g
     id="line2d_45"
     style="stroke-linecap:square;stroke-linejoin:round">
    <g
       id="g8461"
       style="stroke-linecap:square;stroke-linejoin:round">
      <use
         style="stroke:#000000;stroke-width:0.5;stroke-linecap:butt;stroke-linejoin:round"
         x="72"
         xlink:href="#mc8fcea1516"
         y="158.39999"
         id="use8463"
         width="576"
         height="432" />
    </g>
  </g>
  <g
     id="line2d_46"
     style="stroke-linecap:square;stroke-linejoin:round">
    <g
       id="g8466"
       style="stroke-linecap:square;stroke-linejoin:round">
      <use
         style="stroke:#000000;stroke-width:0.5;stroke-linecap:butt;stroke-linejoin:round"
         x="518.40002"
         xlink:href="#m0d5b0a6425"
         y="158.39999"
         id="use8468"
         width="576"
         height="432" />
    </g>
  </g>
  <g
     id="text_11"
     style="stroke-linecap:square;stroke-linejoin:round">
    <text
       style="font-size:12px;font-style:normal;stroke-linecap:square;stroke-linejoin:round;font-family:Bitstream Vera Sans"
       transform="translate(50.669375,162.76656)"
       id="text8471">0.3</text>
  </g>
  <g
     id="line2d_47"
     style="stroke-linecap:square;stroke-linejoin:round">
    <path
       clip-path="url(#p7ff5b81e1d)"
       d="m 72,100.8 446.4,0"
       style="fill:none;stroke:#d3d3d3;stroke-width:0.5;stroke-linecap:square;stroke-linejoin:round"
       id="path8475"
       inkscape:connector-curvature="0" />
  </g>
  <g
     id="line2d_48"
     style="stroke-linecap:square;stroke-linejoin:round">
    <g
       id="g8478"
       style="stroke-linecap:square;stroke-linejoin:round">
      <use
         style="stroke:#000000;stroke-width:0.5;stroke-linecap:butt;stroke-linejoin:round"
         x="72"
         xlink:href="#mc8fcea1516"
         y="100.8"
         id="use8480"
         width="576"
         height="432" />
    </g>
  </g>
  <g
     id="line2d_49"
     style="stroke-linecap:square;stroke-linejoin:round">
    <g
       id="g8483"
       style="stroke-linecap:square;stroke-linejoin:round">
      <use
         style="stroke:#000000;stroke-width:0.5;stroke-linecap:butt;stroke-linejoin:round"
         x="518.40002"
         xlink:href="#m0d5b0a6425"
         y="100.8"
         id="use8485"
         width="576"
         height="432" />
    </g>
  </g>
  <g
     id="text_12"
     style="stroke-linecap:square;stroke-linejoin:round">
    <text
       style="font-size:12px;font-style:normal;stroke-linecap:square;stroke-linejoin:round;font-family:Bitstream Vera Sans"
       transform="translate(50.380625,105.16656)"
       id="text8488">0.4</text>
  </g>
  <g
     id="line2d_50"
     style="stroke-linecap:square;stroke-linejoin:round">
    <path
       clip-path="url(#p7ff5b81e1d)"
       d="m 72,43.2 446.4,0"
       style="fill:none;stroke:#d3d3d3;stroke-width:0.5;stroke-linecap:square;stroke-linejoin:round"
       id="path8492"
       inkscape:connector-curvature="0" />
  </g>
  <g
     id="line2d_51"
     style="stroke-linecap:square;stroke-linejoin:round">
    <g
       id="g8495"
       style="stroke-linecap:square;stroke-linejoin:round">
      <use
         style="stroke:#000000;stroke-width:0.5;stroke-linecap:butt;stroke-linejoin:round"
         x="72"
         xlink:href="#mc8fcea1516"
         y="43.200001"
         id="use8497"
         width="576"
         height="432" />
    </g>
  </g>
  <g
     id="line2d_52"
     style="stroke-linecap:square;stroke-linejoin:round">
    <g
       id="g8500"
       style="stroke-linecap:square;stroke-linejoin:round">
      <use
         style="stroke:#000000;stroke-width:0.5;stroke-linecap:butt;stroke-linejoin:round"
         x="518.40002"
         xlink:href="#m0d5b0a6425"
         y="43.200001"
         id="use8502"
         width="576"
         height="432" />
    </g>
  </g>
  <g
     id="text_13"
     style="stroke-linecap:square;stroke-linejoin:round">
    <text
       style="font-size:12px;font-style:normal;stroke-linecap:square;stroke-linejoin:round;font-family:Bitstream Vera Sans"
       transform="translate(50.755625,47.566563)"
       id="text8505">0.5</text>
  </g>
  <g
     style="stroke-linecap:square;stroke-linejoin:round"
     id="text_14">
    <text
       id="text8508"
       transform="matrix(0,-1,1,0,41.281875,308.66406)"
       style="font-size:12px;font-style:normal;stroke-linecap:square;stroke-linejoin:round;font-family:Bitstream Vera Sans">Collision avoidance constraints (m)</text>
  </g>
  <g
     id="patch_3"
     style="stroke-linecap:square;stroke-linejoin:round">
    <path
       d="m 72,43.2 446.4,0"
       style="fill:none;stroke:#000000;stroke-linecap:square;stroke-linejoin:round"
       id="path8511"
       inkscape:connector-curvature="0" />
  </g>
  <g
     id="patch_4"
     style="stroke-linecap:square;stroke-linejoin:round">
    <path
       d="m 518.4,388.8 0,-345.6"
       style="fill:none;stroke:#000000;stroke-linecap:square;stroke-linejoin:round"
       id="path8514"
       inkscape:connector-curvature="0" />
  </g>
  <g
     id="patch_5"
     style="stroke-linecap:square;stroke-linejoin:round">
    <path
       d="m 72,388.8 446.4,0"
       style="fill:none;stroke:#000000;stroke-linecap:square;stroke-linejoin:round"
       id="path8517"
       inkscape:connector-curvature="0" />
  </g>
  <g
     id="patch_6"
     style="stroke-linecap:square;stroke-linejoin:round">
    <path
       d="M 72,388.8 72,43.2"
       style="fill:none;stroke:#000000;stroke-linecap:square;stroke-linejoin:round"
       id="path8520"
       inkscape:connector-curvature="0" />
  </g>
  <defs
     id="defs8522">
    <clipPath
       id="p7ff5b81e1d">
      <rect
         height="345.6"
         width="446.4"
         x="72.0"
         y="43.2"
         id="rect8525" />
    </clipPath>
  </defs>
</svg>
